<svg height="501pt" viewBox="0 -30 501.80774 501" width="501pt" xmlns="http://www.w3.org/2000/svg"><path d="m471.578125 256.402344c0 121.910156-98.78125 185.378906-220.691406 185.378906-2.914063 0-5.914063 0-8.828125-.175781-117.847656-2.910157-211.859375-66.207031-211.859375-185.203125.34375-34.339844 7.390625-68.285156 20.742187-99.925782l74.59375-105.492187c32.074219-29.351563 73.082032-47.070313 116.4375-50.316406h.175782c2.914062-.175781 5.824218-.265625 8.738281-.265625 46.539062 1.078125 91.097656 19.058594 125.351562 50.582031l74.59375 105.492187c13.351563 31.640626 20.398438 65.585938 20.746094 99.925782zm0 0" fill="#46b29d"/><path d="m453.921875 256.402344c0 118.996094-94.015625 182.292968-211.863281 185.203125-117.847656-2.910157-211.859375-66.207031-211.859375-185.203125.34375-34.339844 7.390625-68.285156 20.742187-99.925782l74.59375-105.492187c32.074219-29.351563 73.082032-47.070313 116.4375-50.316406h.175782c43.355468 3.246093 84.363281 20.964843 116.433593 50.316406l74.59375 105.492187c13.355469 31.640626 20.402344 65.585938 20.746094 99.925782zm0 0" fill="#65ddb9"/><path d="m153.785156 88.679688-26.484375 35.308593c-29.574219-47.3125-92.601562-72.382812-119.347656-78.035156-2.070313-5.664063-4.425781-11.222656-7.0625-16.648437-1.277344-2.636719-1.175781-5.734376.269531-8.285157 1.445313-2.546875 4.050782-4.226562 6.96875-4.488281 112.886719-9.78125 145.65625 72.148438 145.65625 72.148438zm0 0" fill="#65ddb9"/><path d="m127.300781 123.988281-13.894531 18.539063c-8.855469 11.71875-22.914062 18.324218-37.589844 17.65625-64.917968-2.773438-71.21875-47.773438-63.273437-71.503906 2.976562-14.371094 1.371093-29.316407-4.589844-42.726563 26.746094 5.652344 89.773437 30.722656 119.347656 78.035156zm0 0" fill="#d75e72"/><path d="m339.164062 185.78125c0 48.730469-39.550781 70.621094-88.277343 70.621094-2.914063 0-5.824219-.085938-8.652344-.261719 44.492187-2.5625 79.273437-24.628906 79.273437-70.359375.386719-13.160156-3.183593-26.136719-10.238281-37.25 4.429688-1.8125 8.683594-4.027344 12.710938-6.621094 10.335937 12.230469 15.746093 27.871094 15.183593 43.871094zm0 0" fill="#e6e7e8"/><path d="m321.507812 185.78125c0 45.730469-34.78125 67.796875-79.273437 70.359375h-.351563c-44.492187-2.5625-79.273437-24.628906-79.273437-70.359375-.382813-13.160156 3.183594-26.136719 10.242187-37.25 1.460938-2.339844 3.113282-4.554688 4.941407-6.621094 9.414062 5.828125 19.738281 10.039063 30.546875 12.445313 11.046875 2.730469 22.347656 4.296875 33.71875 4.679687 2.914062.175782 5.828125.265625 8.828125.265625 14.332031.085938 28.621093-1.574219 42.550781-4.945312 6.089844-1.460938 12.050781-3.410157 17.832031-5.824219 7.054688 11.113281 10.625 24.089844 10.238281 37.25zm0 0" fill="#fff"/><path d="m500.917969 29.304688c-2.636719 5.425781-4.992188 10.984374-7.0625 16.648437-26.78125 5.652344-89.808594 30.722656-119.382813 78.035156l-26.480468-35.308593s32.765624-81.929688 145.652343-72.148438c2.925781.25 5.542969 1.925781 6.992188 4.476562 1.453125 2.550782 1.558593 5.652344.28125 8.296876zm0 0" fill="#65ddb9"/><path d="m489.230469 88.679688c7.945312 23.730468 1.644531 68.730468-63.273438 71.503906-14.675781.667968-28.734375-5.9375-37.589843-17.65625l-13.894532-18.539063c29.574219-47.3125 92.601563-72.382812 119.347656-78.035156-5.960937 13.410156-7.566406 28.355469-4.589843 42.726563zm0 0" fill="#d75e72"/><path d="m303.851562 185.78125c0 29.253906-23.710937 52.96875-52.964843 52.96875-29.25 0-52.964844-23.714844-52.964844-52.96875-.066406-11.332031 3.59375-22.375 10.417969-31.425781 27.980468 6.59375 57.113281 6.59375 85.097656 0 6.820312 9.050781 10.480469 20.09375 10.414062 31.425781zm0 0" fill="#f29c1f"/><path d="m277.371094 185.78125c0 14.628906-11.859375 26.484375-26.484375 26.484375s-26.484375-11.855469-26.484375-26.484375c0-14.625 11.859375-26.480469 26.484375-26.480469s26.484375 11.855469 26.484375 26.480469zm0 0" fill="#2c2f38"/><path d="m206.75 353.507812c0-14.625-23.714844-26.484374-52.964844-26.484374-29.253906 0-52.96875 11.859374-52.96875 26.484374s23.714844 26.480469 52.96875 26.480469c29.25 0 52.964844-11.855469 52.964844-26.480469zm0 0" fill="#fff"/><path d="m189.09375 353.507812c0-14.625-15.808594-26.484374-35.308594-26.484374-19.503906 0-35.3125 11.859374-35.3125 26.484374s15.808594 26.480469 35.3125 26.480469c19.5 0 35.308594-11.855469 35.308594-26.480469zm0 0" fill="#c03a2b"/><path d="m171.4375 353.507812c0-14.625-7.902344-26.484374-17.652344-26.484374-9.753906 0-17.65625 11.859374-17.65625 26.484374s7.902344 26.480469 17.65625 26.480469c9.75 0 17.652344-11.855469 17.652344-26.480469zm0 0" fill="#2c2f38"/><path d="m427.4375 318.195312c0-14.625-23.710938-26.480468-52.964844-26.480468-29.25 0-52.964844 11.855468-52.964844 26.480468 0 14.628907 23.714844 26.484376 52.964844 26.484376 29.253906 0 52.964844-11.855469 52.964844-26.484376zm0 0" fill="#fff"/><path d="m409.785156 318.195312c0-14.625-15.8125-26.480468-35.3125-26.480468s-35.308594 11.855468-35.308594 26.480468c0 14.628907 15.808594 26.484376 35.308594 26.484376s35.3125-11.855469 35.3125-26.484376zm0 0" fill="#f29c1f"/><path d="m392.128906 318.195312c0-14.625-7.90625-26.480468-17.65625-26.480468s-17.65625 11.855468-17.65625 26.480468c0 14.628907 7.90625 26.484376 17.65625 26.484376s17.65625-11.855469 17.65625-26.484376zm0 0" fill="#2c2f38"/><path d="m303.851562 88.679688c0-14.625-23.710937-26.484376-52.964843-26.484376-29.25 0-52.964844 11.859376-52.964844 26.484376s23.714844 26.484374 52.964844 26.484374c29.253906 0 52.964843-11.859374 52.964843-26.484374zm0 0" fill="#fff"/><path d="m286.199219 88.679688c0-14.625-15.8125-26.484376-35.3125-26.484376s-35.308594 11.859376-35.308594 26.484376 15.808594 26.484374 35.308594 26.484374 35.3125-11.859374 35.3125-26.484374zm0 0" fill="#c03a2b"/><path d="m268.542969 88.679688c0-14.625-7.90625-26.484376-17.65625-26.484376s-17.65625 11.859376-17.65625 26.484376 7.90625 26.484374 17.65625 26.484374 17.65625-11.859374 17.65625-26.484374zm0 0" fill="#2c2f38"/><path d="m136.128906 256.402344c0 8.210937-11.210937 15.097656-26.484375 17.039062-5.855469.824219-11.796875.824219-17.652343 0-15.273438-1.941406-26.484376-8.828125-26.484376-17.039062 0-8.207032 11.210938-15.09375 26.484376-17.035156 5.855468-.824219 11.796874-.824219 17.652343 0 15.273438 1.941406 26.484375 8.828124 26.484375 17.035156zm0 0" fill="#fff"/><path d="m312.679688 379.988281c0 8.210938-11.210938 15.097657-26.480469 17.039063-5.859375.824218-11.800781.824218-17.65625 0-15.273438-1.941406-26.484375-8.828125-26.484375-17.039063 0-7.324219 8.828125-13.503906 21.539062-16.152343h.089844c1.597656-.386719 3.21875-.683594 4.855469-.882813.789062-.132813 1.582031-.21875 2.382812-.265625 2.136719-.253906 4.289063-.371094 6.445313-.351562 2.953125-.023438 5.902344.183593 8.828125.617187 15.269531 1.941406 26.480469 8.828125 26.480469 17.035156zm0 0" fill="#fff"/><path d="m286.199219 309.371094c0 8.207031-11.214844 15.09375-26.484375 17.035156-5.855469.824219-11.800782.824219-17.65625 0-15.269532-1.941406-26.480469-8.828125-26.480469-17.035156 0-8.210938 11.210937-15.097656 26.480469-17.039063 5.855468-.824219 11.800781-.824219 17.65625 0 15.269531 1.941407 26.484375 8.828125 26.484375 17.039063zm0 0" fill="#fff"/><path d="m436.265625 229.921875c0 8.207031-11.210937 15.09375-26.480469 17.035156-5.859375.824219-11.800781.824219-17.65625 0-15.273437-1.941406-26.484375-8.828125-26.484375-17.035156 0-8.210937 11.210938-15.097656 26.484375-17.039063 5.855469-.824218 11.796875-.824218 17.65625 0 15.269532 1.941407 26.480469 8.828126 26.480469 17.039063zm0 0" fill="#fff"/><path d="m118.472656 256.402344c0 9.753906-7.902344 17.65625-17.65625 17.65625-9.75 0-17.652344-7.902344-17.652344-17.65625 0-9.75 7.902344-17.652344 17.652344-17.652344 9.753906 0 17.65625 7.902344 17.65625 17.652344zm0 0" fill="#f29c1f"/><path d="m268.542969 309.371094c0 9.75-7.90625 17.652344-17.65625 17.652344s-17.65625-7.902344-17.65625-17.652344c0-9.753906 7.90625-17.65625 17.65625-17.65625s17.65625 7.902344 17.65625 17.65625zm0 0" fill="#c03a2b"/><path d="m295.023438 379.988281c0 9.753907-7.902344 17.65625-17.652344 17.65625-9.753906 0-17.65625-7.902343-17.65625-17.65625 0-9.75 7.902344-17.652343 17.65625-17.652343 9.75 0 17.652344 7.902343 17.652344 17.652343zm0 0" fill="#f29c1f"/><path d="m418.609375 229.921875c0 9.75-7.902344 17.65625-17.652344 17.65625s-17.65625-7.90625-17.65625-17.65625 7.90625-17.65625 17.65625-17.65625 17.652344 7.90625 17.652344 17.65625zm0 0" fill="#c03a2b"/><path d="m109.644531 256.402344c0-9.75-3.953125-17.652344-8.828125-17.652344s-8.824218 7.902344-8.824218 17.652344c0 9.753906 3.949218 17.65625 8.824218 17.65625s8.828125-7.902344 8.828125-17.65625zm0 0" fill="#2c2f38"/><path d="m259.714844 309.371094c0-9.753906-3.953125-17.65625-8.828125-17.65625s-8.828125 7.902344-8.828125 17.65625c0 9.75 3.953125 17.652344 8.828125 17.652344s8.828125-7.902344 8.828125-17.652344zm0 0" fill="#2c2f38"/><path d="m286.199219 379.988281c0-9.75-3.953125-17.652343-8.828125-17.652343s-8.828125 7.902343-8.828125 17.652343c0 9.753907 3.953125 17.65625 8.828125 17.65625s8.828125-7.902343 8.828125-17.65625zm0 0" fill="#2c2f38"/><path d="m409.785156 229.921875c0-9.75-3.953125-17.65625-8.828125-17.65625s-8.828125 7.90625-8.828125 17.65625 3.953125 17.65625 8.828125 17.65625 8.828125-7.90625 8.828125-17.65625zm0 0" fill="#2c2f38"/><g fill="#fff"><path d="m233.230469 185.78125c0 9.753906-7.902344 17.65625-17.652344 17.65625-9.753906 0-17.65625-7.902344-17.65625-17.65625 0-9.75 7.902344-17.652344 17.65625-17.652344 9.75 0 17.652344 7.902344 17.652344 17.652344zm0 0"/><path d="m242.058594 79.851562c0 4.875-3.953125 8.828126-8.828125 8.828126s-8.828125-3.953126-8.828125-8.828126 3.953125-8.828124 8.828125-8.828124 8.828125 3.953124 8.828125 8.828124zm0 0"/><path d="m144.957031 344.679688c0 4.875-3.953125 8.828124-8.828125 8.828124s-8.828125-3.953124-8.828125-8.828124 3.953125-8.828126 8.828125-8.828126 8.828125 3.953126 8.828125 8.828126zm0 0"/><path d="m365.644531 309.371094c0 4.875-3.953125 8.824218-8.828125 8.824218s-8.824218-3.949218-8.824218-8.824218c0-4.878906 3.949218-8.828125 8.824218-8.828125s8.828125 3.949219 8.828125 8.828125zm0 0"/><path d="m277.371094 371.164062c0 4.875-3.953125 8.824219-8.828125 8.824219s-8.828125-3.949219-8.828125-8.824219c.027344-2.929687 1.476562-5.660156 3.882812-7.328124h.089844c1.597656-.386719 3.21875-.683594 4.855469-.882813.789062-.132813 1.582031-.21875 2.382812-.265625 3.800781 1.066406 6.433594 4.527344 6.445313 8.476562zm0 0"/><path d="m250.886719 300.542969c0 4.875-3.953125 8.828125-8.828125 8.828125s-8.828125-3.953125-8.828125-8.828125c.03125-2.929688 1.476562-5.660157 3.886719-7.328125h.085937c1.601563-.386719 3.222656-.683594 4.855469-.882813.789062-.132812 1.585937-.21875 2.382812-.265625 3.804688 1.066406 6.433594 4.527344 6.445313 8.476563zm0 0"/><path d="m100.816406 247.578125c0 4.875-3.949218 8.824219-8.824218 8.824219-4.878907 0-8.828126-3.949219-8.828126-8.824219.027344-2.929687 1.476563-5.660156 3.882813-7.328125h.089844c1.597656-.386719 3.21875-.683594 4.855469-.882812.789062-.132813 1.582031-.222657 2.382812-.265626 3.800781 1.066407 6.433594 4.527344 6.441406 8.476563zm0 0"/><path d="m400.957031 221.09375c0 4.875-3.953125 8.828125-8.828125 8.828125s-8.828125-3.953125-8.828125-8.828125c.027344-2.929688 1.476563-5.660156 3.882813-7.328125h.089844c1.601562-.386719 3.222656-.679687 4.855468-.882813.789063-.128906 1.585938-.21875 2.382813-.265624 3.800781 1.066406 6.433593 4.527343 6.445312 8.476562zm0 0"/></g></svg>