<svg height="512pt" viewBox="0 -3 512.00148 512" width="512pt" xmlns="http://www.w3.org/2000/svg"><path d="m135.152344 109.667969-80.15625 88.71875c-8.289063-3.890625-15.960938-8.976563-22.773438-15.09375-4.617187-4.265625-8.839844-8.933594-12.625-13.949219-12.804687-17.253906-19.6796872-38.1875-19.597656-59.675781v-1.058594c.0703125-6.734375.808594-13.449219 2.207031-20.039063 3.953125-21.578124 14.867188-41.265624 31.074219-56.054687 2.316406-2.074219 5.546875-2.789063 8.523438-1.886719 2.976562.902344 5.265624 3.289063 6.042968 6.300782 10.945313 39.902343 45.8125 71.945312 87.304688 72.738281zm0 0" fill="#fdd7ad"/><path d="m512 108.609375v1.058594c.082031 21.488281-6.792969 42.421875-19.597656 59.675781-3.78125 5.015625-8.007813 9.683594-12.621094 13.949219-6.816406 6.117187-14.488281 11.203125-22.777344 15.09375l-80.152344-88.71875c41.488282-.792969 76.359376-32.835938 87.304688-72.738281.773438-3.011719 3.066406-5.398438 6.042969-6.300782 2.972656-.902344 6.203125-.1875 8.523437 1.886719 16.203125 14.789063 27.117188 34.476563 31.070313 56.054687 1.398437 6.589844 2.136719 13.304688 2.207031 20.039063zm0 0" fill="#fdd7ad"/><path d="m512 365.667969c0 121.910156-114.582031 141.242187-256 141.242187-3 0-5.914062 0-8.828125-.085937-137.355469-.796875-247.171875-21.804688-247.171875-141.15625 0-51.550781 20.480469-113.257813 54.996094-167.28125 21.25-34.089844 48.390625-64.128907 80.15625-88.71875 14.394531-10.9375 29.96875-20.234375 46.433594-27.71875 3.527343-1.585938 7.058593-3 10.679687-4.324219l89.421875-6.53125 13.597656-.972656c122.789063 28.601562 216.714844 185.117187 216.714844 295.546875zm0 0" fill="#894b9d"/><path d="m494.34375 365.667969c0 119.351562-109.8125 140.359375-247.171875 141.15625-137.355469-.796875-247.171875-21.804688-247.171875-141.15625 0-51.550781 20.480469-113.257813 54.996094-167.28125 21.25-34.089844 48.390625-64.128907 80.15625-88.71875 14.394531-10.9375 29.96875-20.234375 46.433594-27.71875 3.527343-1.585938 7.058593-3 10.679687-4.324219l89.421875-6.53125c120.761719 31.074219 212.65625 185.378906 212.65625 294.574219zm0 0" fill="#955ba5"/><path d="m214.574219 105.257812c-19.042969-14.929687-30.222657-37.734374-30.359375-61.925781-.046875-1.890625 1.117187-3.601562 2.894531-4.25 1.773437-.652343 3.765625-.101562 4.953125 1.371094 9.117188 12.558594 22.59375 21.261719 37.789062 24.40625 1.582032.238281 3.167969-.398437 4.144532-1.664063.976562-1.261718 1.195312-2.953124.570312-4.425781-4.863281-10.964843-10.070312-33.746093 14.25-57.503906 1.242188-1.21875 3.085938-1.597656 4.707032-.960937 1.621093.640624 2.714843 2.171874 2.796874 3.910156.300782 9.53125 1.859376 18.984375 4.632813 28.109375.578125 1.472656 1.914063 2.515625 3.480469 2.722656 1.570312.210937 3.128906-.449219 4.074218-1.71875 9.304688-14.351563 27.308594-20.351563 43.363282-14.449219 1.363281.46875 2.414062 1.570313 2.808594 2.957032.398437 1.386718.09375 2.878906-.8125 4-7.777344 9.382812-23.792969 32.351562-16.925782 55.613281 1.316406 5.085937.324219 10.496093-2.71875 14.785156-3.039062 4.285156-7.816406 7.011719-13.054687 7.449219l-53.804688 5.378906c-4.597656.472656-9.199219-.894531-12.789062-3.804688zm0 0" fill="#894b9d"/><g fill="#7f6e5d"><path d="m68.0625 124.765625c-15.050781 15.839844-26.546875 34.710937-33.722656 55.347656-.429688 1.21875-1.160156 2.3125-2.117188 3.179688-4.617187-4.265625-8.839844-8.933594-12.625-13.949219 7.90625-21.3125 20.140625-40.757812 35.929688-57.113281 3.460937-3.460938 9.074218-3.460938 12.535156 0 3.460938 3.460937 3.460938 9.074219 0 12.535156zm0 0"/><path d="m38.136719 91.574219c-11.53125 3.804687-22.535157 9.054687-32.75 15.625-1.421875.996093-3.121094 1.519531-4.855469 1.5-.183594.011719-.363281-.015625-.53125-.089844.0703125-6.734375.808594-13.449219 2.207031-20.039063 9.570313-5.660156 19.722657-10.277343 30.277344-13.769531 2.996094-1.007812 6.304687-.34375 8.675781 1.746094 2.375 2.089844 3.449219 5.289063 2.824219 8.386719-.621094 3.097656-2.851563 5.628906-5.847656 6.640625zm0 0"/><path d="m492.402344 169.34375c-3.78125 5.015625-8.007813 9.683594-12.621094 13.949219-.960938-.867188-1.6875-1.960938-2.121094-3.179688-7.175781-20.636719-18.671875-39.507812-33.71875-55.347656-3.460937-3.460937-3.460937-9.074219 0-12.535156 3.460938-3.460938 9.074219-3.460938 12.535156 0 15.789063 16.355469 28.019532 35.800781 35.925782 57.113281zm0 0"/><path d="m512 108.609375c-.167969.074219-.347656.101563-.527344.089844-1.738281.019531-3.433594-.503907-4.855468-1.5-10.214844-6.570313-21.21875-11.820313-32.75-15.625-2.996094-1.011719-5.226563-3.542969-5.851563-6.640625s.453125-6.296875 2.824219-8.386719 5.679687-2.753906 8.675781-1.746094c10.554687 3.492188 20.707031 8.109375 30.277344 13.769531 1.398437 6.589844 2.136719 13.304688 2.207031 20.039063zm0 0"/></g><path d="m335.449219 215.601562c-.613281 11.710938-4.667969 22.976563-11.652344 32.394532-9.859375 14.5-23.722656 25.816406-39.902344 32.574218-17.832031 7.535157-37.953125 7.535157-55.789062 0-16.179688-6.757812-30.042969-18.074218-39.902344-32.574218-.085937-.085938 0-.085938 0-.085938-6.980469-9.386718-11.035156-20.625-11.652344-32.308594 0-29.21875 35.578125-35.3125 79.449219-35.3125 43.875 0 79.449219 6.09375 79.449219 35.3125zm0 0" fill="#d75e72"/><path d="m323.796875 247.996094c-9.859375 14.5-23.722656 25.816406-39.902344 32.574218-6.5-4.945312-10.292969-12.664062-10.238281-20.832031-.03125-12.300781 8.429688-22.992187 20.402344-25.796875 11.976562-2.804687 24.304687 3.023438 29.738281 14.054688zm0 0" fill="#802d40"/><path d="m238.34375 259.738281c.054688 8.167969-3.738281 15.886719-10.238281 20.832031-16.179688-6.757812-30.042969-18.074218-39.902344-32.574218-.085937-.085938 0-.085938 0-.085938 5.507813-10.949218 17.8125-16.6875 29.742187-13.875 11.925782 2.816406 20.367188 13.445313 20.398438 25.703125zm0 0" fill="#802d40"/><path d="m114.757812 215.601562c-.722656-.003906-1.441406-.089843-2.144531-.265624-4.726562-1.179688-7.605469-5.96875-6.425781-10.699219 19.316406-77.230469 105.773438-68.484375 106.644531-68.429688 4.8125.570313 8.261719 4.910157 7.734375 9.726563s-4.835937 8.304687-9.65625 7.820312c-2.941406-.324218-72.058594-6.980468-87.589844 55.15625-.980468 3.929688-4.507812 6.691406-8.5625 6.691406zm0 0" fill="#3d324c"/><path d="m397.242188 215.601562c-4.046876-.007812-7.574219-2.765624-8.554688-6.691406-15.527344-62.148437-84.664062-55.480468-87.585938-55.15625-4.820312.484375-9.128906-3.003906-9.65625-7.820312-.53125-4.816406 2.921876-9.15625 7.730469-9.726563.882813-.117187 87.332031-8.828125 106.636719 68.429688 1.179688 4.730469-1.695312 9.519531-6.425781 10.699219-.703125.175781-1.421875.261718-2.144531.265624zm0 0" fill="#3d324c"/><path d="m406.070312 418.636719c0 44.753906-36.195312 71.324219-88.277343 82.359375-20.339844 4.09375-41.046875 6.074218-61.792969 5.914062-20.652344.144532-41.269531-1.808594-61.527344-5.824218-52.171875-11.035157-88.539062-37.695313-88.539062-82.449219 0-30.542969 16.859375-63.738281 44.136718-89.25 15.355469-14.390625 33.335938-25.6875 52.964844-33.277344 34.078125-13.183594 71.851563-13.183594 105.929688 0 19.628906 7.589844 37.613281 18.886719 52.96875 33.277344 27.277344 25.511719 44.136718 58.707031 44.136718 89.25zm0 0" fill="#802d40"/><path d="m317.792969 427.460938v73.535156c-20.339844 4.09375-41.046875 6.074218-61.792969 5.914062-20.652344.144532-41.269531-1.808594-61.527344-5.824218v-69.828126c-.175781-1.257812-.265625-2.523437-.265625-3.796874 0-17.0625 13.832031-30.894532 30.898438-30.894532 17.0625 0 30.894531 13.832032 30.894531 30.894532 0-17.0625 13.832031-30.894532 30.898438-30.894532 17.0625 0 30.894531 13.832032 30.894531 30.894532zm0 0" fill="#ff5364"/><path d="m256 286.222656v44.136719c0 14.625-11.855469 26.484375-26.480469 26.484375-14.628906 0-26.484375-11.859375-26.484375-26.484375v-34.25c2.914063-1.058594 5.828125-2.121094 8.828125-3.003906 11.449219-3.65625 23.3125-5.847657 35.308594-6.53125 2.914063-.265625 5.828125-.351563 8.828125-.351563zm0 0" fill="#f9eab0"/><path d="m247.171875 286.574219v43.785156c0 14.652344-7.855469 26.484375-17.652344 26.484375-9.800781 0-17.65625-11.832031-17.65625-26.484375v-37.253906c11.449219-3.65625 23.3125-5.847657 35.308594-6.53125zm0 0" fill="#f5efca"/><path d="m203.035156 296.109375v34.25c0 14.625-11.855468 26.484375-26.484375 26.484375-14.625 0-26.480469-11.859375-26.480469-26.484375v-.972656c2.824219-2.648438 5.738282-5.207031 8.828126-7.589844 10.765624-8.828125 22.636718-16.21875 35.308593-21.980469 2.914063-1.324218 5.828125-2.558594 8.828125-3.707031zm0 0" fill="#f9eab0"/><path d="m194.207031 299.816406v30.542969c0 14.652344-7.855469 26.484375-17.65625 26.484375-9.796875 0-17.652343-11.832031-17.652343-26.484375v-8.5625c10.765624-8.828125 22.636718-16.21875 35.308593-21.980469zm0 0" fill="#f5efca"/><path d="m361.933594 329.386719v.972656c0 14.625-11.859375 26.484375-26.484375 26.484375s-26.484375-11.859375-26.484375-26.484375v-34.25c3.003906 1.148437 5.914062 2.382813 8.828125 3.707031 12.675781 5.761719 24.546875 13.152344 35.3125 21.980469 3.089843 2.382813 6 4.941406 8.828125 7.589844zm0 0" fill="#f9eab0"/><path d="m353.105469 321.796875v8.5625c0 14.652344-7.859375 26.484375-17.65625 26.484375s-17.65625-11.832031-17.65625-26.484375v-30.542969c12.675781 5.761719 24.546875 13.152344 35.3125 21.980469zm0 0" fill="#f5efca"/><path d="m308.964844 296.109375v34.25c0 14.625-11.855469 26.484375-26.480469 26.484375s-26.484375-11.859375-26.484375-26.484375v-44.136719c3.003906 0 5.914062.085938 8.828125.351563 12 .683593 23.863281 2.875 35.308594 6.53125 3.003906.882812 5.917969 1.945312 8.828125 3.003906zm0 0" fill="#f9eab0"/><path d="m300.136719 293.105469v37.253906c0 14.652344-7.855469 26.484375-17.652344 26.484375-9.800781 0-17.65625-11.832031-17.65625-26.484375v-43.785156c12 .683593 23.863281 2.875 35.308594 6.53125zm0 0" fill="#f5efca"/></svg>