<svg height="504pt" viewBox="-1 0 504 504.14825" width="504pt" xmlns="http://www.w3.org/2000/svg"><path d="m430.054688 503.320312c3.820312.347657 7.550781.609376 11.109374.695313-8.511718.308594-17.03125.078125-25.515624-.695313-104.132813-8.675781-38.09375-84.609374-26.03125-138.847656 5.3125-19.382812 4.1875-39.972656-3.210938-58.660156-3.667969-8.441406-9.082031-16.015625-15.882812-22.214844-4.277344-3.847656-6.375-9.566406-5.589844-15.269531.78125-5.699219 4.335937-10.644531 9.496094-13.195313l75.585937-37.230468c.691406 1.996094 1.386719 3.992187 2.167969 6.074218l-63.347656 31.15625c-5.160157 2.550782-8.714844 7.496094-9.5 13.195313-.78125 5.703125 1.3125 11.421875 5.59375 15.269531 6.773437 6.222656 12.183593 13.789063 15.878906 22.214844 7.402344 18.6875 8.527344 39.277344 3.210937 58.660156-12.0625 54.238282-78.101562 130.171875 26.035157 138.847656zm0 0" fill="#f29c1f"/><path d="m502.515625 469.824219c-.171875.78125-.433594 1.648437-.605469 2.429687-4.339844 14.058594-18.574218 30.375-60.746094 31.761719-3.558593-.085937-7.289062-.347656-11.109374-.695313-104.136719-8.675781-38.097657-84.609374-26.035157-138.847656 5.316407-19.382812 4.191407-39.972656-3.210937-58.660156-3.695313-8.425781-9.105469-15.992188-15.878906-22.214844-4.28125-3.847656-6.375-9.566406-5.59375-15.269531.785156-5.699219 4.339843-10.644531 9.5-13.195313l61.527343-46.863281c19.785157 57.449219 39.570313 153.167969 8.675781 199.59375-35.230468 52.851563-6.855468 73.9375 17.789063 68.644531 7.015625-1.484374 13.386719-5.125 18.226563-10.414062 1.308593-1.429688 3.40625-1.816406 5.136718-.949219 1.734375.867188 2.683594 2.777344 2.324219 4.679688zm0 0" fill="#f0c419"/><path d="m198.066406 249.925781c-4.5-1.878906-9.585937-1.777343-14.011718.28125-4.421876 2.058594-7.777344 5.882813-9.234376 10.539063-6.289062 19.859375-9.273437 40.617187-8.835937 61.441406.085937 37.789062 18.824219 73.101562 50.070313 94.355469 59.878906 41.921875 41.25 67.3125 23.953124 79.019531-1.550781 1.105469-2.199218 3.089844-1.601562 4.898438.597656 1.804687 2.304688 3.011718 4.203125 2.972656 35.660156-1.136719 109.066406-11.28125 68.90625-78.214844-29.160156-48.507812-44.691406-75.324219-46.6875-95.628906-.953125-9.507813 1.507813-19.042969 6.941406-26.902344 2.761719-4.304688 3.476563-9.613281 1.949219-14.496094-1.527344-4.882812-5.140625-8.835937-9.863281-10.800781zm0 0" fill="#f29c1f"/><path d="m214.867188 249.925781c-7.289063-3.929687-15.621094 1.050781-17.945313 10.820313-4.890625 20.105468-7.1875 40.753906-6.828125 61.441406.804688 32.367188 9.785156 68.207031 38.675781 94.328125 46.253907 41.925781 31.855469 67.316406 18.492188 79.023437-2.777344 2.429688-1.363281 8.007813 1.988281 7.871094 27.550781-1.113281 84.253906-11.257812 53.238281-78.191406-22.519531-48.507812-34.511719-75.324219-36.054687-95.628906-.777344-9.292969 1.082031-18.617188 5.363281-26.902344 4.574219-8.773438 1.960937-19.582031-6.121094-25.296875zm0 0" fill="#f0c419"/><path d="m86.929688 503.320312c-8.484376.773438-17.003907 1.003907-25.515626.695313 3.296876-.171875 6.597657-.347656 10.066407-.695313 104.136719-8.675781 38.097656-84.609374 26.121093-138.847656-5.640624-25.25-7.203124-38.09375-1.128906-52.066406 2.824219-7.871094 6.769532-15.296875 11.714844-22.042969 2.917969-3.8125 4.125-8.664062 3.335938-13.398437-.789063-4.734375-3.503907-8.933594-7.5-11.59375l-55.105469-36.707032c.957031-2.890624 1.910156-5.667968 2.863281-8.332031l67.691406 45.039063c3.992188 2.660156 6.710938 6.859375 7.5 11.59375.789063 4.734375-.417968 9.585937-3.335937 13.398437-4.945313 6.746094-8.890625 14.171875-11.714844 22.042969-6.074219 13.972656-4.511719 26.816406 1.128906 52.066406 11.972657 54.238282 78.011719 130.171875-26.121093 138.847656zm0 0" fill="#f29c1f"/><path d="m71.480469 503.320312c-3.46875.347657-6.769531.523438-10.066407.695313h-.347656c-41.132812-1.472656-55.539062-17.09375-60.050781-30.980469-.347656-1.039062-.605469-2.167968-.867187-3.210937-.355469-1.902344.59375-3.8125 2.324218-4.679688 1.734375-.867187 3.828125-.480469 5.140625.949219 4.703125 5.15625 10.886719 8.734375 17.703125 10.238281 24.730469 5.730469 53.714844-15.273437 18.308594-68.46875-30.113281-45.125-11.542969-133.898437 7.550781-190.914062l52.847657 48.421875c3.996093 2.660156 6.710937 6.859375 7.5 11.59375.789062 4.734375-.417969 9.585937-3.335938 13.398437-4.945312 6.746094-8.890625 14.171875-11.714844 22.042969-6.074218 13.972656-4.511718 26.816406 1.128906 52.066406 11.976563 54.238282 78.015626 130.171875-26.121093 138.847656zm0 0" fill="#f0c419"/><path d="m450.363281 208.269531c0 91.035157-89.382812 121.492188-199.59375 121.492188-2.429687 0-4.773437 0-7.117187-.085938h-3.125c-105.4375-1.910156-189.351563-33.238281-189.351563-121.40625 0-88.601562 84.695313-202.109375 190.914063-208.007812 2.863281-.1757815 5.726562-.261719 8.679687-.261719 110.210938 0 199.59375 117.238281 199.59375 208.269531zm0 0" fill="#f29c1f"/><path d="m433.003906 208.269531c0 88.167969-83.914062 119.496094-189.351562 121.40625h-3.125c-105.4375-1.910156-189.351563-33.238281-189.351563-121.40625 0-88.601562 84.695313-202.109375 190.914063-208.007812 106.21875 5.898437 190.914062 119.40625 190.914062 208.007812zm0 0" fill="#f0c419"/><path d="m250.769531 112.8125c0 28.757812-23.3125 52.070312-52.070312 52.070312-2.910157.003907-5.8125-.257812-8.675781-.78125-25.027344-4.214843-43.359376-25.871093-43.382813-51.25-.019531-25.378906 18.277344-47.070312 43.296875-51.324218 1.113281-.257813 2.242188-.433594 3.382812-.519532l2.34375 1.734376 29.679688 22.300781 24.558594 18.484375c.601562 3.058594.890625 6.167968.867187 9.285156zm0 0" fill="#e6e7e8"/><path d="m354.902344 112.8125c0 28.757812-23.308594 52.070312-52.066406 52.070312-2.910157.003907-5.816407-.257812-8.679688-.78125-25.050781-4.199218-43.398438-25.886718-43.386719-51.289062-.027343-3.117188.265625-6.226562.867188-9.285156l52.414062-39.398438 4.164063-3.121094c26.527344 2.78125 46.671875 25.136719 46.6875 51.804688zm0 0" fill="#e6e7e8"/><path d="m337.546875 112.8125c.011719 25.402344-18.335937 47.089844-43.390625 51.289062-25.050781-4.199218-43.398438-25.886718-43.386719-51.289062-.027343-3.117188.265625-6.226562.867188-9.285156l17.183593-12.929688 16.660157-12.496094 18.570312-13.972656c20.167969 7.726563 33.488281 27.085938 33.496094 48.683594zm0 0" fill="#fff"/><path d="m233.414062 112.8125c.007813 25.402344-18.339843 47.089844-43.390624 51.289062-25.027344-4.214843-43.359376-25.871093-43.382813-51.25-.019531-25.378906 18.277344-47.070312 43.296875-51.324218 1.933594.261718 3.847656.667968 5.726562 1.214844l29.679688 22.300781c5.296875 8.292969 8.097656 17.929687 8.070312 27.769531zm0 0" fill="#fff"/><path d="m224.734375 112.8125c0 14.378906-11.65625 26.035156-26.035156 26.035156-14.375 0-26.03125-11.65625-26.03125-26.035156s11.65625-26.03125 26.03125-26.03125c14.378906 0 26.035156 11.652344 26.035156 26.03125zm0 0" fill="#c03a2b"/><path d="m328.871094 112.8125c0 14.378906-11.65625 26.035156-26.035156 26.035156-14.378907 0-26.035157-11.65625-26.035157-26.035156s11.65625-26.03125 26.035157-26.03125c14.378906 0 26.035156 11.652344 26.035156 26.03125zm0 0" fill="#c03a2b"/><path d="m216.054688 112.8125c0 9.585938-7.769532 17.355469-17.355469 17.355469-9.585938 0-17.355469-7.769531-17.355469-17.355469s7.769531-17.355469 17.355469-17.355469c9.585937 0 17.355469 7.769531 17.355469 17.355469zm0 0" fill="#2c2f38"/><path d="m320.191406 112.8125c0 9.585938-7.769531 17.355469-17.355468 17.355469-9.585938 0-17.355469-7.769531-17.355469-17.355469s7.769531-17.355469 17.355469-17.355469c9.585937 0 17.355468 7.769531 17.355468 17.355469zm0 0" fill="#2c2f38"/><path d="m346.226562 234.304688c-4.792968 0-8.679687-3.886719-8.679687-8.675782 0-9.585937-7.769531-17.359375-17.355469-17.359375h-138.847656c-9.585938 0-17.355469 7.773438-17.355469 17.359375 0 4.789063-3.886719 8.675782-8.675781 8.675782-4.792969 0-8.679688-3.886719-8.679688-8.675782 0-19.171875 15.539063-34.714844 34.710938-34.714844h138.847656c19.171875 0 34.710938 15.542969 34.710938 34.714844 0 4.789063-3.882813 8.675782-8.675782 8.675782zm0 0" fill="#802d40"/><path d="m259.445312 242.984375h-17.355468c-4.792969 0-8.675782-3.886719-8.675782-8.679687 0-4.792969 3.882813-8.675782 8.675782-8.675782h17.355468c4.792969 0 8.679688 3.882813 8.679688 8.675782 0 4.792968-3.886719 8.679687-8.679688 8.679687zm0 0" fill="#f29c1f"/><g fill="#fff"><path d="m198.699219 95.457031c0 9.585938-7.769531 17.355469-17.355469 17.355469s-17.355469-7.769531-17.355469-17.355469c0-9.585937 7.769531-17.355469 17.355469-17.355469s17.355469 7.769532 17.355469 17.355469zm0 0"/><path d="m302.835938 95.457031c0 9.585938-7.769532 17.355469-17.355469 17.355469-9.585938 0-17.355469-7.769531-17.355469-17.355469.003906-1.644531.238281-3.277343.695312-4.859375l16.660157-12.496094c9.574219.027344 17.328125 7.78125 17.355469 17.355469zm0 0"/></g></svg>