<svg height="504pt" viewBox="0 0 504 504.20212" width="504pt" xmlns="http://www.w3.org/2000/svg"><path d="m476.730469 199.59375-55.628907 61.875c-28.984374 22.300781-93.894531 77.667969-73.5 111.683594 25.597657 42.695312 26.035157 60.226562-23.691406 68.988281l-32.714844.4375h-78.101562l-32.71875-.4375c-49.722656-8.761719-49.289062-26.292969-23.6875-68.988281 20.390625-34.015625-44.519531-89.382813-73.503906-111.683594l-55.625-61.875c-19.09375-25.515625-5.46875-51.027344 3.125-62.742188 1.695312-2.351562 3.550781-4.585937 5.550781-6.683593-.433594-2.84375-.664063-5.714844-.691406-8.589844-.957031-40.699219 35.75-54.757813 52.847656-59.097656 2.832031-.730469 5.699219-1.308594 8.589844-1.734375 1.257812-2.566406 2.800781-4.984375 4.601562-7.203125 10.65625-12.027344 25.847657-19.074219 41.914063-19.4375 2.167968-.175781 4.25-.261719 6.246094-.261719 2.953124-.085938 5.640624 0 7.984374.085938 5.292969.261718 8.679688.78125 8.679688.78125 1.585938-2.390626 3.328125-4.683594 5.207031-6.855469 15.707031-19.003907 38.09375-26.554688 71.9375-27.683594 2.777344-.0859375 5.640625-.171875 8.59375-.171875 38.703125.171875 63.523438 7.289062 80.53125 27.855469 1.648438 1.910156 3.125 3.90625 4.597657 5.988281.175781.261719.433593.609375.609374.867188 0 0 2.082032-.347657 5.640626-.605469.867187-.085938 1.90625-.085938 3.035156-.175781 13.972656-.78125 41.394531.609374 56.148437 19.613281 1.800781 2.21875 3.34375 4.636719 4.597657 7.203125 2.894531.425781 5.761718 1.003906 8.59375 1.734375 17.09375 4.339843 53.800781 18.398437 52.847656 59.011719-.027344 2.90625-.257813 5.804687-.695313 8.675781 2.144531 2.25 4.117188 4.65625 5.902344 7.203125 8.589844 11.976562 21.605469 37.054687 2.777344 62.222656zm0 0" fill="#7f6e5d"/><path d="m459.460938 199.59375-55.625 61.875c-28.984376 22.300781-93.898438 77.667969-73.503907 111.683594 25.601563 42.695312 26.035157 60.226562-23.691406 68.988281l-32.714844.4375h-60.832031l-32.71875-.4375c-49.722656-8.761719-49.289062-26.292969-23.6875-68.988281 20.390625-34.015625-44.519531-89.382813-73.503906-111.683594l-55.625-61.875c-19.09375-25.515625-5.46875-51.027344 3.125-62.742188 1.695312-2.351562 3.550781-4.585937 5.550781-6.683593-.433594-2.84375-.664063-5.714844-.691406-8.589844-.957031-40.699219 35.75-54.757813 52.847656-59.097656 2.832031-.730469 5.699219-1.308594 8.589844-1.734375 1.257812-2.566406 2.800781-4.984375 4.601562-7.203125 10.65625-12.027344 25.847657-19.074219 41.914063-19.4375 3.558594.257812 5.640625.605469 5.640625.605469.171875-.257813.433593-.605469.605469-.867188 2.953124-.085938 5.640624 0 7.984374.085938 5.292969.261718 8.679688.78125 8.679688.78125 1.585938-2.390626 3.328125-4.683594 5.207031-6.855469 15.707031-19.003907 38.09375-26.554688 71.9375-27.683594 33.757813 1.214844 56.148438 8.679687 71.855469 27.683594 1.878906 2.171875 3.617188 4.464843 5.207031 6.855469 0 0 3.382813-.519532 8.675781-.78125 2.34375-.085938 5.035157-.171876 7.984376-.085938 1.996093 0 4.078124.085938 6.25.261719 16.066406.363281 31.253906 7.410156 41.914062 19.4375 1.800781 2.21875 3.34375 4.636719 4.597656 7.203125 2.894532.425781 5.761719 1.003906 8.59375 1.734375 17.09375 4.339843 53.800782 18.398437 52.847656 59.011719-.027343 2.90625-.257812 5.804687-.695312 8.675781 2.144531 2.25 4.117188 4.65625 5.902344 7.203125 8.589844 11.976562 21.609375 37.054687 2.777344 62.222656zm0 0" fill="#cbb292"/><path d="m234.789062 407.863281c-21.4375 15.96875-26.210937 54.324219-26.816406 78.710938-.171875 4.683593-.085937 8.9375 0 12.320312.078125 1.902344-1.089844 3.632813-2.882812 4.269531-1.789063.636719-3.789063.03125-4.925782-1.492187-39.3125-50.589844-8.765624-119.839844-8.765624-119.839844 8.152343-4.027343 17.464843-5.042969 26.292968-2.867187 17.097656 5.644531 17.097656 28.898437 17.097656 28.898437zm0 0" fill="#f9eab0"/><path d="m234.789062 407.863281c-21.4375 15.96875-26.210937 54.324219-26.816406 78.710938-24.125-48.25.78125-104.742188.78125-104.742188 2.894532-1.207031 5.882813-2.164062 8.9375-2.867187 17.097656 5.644531 17.097656 28.898437 17.097656 28.898437zm0 0" fill="#f5efca"/><path d="m304.210938 501.671875c-1.136719 1.523437-3.136719 2.128906-4.929688 1.492187-1.789062-.636718-2.957031-2.367187-2.878906-4.269531.085937-3.46875.171875-7.636719 0-12.320312-.609375-24.472657-5.46875-62.65625-26.902344-78.710938 0 0 0-23.253906 17.09375-28.898437 8.828125-2.175782 18.144531-1.160156 26.296875 2.867187 0 0 30.632813 69.25-8.679687 119.839844zm0 0" fill="#f9eab0"/><path d="m296.402344 486.574219c-.609375-24.472657-5.46875-62.65625-26.902344-78.710938 0 0 0-23.253906 17.09375-28.898437 3.054688.703125 6.046875 1.660156 8.941406 2.867187 0 0 24.992188 56.492188.867188 104.742188zm0 0" fill="#f5efca"/><path d="m189.921875 299.214844c-3.558594 11.109375-10.933594 40.875 10.152344 47.902344 20.566406 6.855468 30.289062-7.980469 33.5-22.996094zm0 0" fill="#fff"/><path d="m270.714844 324.121094c3.210937 15.015625 12.929687 29.851562 33.496094 22.996094 21.085937-7.027344 13.710937-36.792969 10.152343-47.902344zm0 0" fill="#fff"/><path d="m194.695312 103.441406c-1.03125.488282-2.160156.722656-3.296874.695313-3.515626.023437-6.6875-2.113281-7.984376-5.382813l-25.078124-60.746094c-.535157-1.289062-.742188-2.6875-.609376-4.078124 5.292969.261718 8.679688.78125 8.679688.78125 1.585938-2.390626 3.328125-4.683594 5.207031-6.855469 1.242188.902343 2.203125 2.132812 2.777344 3.558593l24.992187 60.746094c.878907 2.117188.878907 4.496094 0 6.613282-.878906 2.117187-2.566406 3.796874-4.6875 4.667968zm0 0" fill="#7f6e5d"/><path d="m127.007812 102.488281c-1.453124 1.082031-3.222656 1.660157-5.035156 1.648438-2.800781.03125-5.4375-1.335938-7.027344-3.644531l-25.078124-34.714844c-.75-.960938-1.257813-2.09375-1.476563-3.296875 2.832031-.730469 5.699219-1.308594 8.589844-1.734375 1.257812-2.566406 2.800781-4.984375 4.601562-7.203125.945313.554687 1.769531 1.292969 2.429688 2.167969l24.992187 34.714843c2.761719 3.886719 1.867188 9.269531-1.996094 12.0625zm0 0" fill="#7f6e5d"/><path d="m91.773438 149c-1.191407 3.535156-4.511719 5.910156-8.242188 5.902344-.941406-.011719-1.878906-.15625-2.777344-.433594l-47.296875-16.054688c-1.019531-.328124-1.964843-.859374-2.773437-1.5625 1.695312-2.351562 3.550781-4.585937 5.550781-6.683593-.433594-2.84375-.664063-5.714844-.691406-8.589844 1.167969-.144531 2.351562-.023437 3.46875.347656l47.296875 16.054688c4.511718 1.582031 6.9375 6.472656 5.464844 11.019531zm0 0" fill="#7f6e5d"/><path d="m346.558594 33.929688c.136718 1.390624-.074219 2.789062-.605469 4.078124l-25.082031 60.746094c-1.292969 3.269532-4.464844 5.40625-7.980469 5.382813-1.140625.027343-2.269531-.207031-3.300781-.695313-2.121094-.871094-3.804688-2.550781-4.6875-4.667968-.878906-2.117188-.878906-4.496094.003906-6.613282l24.992188-60.746094c.570312-1.425781 1.535156-2.65625 2.777343-3.558593 1.878907 2.171875 3.617188 4.464843 5.207031 6.855469 0 0 3.382813-.519532 8.675782-.78125zm0 0" fill="#7f6e5d"/><path d="m415.898438 62.480469c-.222657 1.203125-.726563 2.335937-1.476563 3.296875l-25.078125 34.714844c-1.589844 2.308593-4.226562 3.675781-7.03125 3.644531-1.8125.011719-3.578125-.566407-5.03125-1.648438-3.867188-2.792969-4.757812-8.175781-1.996094-12.0625l24.992188-34.714843c.65625-.875 1.484375-1.613282 2.429687-2.167969 1.800781 2.21875 3.34375 4.636719 4.597657 7.203125 2.894531.425781 5.761718 1.003906 8.59375 1.734375zm0 0" fill="#59474e"/><path d="m473.953125 137.371094c-.640625.449218-1.339844.800781-2.082031 1.042968l-47.296875 16.054688c-.902344.269531-1.835938.417969-2.777344.433594-3.730469.007812-7.050781-2.367188-8.242187-5.902344-1.472657-4.546875.953124-9.4375 5.464843-11.019531l47.296875-16.054688c.78125-.269531 1.601563-.417969 2.429688-.433593-.027344 2.90625-.257813 5.804687-.695313 8.675781 2.144531 2.25 4.117188 4.65625 5.902344 7.203125zm0 0" fill="#7f6e5d"/><path d="m269.5 182.238281c-1.34375 0-2.667969-.3125-3.871094-.914062l-13.484375-6.742188-13.476562 6.742188c-2.777344 1.386719-6.078125 1.1875-8.667969-.523438-2.585938-1.707031-4.066406-4.667969-3.878906-7.765625s2.011718-5.855468 4.789062-7.242187l17.355469-8.679688c2.441406-1.21875 5.316406-1.21875 7.757813 0l17.355468 8.679688c3.605469 1.796875 5.5 5.839843 4.574219 9.757812-.925781 3.921875-4.425781 6.691407-8.453125 6.6875zm0 0" fill="#59474e"/><path d="m269.5 147.527344c-1.34375-.003906-2.667969-.3125-3.871094-.914063l-13.484375-6.742187-13.476562 6.742187c-2.777344 1.386719-6.078125 1.1875-8.667969-.523437-2.585938-1.710938-4.066406-4.671875-3.878906-7.765625.1875-3.097657 2.011718-5.859375 4.789062-7.242188l17.355469-8.679687c2.441406-1.21875 5.316406-1.21875 7.757813 0l17.355468 8.679687c3.605469 1.796875 5.5 5.835938 4.574219 9.757813s-4.425781 6.6875-8.453125 6.6875zm0 0" fill="#59474e"/><path d="m278.175781 112.8125c-.929687 0-1.855469-.152344-2.742187-.449219l-23.289063-7.757812-23.292969 7.757812c-2.945312.980469-6.1875.3125-8.511718-1.75-2.320313-2.058593-3.367188-5.203125-2.742188-8.242187.625-3.039063 2.824219-5.515625 5.769532-6.496094l26.035156-8.679688c1.777344-.597656 3.703125-.597656 5.484375 0l26.03125 8.679688c4.085937 1.3125 6.597656 5.414062 5.914062 9.648438-.6875 4.234374-4.363281 7.332031-8.65625 7.289062zm0 0" fill="#59474e"/><path d="m286.855469 78.101562c-.714844 0-1.425781-.089843-2.117188-.261718l-32.59375-8.148438-32.605469 8.148438c-4.632812 1.128906-9.304687-1.695313-10.464843-6.324219-1.160157-4.625 1.632812-9.316406 6.25-10.507813l34.710937-8.679687c1.382813-.355469 2.832032-.355469 4.21875 0l34.710938 8.679687c4.25 1.0625 7.039062 5.128907 6.503906 9.476563-.539062 4.351563-4.230469 7.617187-8.613281 7.617187zm0 0" fill="#59474e"/><path d="m243.464844 338.441406c-1.507813 0-2.988282-.394531-4.296875-1.144531l-60.742188-34.714844c-2.773437-1.496093-4.515625-4.375-4.554687-7.527343-.039063-3.148438 1.632812-6.070313 4.367187-7.636719 2.730469-1.566407 6.097657-1.527344 8.792969.101562l60.746094 34.710938c3.417968 1.953125 5.089844 5.960937 4.078125 9.761719-1.011719 3.804687-4.457031 6.449218-8.390625 6.449218zm0 0" fill="#7f6e5d"/><path d="m260.820312 338.441406c-3.9375.011719-7.394531-2.628906-8.410156-6.433594-1.019531-3.808593.652344-7.820312 4.070313-9.777343l60.746093-34.710938c4.148438-2.242187 9.324219-.765625 11.664063 3.328125 2.335937 4.089844.980469 9.300782-3.054687 11.734375l-60.746094 34.714844c-1.296875.746094-2.769532 1.140625-4.269532 1.144531zm0 0" fill="#7f6e5d"/><path d="m136.640625 242.984375c-43.390625-17.355469-95.457031 34.710937-43.390625 156.203125 43.128906 100.578125-38.617188 105.957031-68.035156 104.914062-1.742188-.058593-3.28125-1.152343-3.90625-2.78125-.625-1.628906-.214844-3.472656 1.042968-4.679687 45.210938-43.824219 29.332032-69.945313 9.285157-97.976563-3.296875-4.597656-6.769531-9.371093-10.152344-14.230468-6.289063-8.816406-11.339844-18.449219-15.015625-28.636719-3.78125-12.003906-5.882812-24.472656-6.246094-37.054687-.175781-5.816407-.175781-11.890626.085938-18.050782 1.46875-32.558594 9.808594-64.441406 24.472656-93.546875 2.722656-5.238281 5.703125-10.335937 8.9375-15.273437 8.886719-13.84375 20.238281-25.933594 33.496094-35.667969 10.167968-7.289063 21.332031-13.078125 33.152344-17.183594 5.9375-2.109375 12.03125-3.761719 18.222656-4.945312 24.523437-4.773438 49.832031-3.671875 73.847656 3.210937 3.082031.871094 5.421875 3.378906 6.074219 6.507813 32.457031 150.476562-18.917969 116.371093-61.871094 99.191406zm0 0" fill="#fdd7ad"/><path d="m503.628906 300.605469c.175782 6.160156.175782 12.148437-.085937 17.960937-.382813 12.347656-2.453125 24.582032-6.160157 36.363282-3.753906 10.378906-8.921874 20.191406-15.359374 29.15625-3.296876 4.859374-6.769532 9.546874-10.066407 14.234374-19.875 27.855469-35.320312 53.800782 9.546875 97.453126 1.246094 1.195312 1.664063 3.019531 1.058594 4.640624-.601562 1.621094-2.109375 2.730469-3.835938 2.820313-29.417968 1.128906-111.167968-4.339844-68.125-104.914063 52.070313-121.492187 0-173.5625-43.386718-156.203124-42.871094 17.179687-94.332032 51.371093-61.789063-99.191407.65625-3.132812 2.996094-5.640625 6.074219-6.507812 24.398438-6.933594 50.097656-7.976563 74.976562-3.039063 6.082032 1.257813 12.054688 2.96875 17.878907 5.121094 11.484375 4.097656 22.347656 9.765625 32.28125 16.835938 13.523437 9.945312 25.0625 22.335937 34.019531 36.535156 3.234375 4.917968 6.191406 10.015625 8.851562 15.273437 14.546876 29.101563 22.769532 60.953125 24.121094 93.460938zm0 0" fill="#fdd7ad"/><g fill="#7f6e5d"><path d="m148.007812 199.59375c0 4.792969-3.886718 8.675781-8.679687 8.675781s-8.675781-3.882812-8.675781-8.675781c0-24.039062-15.273438-44.34375-28.203125-57.101562-.933594-.996094-1.644531-2.179688-2.082031-3.472657 5.9375-2.109375 12.03125-3.761719 18.222656-4.945312 17.789062 17.300781 28.308594 40.730469 29.417968 65.519531zm0 0"/><path d="m74.332031 233.089844c-1.34375.785156-2.871093 1.203125-4.425781 1.214844-3.066406.011718-5.910156-1.605469-7.464844-4.25-8.289062-11.9375-21.125-19.9375-35.492187-22.128907-.753907-.171875-1.480469-.433593-2.167969-.78125 2.722656-5.238281 5.703125-10.335937 8.9375-15.273437 17.914062 3.476562 33.660156 14.058594 43.648438 29.332031 2.445312 4.121094 1.085937 9.441406-3.035157 11.886719zm0 0"/><path d="m43.871094 303.730469c0 4.792969-3.882813 8.675781-8.675782 8.675781-10.914062-.140625-21.753906 1.804688-31.9375 5.726562-.957031.410157-1.992187.617188-3.035156.609376-.175781-5.816407-.175781-11.890626.085938-18.050782 11.226562-3.835937 23.023437-5.746094 34.886718-5.640625 4.792969 0 8.675782 3.886719 8.675782 8.679688zm0 0"/><path d="m54.632812 390.25c-7.933593 2.007812-15.640624 4.828125-22.996093 8.414062-3.296875-4.597656-6.769531-9.371093-10.152344-14.230468.316406-.335938.699219-.601563 1.125-.78125 8.902344-4.382813 18.238281-7.816406 27.859375-10.238282 3.054688-.882812 6.347656-.023437 8.582031 2.238282 2.234375 2.261718 3.054688 5.566406 2.132813 8.613281-.921875 3.042969-3.4375 5.339844-6.550782 5.984375zm0 0"/><path d="m404.355469 138.5c-.367188 1.324219-1.089844 2.523438-2.082031 3.472656-19.007813 18.828125-28.636719 38.183594-28.636719 57.621094 0 4.792969-3.886719 8.675781-8.679688 8.675781s-8.679687-3.882812-8.679687-8.675781c1.015625-25.171875 11.859375-48.945312 30.199218-66.214844 6.082032 1.257813 12.054688 2.96875 17.878907 5.121094zm0 0"/><path d="m479.507812 207.144531c-.6875.347657-1.417968.609375-2.171874.78125-14.367188 2.191407-27.199219 10.191407-35.492188 22.128907-1.554688 2.644531-4.394531 4.261718-7.464844 4.25-1.554687-.011719-3.078125-.429688-4.425781-1.214844-4.121094-2.445313-5.480469-7.765625-3.035156-11.886719 10.007812-15.292969 25.789062-25.878906 43.738281-29.332031 3.234375 4.917968 6.191406 10.015625 8.851562 15.273437zm0 0"/><path d="m503.628906 300.605469c.175782 6.160156.175782 12.148437-.085937 17.960937-1.015625.007813-2.019531-.199218-2.949219-.605468-10.066406-3.789063-20.746094-5.675782-31.5-5.554688-4.792969 0-8.679688-3.882812-8.679688-8.675781s3.886719-8.679688 8.679688-8.679688c11.742188-.125 23.421875 1.753907 34.535156 5.554688zm0 0"/><path d="m482.023438 384.085938c-3.296876 4.859374-6.769532 9.546874-10.066407 14.234374-7.140625-3.445312-14.613281-6.148437-22.304687-8.070312-3.113282-.644531-5.625-2.941406-6.546875-5.984375-.921875-3.046875-.105469-6.351563 2.128906-8.613281 2.234375-2.261719 5.53125-3.121094 8.585937-2.238282 9.316407 2.339844 18.363282 5.65625 26.988282 9.890626.453125.175781.867187.441406 1.214844.78125zm0 0"/></g></svg>