<svg height="512pt" viewBox="0 0 512.20183 512" width="512pt" xmlns="http://www.w3.org/2000/svg"><g fill="#46b29d"><path d="m159.789062 341.992188v.175781l34.425782 116.96875 87.304687 10.414062 22.289063-6.398437c8.710937-2.5 15.539062-9.28125 18.097656-17.972656l30.324219-103.011719v-.175781l52.171875-227.222657c-1.503906-23.214843 19.332031-44.046875 19.332031-44.046875-20.960937-5.253906-43.144531-2.085937-61.792969 8.828125-8.828125-26.484375 17.652344-61.792969 17.652344-61.792969-35.308594 0-70.621094 26.480469-70.621094 26.480469-17.652344-8.828125 0-44.136719 0-44.136719-51.464844 8.828126-52.964844 35.308594-52.964844 35.308594s-1.5-26.480468-52.964843-35.308594c0 0 17.65625 35.308594 0 44.136719 0 0-35.308594-26.480469-70.621094-26.480469 0 0 26.484375 35.308594 17.65625 61.792969-18.652344-10.914062-40.832031-14.082031-61.792969-8.828125 0 0 20.832032 20.832032 19.332032 44.046875zm0 0"/><path d="m52.886719 229.617188.085937.089843-39.371094 22.15625c-.644531.429688-1.234374.933594-1.761718 1.5.476562-.636719 1.078125-1.175781 1.761718-1.585937zm0 0"/><path d="m4.863281 171.179688 48.109375-21.011719v.089843l-48.109375 21.011719c-.75.398438-1.460937.871094-2.117187 1.410157.636718-.589844 1.351562-1.09375 2.117187-1.5zm0 0"/><path d="m472.902344 222.027344c-1.851563 1.878906-2.773438 4.480468-2.515625 7.105468.253906 2.625 1.660156 5 3.839843 6.488282l24.363282 16.15625c3.027344 2.015625 4.507812 5.683594 3.726562 9.238281s-3.664062 6.261719-7.257812 6.824219c-35.484375 5.652344-107.785156 20.921875-133.117188 58.882812-35.3125 52.964844-26.484375 70.621094-105.933594 70.621094-1.675781 0-3.351562 0-5.03125-.089844 66.03125-1.855468 60.027344-20.480468 93.308594-70.445312 25.335938-37.957032 97.632813-53.230469 133.121094-58.878906 3.59375-.5625 6.472656-3.273438 7.253906-6.828126.78125-3.550781-.699218-7.21875-3.722656-9.238281l-24.367188-16.152343c-2.175781-1.488282-3.585937-3.863282-3.839843-6.488282-.253907-2.625.667969-5.230468 2.515625-7.109375l36.722656-36.722656c2.003906-2.003906 2.917969-4.851563 2.464844-7.648437-.457032-2.796876-2.226563-5.203126-4.757813-6.472657l-34.605469-17.304687c-4.179687-2.097656-6-7.089844-4.148437-11.386719l17.832031-41.578125c1.691406-3.839844.390625-8.335938-3.089844-10.679688-.046874 0-.089843-.039062-.089843-.089843h.089843c4.503907-.882813 8.472657-1.324219 11.828126-1.675781 3.113281-.269532 6.132812 1.117187 7.960937 3.652343 1.828125 2.53125 2.191406 5.835938.957031 8.703125l-17.832031 41.578125c-1.855469 4.296875-.035156 9.292969 4.148437 11.390625l34.605469 17.300782c2.53125 1.269531 4.300781 3.679687 4.753907 6.476562.457031 2.796875-.460938 5.640625-2.460938 7.648438zm0 0"/></g><path d="m455.246094 222.113281c-1.847656 1.878907-2.769532 4.484375-2.515625 7.109375.253906 2.625 1.664062 5 3.839843 6.488282l24.367188 16.152343c3.023438 2.019531 4.503906 5.6875 3.722656 9.238281-.78125 3.554688-3.660156 6.265626-7.253906 6.828126-35.488281 5.648437-107.785156 20.921874-133.121094 58.878906-33.28125 49.964844-27.277344 68.589844-93.308594 70.445312-.703124.042969-1.414062.042969-2.117187 0h-3.355469c-34.164062-.792968-49.523437-5.824218-60.644531-16.949218-11.125-11.121094-18.007813-28.335938-34.78125-53.496094-2.4375-3.613282-5.214844-6.980469-8.296875-10.0625-30.101562-30.71875-92.425781-43.785156-124.558594-48.90625-3.195312-.445313-5.886718-2.605469-7.011718-5.628906-1.125-3.023438-.5-6.421876 1.628906-8.847657.527344-.566406 1.117187-1.070312 1.761718-1.5l39.371094-22.15625-.085937-.089843-50.316407-44.3125c-1.675781-1.683594-2.601562-3.972657-2.570312-6.351563.0351562-2.375 1.023438-4.636719 2.746094-6.273437.65625-.539063 1.367187-1.011719 2.117187-1.410157l48.109375-21.011719v-.089843l-27.1875-49.167969c-1.355468-3.117188-.769531-6.738281 1.5-9.269531.441406-.585938.980469-1.09375 1.589844-1.5 1.660156-1.273438 3.742188-1.871094 5.828125-1.675781 44.371094 5.105468 85.035156 27.226562 113.433594 61.703124 7.171875 8.304688 13.722656 17.125 19.597656 26.394532 14.914063 22.417968 25.179687 47.605468 30.1875 74.0625v.265625c7.152344 39.460937-1.324219 56.320312 49.257813 57.910156h1.503906c2.292968.085937 4.765625.175781 7.324218.175781 60.382813 0 50.582032-16.507812 58.085938-58.085937v-.175781c5.019531-26.484376 15.285156-51.695313 30.191406-74.152344 5.875-9.269532 12.421875-18.089844 19.597656-26.394532 25.992188-31.097656 61.90625-52.296874 101.691407-60.027343 0 .050781.042969.089843.089843.089843 3.480469 2.34375 4.78125 6.839844 3.089844 10.679688l-17.832031 41.578125c-1.851563 4.296875-.03125 9.289063 4.148437 11.386719l34.605469 17.304687c2.53125 1.269531 4.300781 3.675781 4.757813 6.472657.453125 2.796874-.460938 5.644531-2.464844 7.648437zm0 0" fill="#65ddb9"/><path d="m52.886719 229.617188-50.316407-44.226563v-.085937zm0 0" fill="#65ddb9"/><path d="m17.222656 267.839844c32.132813 5.121094 94.457032 18.1875 124.558594 48.90625-30.28125-30.632813-92.515625-43.695313-124.558594-48.816406-1.683594-.226563-3.253906-.96875-4.503906-2.117188 1.277344 1.089844 2.839844 1.792969 4.503906 2.027344zm0 0" fill="#65ddb9"/><path d="m248.859375 397.253906c.703125.042969 1.414063.042969 2.117187 0-.703124.074219-1.410156.101563-2.117187.089844h-3.355469c-34.25-.796875-49.609375-5.828125-60.644531-17.039062 11.121094 11.125 26.480469 16.15625 60.644531 16.949218zm0 0" fill="#65ddb9"/><path d="m423.734375 211.964844c.042969 30.71875-22.550781 56.777344-52.964844 61.085937-2.917969.503907-5.871093.742188-8.828125.707031-2.957031.015626-5.90625-.191406-8.828125-.621093-15.351562-2.148438-29.304687-10.074219-39.019531-22.15625v-.175781c5.019531-26.484376 15.285156-51.695313 30.191406-74.152344 2.914063-4.5 5.824219-8.828125 8.828125-12.886719 3.53125-4.769531 7.148438-9.269531 10.769531-13.507813 2.292969.089844 4.5.265626 6.707032.53125 30.511718 4.246094 53.203125 30.367188 53.144531 61.175782zm0 0" fill="#fff"/><path d="m406.078125 211.964844c0 34.160156-19.773437 61.792968-44.136719 61.792968-20.214844 0-37.253906-18.980468-42.460937-44.933593 2.039062-6.550781 4.453125-12.976563 7.238281-19.246094.96875-2.382813 2.117188-4.855469 3.265625-7.324219 4.191406-8.84375 8.96875-17.394531 14.300781-25.601562.972656-1.5 1.941406-2.914063 2.914063-4.324219 1.941406-3.003906 3.882812-5.828125 5.914062-8.5625 2.914063-3.972656 5.824219-7.679687 8.914063-11.210937.707031-.796876 1.5-1.503907 2.207031-2.207032 23.304687 1.585938 41.84375 28.511719 41.84375 61.617188zm0 0" fill="#f18d46"/><path d="m229.527344 396.460938v27.363281c0 19.503906-15.808594 35.3125-35.3125 35.3125h-52.964844c-19.402344.023437-35.179688-15.628907-35.308594-35.027344.519532-13.824219-4.5625-27.273437-14.097656-37.296875-9.53125-10.023438-22.707031-15.777344-36.539062-15.953125h-46.46875c-3.558594.027344-6.753907 2.1875-8.101563 5.476563-1.351563 3.292968-.59375 7.074218 1.921875 9.59375l28.480469 12.738281c2.59375 1.609375 4.175781 4.445312 4.175781 7.5 0 3.058593-1.582031 5.894531-4.175781 7.503906l-28.480469 12.738281c-2.515625 2.519532-3.273438 6.300782-1.921875 9.59375 1.347656 3.289063 4.542969 5.449219 8.101563 5.476563h26.484374c9.71875.070312 17.582032 7.933593 17.652344 17.65625 0 29.25 23.714844 52.964843 52.96875 52.964843h123.585938c25.25 0 46.996094-17.800781 51.992187-42.550781.636719-3.433593.964844-6.921875.972657-10.414062v-62.675781zm0 0" fill="#d75e72"/><path d="m197.921875 250.714844v.265625c-9.710937 12.082031-23.664063 20.007812-39.015625 22.15625-2.921875.429687-5.875.636719-8.828125.621093-2.957031.035157-5.914063-.203124-8.828125-.707031-30.421875-4.382812-52.992188-30.472656-52.945312-61.207031.042968-30.738281 22.6875-56.761719 53.121093-61.054688 2.207031-.265624 4.414063-.441406 6.710938-.53125l.085937.089844c.636719.695313 1.226563 1.433594 1.765625 2.207032 3.089844 3.53125 6.003907 7.238281 8.917969 11.210937s5.914062 8.386719 8.828125 12.886719c6.804687 10.441406 12.683594 21.460937 17.566406 32.925781 2.78125 6.269531 5.199219 12.695313 7.238281 19.246094 2.265626 7.171875 4.0625 14.484375 5.382813 21.890625zm0 0" fill="#fff"/><path d="m192.539062 228.824219c-5.207031 25.953125-22.246093 44.933593-42.460937 44.933593-24.363281 0-44.136719-27.632812-44.136719-61.792968 0-33.105469 18.535156-60.03125 41.839844-61.617188.707031.703125 1.503906 1.410156 2.207031 2.207032 3.089844 3.53125 6.003907 7.238281 8.917969 11.210937s5.914062 8.386719 8.828125 12.886719c6.804687 10.441406 12.683594 21.460937 17.566406 32.925781 2.78125 6.269531 5.199219 12.695313 7.238281 19.246094zm0 0" fill="#f18d46"/><path d="m238.355469 264.929688c-4.878907 0-8.828125-3.953126-8.828125-8.828126v-158.898437c0-4.875 3.949218-8.828125 8.828125-8.828125 4.875 0 8.824219 3.953125 8.824219 8.828125v158.898437c0 4.875-3.949219 8.828126-8.824219 8.828126zm0 0" fill="#527f72"/><path d="m273.664062 264.929688c-4.875 0-8.828124-3.953126-8.828124-8.828126v-158.898437c0-4.875 3.953124-8.828125 8.828124-8.828125s8.828126 3.953125 8.828126 8.828125v158.898437c0 4.875-3.953126 8.828126-8.828126 8.828126zm0 0" fill="#527f72"/><path d="m158.90625 163.765625v109.371094c-2.921875.429687-5.875.636719-8.828125.621093-2.957031.035157-5.914063-.203124-8.828125-.707031v-120.585937c.011719-.5625.070312-1.125.175781-1.675782 2.207031-.265624 4.414063-.441406 6.710938-.53125 3.617187 4.238282 7.238281 8.738282 10.769531 13.507813zm0 0" fill="#2c2f38"/><path d="m370.769531 152.464844v120.585937c-2.917969.503907-5.871093.742188-8.828125.707031-2.957031.015626-5.90625-.191406-8.828125-.621093v-109.371094c3.53125-4.769531 7.148438-9.269531 10.769531-13.507813 2.292969.089844 4.5.265626 6.707032.53125.109375.550782.167968 1.113282.179687 1.675782zm0 0" fill="#2c2f38"/><path d="m229.527344 362.03125c-4.875 0-8.828125-3.953125-8.828125-8.828125v-8.828125c0-4.875 3.953125-8.824219 8.828125-8.824219s8.828125 3.949219 8.828125 8.824219v8.828125c0 4.875-3.953125 8.828125-8.828125 8.828125zm0 0" fill="#46b29d"/><path d="m282.492188 362.03125c-4.875 0-8.828126-3.953125-8.828126-8.828125v-8.828125c0-4.875 3.953126-8.824219 8.828126-8.824219s8.828124 3.949219 8.828124 8.824219v8.828125c0 4.875-3.953124 8.828125-8.828124 8.828125zm0 0" fill="#46b29d"/><path d="m132.421875 185.480469c0 9.75-7.902344 17.65625-17.652344 17.65625-9.753906 0-17.65625-7.90625-17.65625-17.65625s7.902344-17.65625 17.65625-17.65625c9.75 0 17.652344 7.90625 17.652344 17.65625zm0 0" fill="#fff"/><path d="m353.113281 185.480469c-.03125 9.738281-7.917969 17.625-17.65625 17.65625-1.863281.027343-3.714843-.269531-5.472656-.882813 4.191406-8.84375 8.96875-17.394531 14.300781-25.601562.972656-1.5 1.941406-2.914063 2.914063-4.324219 3.753906 3.339844 5.902343 8.125 5.914062 13.152344zm0 0" fill="#fff"/></svg>