<svg height="511pt" viewBox="0 0 511 511.95649" width="511pt" xmlns="http://www.w3.org/2000/svg"><path d="m89.855469 241.167969c-12.851563 12.273437-29.554688 35.894531-35.574219 78.804687-.207031 1.457032.328125 2.921875 1.425781 3.902344 1.097657.984375 2.609375 1.355469 4.039063.988281 8.296875-2.558593 17.144531-2.742187 25.546875-.539062 2.03125.960937 2.984375 3.320312 2.1875 5.421875-6.878907 20.835937-2.171875 43.761718 12.359375 60.203125 1.089844 1.363281 2.878906 1.957031 4.566406 1.511719 1.6875-.441407 2.957031-1.835938 3.238281-3.558594 2.496094-15.679688 9.390625-47.121094 25.953125-62.78125zm0 0" fill="#2c3e50"/><path d="m423.007812 241.167969c12.855469 12.273437 29.554688 35.894531 35.621094 78.804687.203125 1.457032-.332031 2.921875-1.429687 3.902344-1.09375.984375-2.609375 1.355469-4.035157.988281-8.300781-2.558593-17.148437-2.742187-25.546874-.539062-2.03125.960937-2.984376 3.320312-2.191407 5.421875 6.878907 20.835937 2.175781 43.761718-12.355469 60.203125-1.089843 1.363281-2.882812 1.957031-4.570312 1.511719-1.6875-.441407-2.953125-1.835938-3.234375-3.558594-2.5-15.679688-9.394531-47.121094-25.953125-62.78125zm0 0" fill="#2c3e50"/><path d="m424.15625 220.691406c.042969 6.84375-.34375 13.683594-1.148438 20.476563-4.765624 41.050781-23.832031 63.738281-43.695312 83.953125-25.511719 25.863281-52.261719 47.578125-52.261719 98.601562 0 40.433594-41.132812 73.625-60.554687 85.628906-5.503906 3.410157-12.441406 3.476563-18.007813.175782-.539062-.226563-1.042969-.523438-1.5-.882813-19.246093-13.769531-61.175781-50.933593-61.175781-84.921875 0-51.023437-26.75-72.738281-52.261719-98.601562-19.859375-20.214844-38.929687-42.902344-43.695312-83.953125-.804688-6.792969-1.1875-13.632813-1.148438-20.476563-.363281-39.632812 13.65625-78.054687 39.460938-108.140625l59.496093-47.402343c4.414063-2.296876 6.976563-3.355469 6.976563-3.355469-4.945313-34.425781 6.617187-49.699219 17.828125-56.40625 5.285156-3.226563 11.296875-5.078125 17.480469-5.386719 0 21.628906 9.976562 30.015625 17.65625 33.28125 2.796875 1.203125 5.785156 1.890625 8.828125 2.027344 0 0 23.746094 0 26.304687-29.921875.089844-1.679688.175781-3.53125.175781-5.386719 0 0 44.136719 0 35.3125 61.792969 0 0 2.558594 1.058593 6.972657 3.355469l59.496093 47.402343c25.804688 30.085938 39.824219 68.507813 39.460938 108.140625zm0 0" fill="#2c3e50"/><path d="m406.5 220.691406c.042969 6.84375-.339844 13.683594-1.148438 20.476563-4.765624 41.050781-23.832031 63.738281-43.695312 83.953125-25.511719 25.863281-52.257812 47.578125-52.257812 98.601562 0 35.046875-30.898438 64.621094-51.730469 79.714844-20.832031-16.597656-54.203125-49.433594-54.203125-79.714844 0-51.023437-26.746094-72.738281-52.257813-98.601562-19.863281-20.214844-38.929687-42.902344-43.695312-83.953125-.808594-6.792969-1.191407-13.632813-1.148438-20.476563-.363281-39.632812 13.65625-78.054687 39.457031-108.140625l59.5-47.402343c4.414063-2.296876 6.972657-3.355469 6.972657-3.355469-2.882813-13.898438-1.4375-28.351563 4.148437-41.402344 4.171875 8.671875 12.730469 14.386719 22.335938 14.917969 3.039062-.136719 6.03125-.824219 8.828125-2.027344.394531.183594.808593.332031 1.234375.441406.492187.199219.992187.378906 1.5.527344 3.9375 1.414062 8.246094 1.414062 12.183594 0 .527343-.175781.96875-.351562 1.5-.527344.421874-.121094.832031-.269531 1.234374-.441406 10.84375-5.011719 17.699219-15.953125 17.480469-27.894531 5.914063 3.574219 10.667969 8.785156 13.683594 15.003906 5.585937 13.050781 7.03125 27.503906 4.148437 41.402344 0 0 2.558594 1.058593 6.972657 3.355469l59.5 47.402343c25.800781 30.085938 39.820312 68.507813 39.457031 108.140625zm0 0" fill="#35495e"/><path d="m406.5 220.691406c.042969 6.84375-.339844 13.683594-1.148438 20.476563-4.765624 41.050781-23.832031 63.738281-43.695312 83.953125-25.511719 25.863281-52.257812 47.578125-52.257812 98.601562 0 35.046875-30.898438 64.621094-51.730469 79.714844-20.832031-16.597656-54.203125-49.433594-54.203125-79.714844 0-51.023437-26.746094-72.738281-52.257813-98.601562-19.863281-20.214844-38.929687-42.902344-43.695312-83.953125-.808594-6.792969-1.191407-13.632813-1.148438-20.476563-.363281-39.632812 13.65625-78.054687 39.457031-108.140625l59.5-47.402343c4.414063-2.296876 6.972657-3.355469 6.972657-3.355469-2.878907-13.871094-1.429688-28.292969 4.148437-41.3125v-.089844c3.019532-6.21875 7.769532-11.429687 13.683594-15.003906-.21875 11.941406 6.636719 22.882812 17.480469 27.894531.402343.171875.8125.320312 1.234375.441406.460937.199219.933594.375 1.414062.527344 1.4375.441406 2.914063.738281 4.414063.882812.257812.074219.523437.105469.792969.089844.320312.050782.644531.078125.972656.085938 3.039062-.136719 6.03125-.824219 8.824218-2.027344 2.796876 1.203125 5.789063 1.890625 8.828126 2.027344 9.609374-.53125 18.164062-6.246094 22.335937-14.917969 5.585937 13.050781 7.03125 27.503906 4.148437 41.402344 0 0 2.558594 1.058593 6.972657 3.355469l59.5 47.402343c25.800781 30.085938 39.820312 68.507813 39.457031 108.140625zm0 0" fill="#35495e"/><path d="m406.5 220.691406c.042969 6.84375-.339844 13.683594-1.148438 20.476563-4.765624 41.050781-23.832031 63.738281-43.695312 83.953125-25.511719 25.863281-52.257812 47.578125-52.257812 98.601562 0 35.046875-30.898438 64.621094-51.730469 79.714844-20.832031-16.597656-54.203125-49.433594-54.203125-79.714844 0-51.023437-26.746094-72.738281-52.257813-98.601562-19.863281-20.214844-38.929687-42.902344-43.695312-83.953125-.808594-6.792969-1.191407-13.632813-1.148438-20.476563-.363281-39.632812 13.65625-78.054687 39.457031-108.140625l59.5-47.402343c4.414063-2.296876 6.972657-3.355469 6.972657-3.355469-2.878907-13.871094-1.429688-28.292969 4.148437-41.3125 2.808594 5.757812 7.605469 10.308593 13.507813 12.800781.398437.183594.8125.332031 1.234375.441406.53125.175782.972656.351563 1.503906.527344 3.9375 1.414062 8.242188 1.414062 12.179688 0 .507812-.148438 1.011718-.328125 1.5-.527344.421874-.121094.835937-.269531 1.238281-.441406.402343.171875.8125.320312 1.234375.441406.460937.199219.933594.375 1.414062.527344 1.4375.441406 2.914063.738281 4.414063.882812.257812.074219.523437.105469.792969.089844.320312.050782.644531.078125.972656.085938 3.039062-.136719 6.03125-.824219 8.824218-2.027344 5.929688-2.5 10.734376-7.085938 13.507813-12.890625 2.304687-4.6875 3.652344-9.789063 3.972656-15.003906 5.914063 3.574219 10.667969 8.785156 13.683594 15.003906 5.585937 13.050781 7.03125 27.503906 4.148437 41.402344 0 0 2.558594 1.058593 6.972657 3.355469l59.5 47.402343c25.800781 30.085938 39.820312 68.507813 39.457031 108.140625zm0 0" fill="#35495e"/><path d="m219.796875 301.460938c-8.671875-.058594-17.335937-.589844-25.953125-1.585938-2.734375-.265625-5.472656-.707031-8.210938-1.148438-5.953124-.867187-11.804687-2.316406-17.476562-4.328124-5.761719-1.824219-11.023438-4.96875-15.359375-9.179688-.859375-.828125-1.628906-1.746094-2.296875-2.734375-11.5625-17.390625-7.945312-42.460937-4.058594-57.558594 6.496094 2.429688 12.808594 5.320313 18.890625 8.652344 1.324219.707031 2.734375 1.5 4.148438 2.296875 5.761719 3.246094 11.226562 7 16.332031 11.210938 6.558594 5.210937 12.429688 11.230468 17.476562 17.917968 8.152344 10.769532 13.792969 23.226563 16.507813 36.457032zm0 0" fill="#f5efca"/><path d="m362.363281 282.484375c-4.503906 5.707031-10.675781 9.871094-17.65625 11.914063-5.671875 2.011718-11.523437 3.460937-17.476562 4.328124-11.296875 1.824219-22.722657 2.738282-34.164063 2.734376 4.542969-21.574219 16.585938-40.839844 33.984375-54.375 5.105469-4.210938 10.570313-7.964844 16.332031-11.210938 7.355469-4.300781 15.0625-7.964844 23.039063-10.949219 3.886719 15.097657 7.503906 40.167969-4.058594 57.558594zm0 0" fill="#f5efca"/><path d="m203.464844 269.242188c.328125 11-3.0625 21.792968-9.621094 30.632812-2.734375-.265625-5.472656-.707031-8.210938-1.148438-5.953124-.867187-11.804687-2.316406-17.476562-4.328124-5.761719-1.824219-11.023438-4.96875-15.359375-9.179688-1.554687-5.183594-2.328125-10.566406-2.296875-15.976562-.773438-13.53125 4.691406-26.671876 14.832031-35.664063 1.324219.707031 2.734375 1.5 4.148438 2.296875 5.761719 3.246094 11.226562 7 16.332031 11.210938 6.558594 5.210937 12.429688 11.230468 17.476562 17.917968.089844 1.414063.175782 2.824219.175782 4.238282zm0 0" fill="#c03a2b"/><path d="m309.398438 269.242188c-.324219 11 3.0625 21.792968 9.621093 30.632812 2.738281-.265625 5.472657-.707031 8.210938-1.148438 5.953125-.867187 11.804687-2.316406 17.476562-4.328124 5.765625-1.824219 11.023438-4.96875 15.359375-9.179688 1.554688-5.183594 2.328125-10.566406 2.296875-15.976562.773438-13.53125-4.691406-26.671876-14.832031-35.664063-1.324219.707031-2.734375 1.5-4.148438 2.296875-5.761718 3.246094-11.226562 7-16.332031 11.210938-6.558593 5.210937-12.429687 11.230468-17.476562 17.917968-.089844 1.414063-.175781 2.824219-.175781 4.238282zm0 0" fill="#c03a2b"/><path d="m211.765625 127.117188c-7.152344 44.933593-37.164063 47.582031-55.703125 44.667968-8.242188-1.371094-14.394531-8.335937-14.742188-16.683594-1.0625-33.738281-22.246093-63.554687-53.761718-75.652343-49.34375-20.921875-48.550782 84.921875-46.078125 130.292969.097656 2.0625-1.246094 3.914062-3.234375 4.464843-1.984375.546875-4.089844-.351562-5.0625-2.167969-22.335938-43.433593-35.929688-95.425781-32.046875-137.09375.5-6.039062 1.472656-12.03125 2.914062-17.917968 7.152344-29.21875 25.335938-50.671875 58.4375-55.878906 5.351563-.757813 10.75-1.14453175 16.15625-1.148438.972657 0 1.855469 0 2.738281.0898438h.085938c28.125.1796872 55.222656 10.5625002 76.269531 29.2187502 4.796875 4.105468 9.28125 8.558594 13.417969 13.328125 9.707031 11.203125 17.980469 23.566406 24.628906 36.8125 3.003906 6 5.5625 11.738281 7.769532 16.949219 3.085937 7.691406 5.710937 15.5625 7.855468 23.570312.644532 2.328125.765625 4.769531.355469 7.148438zm0 0" fill="#fdd7ad"/><path d="m479.679688 212.039062c-.972657 1.816407-3.078126 2.714844-5.0625 2.167969-1.988282-.550781-3.332032-2.402343-3.234376-4.464843 2.472657-45.371094 3.265626-151.214844-46.078124-130.292969-31.511719 12.097656-52.699219 41.914062-53.761719 75.652343-.34375 8.347657-6.5 15.3125-14.742188 16.683594-18.539062 2.914063-48.550781.265625-55.703125-44.667968-.410156-2.378907-.289062-4.820313.355469-7.148438 2.148437-8.007812 4.769531-15.878906 7.855469-23.570312 2.207031-5.210938 4.765625-10.949219 7.769531-16.949219 6.648437-13.246094 14.921875-25.609375 24.628906-36.8125 4.136719-4.769531 8.621094-9.222657 13.417969-13.328125 21.046875-18.65625 48.148438-29.039063 76.269531-29.2187502h.089844c.882813-.0898438 1.765625-.0898438 2.734375-.0898438 5.40625.00390625 10.804688.390625 16.15625 1.148438 33.101562 5.207031 51.289062 26.660156 58.4375 55.878906 1.441406 5.886718 2.414062 11.878906 2.914062 17.917968 3.882813 41.667969-9.710937 93.660157-32.046874 137.09375zm0 0" fill="#fdd7ad"/><path d="m171.15625 42.636719c-3.90625 14.226562-12.566406 26.6875-24.539062 35.3125-1.453126.996093-3.179688 1.519531-4.945313 1.5-2.929687-.015625-5.667969-1.464844-7.324219-3.886719-1.316406-1.941406-1.800781-4.324219-1.355468-6.628906.449218-2.300782 1.792968-4.332032 3.738281-5.640625 9.65625-7.519531 16.347656-18.214844 18.890625-30.191407.382812-1.417968 1.113281-2.722656 2.117187-3.792968 4.796875 4.105468 9.28125 8.558594 13.417969 13.328125zm0 0" fill="#7f6e5d"/><path d="m88.53125 45.902344c-.839844 4.113281-4.457031 7.0625-8.652344 7.0625-.589844-.019532-1.179687-.078125-1.765625-.175782-2.292969-.46875-4.308593-1.828124-5.597656-3.78125-1.292969-1.953124-1.753906-4.339843-1.285156-6.636718 2.5625-12.976563-.136719-26.441406-7.503907-37.425782-.710937-1.148437-1.136718-2.453124-1.238281-3.796874 5.351563-.757813 10.75-1.14453175 16.15625-1.148438.972657 0 1.855469 0 2.738281.0898438h.085938c7.722656 13.9453122 10.226562 30.1875002 7.0625 45.8125002zm0 0" fill="#7f6e5d"/><path d="m34.769531 74.59375c-1.464843 2.996094-4.519531 4.882812-7.855469 4.855469-1.382812.015625-2.75-.320313-3.972656-.972657-5.863281-3.226562-12.605468-4.496093-19.242187-3.617187-.84375.160156-1.707031.1875-2.5625.085937.5-6.039062 1.472656-12.03125 2.914062-17.917968 9.308594-.660156 18.613281 1.328125 26.835938 5.738281 2.089843 1.042969 3.679687 2.882813 4.40625 5.105469.730469 2.21875.542969 4.640625-.523438 6.722656zm0 0" fill="#7f6e5d"/><path d="m203.554688 96.398438c-8.855469 10.234374-19.285157 18.996093-30.898438 25.953124-1.367188.796876-2.917969 1.222657-4.5 1.234376-3.976562 0-7.460938-2.660157-8.511719-6.492188-1.050781-3.835938.589844-7.898438 4.007813-9.925781 11.085937-6.652344 20.890625-15.234375 28.957031-25.335938.851563-1.039062 1.941406-1.855469 3.175781-2.382812 3.003906 6 5.5625 11.738281 7.769532 16.949219zm0 0" fill="#7f6e5d"/><path d="m378.515625 75.5625c-1.65625 2.421875-4.394531 3.871094-7.324219 3.886719-1.765625.019531-3.492187-.503907-4.945312-1.5-11.972656-8.625-20.632813-21.085938-24.539063-35.3125 4.136719-4.769531 8.621094-9.222657 13.417969-13.328125 1.003906 1.070312 1.734375 2.375 2.117188 3.792968 2.542968 11.976563 9.234374 22.671876 18.890624 30.191407 1.945313 1.308593 3.292969 3.339843 3.738282 5.640625.449218 2.304687-.039063 4.6875-1.355469 6.628906zm0 0" fill="#7f6e5d"/><path d="m449.136719 4.945312c-7.367188 10.984376-10.066407 24.449219-7.503907 37.425782.46875 2.296875.007813 4.683594-1.28125 6.636718-1.292968 1.953126-3.308593 3.3125-5.601562 3.78125-.585938.097657-1.175781.15625-1.765625.175782-4.195313 0-7.8125-2.949219-8.652344-7.0625-3.164062-15.625-.660156-31.867188 7.0625-45.8125002h.089844c.882813-.0898438 1.765625-.0898438 2.734375-.0898438 5.40625.00390625 10.804688.390625 16.15625 1.148438-.101562 1.34375-.527344 2.648437-1.238281 3.796874zm0 0" fill="#7f6e5d"/><path d="m511.726562 74.945312c-.855468.101563-1.71875.074219-2.5625-.085937-6.636718-.878906-13.378906.390625-19.242187 3.617187-1.222656.652344-2.589844.988282-3.972656.972657-3.335938.027343-6.390625-1.859375-7.855469-4.855469-1.066406-2.082031-1.253906-4.503906-.523438-6.722656.730469-2.222656 2.316407-4.0625 4.40625-5.105469 8.226563-4.402344 17.527344-6.390625 26.835938-5.738281 1.441406 5.886718 2.414062 11.878906 2.914062 17.917968zm0 0" fill="#7f6e5d"/><path d="m352.300781 119.261719c-1.582031 2.6875-4.472656 4.335937-7.59375 4.324219-1.582031-.011719-3.132812-.4375-4.5-1.234376-11.613281-6.957031-22.042969-15.71875-30.898437-25.953124 2.207031-5.210938 4.765625-10.949219 7.769531-16.949219 1.234375.527343 2.324219 1.34375 3.175781 2.382812 8.066406 10.101563 17.871094 18.683594 28.957032 25.335938 4.191406 2.484375 5.574218 7.898437 3.089843 12.09375zm0 0" fill="#7f6e5d"/><path d="m185.8125 240.464844v56.496094c-.011719.589843-.070312 1.183593-.179688 1.765624-5.953124-.867187-11.804687-2.316406-17.476562-4.328124v-53.933594c-.023438-1.628906.4375-3.226563 1.324219-4.589844 1.574219-2.644531 4.429687-4.257812 7.503906-4.238281 4.875 0 8.828125 3.953125 8.828125 8.828125zm0 0" fill="#2c2f38"/><path d="m344.707031 240.464844v53.933594c-5.671875 2.011718-11.523437 3.460937-17.476562 4.328124-.109375-.582031-.167969-1.175781-.179688-1.765624v-56.496094c0-4.875 3.953125-8.828125 8.828125-8.828125 3.078125-.019531 5.929688 1.59375 7.503906 4.238281.886719 1.363281 1.347657 2.960938 1.324219 4.589844zm0 0" fill="#2c2f38"/><g fill="#2c3e50"><path d="m229.949219 459.035156c-3.363281.019532-6.441407-1.875-7.945313-4.882812l-8.828125-17.65625c-1.410156-2.820313-1.207031-6.179688.535157-8.8125 1.738281-2.632813 4.75-4.136719 7.898437-3.945313 3.152344.1875 5.960937 2.042969 7.367187 4.867188l8.828126 17.65625c1.367187 2.730469 1.222656 5.96875-.375 8.570312-1.601563 2.597657-4.429688 4.1875-7.480469 4.203125zm0 0"/><path d="m282.914062 459.035156c-3.058593-.003906-5.898437-1.585937-7.503906-4.1875-1.609375-2.601562-1.753906-5.851562-.386718-8.585937l8.828124-17.65625c2.179688-4.363281 7.480469-6.132813 11.84375-3.953125 4.363282 2.179687 6.136719 7.480468 3.957032 11.84375l-8.828125 17.65625c-1.496094 2.996094-4.558594 4.886718-7.910157 4.882812zm0 0"/><path d="m221.121094 388.414062c-4.875 0-8.828125-3.953124-8.828125-8.828124v-35.308594c0-4.875 3.953125-8.828125 8.828125-8.828125s8.828125 3.953125 8.828125 8.828125v35.308594c0 4.875-3.953125 8.828124-8.828125 8.828124zm0 0"/><path d="m291.742188 388.414062c-4.875 0-8.828126-3.953124-8.828126-8.828124v-35.308594c0-4.875 3.953126-8.828125 8.828126-8.828125s8.828124 3.953125 8.828124 8.828125v35.308594c0 4.875-3.953124 8.828124-8.828124 8.828124zm0 0"/><path d="m256.433594 273.65625c-4.878906 0-8.828125-3.953125-8.828125-8.828125v-167.726563c0-4.875 3.949219-8.824218 8.828125-8.824218 4.875 0 8.824218 3.949218 8.824218 8.824218v167.726563c0 4.875-3.949218 8.828125-8.824218 8.828125zm0 0"/><path d="m256.433594 273.65625c-4.316406-.003906-7.996094-3.125-8.707032-7.382812-7.679687-46.050782-36.4375-54.367188-37.65625-54.730469-4.726562-1.207031-7.578124-6.011719-6.371093-10.738281 1.207031-4.722657 6.015625-7.574219 10.738281-6.367188 19.121094 6.523438 34.453125 21.050781 41.996094 39.792969 7.554687-18.714844 22.882812-33.214844 41.992187-39.722657 4.6875-1.109374 9.398438 1.742188 10.585938 6.414063 1.191406 4.667969-1.585938 9.425781-6.234375 10.691406-1.386719.390625-30.015625 8.828125-37.640625 54.734375-.738281 4.226563-4.414063 7.3125-8.703125 7.308594zm0 0"/><path d="m221.121094 317.792969c-4.449219-.003907-8.195313-3.320313-8.746094-7.734375-7.945312-63.707032-80.703125-80.585938-81.4375-80.746094-4.761719-1.054688-7.765625-5.773438-6.707031-10.539062 1.058593-4.761719 5.777343-7.765626 10.539062-6.707032 3.488281.777344 85.628907 19.878906 95.117188 95.804688.605469 4.835937-2.824219 9.246094-7.660157 9.851562-.367187.046875-.734374.070313-1.105468.070313zm0 0"/><path d="m291.742188 317.792969c-.367188 0-.738282-.023438-1.101563-.070313-4.835937-.605468-8.265625-5.015625-7.664063-9.851562 9.488282-75.917969 91.628907-95.027344 95.117188-95.804688 4.761719-1.0625 9.480469 1.9375 10.539062 6.699219 1.0625 4.761719-1.9375 9.480469-6.699218 10.539063-2.992188.679687-73.507813 17.292968-81.441406 80.753906-.554688 4.414062-4.300782 7.730468-8.75 7.734375zm0 0"/></g><path d="m168.15625 256c0 4.875-3.953125 8.828125-8.828125 8.828125s-8.828125-3.953125-8.828125-8.828125 3.953125-8.828125 8.828125-8.828125 8.828125 3.953125 8.828125 8.828125zm0 0" fill="#fff"/><path d="m362.363281 256c0 4.875-3.953125 8.828125-8.828125 8.828125s-8.828125-3.953125-8.828125-8.828125 3.953125-8.828125 8.828125-8.828125 8.828125 3.953125 8.828125 8.828125zm0 0" fill="#fff"/></svg>