<svg height="512pt" viewBox="0 0 512 512.00001" width="512pt" xmlns="http://www.w3.org/2000/svg"><g fill="#804169"><path d="m202.945312 478.191406c-.757812 18.898438-16.308593 33.824219-35.222656 33.808594h-35.308594c-19.5 0-35.3125-15.808594-35.3125-35.308594v-76.800781zm0 0"/><path d="m414.898438 399.890625v76.800781c0 19.5-15.8125 35.308594-35.3125 35.308594h-35.308594c-18.914063.015625-34.464844-14.910156-35.222656-33.808594zm0 0"/><path d="m441.378906 308.964844c0 97.546875-82.980468 176.550781-185.378906 176.550781-2.738281 0-5.472656-.085937-8.121094-.261719-.46875.085938-.945312.085938-1.414062 0-97.984375-4.679687-175.84375-81.832031-175.84375-176.289062.503906-63.035156 34.953125-120.90625 90.128906-151.390625h190.5c55.175781 30.484375 89.625 88.355469 90.128906 151.390625zm0 0"/></g><path d="m423.722656 308.964844c0 94.457031-77.859375 171.609375-175.84375 176.289062-.46875.085938-.945312.085938-1.414062 0-97.984375-4.679687-175.84375-81.832031-175.84375-176.289062.503906-63.035156 34.953125-120.90625 90.128906-151.390625h172.84375c55.175781 30.484375 89.628906 88.355469 90.128906 151.390625zm0 0" fill="#cc66a1"/><path d="m217.476562 275.5625c-47.457031-18.527344-75.003906-68.210938-65.578124-118.277344 9.425781-50.066406 53.15625-86.332031 104.101562-86.332031s94.675781 36.265625 104.101562 86.332031c9.425782 50.066406-18.121093 99.75-65.578124 118.277344zm0 0" fill="#cc66a1"/><path d="m353.101562 176.550781c.027344 40.015625-24.507812 75.945313-61.792968 90.484375h-70.617188c-41.945312-16.386718-67.121094-59.464844-60.8125-104.050781 6.3125-44.589844 42.449219-78.988281 87.292969-83.09375 2.914063-.265625 5.828125-.441406 8.828125-.441406 25.757812-.015625 50.464844 10.210937 68.679688 28.425781 18.210937 18.210938 28.4375 42.917969 28.421874 68.675781zm0 0" fill="#e6e7e8"/><path d="m335.449219 176.550781c.023437 40.015625-24.511719 75.945313-61.792969 90.484375h-52.964844c-41.945312-16.386718-67.121094-59.464844-60.8125-104.050781 6.3125-44.589844 42.449219-78.988281 87.292969-83.09375 50.007813 4.515625 88.304687 46.449219 88.277344 96.660156zm0 0" fill="#fff"/><path d="m123.585938 264.828125c-4.308594-.007813-7.984376-3.121094-8.695313-7.371094-3.035156-18.210937-15.960937-20.992187-38.53125-24.339843-23.648437-3.53125-53.082031-7.855469-58.605469-46.484376-2.628906-20.03125-.164062-40.40625 7.167969-59.234374 1.054687-3.011719 3.652344-5.222657 6.796875-5.777344 3.144531-.554688 6.339844.632812 8.363281 3.101562 2.023438 2.46875 2.554688 5.839844 1.390625 8.8125-6.289062 16.074219-8.4375 33.46875-6.242187 50.589844 3.476562 24.363281 18.882812 27.851562 43.714843 31.53125 21.40625 3.171875 48.066407 7.117188 53.355469 38.886719.382813 2.308593-.164062 4.679687-1.523437 6.582031-1.363282 1.90625-3.425782 3.195312-5.734375 3.578125-.480469.085937-.96875.125-1.457031.125zm0 0" fill="#804169"/><path d="m388.414062 264.828125c-.488281 0-.976562-.039063-1.457031-.125-2.308593-.382813-4.371093-1.671875-5.734375-3.578125-1.359375-1.902344-1.90625-4.273438-1.523437-6.582031 5.296875-31.777344 31.949219-35.714844 53.355469-38.886719 24.832031-3.679688 40.238281-7.167969 43.714843-31.53125 2.195313-17.121094.046875-34.515625-6.242187-50.589844-1.164063-2.972656-.632813-6.34375 1.390625-8.8125 2.023437-2.46875 5.21875-3.65625 8.363281-3.101562 3.144531.554687 5.742188 2.765625 6.796875 5.777344 7.332031 18.828124 9.796875 39.203124 7.167969 59.234374-5.523438 38.628907-34.957032 42.992188-58.605469 46.484376-22.570313 3.347656-35.496094 6.128906-38.53125 24.339843-.710937 4.25-4.386719 7.363281-8.695313 7.371094zm0 0" fill="#804169"/><path d="m317.792969 176.550781c0 34.128907-27.664063 61.792969-61.792969 61.792969s-61.792969-27.664062-61.792969-61.792969c0-34.125 27.664063-61.792969 61.792969-61.792969s61.792969 27.667969 61.792969 61.792969zm0 0" fill="#b0d3f0"/><path d="m291.308594 176.550781c0 19.503907-15.808594 35.3125-35.308594 35.3125s-35.308594-15.808593-35.308594-35.3125c0-19.5 15.808594-35.308593 35.308594-35.308593s35.308594 15.808593 35.308594 35.308593zm0 0" fill="#2c2f38"/><path d="m256 264.828125v17.65625c-11.972656-.136719-23.886719 1.621094-35.308594 5.207031v-22.863281c0-9.75 7.902344-17.65625 17.652344-17.65625s17.65625 7.90625 17.65625 17.65625zm0 0" fill="#f5efca"/><path d="m291.308594 264.828125v22.863281c-11.421875-3.585937-23.335938-5.34375-35.308594-5.207031v-17.65625c0-9.75 7.90625-17.65625 17.65625-17.65625s17.652344 7.90625 17.652344 17.65625zm0 0" fill="#f5efca"/><path d="m282.484375 335.449219c-2.34375 0-4.585937-.933594-6.242187-2.585938-5.792969-4.417969-12.96875-6.628906-20.242188-6.242187-7.308594-.382813-14.511719 1.867187-20.304688 6.335937-3.523437 3.308594-9.042968 3.195313-12.429687-.253906-3.382813-3.433594-3.359375-8.953125.054687-12.359375 9.042969-7.820312 20.734376-11.890625 32.679688-11.378906 11.964844-.515625 23.675781 3.570312 32.722656 11.414062 2.523438 2.523438 3.28125 6.320313 1.914063 9.621094-1.367188 3.296875-4.585938 5.449219-8.152344 5.449219zm0 0" fill="#804169"/><path d="m158.898438 388.414062c-4.878907 0-8.828126-3.953124-8.828126-8.828124 0-.785157.777344-78.566407 67.890626-100.289063 24.800781-7.523437 51.277343-7.523437 76.078124 0 67.113282 21.722656 67.890626 99.503906 67.890626 100.289063 0 4.875-3.949219 8.828124-8.828126 8.828124-4.875 0-8.824218-3.953124-8.824218-8.828124 0-2.648438-.882813-65.746094-55.695313-83.515626-21.257812-6.339843-43.90625-6.339843-65.164062 0-55.058594 17.863282-55.695313 82.863282-55.695313 83.515626 0 4.875-3.949218 8.828124-8.824218 8.828124zm0 0" fill="#802d40"/><path d="m141.242188 70.621094c0 39.003906-31.617188 70.621094-70.621094 70.621094s-70.621094-31.617188-70.621094-70.621094 31.617188-70.621094 70.621094-70.621094 70.621094 31.617188 70.621094 70.621094zm0 0" fill="#cc66a1"/><path d="m512 70.621094c0 39.003906-31.617188 70.621094-70.621094 70.621094s-70.621094-31.617188-70.621094-70.621094 31.617188-70.621094 70.621094-70.621094 70.621094 31.617188 70.621094 70.621094zm0 0" fill="#cc66a1"/><path d="m132.414062 70.621094c0 34.128906-27.664062 61.792968-61.792968 61.792968-2.957032.035157-5.914063-.203124-8.828125-.707031-30.382813-4.363281-52.941407-30.390625-52.941407-61.085937 0-30.695313 22.558594-56.722656 52.941407-61.085938 2.914062-.507812 5.871093-.742187 8.828125-.707031 34.128906 0 61.792968 27.664063 61.792968 61.792969zm0 0" fill="#e6e7e8"/><path d="m114.757812 70.621094c0-33.738282-23.710937-61.085938-52.964843-61.085938-29.25 0-52.964844 27.347656-52.964844 61.085938 0 33.738281 23.714844 61.085937 52.964844 61.085937 29.253906 0 52.964843-27.347656 52.964843-61.085937zm0 0" fill="#fff"/><path d="m503.171875 70.621094c0 34.128906-27.664063 61.792968-61.792969 61.792968-2.957031.035157-5.914062-.203124-8.828125-.707031-30.382812-4.363281-52.941406-30.390625-52.941406-61.085937 0-30.695313 22.558594-56.722656 52.941406-61.085938 2.914063-.507812 5.871094-.742187 8.828125-.707031 34.128906 0 61.792969 27.664063 61.792969 61.792969zm0 0" fill="#e6e7e8"/><path d="m485.515625 70.621094c0-33.738282-23.710937-61.085938-52.964844-61.085938-29.25 0-52.964843 27.347656-52.964843 61.085938 0 33.738281 23.714843 61.085937 52.964843 61.085937 29.253907 0 52.964844-27.347656 52.964844-61.085937zm0 0" fill="#fff"/><path d="m114.757812 70.621094c0 24.375-19.761718 44.136718-44.136718 44.136718-24.378906 0-44.136719-19.761718-44.136719-44.136718 0-24.378906 19.757813-44.136719 44.136719-44.136719 24.375 0 44.136718 19.757813 44.136718 44.136719zm0 0" fill="#b0d3f0"/><path d="m485.515625 70.621094c0 24.375-19.757813 44.136718-44.136719 44.136718-24.375 0-44.136718-19.761718-44.136718-44.136718 0-24.378906 19.761718-44.136719 44.136718-44.136719 24.378906 0 44.136719 19.757813 44.136719 44.136719zm0 0" fill="#b0d3f0"/><path d="m97.101562 70.621094c0 14.625-11.855468 26.480468-26.480468 26.480468s-26.484375-11.855468-26.484375-26.480468 11.859375-26.484375 26.484375-26.484375 26.480468 11.859375 26.480468 26.484375zm0 0" fill="#2c2f38"/><path d="m467.863281 70.621094c0 14.625-11.859375 26.480468-26.484375 26.480468s-26.480468-11.855468-26.480468-26.480468 11.855468-26.484375 26.480468-26.484375 26.484375 11.859375 26.484375 26.484375zm0 0" fill="#2c2f38"/><path d="m70.621094 44.136719c0 9.75-7.90625 17.65625-17.65625 17.65625s-17.65625-7.90625-17.65625-17.65625 7.90625-17.652344 17.65625-17.652344 17.65625 7.902344 17.65625 17.652344zm0 0" fill="#fff"/><path d="m256 141.242188c0 14.625-11.855469 26.480468-26.484375 26.480468-14.625 0-26.480469-11.855468-26.480469-26.480468s11.855469-26.484376 26.480469-26.484376c14.628906 0 26.484375 11.859376 26.484375 26.484376zm0 0" fill="#fff"/><path d="m441.378906 44.136719c0 9.75-7.902344 17.65625-17.65625 17.65625-9.75 0-17.652344-7.90625-17.652344-17.65625s7.902344-17.652344 17.652344-17.652344c9.753906 0 17.65625 7.902344 17.65625 17.652344zm0 0" fill="#fff"/></svg>