<svg height="512pt" viewBox="-35 0 512 512.00001" width="512pt" xmlns="http://www.w3.org/2000/svg"><path d="m441.378906 220.691406v282.480469c0 4.875-3.953125 8.828125-8.828125 8.828125h-423.722656c-4.875 0-8.828125-3.953125-8.828125-8.828125v-282.480469c-.0585938-118.476562 93.480469-215.835937 211.863281-220.515625 2.910157-.0859372 5.914063-.175781 8.828125-.175781 58.535156-.0195312 114.679688 23.226562 156.070313 64.617188 41.390625 41.390624 64.636719 97.535156 64.617187 156.074218zm0 0" fill="#f29c1f"/><path d="m423.722656 220.691406v282.480469c0 4.875-3.949218 8.828125-8.824218 8.828125h-406.070313c-4.875 0-8.828125-3.953125-8.828125-8.828125v-282.480469c-.0585938-118.476562 93.480469-215.835937 211.863281-220.515625 118.371094 4.699219 211.902344 102.046875 211.859375 220.515625zm0 0" fill="#f0c419"/><path d="m148.605469 58.730469c-4.203125 0-7.820313-2.957031-8.65625-7.070313-.835938-4.117187 1.34375-8.25 5.210937-9.886718 23.890625-10.132813 49.582032-15.332032 75.53125-15.289063 4.875 0 8.824219 3.949219 8.824219 8.824219 0 4.878906-3.949219 8.828125-8.824219 8.828125-23.585937-.042969-46.933594 4.683593-68.644531 13.894531-1.089844.460938-2.261719.695312-3.441406.699219zm0 0" fill="#f3d55b"/><path d="m35.308594 485.515625c-4.875 0-8.824219-3.949219-8.824219-8.824219v-194.207031c0-4.875 3.949219-8.828125 8.824219-8.828125 4.878906 0 8.828125 3.953125 8.828125 8.828125v194.207031c0 4.875-3.949219 8.824219-8.828125 8.824219zm0 0" fill="#f3d55b"/><path d="m194.207031 176.550781c0 39.003907-31.617187 70.621094-70.621093 70.621094-2.949219.003906-5.898438-.175781-8.828126-.527344-35.394531-4.363281-61.988281-34.429687-61.988281-70.09375 0-35.664062 26.59375-65.730469 61.988281-70.089843 2.929688-.355469 5.878907-.53125 8.828126-.53125 39.003906 0 70.621093 31.621093 70.621093 70.621093zm0 0" fill="#e6e7e8"/><path d="m388.414062 176.550781c0 39.003907-31.617187 70.621094-70.621093 70.621094-2.949219.003906-5.898438-.175781-8.828125-.527344-35.394532-4.363281-61.988282-34.429687-61.988282-70.09375 0-35.664062 26.59375-65.730469 61.988282-70.089843 2.929687-.355469 5.878906-.53125 8.828125-.53125 39.003906 0 70.621093 31.621093 70.621093 70.621093zm0 0" fill="#e6e7e8"/><path d="m176.550781 176.550781c0-38.710937-27.664062-70.089843-61.792969-70.089843-34.125 0-61.792968 31.378906-61.792968 70.089843 0 38.710938 27.667968 70.09375 61.792968 70.09375 34.128907 0 61.792969-31.382812 61.792969-70.09375zm0 0" fill="#fff"/><path d="m370.757812 176.550781c0-38.710937-27.664062-70.089843-61.792968-70.089843-34.125 0-61.792969 31.378906-61.792969 70.089843 0 38.710938 27.667969 70.09375 61.792969 70.09375 34.128906 0 61.792968-31.382812 61.792968-70.09375zm0 0" fill="#fff"/><path d="m167.722656 176.550781c0 24.378907-19.757812 44.140625-44.136718 44.140625-24.375 0-44.136719-19.761718-44.136719-44.140625 0-24.375 19.761719-44.136719 44.136719-44.136719 24.378906 0 44.136718 19.761719 44.136718 44.136719zm0 0" fill="#67b9cc"/><path d="m361.929688 176.550781c0 24.378907-19.761719 44.140625-44.136719 44.140625s-44.136719-19.761718-44.136719-44.140625c0-24.375 19.761719-44.136719 44.136719-44.136719s44.136719 19.761719 44.136719 44.136719zm0 0" fill="#67b9cc"/><path d="m150.070312 176.550781c0 14.628907-11.859374 26.484375-26.484374 26.484375s-26.484376-11.855468-26.484376-26.484375c0-14.625 11.859376-26.480469 26.484376-26.480469s26.484374 11.855469 26.484374 26.480469zm0 0" fill="#2c2f38"/><path d="m344.277344 176.550781c0 14.628907-11.859375 26.484375-26.484375 26.484375s-26.484375-11.855468-26.484375-26.484375c0-14.625 11.859375-26.480469 26.484375-26.480469s26.484375 11.855469 26.484375 26.480469zm0 0" fill="#2c2f38"/><path d="m123.585938 282.484375h194.207031c14.625 0 26.484375 11.855469 26.484375 26.480469v141.242187c0 14.625-11.859375 26.484375-26.484375 26.484375h-194.207031c-14.625 0-26.484376-11.859375-26.484376-26.484375v-141.242187c0-14.625 11.859376-26.480469 26.484376-26.480469zm0 0" fill="#802d40"/><path d="m332.359375 286.808594-30.542969 42.726562c-4.519531 6.457032-12.816406 9.066406-20.214844 6.355469h-.089843c-1.6875-.558594-3.269531-1.394531-4.679688-2.472656l-10.238281-7.679688c-4.742188-3.539062-10.9375-4.464843-16.507812-2.472656-1.671876.59375-3.246094 1.425781-4.679688 2.472656l-14.125 10.59375c-4.738281 3.535157-10.9375 4.464844-16.507812 2.472657-1.667969-.59375-3.246094-1.425782-4.675782-2.472657l-14.125-10.59375c-4.742187-3.539062-10.9375-4.464843-16.507812-2.472656-1.671875.59375-3.246094 1.425781-4.679688 2.472656l-10.238281 7.679688c-4.746094 3.609375-11.007813 4.542969-16.597656 2.472656 0 .085937 0 .085937-.085938 0-3.359375-1.207031-6.261719-3.429687-8.300781-6.355469l-30.542969-42.726562c4.328125-2.835938 9.394531-4.339844 14.566407-4.324219h194.207031c5.175781-.015625 10.238281 1.488281 14.566406 4.324219zm0 0" fill="#f9eab0"/><path d="m332.359375 472.363281c-4.328125 2.839844-9.390625 4.34375-14.566406 4.328125h-194.207031c-5.171876.015625-10.238282-1.488281-14.566407-4.328125l30.542969-42.726562c2.039062-2.925781 4.941406-5.148438 8.300781-6.355469h.085938c5.589843-2.070312 11.851562-1.136719 16.597656 2.472656l10.238281 7.679688c1.433594 1.046875 3.007813 1.878906 4.679688 2.472656 5.570312 1.992188 11.765625 1.066406 16.507812-2.472656l14.125-10.59375c1.429688-1.046875 3.007813-1.878906 4.675782-2.46875 5.570312-1.996094 11.769531-1.066406 16.507812 2.46875l14.125 10.59375c1.433594 1.046875 3.007812 1.878906 4.679688 2.472656 5.570312 1.992188 11.765624 1.066406 16.507812-2.472656l10.238281-7.679688c1.410157-1.078125 2.992188-1.914062 4.679688-2.472656h.089843c7.398438-2.710938 15.695313-.101562 20.214844 6.355469zm0 0" fill="#f9eab0"/><g fill="#f5efca"><path d="m320.441406 286.808594-30.542968 42.726562c-2.039063 2.925782-4.941407 5.148438-8.296876 6.355469h-.089843c-1.6875-.558594-3.269531-1.394531-4.679688-2.472656l-10.238281-7.679688c-4.742188-3.539062-10.9375-4.464843-16.507812-2.472656-5.597657-1.992187-11.820313-1.066406-16.597657 2.472656l-14.121093 10.59375c-1.414063 1.027344-2.957032 1.859375-4.59375 2.472657-1.667969-.59375-3.246094-1.425782-4.675782-2.472657l-14.125-10.59375c-4.742187-3.539062-10.9375-4.464843-16.507812-2.472656-5.597656-1.992187-11.820313-1.066406-16.597656 2.472656l-10.238282 7.679688c-1.421875 1.0625-3 1.894531-4.679687 2.472656 0 .085937 0 .085937-.085938 0-3.359375-1.207031-6.261719-3.429687-8.300781-6.355469l-30.542969-42.726562c4.328125-2.835938 9.394531-4.339844 14.566407-4.324219h182.289062c5.175781-.015625 10.238281 1.488281 14.566406 4.324219zm0 0"/><path d="m320.441406 472.363281c-4.328125 2.839844-9.390625 4.34375-14.566406 4.328125h-182.289062c-5.171876.015625-10.238282-1.488281-14.566407-4.328125l30.542969-42.726562c2.039062-2.925781 4.941406-5.148438 8.300781-6.355469h.085938c1.679687.578125 3.257812 1.410156 4.679687 2.472656l10.238282 7.679688c4.777343 3.539062 11 4.464844 16.597656 2.472656 5.570312 1.992188 11.765625 1.066406 16.507812-2.472656l14.125-10.59375c1.429688-1.046875 3.007813-1.878906 4.675782-2.46875 1.636718.609375 3.179687 1.441406 4.59375 2.46875l14.121093 10.59375c4.777344 3.539062 11 4.464844 16.597657 2.472656 5.570312 1.992188 11.765624 1.066406 16.507812-2.472656l10.238281-7.679688c1.410157-1.078125 2.992188-1.914062 4.679688-2.472656h.089843c3.355469 1.207031 6.257813 3.429688 8.296876 6.355469zm0 0"/></g></svg>