<svg height="512pt" viewBox="0 0 512 512.00165" width="512pt" xmlns="http://www.w3.org/2000/svg"><path d="m494.027344 512h-476.160156c-5.203126.039062-10.164063-2.214844-13.5625-6.15625-3.398438-3.941406-4.894532-9.179688-4.089844-14.324219l68.058594-412.070312 14.742187-65.589844c1.355469-5.886719 5.613281-10.675781 11.300781-12.710937h.085938c1.9375-.777344 4.007812-1.1679692 6.09375-1.148438 15.070312-.0976562 29.558594 5.804688 40.273437 16.402344 10.714844 10.597656 16.773438 25.023437 16.839844 40.09375.015625 6.105468 2.460937 11.949218 6.796875 16.246094 4.410156 4.3125 10.339844 6.722656 16.507812 6.707031h150.070313c6.136719.058593 12.042969-2.332031 16.414063-6.636719 4.375-4.308594 6.851562-10.175781 6.890624-16.316406-.019531-15.023438 5.988282-29.429688 16.683594-39.988282 7.953125-7.773437 17.972656-13.105468 28.867188-15.359374h.085937c3.773438-.78125 7.621094-1.1679692 11.476563-1.148438 8.347656-.03125 15.605468 5.722656 17.480468 13.859375l14.738282 65.589844 68.0625 412.070312c.804687 5.144531-.691406 10.382813-4.09375 14.324219-3.398438 3.941406-8.355469 6.195312-13.5625 6.15625zm0 0" fill="#c03a2b"/><path d="m476.375 512h-458.507812c-5.203126.039062-10.164063-2.214844-13.5625-6.15625-3.398438-3.941406-4.894532-9.179688-4.089844-14.324219l68.058594-412.070312 14.742187-65.589844c1.355469-5.886719 5.613281-10.675781 11.300781-12.710937h.085938c26.425781 5.253906 45.480468 28.410156 45.550781 55.347656.015625 6.105468 2.464844 11.949218 6.796875 16.246094 4.410156 4.3125 10.339844 6.722656 16.507812 6.707031h167.726563c6.136719.058593 12.042969-2.332031 16.414063-6.636719 4.375-4.308594 6.851562-10.175781 6.890624-16.316406-.019531-15.023438 5.988282-29.429688 16.683594-39.988282 7.953125-7.773437 17.972656-13.105468 28.867188-15.359374h.085937c5.6875 2.035156 9.945313 6.824218 11.300781 12.710937l14.742188 65.589844 68.058594 412.070312c.804687 5.144531-.691406 10.382813-4.089844 14.324219s-8.359375 6.195312-13.5625 6.15625zm0 0" fill="#e64c3c"/><path d="m229.464844 203.035156c0 39.003906-31.617188 70.621094-70.621094 70.621094-2.949219.003906-5.898438-.175781-8.828125-.53125-35.394531-4.359375-61.984375-34.425781-61.984375-70.089844 0-35.664062 26.589844-65.730468 61.984375-70.089844 2.929687-.355468 5.878906-.53125 8.828125-.53125 39.003906 0 70.621094 31.617188 70.621094 70.621094zm0 0" fill="#e6e7e8"/><path d="m423.671875 203.035156c0 39.003906-31.617187 70.621094-70.621094 70.621094-2.949219.003906-5.898437-.175781-8.828125-.53125-35.394531-4.359375-61.984375-34.425781-61.984375-70.089844 0-35.664062 26.589844-65.730468 61.984375-70.089844 2.929688-.355468 5.878906-.53125 8.828125-.53125 39.003907 0 70.621094 31.617188 70.621094 70.621094zm0 0" fill="#e6e7e8"/><path d="m211.8125 203.035156c0-38.710937-27.667969-70.089844-61.796875-70.089844-34.125 0-61.792969 31.378907-61.792969 70.089844 0 38.710938 27.667969 70.089844 61.792969 70.089844 34.128906 0 61.796875-31.378906 61.796875-70.089844zm0 0" fill="#fff"/><path d="m406.015625 203.035156c0-38.710937-27.664063-70.089844-61.792969-70.089844-34.125 0-61.792968 31.378907-61.792968 70.089844 0 38.710938 27.667968 70.089844 61.792968 70.089844 34.128906 0 61.792969-31.378906 61.792969-70.089844zm0 0" fill="#fff"/><path d="m202.984375 203.035156c0 24.378906-19.761719 44.136719-44.140625 44.136719-24.375 0-44.136719-19.757813-44.136719-44.136719 0-24.375 19.761719-44.136718 44.136719-44.136718 24.378906 0 44.140625 19.761718 44.140625 44.136718zm0 0" fill="#4482c3"/><path d="m397.191406 203.035156c0 24.378906-19.761718 44.136719-44.140625 44.136719-24.375 0-44.136719-19.757813-44.136719-44.136719 0-24.375 19.761719-44.136718 44.136719-44.136718 24.378907 0 44.140625 19.761718 44.140625 44.136718zm0 0" fill="#4482c3"/><path d="m185.328125 203.035156c0 14.625-11.855469 26.484375-26.484375 26.484375-14.625 0-26.480469-11.859375-26.480469-26.484375s11.855469-26.480468 26.480469-26.480468c14.628906 0 26.484375 11.855468 26.484375 26.480468zm0 0" fill="#2c2f38"/><path d="m379.535156 203.035156c0 14.625-11.855468 26.484375-26.484375 26.484375-14.625 0-26.480469-11.859375-26.480469-26.484375s11.855469-26.480468 26.480469-26.480468c14.628907 0 26.484375 11.855468 26.484375 26.480468zm0 0" fill="#2c2f38"/><path d="m412.902344 425.84375c-1.234375 1.589844-2.558594 3.179688-3.972656 4.679688-3.160157 3.550781-6.613282 6.828124-10.328126 9.796874-.851562.78125-1.765624 1.492188-2.734374 2.121094-22.953126 16.222656-49.597657 26.449219-77.507813 29.746094-.652344.078125-1.304687.195312-1.941406.355469-5.03125.707031-10.328125 1.410156-15.800781 1.941406-.703126.101563-1.410157.160156-2.121094.175781-28.300782 2.707032-56.796875 2.707032-85.097656 0-.707032-.015625-1.414063-.074218-2.117188-.175781-5.472656-.53125-10.769531-1.234375-15.800781-1.941406-.640625-.160157-1.289063-.277344-1.941407-.355469-27.914062-3.296875-54.558593-13.523438-77.507812-29.746094-.96875-.628906-1.886719-1.339844-2.738281-2.121094-3.710938-2.96875-7.167969-6.246093-10.328125-9.796874-1.410156-1.5-2.734375-3.089844-3.972656-4.679688-39.015626-49.347656-7.679688-116.878906-7.679688-116.878906s2.03125 10.066406 21.011719 20.570312c5.277343 2.855469 10.765625 5.304688 16.417969 7.328125 12.105468 4.308594 24.574218 7.527344 37.253906 9.621094 3.882812.707031 8.03125 1.324219 12.359375 1.941406 2.027343.265625 4.148437.53125 6.265625.882813 3.621094.441406 7.503906.792968 11.476562 1.148437 14.652344 1.5 31.335938 2.382813 50.316406 2.558594 3.089844.089844 6.269532.089844 9.535157.089844s6.445312 0 9.53125-.089844c18.980469-.175781 35.664062-1.058594 50.320312-2.558594 3.972657-.355469 7.855469-.707031 11.472657-1.148437 2.121093-.351563 4.238281-.617188 6.269531-.882813 4.324219-.617187 8.472656-1.234375 12.359375-1.941406 12.679687-2.09375 25.144531-5.3125 37.25-9.621094 5.652344-2.023437 11.140625-4.472656 16.421875-7.328125 18.976562-10.503906 21.007812-20.570312 21.007812-20.570312s31.339844 67.53125-7.679687 116.878906zm0 0" fill="#f5efca"/><g fill="#f3d55b"><path d="m128.742188 336.863281-9.710938 72.296875-3.53125 26.394532c-.253906 1.769531-1.019531 3.425781-2.207031 4.765624-3.710938-2.96875-7.167969-6.246093-10.328125-9.796874-1.410156-1.5-2.734375-3.089844-3.972656-4.679688l12.535156-93.570312c.078125-.957032.347656-1.890626.796875-2.738282 5.277343 2.855469 10.765625 5.304688 16.417969 7.328125zm0 0"/><path d="m184.621094 349.308594c-.21875 1.472656-.792969 2.867187-1.675782 4.0625l-3.621093 4.855468-62.941407 83.859376c-.066406.160156-.195312.285156-.351562.355468-.96875-.628906-1.886719-1.339844-2.738281-2.121094-3.710938-2.96875-7.167969-6.246093-10.328125-9.796874l16.066406-21.363282 46.964844-62.675781c3.882812.707031 8.03125 1.324219 12.359375 1.941406 2.027343.265625 4.148437.53125 6.265625.882813zm0 0"/><path d="m316.417969 472.542969c-5.03125.707031-10.328125 1.410156-15.800781 1.941406-.703126.101563-1.410157.160156-2.121094.175781l-42.546875-99.132812-42.550781 99.132812c-.707032-.015625-1.414063-.074218-2.117188-.175781-5.472656-.53125-10.769531-1.234375-15.800781-1.941406.089843-.792969.300781-1.566407.617187-2.296875l11.5625-26.921875 38.753906-90.308594c3.089844.089844 6.269532.089844 9.535157.089844s6.445312 0 9.53125-.089844l38.753906 90.308594 11.566406 26.921875c.316407.730468.523438 1.503906.617188 2.296875zm0 0"/><path d="m412.902344 425.84375c-1.234375 1.589844-2.558594 3.179688-3.972656 4.679688-3.160157 3.550781-6.613282 6.828124-10.328126 9.796874-1.203124-1.328124-1.972656-2.988281-2.207031-4.765624l-3.53125-26.394532-9.710937-72.296875c5.652344-2.023437 11.140625-4.472656 16.421875-7.328125.445312.847656.71875 1.78125.792969 2.738282zm0 0"/><path d="m333.542969 348.425781c.089843.734375.089843 1.472657 0 2.207031l-.972657 7.59375-14.210937 113.960938c-.652344.078125-1.304687.195312-1.941406.355469-5.03125.707031-10.328125 1.410156-15.800781 1.941406-.089844-.675781-.089844-1.355469 0-2.03125l3.617187-29.128906 11.566406-92.867188c3.972657-.355469 7.855469-.707031 11.472657-1.148437 2.121093-.351563 4.238281-.617188 6.269531-.882813zm0 0"/><path d="m408.929688 430.523438c-3.160157 3.550781-6.613282 6.828124-10.328126 9.796874-.851562.78125-1.765624 1.492188-2.734374 2.121094-.160157-.070312-.285157-.195312-.355469-.355468l-62.941407-83.859376-3.617187-4.855468c-.882813-1.195313-1.460937-2.589844-1.679687-4.0625 2.121093-.351563 4.238281-.617188 6.269531-.882813 4.324219-.617187 8.472656-1.234375 12.359375-1.941406l46.960937 62.675781zm0 0"/><path d="m211.28125 472.453125c.089844.675781.089844 1.355469 0 2.03125-5.472656-.53125-10.769531-1.234375-15.800781-1.941406-.640625-.160157-1.289063-.277344-1.941407-.355469l-14.214843-113.960938-.96875-7.59375c-.089844-.734374-.089844-1.472656 0-2.207031 2.027343.265625 4.148437.53125 6.265625.882813 3.621094.441406 7.503906.792968 11.476562 1.148437l11.5625 92.867188zm0 0"/></g><path d="m132.363281 317.792969c-1.601562 0-3.167969-.433594-4.539062-1.261719-38.265625-22.949219-60.910157-9.1875-61.175781-9.046875-2.621094 1.75-5.980469 1.96875-8.808594.570313-2.828125-1.398438-4.695313-4.199219-4.898438-7.34375-.207031-3.148438 1.285156-6.164063 3.910156-7.917969 1.28125-.882813 31.699219-20.398438 80.066407 8.609375 3.398437 2.042968 5.019531 6.105468 3.957031 9.929687-1.0625 3.820313-4.546875 6.464844-8.511719 6.460938zm0 0" fill="#c03a2b"/><path d="m379.535156 317.792969c-3.96875.003906-7.449218-2.640625-8.511718-6.460938-1.0625-3.824219.554687-7.886719 3.957031-9.929687 48.367187-29.007813 78.792969-9.457032 80.066406-8.609375 3.976563 2.71875 5.042969 8.125 2.394531 12.148437-2.652344 4.023438-8.039062 5.179688-12.105468 2.59375-1.105469-.679687-23.199219-13.832031-61.265626 8.996094-1.367187.828125-2.9375 1.261719-4.535156 1.261719zm0 0" fill="#c03a2b"/><path d="m158.84375 176.554688c0 14.625-11.855469 26.480468-26.480469 26.480468-14.628906 0-26.484375-11.855468-26.484375-26.480468 0-14.628907 11.855469-26.484376 26.484375-26.484376 14.625 0 26.480469 11.855469 26.480469 26.484376zm0 0" fill="#fff"/><path d="m353.050781 176.554688c0 14.625-11.855469 26.480468-26.480469 26.480468-14.628906 0-26.484374-11.855468-26.484374-26.480468 0-14.628907 11.855468-26.484376 26.484374-26.484376 14.625 0 26.480469 11.855469 26.480469 26.484376zm0 0" fill="#fff"/></svg>