<svg height="512pt" viewBox="0 0 512 512" width="512pt" xmlns="http://www.w3.org/2000/svg"><path d="m512 317.792969c0 123.320312-87.039062 179.199219-203.035156 191.46875-2.914063.355469-5.824219.621093-8.828125.882812-3 .265625-5.824219.441407-8.738281.621094-8.738282.617187-17.566407 1.058594-26.570313 1.144531-2.914063.089844-5.914063.089844-8.828125.089844-2.117188 0-4.324219 0-6.445312-.089844h-4.765626c-8.210937-.175781-16.242187-.527344-24.1875-1.144531-2.914062-.089844-5.828124-.355469-8.738281-.621094-2.914062-.261719-5.914062-.527343-8.828125-.882812-115.996094-12.269531-203.035156-68.148438-203.035156-191.46875 0-5.121094.175781-10.328125.53125-15.625.085938-2.648438.261719-5.382813.527344-8.121094.617187-6.972656 1.414062-14.125 2.5625-21.1875.527344-3.175781 1.058594-6.355469 1.675781-9.53125.097656-.832031.242187-1.660156.441406-2.472656l1.589844-7.945313c.351563-1.675781.703125-3.265625 1.144531-4.855468.53125-2.292969 1.0625-4.679688 1.679688-6.972657.882812-3.53125 1.851562-6.972656 2.824218-10.328125.792969-3.003906 1.675782-6.003906 2.648438-8.917968.089844-.351563.175781-.703126.265625-.96875 1.234375-3.796876 2.472656-7.679688 3.882813-11.476563.070312-.203125.128906-.410156.175781-.617187 1.414062-3.886719 2.824219-7.859376 4.414062-11.742188 1.324219-3.441406 2.738281-6.796875 4.148438-10.152344 3.796875-9.003906 7.945312-17.917968 12.449219-26.660156 3.707031-7.238281 7.679687-14.296875 11.828124-21.273438 2.207032-3.617187 4.503907-7.324218 6.796876-10.945312l100.015624-100.191406c26.519532-16.164063 56.578126-25.617188 87.570313-27.542969 2.914063-.1757812 5.828125-.265625 8.828125-.265625 34.050781.414062 67.355469 10.023438 96.398438 27.808594l42.371093 42.460937.972657.96875 56.671874 56.761719c2.292969 3.621094 4.589844 7.238281 6.796876 10.859375v.085937c32.976562 53.957032 51.179687 115.632813 52.789062 178.847657zm0 0" fill="#547580"/><path d="m494.34375 317.792969c0 116.964843-78.300781 173.199219-185.378906 189.261719-5.824219.882812-11.652344 1.589843-17.65625 2.207031-2.910156.355469-5.824219.621093-8.824219.882812-5.828125.53125-11.652344.882813-17.65625 1.238281-5.03125.265626-10.152344.441407-15.273437.527344h-4.765626c-8.210937-.175781-16.242187-.527344-24.1875-1.144531-2.914062-.089844-5.828124-.355469-8.738281-.621094-2.914062-.261719-5.914062-.527343-8.828125-.882812-115.996094-12.269531-203.035156-68.148438-203.035156-191.46875 0-5.121094.175781-10.328125.53125-15.625.085938-2.648438.261719-5.382813.527344-8.121094.617187-6.972656 1.414062-14.125 2.5625-21.1875.527344-3.175781 1.058594-6.355469 1.675781-9.53125.097656-.832031.242187-1.660156.441406-2.472656l1.589844-7.945313c.351563-1.675781.703125-3.265625 1.144531-4.855468.53125-2.292969 1.0625-4.679688 1.679688-6.972657.882812-3.53125 1.851562-6.972656 2.824218-10.328125.792969-3.003906 1.675782-6.003906 2.648438-8.917968.089844-.351563.175781-.703126.265625-.96875 1.234375-3.796876 2.472656-7.679688 3.882813-11.476563.070312-.203125.128906-.410156.175781-.617187 1.414062-3.886719 2.824219-7.859376 4.414062-11.742188 1.324219-3.441406 2.738281-6.796875 4.148438-10.152344 3.796875-9.003906 7.945312-17.917968 12.449219-26.660156 3.707031-7.238281 7.679687-14.296875 11.828124-21.273438 2.207032-3.617187 4.503907-7.324218 6.796876-10.945312l100.015624-100.191406c26.519532-16.164063 56.578126-25.617188 87.570313-27.542969 30.996094 1.925781 61.054687 11.378906 87.570313 27.542969l100.015624 100.191406c37.101563 56.503906 57.730469 122.222656 59.585938 189.792969zm0 0" fill="#84b5cb"/><path d="m256 0-24.433594 45.074219c-2.800781 5.691406-2.351562 12.449219 1.183594 17.71875 3.53125 5.269531 9.609375 8.253906 15.941406 7.828125h14.617188c6.332031.425781 12.410156-2.558594 15.941406-7.828125 3.535156-5.269531 3.984375-12.027344 1.183594-17.71875zm0 0" fill="#7d6599"/><path d="m206.917969 72.933594c-.769531-1.425782-2.261719-2.316406-3.882813-2.316406s-3.113281.890624-3.886718 2.316406l-20.546876 33.933594c-2.800781 5.691406-2.351562 12.449218 1.183594 17.71875 3.53125 5.269531 9.609375 8.253906 15.941406 7.828124h14.617188c6.332031.425782 12.410156-2.558593 15.941406-7.828124 3.53125-5.269532 3.984375-12.027344 1.183594-17.71875zm0 0" fill="#7d6599"/><path d="m312.851562 72.933594c-.773437-1.425782-2.265624-2.316406-3.886718-2.316406s-3.113282.890624-3.882813 2.316406l-20.550781 33.933594c-2.800781 5.691406-2.347656 12.449218 1.183594 17.71875 3.53125 5.269531 9.609375 8.253906 15.941406 7.828124h14.617188c6.332031.425782 12.410156-2.558593 15.941406-7.828124 3.535156-5.269532 3.984375-12.027344 1.183594-17.71875zm0 0" fill="#7d6599"/><path d="m256 238.34375c.035156 20.347656-6.359375 40.179688-18.273438 56.675781l-42.726562 33.453125c-11.472656 4.632813-23.730469 7-36.101562 6.976563-2.890626.027343-5.78125-.121094-8.652344-.441407-50.085938-4.414062-88.492188-46.382812-88.453125-96.664062.035156-5.917969.566406-11.824219 1.589843-17.652344 0-.179687.085938-.265625.085938-.441406v-.179688c2.738281.179688 5.652344.355469 8.652344.441407 41.226562 1.503906 101.695312-6.355469 143.359375-44.753907 3.207031-2.851562 6.242187-5.886718 9.09375-9.09375v.175782c20.078125 18.34375 31.488281 44.308594 31.425781 71.503906zm0 0" fill="#e6e7e8"/><path d="m238.34375 238.34375c.035156 20.347656-6.359375 40.179688-18.273438 56.675781l-42.722656 33.453125c-8.664062 3.5-17.796875 5.699219-27.101562 6.535156-2.914063.265626-5.914063.441407-9.003906.441407-25.757813.011719-50.464844-10.210938-68.679688-28.425781-18.210938-18.214844-28.4375-42.921876-28.425781-68.679688.023437-6.070312.582031-12.125 1.679687-18.09375v-.179688c5.472656.355469 11.296875.621094 17.566406.621094 2.914063 0 5.824219 0 8.738282-.179687 8.917968.375 17.847656.226562 26.746094-.441407 6.535156-.441406 13.332031-1.144531 20.21875-2.117187 8.445312-1.183594 16.816406-2.863281 25.070312-5.03125h.085938c14.414062-3.707031 28.339843-9.097656 41.488281-16.066406 10.753906-5.769531 20.75-12.859375 29.75-21.097657 14.816406 17.484376 22.917969 39.671876 22.863281 62.585938zm0 0" fill="#fff"/><path d="m450.207031 238.34375c.015625 25.757812-10.210937 50.464844-28.425781 68.679688-18.214844 18.214843-42.921875 28.4375-68.679688 28.425781-4.515624-.027344-9.023437-.320313-13.503906-.882813 48.191406-6.464844 84.15625-47.597656 84.125-96.222656-.019531-5.980469-.582031-11.949219-1.675781-17.832031 8.828125.308593 17.667969.160156 26.484375-.441407v.179688c1.09375 5.96875 1.65625 12.023438 1.675781 18.09375zm0 0" fill="#e6e7e8"/><path d="m423.722656 238.34375c.03125 48.625-35.933594 89.757812-84.125 96.222656-7.679687-1.136718-15.203125-3.148437-22.421875-6.003906l-42.726562-33.28125v-.085938c-24.886719-34.335937-24.566407-80.863281.792969-114.847656 3.613281-4.890625 7.691406-9.414062 12.183593-13.507812v-.175782c11.074219 12.265626 24.222657 22.488282 38.84375 30.191407 20.792969 10.929687 43.355469 18.101562 66.644531 21.1875 8.125 1.144531 16.066407 1.941406 23.660157 2.292969 1.851562.089843 3.617187.175781 5.472656.175781 1.09375 5.882812 1.65625 11.851562 1.675781 17.832031zm0 0" fill="#fff"/><path d="m422.046875 220.070312v.441407c-1.855469 0-3.621094-.085938-5.472656-.175781zm0 0" fill="#fff"/><path d="m229.515625 256c.007813 8.398438-1.671875 16.714844-4.941406 24.453125l-16.066407 21.980469c-18.234374 16.019531-44.15625 19.878906-66.265624 9.871094-22.109376-10.007813-36.316407-32.035157-36.3125-56.304688-.03125-2.15625.117187-4.3125.441406-6.445312 1.097656-11.539063 5.511718-22.515626 12.714844-31.601563 8.445312-1.183594 16.816406-2.863281 25.070312-5.03125h.085938c14.414062-3.707031 28.339843-9.097656 41.488281-16.066406 25.992187 7.972656 43.746093 31.960937 43.785156 59.144531zm0 0" fill="#e64c3c"/><path d="m406.070312 256c-.015624 24.175781-14.125 46.125-36.117187 56.171875s-47.824219 6.34375-66.109375-9.472656l-16.417969-22.335938c-6.871093-16.160156-6.566406-34.472656.839844-50.394531s21.214844-27.957031 38.003906-33.113281c20.792969 10.929687 43.355469 18.101562 66.644531 21.1875 8.550782 10.800781 13.1875 24.179687 13.15625 37.957031zm0 0" fill="#e64c3c"/><path d="m194.824219 333.59375.175781-5.121094 1.589844-37.691406c.417968-10.078125 8.28125-18.265625 18.332031-19.097656 10.050781-.828125 19.148437 5.957031 21.214844 15.832031l1.589843 7.503906 6.710938 31.867188zm0 0" fill="#f9eab0"/><path d="m203.035156 333.59375.097656-5.121094.882813-37.691406c.226563-10.0625 4.414063-18.273438 9.753906-19.066406 5.339844-.796875 10.222657 5.914062 11.351563 15.800781l.882812 7.503906 3.511719 31.867188zm0 0" fill="#f5efca"/><g fill="#547580"><path d="m256 388.414062c-13.609375-.535156-26.96875-3.839843-39.257812-9.710937-4.363282-2.175781-6.140626-7.480469-3.960938-11.847656 2.175781-4.363281 7.480469-6.140625 11.84375-3.960938 9.839844 4.664063 20.5 7.335938 31.375 7.863281 10.878906-.550781 21.542969-3.253906 31.375-7.945312 4.363281-2.175781 9.667969-.402344 11.84375 3.964844 2.179688 4.367187.402344 9.667968-3.960938 11.847656-12.285156 5.898438-25.644531 9.230469-39.257812 9.789062zm0 0"/><path d="m264.828125 441.378906v70.53125c-2.914063.089844-5.914063.089844-8.828125.089844-2.117188 0-4.324219 0-6.445312-.089844h-2.382813v-70.53125c0-4.875 3.953125-8.828125 8.828125-8.828125s8.828125 3.953125 8.828125 8.828125zm0 0"/><path d="m220.691406 459.035156v51.109375c.011719.210938-.019531.421875-.089844.621094-2.914062-.089844-5.828124-.355469-8.738281-.621094-2.914062-.261719-5.914062-.527343-8.828125-.882812v-50.226563c0-4.875 3.953125-8.828125 8.828125-8.828125s8.828125 3.953125 8.828125 8.828125zm0 0"/><path d="m308.964844 459.035156v50.226563c-2.914063.355469-5.824219.621093-8.828125.882812-3 .265625-5.824219.441407-8.738281.621094-.070313-.199219-.101563-.410156-.089844-.621094v-51.109375c0-4.875 3.953125-8.828125 8.828125-8.828125s8.828125 3.953125 8.828125 8.828125zm0 0"/></g><path d="m158.898438 88.277344-52.96875 52.964844v-105.933594l44.140624 8.828125zm0 0" fill="#ff5364"/><path d="m353.101562 88.277344 52.96875 52.964844v-105.933594l-44.140624 8.828125zm0 0" fill="#ff5364"/><path d="m158.898438 88.277344c-6.519532-19.632813-21.785157-35.125-41.316407-41.933594l.179688-32.308594c13.648437 5.453125 27.621093 10.050782 41.839843 13.773438 3.003907.808594 6.097657 1.601562 9.289063 2.371094 5.648437 1.300781 10.300781 5.292968 12.445313 10.679687 2.144531 5.386719 1.507812 11.480469-1.703126 16.308594zm0 0" fill="#547580"/><path d="m119.085938 19.507812-.707032 13.417969-6.886718 123.144531c-.21875 4-2.777344 7.492188-6.523438 8.90625-3.746094 1.414063-7.972656.484376-10.777344-2.371093l-91.191406-91.191407c-2.714844-2.714843-3.664062-6.734374-2.449219-10.378906 1.214844-3.644531 4.386719-6.289062 8.1875-6.832031l25.246094-3.621094c16.742187-2.378906 32.484375-9.382812 45.464844-20.214843l23.039062-19.15625c3.089844-2.578126 7.414063-3.078126 11.011719-1.28125 3.597656 1.800781 5.792969 5.5625 5.585938 9.578124zm0 0" fill="#84b5cb"/><path d="m509 71.414062-91.191406 91.191407c-2.804688 2.855469-7.03125 3.785156-10.777344 2.371093-3.746094-1.414062-6.304688-4.90625-6.523438-8.90625l-6.886718-123.144531-.707032-13.417969c-.207031-4.015624 1.988282-7.777343 5.585938-9.578124 3.597656-1.796876 7.921875-1.296876 11.011719 1.28125l23.039062 19.15625c12.980469 10.832031 28.722657 17.835937 45.464844 20.214843l25.246094 3.621094c3.800781.542969 6.972656 3.1875 8.1875 6.832031 1.214843 3.644532.265625 7.664063-2.449219 10.378906zm0 0" fill="#84b5cb"/><path d="m119.085938 37.164062-1.855469 33.105469-5.738281 103.457031c-.21875 4-2.777344 7.492188-6.523438 8.90625-3.746094 1.414063-7.972656.484376-10.777344-2.375l-41.402344-41.3125v-.085937c2.207032-3.621094 4.503907-7.238281 6.796876-10.859375l34.605468 34.605469c2.804688 2.855469 7.03125 3.785156 10.777344 2.371093 3.746094-1.414062 6.304688-4.90625 6.523438-8.90625l4.765624-84.832031 2.121094-38.3125c.554688 1.339844.796875 2.789063.707032 4.238281zm0 0" fill="#547580"/><path d="m118.378906 32.925781-6.886718 123.144531c-.21875 4-2.777344 7.492188-6.523438 8.90625-3.746094 1.414063-7.972656.484376-10.777344-2.371093l-89.335937-89.335938c1.171875-.757812 2.5-1.238281 3.882812-1.414062l25.246094-3.617188c16.742187-2.382812 32.484375-9.382812 45.464844-20.214843l23.039062-19.15625c2.484375-2.105469 5.835938-2.875 8.992188-2.070313 3.15625.808594 5.726562 3.089844 6.898437 6.128906zm0 0" fill="#84b5cb"/><path d="m459.210938 138.859375v.085937l-41.402344 41.3125c-2.804688 2.859376-7.03125 3.789063-10.777344 2.375-3.746094-1.414062-6.304688-4.90625-6.523438-8.90625l-5.738281-103.457031-1.855469-33.105469c-.089843-1.449218.152344-2.898437.707032-4.238281l2.121094 38.3125 4.765624 84.832031c.21875 4 2.777344 7.492188 6.523438 8.90625 3.746094 1.414063 7.972656.484376 10.777344-2.371093l34.605468-34.605469c2.292969 3.621094 4.589844 7.238281 6.796876 10.859375zm0 0" fill="#547580"/><path d="m507.144531 73.269531-89.335937 89.335938c-2.804688 2.855469-7.03125 3.785156-10.777344 2.371093-3.746094-1.414062-6.304688-4.90625-6.523438-8.90625l-6.886718-123.144531c1.171875-3.039062 3.742187-5.320312 6.898437-6.128906 3.15625-.804687 6.507813-.035156 8.992188 2.070313l23.039062 19.15625c12.980469 10.832031 28.722657 17.832031 45.464844 20.214843l25.246094 3.617188c1.382812.175781 2.710937.65625 3.882812 1.414062zm0 0" fill="#84b5cb"/><path d="m353.101562 88.277344c6.519532-19.632813 21.785157-35.125 41.316407-41.933594l-.179688-32.308594c-13.648437 5.453125-27.621093 10.050782-41.839843 13.773438-3.003907.808594-6.097657 1.601562-9.289063 2.371094-5.648437 1.300781-10.300781 5.292968-12.445313 10.679687-2.144531 5.386719-1.507812 11.480469 1.703126 16.308594zm0 0" fill="#547580"/><path d="m203.035156 256c0 19.5-15.808594 35.308594-35.3125 35.308594-19.5 0-35.308594-15.808594-35.308594-35.308594s15.808594-35.308594 35.308594-35.308594c19.503906 0 35.3125 15.808594 35.3125 35.308594zm0 0" fill="#2c2f38"/><path d="m379.585938 256c0 19.5-15.808594 35.308594-35.308594 35.308594-19.503906 0-35.3125-15.808594-35.3125-35.308594s15.808594-35.308594 35.3125-35.308594c19.5 0 35.308594 15.808594 35.308594 35.308594zm0 0" fill="#2c2f38"/><path d="m150.070312 229.515625c0 14.628906-11.859374 26.484375-26.484374 26.484375-6.335938.039062-12.460938-2.253906-17.214844-6.445312-5.886719-4.988282-9.28125-12.320313-9.269532-20.039063-.007812-3.230469.589844-6.433594 1.765626-9.445313 6.535156-.441406 13.332031-1.144531 20.21875-2.117187 8.445312-1.183594 16.816406-2.863281 25.070312-5.03125h.085938c3.777343 4.707031 5.832031 10.5625 5.828124 16.59375zm0 0" fill="#fff"/><path d="m326.621094 229.515625c0 14.628906-11.855469 26.484375-26.484375 26.484375-14.625 0-26.480469-11.855469-26.480469-26.484375 0-14.625 11.855469-26.480469 26.480469-26.480469 14.628906 0 26.484375 11.855469 26.484375 26.480469zm0 0" fill="#fff"/><path d="m267.742188 326.886719 6.707031-31.691407 1.589843-7.679687c2.066407-9.875 11.164063-16.660156 21.214844-15.832031 10.054688.832031 17.914063 9.019531 18.332032 19.097656l1.589843 37.78125.175781 5.121094zm0 0" fill="#f9eab0"/><path d="m282.484375 326.886719 3.582031-31.691407.882813-7.679687c1.128906-9.886719 5.984375-16.683594 11.351562-15.800781 5.367188.882812 9.570313 9.003906 9.753907 19.066406l.882812 37.78125.027344 5.121094zm0 0" fill="#f5efca"/><path d="m432.550781 432.550781c-3.699219-.003906-7.007812-2.316406-8.28125-5.789062-.96875-2.648438-24.496093-63.746094-109.019531-84.507813-15.679688-3.824218-31.714844-6.019531-47.84375-6.550781-7.488281-.34375-15.238281-.34375-22.546875 0-16.152344.542969-32.207031 2.707031-47.925781 6.464844-84.628906 20.761719-108.234375 82.007812-109.203125 84.601562-1.792969 4.40625-6.75 6.601563-11.214844 4.96875-4.464844-1.636719-6.832031-6.511719-5.355469-11.03125 1.066406-2.960937 27.363282-72.582031 121.5625-95.691406 16.851563-4.035156 34.0625-6.363281 51.378906-6.949219 7.6875-.378906 16.199219-.378906 24.0625 0 17.3125.582032 34.515626 2.949219 51.339844 7.0625 94.023438 23.09375 120.269532 92.636719 121.335938 95.585938.980468 2.703125.582031 5.714844-1.066406 8.074218-1.648438 2.355469-4.34375 3.757813-7.222657 3.761719zm0 0" fill="#802d40"/></svg>