<svg height="504pt" viewBox="0 0 504.15557 504" width="504pt" xmlns="http://www.w3.org/2000/svg"><path d="m46.148438 112.898438c-22.527344-60.613282 11.613281-98.605469 30.070312-111.414063 2.308594-1.5 5.1875-1.816406 7.765625-.851563 2.578125.960938 4.546875 3.089844 5.304687 5.734376 6.488282 20.304687 20.234376 37.5 38.605469 48.304687l9.304688 67.902344-39.917969 35.191406zm0 0" fill="#fdd7ad"/><path d="m375.390625 54.671875c18.375-10.800781 32.121094-28 38.609375-48.304687.757812-2.644532 2.726562-4.777344 5.304688-5.742188 2.582031-.960938 5.464843-.6445312 7.773437.859375 18.449219 12.808594 52.589844 50.816406 30.058594 111.5l-62.644531 70.726563zm0 0" fill="#fdd7ad"/><path d="m407.5 138.5-.085938.953125-8.765624 109.777344v.085937l-6.421876 80.878906c-1.117187 14.148438-4.363281 28.042969-9.632812 41.222657-4.6875 11.628906-2.941406 24.863281 4.601562 34.882812 12.609376 16.917969 15.539063 39.167969 7.738282 58.773438-7.804688 19.605469-25.222656 33.757812-46.007813 37.378906-6.289062 1.039063-12.695312 1.125-19.007812.261719-22-3.101563-40.542969-17.984375-48.335938-38.792969-1.472656-3.863281-5.46875-6.152344-9.546875-5.464844-3.730468.519531-7.546875.953125-11.367187 1.214844-3.035157.171875-5.988281.257813-9.023438.257813-3.039062 0-5.816406-.085938-8.679687-.257813-3.902344-.261719-7.808594-.695313-11.714844-1.214844-2.078125-.359375-4.214844.074219-5.988281 1.214844-1.640625.964844-2.898438 2.464844-3.558594 4.25-10.011719 26.800781-37.386719 42.964844-65.691406 38.792969l-1.648438-.261719c-20.785156-3.621094-38.203125-17.773437-46.007812-37.378906-7.804688-19.605469-4.875-41.855469 7.738281-58.773438 7.542969-10.019531 9.289062-23.253906 4.601562-34.882812-5.269531-13.179688-8.515624-27.074219-9.632812-41.222657l-6.511719-81.574218-8.761719-109.773438v-.347656c-2.3125-28.96875 7.578126-57.585938 27.289063-78.941406 19.707031-21.355469 47.4375-33.507813 76.496094-33.527344h104.136719c29.058593.019531 56.792968 12.171875 76.5 33.527344 19.707031 21.355468 29.601562 49.972656 27.289062 78.941406zm0 0" fill="#894b9d"/><path d="m390.144531 138.5-.085937.953125-8.765625 109.777344v.085937l-6.421875 80.878906c-1.117188 14.148438-4.363282 28.042969-9.632813 41.222657-4.6875 11.628906-2.941406 24.863281 4.597657 34.882812 12.613281 16.917969 15.542968 39.167969 7.742187 58.773438-7.804687 19.605469-25.222656 33.757812-46.011719 37.378906l-1.648437.261719c-28.304688 4.171875-55.675781-11.992188-65.691407-38.792969-.660156-1.785156-1.917968-3.285156-3.558593-4.25-1.773438-1.140625-3.910157-1.574219-5.988281-1.214844-3.902344.519531-7.808594.953125-11.714844 1.214844-2.863282.171875-5.726563.257813-8.675782.257813-2.953124 0-5.988281-.085938-9.027343-.257813-3.816407-.261719-7.636719-.695313-11.367188-1.214844-4.078125-.6875-8.074219 1.601563-9.546875 5.464844-7.789062 20.808594-26.332031 35.691406-48.335937 38.792969l-1.648438-.261719c-20.785156-3.621094-38.203125-17.773437-46.007812-37.378906-7.804688-19.605469-4.875-41.855469 7.738281-58.773438 7.542969-10.019531 9.289062-23.253906 4.601562-34.882812-5.269531-13.179688-8.515624-27.074219-9.632812-41.222657l-6.511719-81.574218-8.761719-109.773438v-.347656c-2.3125-28.96875 7.578126-57.585938 27.289063-78.941406 19.707031-21.355469 47.4375-33.507813 76.496094-33.527344h86.78125c29.058593.019531 56.792969 12.171875 76.5 33.527344 19.707031 21.355468 29.601562 49.972656 27.289062 78.941406zm0 0" fill="#955ba5"/><path d="m282.191406 257.214844c39.253906 14.761718 62.335938 55.484375 54.832032 96.75-7.503907 41.261718-43.441407 71.253906-85.378907 71.253906-41.941406 0-77.878906-29.992188-85.378906-71.253906-7.503906-41.265625 15.578125-81.988282 54.832031-96.75zm0 0" fill="#cbb292"/><path d="m251.644531 112.8125c.054688 9.949219-2.8125 19.695312-8.246093 28.03125-4.382813-2.566406-9.039063-4.636719-13.882813-6.164062 3.1875-6.84375 4.820313-14.3125 4.773437-21.867188.007813-25.402344-18.339843-47.089844-43.390624-51.285156 2.863281-.527344 5.765624-.789063 8.675781-.78125 13.8125 0 27.054687 5.484375 36.820312 15.25 9.761719 9.765625 15.25 23.007812 15.25 36.816406zm0 0" fill="#e6e7e8"/><path d="m234.289062 112.8125c0 1.335938-.085937 2.667969-.261718 3.992188-.324219 6.195312-1.859375 12.269531-4.511719 17.875-.867187-.257813-1.648437-.519532-2.515625-.691407-8.914062-2.574219-18.148438-3.859375-27.425781-3.820312-2.898438-.03125-5.792969.113281-8.675781.433593-6.371094.476563-12.679688 1.582032-18.832032 3.296876-5.703125 1.636718-11.183594 3.96875-16.3125 6.945312-1.292968-1.976562-2.453125-4.035156-3.472656-6.164062-3.1875-6.84375-4.820312-14.3125-4.773438-21.867188-.007812-25.402344 18.339844-47.089844 43.390626-51.285156 23.742187 3.941406 41.644531 23.710937 43.214843 47.726562.089844 1.214844.175781 2.34375.175781 3.558594zm0 0" fill="#fff"/><path d="m355.78125 112.8125c.050781 9.949219-2.816406 19.695312-8.246094 28.03125-4.382812-2.566406-9.039062-4.636719-13.882812-6.164062 3.1875-6.84375 4.816406-14.3125 4.769531-21.867188.011719-25.402344-18.335937-47.089844-43.386719-51.285156 2.859375-.527344 5.765625-.789063 8.675782-.78125 13.808593 0 27.054687 5.484375 36.816406 15.25 9.765625 9.765625 15.253906 23.007812 15.253906 36.816406zm0 0" fill="#e6e7e8"/><path d="m338.421875 112.8125c.046875 7.554688-1.582031 15.023438-4.769531 21.867188-9.6875-3.050782-19.789063-4.570313-29.941406-4.511719-2.898438-.03125-5.796876.113281-8.675782.433593-12.34375.6875-24.367187 4.191407-35.148437 10.242188-1.289063-1.976562-2.449219-4.035156-3.46875-6.164062-3.191407-6.84375-4.820313-14.3125-4.773438-21.867188-.011719-25.402344 18.335938-47.089844 43.390625-51.285156 25.050782 4.195312 43.398438 25.882812 43.386719 51.285156zm0 0" fill="#fff"/><path d="m234.289062 112.8125c0 1.335938-.085937 2.667969-.261718 3.992188-.683594 6.273437-3.121094 12.226562-7.027344 17.183593-8.914062-2.574219-18.148438-3.859375-27.425781-3.820312-2.898438-.03125-5.792969.113281-8.675781.433593-6.371094.476563-12.679688 1.582032-18.832032 3.296876-8.980468-11.671876-9.617187-27.742188-1.589844-40.089844 8.027344-12.347656 22.972657-18.28125 37.289063-14.808594 14.3125 3.472656 24.875 15.601562 26.347656 30.253906.089844 1.214844.175781 2.34375.175781 3.558594zm0 0" fill="#f0c419"/><path d="m338.421875 112.8125c.003906 1.335938-.082031 2.667969-.257813 3.992188-.6875 6.273437-3.121093 12.226562-7.03125 17.183593-8.910156-2.574219-18.144531-3.859375-27.421874-3.820312-2.898438-.03125-5.796876.113281-8.675782.433593-6.371094.476563-12.679687 1.582032-18.832031 3.296876-8.980469-11.671876-9.621094-27.742188-1.589844-40.089844 8.027344-12.347656 22.972657-18.28125 37.285157-14.808594s24.875 15.601562 26.351562 30.253906c.085938 1.214844.171875 2.34375.171875 3.558594zm0 0" fill="#f0c419"/><path d="m216.933594 112.8125c0 9.585938-7.773438 17.355469-17.359375 17.355469-9.582031 0-17.355469-7.769531-17.355469-17.355469s7.773438-17.355469 17.355469-17.355469c9.585937 0 17.359375 7.769531 17.359375 17.355469zm0 0" fill="#2c2f38"/><path d="m321.066406 112.8125c0 9.585938-7.769531 17.355469-17.355468 17.355469-9.585938 0-17.355469-7.769531-17.355469-17.355469s7.769531-17.355469 17.355469-17.355469c9.585937 0 17.355468 7.769531 17.355468 17.355469zm0 0" fill="#2c2f38"/><path d="m251.644531 260.339844c-104.136719 0-78.101562-86.78125-78.101562-86.78125s10.414062 10.414062 43.390625 15.097656c11.5 1.585938 23.101562 2.339844 34.710937 2.257812 11.609375.082032 23.210938-.671874 34.710938-2.257812 32.976562-4.683594 43.390625-15.097656 43.390625-15.097656s26.035156 86.78125-78.101563 86.78125zm0 0" fill="#802d40"/><path d="m286.355469 188.65625v19.613281c.003906 9.238281-7.257813 16.847657-16.488281 17.269531-.570313.117188-1.164063.117188-1.734376 0-9.230468-.421874-16.492187-8.03125-16.488281-17.269531v-17.355469c6.074219 0 11.714844-.171874 16.921875-.519531 3.210938-.175781 6.246094-.433593 9.113282-.695312 3.035156-.261719 5.984374-.605469 8.675781-1.042969zm0 0" fill="#f9eab0"/><path d="m277.679688 189.699219v18.570312c0 8.9375-3.472657 16.402344-7.8125 17.269531-.570313.117188-1.164063.117188-1.734376 0-4.339843-.867187-7.8125-8.332031-7.8125-17.269531v-17.355469c2.757813.015626 5.511719-.160156 8.246094-.519531 3.210938-.175781 6.246094-.433593 9.113282-.695312zm0 0" fill="#f5efca"/><path d="m251.644531 399.1875c-2.730469 0-5.304687-1.289062-6.941406-3.472656-9.164063-12.21875-17.617187-25.980469-10.859375-35.363282 5.242188-5.660156 13.523438-7.316406 20.542969-4.113281 4.242187 1.398438 6.730469 5.789063 5.746093 10.148438-.980468 4.355469-5.105468 7.257812-9.539062 6.703125 2.328125 4.28125 5 8.367187 7.992188 12.210937 1.972656 2.628907 2.289062 6.148438.820312 9.085938-1.46875 2.941406-4.476562 4.800781-7.761719 4.800781zm0 0" fill="#7f6e5d"/><path d="m251.644531 190.914062v17.355469c.003907 9.238281-7.257812 16.847657-16.488281 17.269531-.574219.117188-1.164062.117188-1.734375 0-9.230469-.421874-16.496094-8.03125-16.488281-17.269531v-19.613281c2.6875.4375 5.640625.78125 8.675781 1.042969 2.863281.261719 5.902344.519531 9.113281.695312 5.207032.347657 10.847656.519531 16.921875.519531zm0 0" fill="#f9eab0"/><path d="m242.964844 190.914062v17.355469c0 8.9375-3.46875 16.402344-7.808594 17.269531-.574219.117188-1.164062.117188-1.734375 0-4.339844-.867187-7.8125-8.332031-7.8125-17.269531v-18.570312c2.863281.261719 5.902344.519531 9.113281.695312 2.730469.359375 5.488282.535157 8.242188.519531zm0 0" fill="#f5efca"/><path d="m199.574219 86.777344c0 9.585937-7.769531 17.359375-17.355469 17.359375s-17.355469-7.773438-17.355469-17.359375c0-9.582032 7.769531-17.355469 17.355469-17.355469s17.355469 7.773437 17.355469 17.355469zm0 0" fill="#fff"/><path d="m303.710938 86.777344c0 9.585937-7.769532 17.359375-17.355469 17.359375-9.585938 0-17.355469-7.773438-17.355469-17.359375 0-9.582032 7.769531-17.355469 17.355469-17.355469 9.585937 0 17.355469 7.773437 17.355469 17.355469zm0 0" fill="#fff"/><path d="m484.734375 192.390625-84.4375 55.796875c-2.292969 1.515625-5.167969 1.855469-7.753906.914062-2.582031-.941406-4.566407-3.050781-5.347657-5.683593l-20.914062-69.425781c-.878906-2.976563-.082031-6.195313 2.082031-8.417969.425781-.5.921875-.941407 1.472657-1.300781l66.996093-44.257813c9.597657-6.355469 21.324219-8.632813 32.601563-6.339844 11.28125 2.296875 21.183594 8.976563 27.535156 18.574219 3.21875 4.824219 5.402344 10.261719 6.421875 15.96875 3.261719 17.140625-4.097656 34.558594-18.65625 44.171875zm0 0" fill="#894b9d"/><path d="m137.875 173.992188-20.914062 69.425781c-.78125 2.632812-2.765626 4.742187-5.347657 5.683593-2.585937.941407-5.460937.601563-7.753906-.914062l-84.4375-55.796875c-14.5625-9.613281-21.917969-27.03125-18.65625-44.171875 1.015625-5.707031 3.203125-11.144531 6.421875-15.96875 8.035156-12.140625 21.625-19.441406 36.183594-19.4375.957031 0 1.824218 0 2.777344.085938 7.5625.472656 14.863281 2.925781 21.175781 7.117187l28.464843 18.832031 38.527344 25.425782c.550782.359374 1.050782.800781 1.476563 1.300781 2.175781 2.21875 2.972656 5.441406 2.082031 8.417969zm0 0" fill="#894b9d"/><g fill="#955ba5"><path d="m503.390625 148.21875c-1.9375 11.804688-8.695313 22.273438-18.65625 28.898438l-97.019531 64.40625c-2.28125 1.519531-5.148438 1.871093-7.726563.945312-2.582031-.921875-4.574219-3.007812-5.378906-5.628906l-18.828125-62.570313c.433594-.519531 13.535156-9.648437 14.054688-9.996093l66.996093-44.257813c9.597657-6.355469 21.324219-8.632813 32.601563-6.339844 11.28125 2.296875 21.183594 8.976563 27.535156 18.574219 3.21875 4.824219 5.402344 10.261719 6.421875 15.96875zm0 0"/><path d="m147.507812 173.558594-18.832031 62.566406c-.800781 2.621094-2.792969 4.710938-5.375 5.632812-2.582031.921876-5.445312.574219-7.726562-.945312l-96.152344-63.78125c-9.972656-6.574219-16.738281-17.023438-18.65625-28.8125 1.015625-5.707031 3.203125-11.144531 6.421875-15.96875 8.035156-12.140625 21.625-19.441406 36.183594-19.4375.957031 0 1.824218 0 2.777344.085938 7.5625.472656 14.863281 2.925781 21.175781 7.117187l28.464843 18.832031 38.527344 25.425782c.523438.347656 12.757813 8.765624 13.191406 9.285156zm0 0"/></g></svg>