<svg height="512pt" viewBox="-62 0 512 512.0228" width="512pt" xmlns="http://www.w3.org/2000/svg"><path d="m388.425781 194.246094v238.34375c.011719 16.101562-10.886719 30.160156-26.484375 34.164062-5.785156 1.527344-11.867187 1.527344-17.652344 0-6.097656-1.59375-11.667968-4.761718-16.15625-9.183594-6.601562-6.640624-10.3125-15.617187-10.328124-24.980468v-57.378906c0-12.1875-9.878907-22.070313-22.070313-22.070313-3.039063-.015625-6.050781.617187-8.828125 1.855469-2.542969 1.066406-4.851562 2.628906-6.796875 4.589844-3.191406 3.191406-5.320313 7.292968-6.089844 11.742187-.253906 1.277344-.371093 2.578125-.351562 3.882813v108.84375c.304687 14.261718-10.359375 26.378906-24.542969 27.894531-3.65625.277343-7.328125-.234375-10.769531-1.5-3.734375-1.253907-7.121094-3.371094-9.886719-6.179688-4.972656-4.957031-7.769531-11.691406-7.769531-18.714843v-73.621094c.101562-6.242188-2.332031-12.257813-6.734375-16.679688-4.40625-4.425781-10.414063-6.875-16.65625-6.800781-2.710938.195313-5.367188.851563-7.855469 1.941406-2.386719 1.128907-4.566406 2.648438-6.445313 4.5-4.136718 4.148438-6.457031 9.769531-6.445312 15.625-.082031 17.03125-13.867188 30.816407-30.894531 30.898438-2.996094.011719-5.972657-.433594-8.828125-1.324219-4.925782-1.421875-9.398438-4.097656-12.976563-7.769531-5.832031-5.753907-9.109375-13.609375-9.09375-21.804688v-26.480469c0-5.8125-2.28125-11.390624-6.355469-15.539062l-.089843-.085938c-3.066407-3.058593-6.964844-5.144531-11.210938-6.003906-.121093.003906-.246093-.027344-.351562-.089844-1.339844-.25-2.699219-.367187-4.0625-.351562-3.039063-.015625-6.046875.617188-8.824219 1.855469-2.546875 1.066406-4.855469 2.628906-6.796875 4.589843-4.136719 4.144532-6.457031 9.765626-6.445313 15.625v66.207032c.011719 16.097656-10.886718 30.160156-26.484374 34.160156-5.785157 1.53125-11.867188 1.53125-17.652344 0-6.097656-1.59375-11.667969-4.757812-16.15625-9.179688-6.601563-6.640624-10.3125002-15.617187-10.3281252-24.980468v-251.324219c0-104.605469 80.7734372-193.765625 184.9375002-198.617187.730469-.105469 1.46875-.164063 2.207031-.179688 52.699219-1.898438 103.90625 17.707031 141.863281 54.3125 37.957031 36.609375 59.398438 87.074219 59.40625 139.808594zm0 0" fill="#24ae5f"/><path d="m370.769531 194.246094v238.34375c.011719 16.101562-10.886719 30.160156-26.480469 34.164062-6.097656-1.59375-11.667968-4.761718-16.15625-9.183594-6.601562-6.640624-10.3125-15.617187-10.328124-24.980468v-57.378906c0-12.1875-9.878907-22.070313-22.070313-22.070313-3.039063-.015625-6.050781.617187-8.828125 1.855469-.246094-.15625-.511719-.273438-.792969-.355469-6.152343-2.421875-13.066406-1.949219-18.832031 1.285156s-9.773438 8.886719-10.917969 15.402344c-.25 1.277344-.371093 2.578125-.351562 3.882813v108.84375c.125 11.597656-6.886719 22.082031-17.65625 26.394531-3.734375-1.253907-7.121094-3.371094-9.886719-6.179688-4.972656-4.957031-7.769531-11.691406-7.769531-18.714843v-73.621094c.101562-6.242188-2.332031-12.257813-6.734375-16.679688-4.40625-4.425781-10.414063-6.875-16.65625-6.800781-2.710938.195313-5.367188.851563-7.855469 1.941406-3.058594-1.445312-6.425781-2.113281-9.800781-1.941406-11.667969.699219-20.765625 10.378906-20.746094 22.066406.019531 8.195313-3.257812 16.050781-9.089844 21.804688-3.582031 3.671875-8.050781 6.347656-12.976562 7.769531-4.925782-1.421875-9.398438-4.097656-12.976563-7.769531-5.832031-5.753907-9.109375-13.609375-9.09375-21.804688v-26.480469c0-5.8125-2.28125-11.390624-6.355469-15.539062l-.089843-.085938c-3.066407-3.058593-6.964844-5.144531-11.210938-6.003906-.121093.003906-.246093-.027344-.351562-.089844-1.339844-.25-2.699219-.367187-4.0625-.351562-3.039063-.015625-6.046875.617188-8.824219 1.855469-1.425781-.605469-2.90625-1.078125-4.414062-1.414063-.125.003906-.246094-.027344-.355469-.089844-1.335938-.25-2.699219-.367187-4.058594-.351562-5.859375-.019531-11.484375 2.300781-15.625 6.445312-4.144531 4.140626-6.464844 9.765626-6.445313 15.625v66.207032c.011719 16.097656-10.886718 30.160156-26.480468 34.160156-6.097656-1.59375-11.667969-4.757812-16.15625-9.179688-6.601563-6.640624-10.3125002-15.617187-10.3281252-24.980468v-251.324219c0-104.605469 80.7734372-193.765625 184.9375002-198.617187 103.90625 4.402343 185.863281 89.941406 185.820312 193.941406zm0 0" fill="#4fba6f"/><path d="m194.21875 150.105469c0 34.128906-27.667969 61.792969-61.792969 61.792969-2.957031.035156-5.914062-.199219-8.828125-.703126-30.382812-4.363281-52.941406-30.394531-52.941406-61.089843 0-30.691407 22.558594-56.722657 52.941406-61.085938 2.914063-.503906 5.871094-.742187 8.828125-.707031 34.125 0 61.792969 27.667969 61.792969 61.792969zm0 0" fill="#e6e7e8"/><path d="m176.5625 150.105469c0-33.734375-23.710938-61.085938-52.964844-61.085938s-52.964844 27.351563-52.964844 61.085938c0 33.738281 23.710938 61.089843 52.964844 61.089843s52.964844-27.351562 52.964844-61.089843zm0 0" fill="#fff"/><path d="m317.804688 150.105469c0 34.128906-27.664063 61.792969-61.792969 61.792969-2.957031.035156-5.914063-.199219-8.828125-.703126-30.382813-4.363281-52.941406-30.394531-52.941406-61.089843 0-30.691407 22.558593-56.722657 52.941406-61.085938 2.914062-.503906 5.871094-.742187 8.828125-.707031 34.128906 0 61.792969 27.667969 61.792969 61.792969zm0 0" fill="#e6e7e8"/><path d="m300.148438 150.105469c0-33.734375-23.710938-61.085938-52.964844-61.085938-29.25 0-52.964844 27.351563-52.964844 61.085938 0 33.738281 23.714844 61.089843 52.964844 61.089843 29.253906 0 52.964844-27.351562 52.964844-61.089843zm0 0" fill="#fff"/><path d="m167.734375 150.105469c0 19.503906-15.808594 35.3125-35.308594 35.3125s-35.3125-15.808594-35.3125-35.3125c0-19.5 15.8125-35.308594 35.3125-35.308594s35.308594 15.808594 35.308594 35.308594zm0 0" fill="#d25627"/><path d="m291.320312 150.105469c0 19.503906-15.808593 35.3125-35.308593 35.3125s-35.3125-15.808594-35.3125-35.3125c0-19.5 15.8125-35.308594 35.3125-35.308594s35.308593 15.808594 35.308593 35.308594zm0 0" fill="#d25627"/><path d="m150.082031 150.105469c0 9.753906-7.90625 17.65625-17.65625 17.65625s-17.65625-7.902344-17.65625-17.65625c0-9.75 7.90625-17.652344 17.65625-17.652344s17.65625 7.902344 17.65625 17.652344zm0 0" fill="#2c2f38"/><path d="m273.667969 150.105469c0 9.753906-7.90625 17.65625-17.65625 17.65625s-17.65625-7.902344-17.65625-17.65625c0-9.75 7.90625-17.652344 17.65625-17.652344s17.65625 7.902344 17.65625 17.652344zm0 0" fill="#2c2f38"/><path d="m247.183594 282.519531c.03125 26.945313-20.171875 49.617188-46.9375 52.683594-26.769532 3.066406-51.574219-14.453125-57.636719-40.703125-6.0625-26.253906 8.550781-52.875 33.953125-61.855469 11.410156-4.121093 23.902344-4.121093 35.3125 0 21.171875 7.433594 35.332031 27.4375 35.308594 49.875zm0 0" fill="#802d40"/><path d="m211.875 232.644531v14.566407c.003906 9.398437-7.386719 17.136718-16.773438 17.566406-.582031.117187-1.183593.117187-1.765624 0-9.390626-.429688-16.777344-8.167969-16.773438-17.566406v-14.566407c2.855469-1.074219 5.8125-1.84375 8.828125-2.292969 5.835937-1.0625 11.816406-1.0625 17.65625 0 3.015625.449219 5.972656 1.21875 8.828125 2.292969zm0 0" fill="#f9eab0"/><path d="m203.046875 230.351562v12.445313c0 11.300781-3.53125 20.832031-7.945313 21.980469-.582031.117187-1.183593.117187-1.765624 0-4.414063-1.148438-7.945313-10.679688-7.945313-21.980469v-12.445313c5.835937-1.0625 11.816406-1.0625 17.65625 0zm0 0" fill="#f5efca"/><g fill="#24ae5f"><path d="m35.320312 370.796875c-4.875 0-8.824218-3.953125-8.824218-8.828125v-123.585938c0-4.875 3.949218-8.828124 8.824218-8.828124s8.828126 3.953124 8.828126 8.828124v123.585938c0 4.875-3.953126 8.828125-8.828126 8.828125zm0 0"/><path d="m361.941406 406.105469v60.648437c-5.785156 1.527344-11.867187 1.527344-17.652344 0v-60.648437c0-4.875 3.949219-8.824219 8.824219-8.824219s8.828125 3.949219 8.828125 8.824219zm0 0"/><path d="m44.148438 432.589844v51.816406c-5.785157 1.53125-11.867188 1.53125-17.652344 0v-51.816406c0-4.875 3.949218-8.828125 8.824218-8.828125s8.828126 3.953125 8.828126 8.828125zm0 0"/><path d="m353.113281 353.140625c-4.875 0-8.824219-3.953125-8.824219-8.828125v-70.621094c0-4.875 3.949219-8.824218 8.824219-8.824218s8.828125 3.949218 8.828125 8.824218v70.621094c0 4.875-3.953125 8.828125-8.828125 8.828125zm0 0"/></g><path d="m132.425781 132.453125c0 9.75-7.90625 17.652344-17.65625 17.652344s-17.65625-7.902344-17.65625-17.652344c0-9.753906 7.90625-17.65625 17.65625-17.65625s17.65625 7.902344 17.65625 17.65625zm0 0" fill="#fff"/><path d="m256.011719 132.453125c0 9.75-7.90625 17.652344-17.65625 17.652344s-17.65625-7.902344-17.65625-17.652344c0-9.753906 7.90625-17.65625 17.65625-17.65625s17.65625 7.902344 17.65625 17.65625zm0 0" fill="#fff"/></svg>