<svg height="512pt" viewBox="0 0 512 512.00019" width="512pt" xmlns="http://www.w3.org/2000/svg"><path d="m512 141.242188c0 64-30.367188 143.890624-79.09375 206.476562l-98.695312 83.683594c-24.304688 12.121094-51.050782 18.550781-78.210938 18.804687-3 0-5.914062-.089843-8.828125-.265625-24.128906-1.515625-47.714844-7.816406-69.382813-18.539062l-98.695312-83.683594c-48.726562-62.585938-79.09375-142.476562-79.09375-206.476562 0-121.644532 109.816406-140.449219 247.171875-141.1523442 2.914063-.0898438 5.828125-.0898438 8.828125-.0898438 141.417969 0 256 16.949219 256 141.242188zm0 0" fill="#285680"/><path d="m494.34375 141.242188c0 64-30.367188 143.890624-79.09375 206.476562l-98.691406 83.683594c-21.671875 10.722656-45.257813 17.023437-69.386719 18.539062-24.128906-1.515625-47.714844-7.816406-69.382813-18.539062l-98.695312-83.683594c-48.726562-62.585938-79.09375-142.476562-79.09375-206.476562 0-121.644532 109.816406-140.449219 247.171875-141.1523442 137.359375.7031252 247.171875 19.5078122 247.171875 141.1523442zm0 0" fill="#4482c3"/><path d="m114.757812 459.035156s-103.371093-15.890625-113.875 42.847656c-.375 2.542969.375 5.121094 2.054688 7.0625 1.679688 1.945313 4.125 3.058594 6.695312 3.054688h139.898438c9.6875.042969 17.582031-7.757812 17.65625-17.441406.070312-21.585938 2.796875-57.753906 18.855469-76.457032 9.460937-10.9375 8.398437-27.441406-2.386719-37.078124l-42.183594-37.496094c-5.910156-5.28125-13.882812-7.621094-21.707031-6.367188-28.117187 4.554688-93.28125 20.445313-93.28125 68.910156-.699219 19.851563 4.0625 39.515626 13.769531 56.847657" fill="#84b5cb"/><path d="m511.117188 501.847656c.386718 2.546875-.359376 5.132813-2.039063 7.085938-1.679687 1.949218-4.125 3.070312-6.699219 3.066406h-139.917968c-9.683594 0-17.558594-7.796875-17.65625-17.480469-.085938-21.539062-2.734376-57.730469-18.800782-76.445312-9.492187-10.925781-8.429687-27.453125 2.382813-37.074219l42.105469-37.519531c2.835937-2.507813 6.179687-4.371094 9.800781-5.472657 3.839843-1.265624 7.933593-1.566406 11.917969-.882812 28.160156 4.589844 93.304687 20.480469 93.304687 68.945312.699219 19.851563-4.0625 39.515626-13.769531 56.847657 19.15625 5.914062 35.488281 17.390625 39.371094 38.929687zm0 0" fill="#547580"/><path d="m494.257812 501.847656c.367188 2.558594-.398437 5.148438-2.09375 7.097656-1.695312 1.949219-4.152343 3.0625-6.734374 3.054688h-122.96875c-9.683594 0-17.558594-7.796875-17.65625-17.480469-.085938-21.539062-2.734376-57.730469-18.800782-76.445312-9.492187-10.925781-8.429687-27.453125 2.382813-37.074219l42.105469-37.519531c2.835937-2.507813 6.179687-4.371094 9.800781-5.472657 30.101562 5.5625 88.277343 22.246094 88.277343 68.0625.585938 18.480469-3.480468 36.816407-11.832031 53.316407-.429687.921875-.933593 1.804687-1.5 2.648437-.109375.3125-.257812.609375-.441406.882813 19.15625 5.914062 35.574219 17.390625 39.460937 38.929687zm0 0" fill="#84b5cb"/><path d="m229.515625 123.585938c0 43.878906-35.570313 79.449218-79.445313 79.449218-2.953124 0-5.898437-.175781-8.828124-.53125-40.066407-4.648437-70.289063-38.582031-70.289063-78.917968 0-40.335938 30.222656-74.269532 70.289063-78.917969 2.929687-.355469 5.875-.53125 8.828124-.53125 43.875 0 79.445313 35.570312 79.445313 79.449219zm0 0" fill="#e6e7e8"/><path d="m441.378906 123.585938c0 43.878906-35.570312 79.449218-79.449218 79.449218-2.949219 0-5.898438-.175781-8.824219-.53125-40.066407-4.648437-70.292969-38.582031-70.292969-78.917968 0-40.335938 30.226562-74.269532 70.292969-78.917969 2.925781-.355469 5.875-.53125 8.824219-.53125 43.878906 0 79.449218 35.570312 79.449218 79.449219zm0 0" fill="#e6e7e8"/><path d="m211.863281 123.585938c0-43.585938-31.617187-78.917969-70.621093-78.917969-39.003907 0-70.621094 35.332031-70.621094 78.917969 0 43.585937 31.617187 78.917968 70.621094 78.917968 39.003906 0 70.621093-35.332031 70.621093-78.917968zm0 0" fill="#fff"/><path d="m423.722656 123.585938c0-43.585938-31.617187-78.917969-70.617187-78.917969-39.003907 0-70.621094 35.332031-70.621094 78.917969 0 43.585937 31.617187 78.917968 70.621094 78.917968 39 0 70.617187-35.332031 70.617187-78.917968zm0 0" fill="#fff"/><path d="m194.207031 123.585938c0 24.378906-19.761719 44.136718-44.136719 44.136718-24.378906 0-44.140624-19.757812-44.140624-44.136718 0-24.375 19.761718-44.136719 44.140624-44.136719 24.375 0 44.136719 19.761719 44.136719 44.136719zm0 0" fill="#cc66a1"/><path d="m406.070312 123.585938c0 24.378906-19.761718 44.136718-44.140624 44.136718-24.375 0-44.136719-19.757812-44.136719-44.136718 0-24.375 19.761719-44.136719 44.136719-44.136719 24.378906 0 44.140624 19.761719 44.140624 44.136719zm0 0" fill="#cc66a1"/><path d="m176.550781 123.585938c0 14.625-11.855469 26.484374-26.480469 26.484374-14.628906 0-26.484374-11.859374-26.484374-26.484374s11.855468-26.484376 26.484374-26.484376c14.625 0 26.480469 11.859376 26.480469 26.484376zm0 0" fill="#2c2f38"/><path d="m388.414062 123.585938c0 14.625-11.855468 26.484374-26.484374 26.484374-14.625 0-26.480469-11.859374-26.480469-26.484374s11.855469-26.484376 26.480469-26.484376c14.628906 0 26.484374 11.859376 26.484374 26.484376zm0 0" fill="#2c2f38"/><path d="m388.414062 273.65625h-264.828124c-24.363282-.03125-44.109376-19.773438-44.136719-44.140625 0-4.875 3.953125-8.824219 8.828125-8.824219s8.828125 3.949219 8.828125 8.824219c0 14.628906 11.855469 26.484375 26.480469 26.484375h264.828124c14.625 0 26.484376-11.855469 26.484376-26.484375 0-4.875 3.949218-8.824219 8.824218-8.824219s8.828125 3.949219 8.828125 8.824219c-.027343 24.367187-19.773437 44.109375-44.136719 44.140625zm0 0" fill="#802d40"/><path d="m228.632812.175781 19.300782 47.546875c1.414062 3.1875 4.578125 5.246094 8.066406 5.246094s6.652344-2.058594 8.070312-5.246094l19.296876-47.546875zm0 0" fill="#84b5cb"/><path d="m256 326.621094c-39.617188 0-50.882812-20.234375-52.039062-22.539063-1.441407-2.804687-1.277344-6.164062.429687-8.816406s4.699219-4.191406 7.851563-4.039063c3.152343.152344 5.980468 1.976563 7.421874 4.78125.488282.828126 8.085938 12.957032 36.335938 12.957032 28.59375 0 36.042969-12.453125 36.351562-12.984375 2.378907-4.175781 7.621094-5.730469 11.890626-3.53125 4.21875 2.195312 5.90625 7.355469 3.796874 11.617187-1.15625 2.320313-12.421874 22.554688-52.039062 22.554688zm0 0" fill="#285680"/><g fill="#fff"><path d="m150.070312 97.101562c0 9.753907-7.90625 17.65625-17.65625 17.65625s-17.65625-7.902343-17.65625-17.65625c0-9.75 7.90625-17.652343 17.65625-17.652343s17.65625 7.902343 17.65625 17.652343zm0 0"/><path d="m361.929688 97.101562c0 9.753907-7.902344 17.65625-17.652344 17.65625-9.753906 0-17.65625-7.902343-17.65625-17.65625 0-9.75 7.902344-17.652343 17.65625-17.652343 9.75 0 17.652344 7.902343 17.652344 17.652343zm0 0"/></g></svg>