<svg height="512pt" viewBox="0 0 512.19605 512" width="512pt" xmlns="http://www.w3.org/2000/svg"><g fill="#46b29d"><path d="m370.855469 457.457031v28.160157c0 14.625-11.855469 26.480468-26.480469 26.480468h-44.140625c-14.625 0-26.480469-11.855468-26.480469-26.480468v-17.832032zm0 0"/><path d="m238.441406 467.785156v17.832032c0 14.625-11.855468 26.480468-26.480468 26.480468h-44.140626c-14.625 0-26.480468-11.855468-26.480468-26.480468v-28.160157zm0 0"/><path d="m512.097656 335.546875c.203125 29.292969-12.761718 57.128906-35.308594 75.828125l-70.621093 36.988281c-11.609375 3.632813-23.394531 6.667969-35.3125 9.09375-32 6.285157-64.492188 9.742188-97.101563 10.328125-5.828125.085938-11.742187.175782-17.65625.175782-3 0-5.914062 0-8.828125-.089844-2.914062-.085938-5.914062-.085938-8.828125-.085938-32.605468-.585937-65.101562-4.042968-97.101562-10.328125-11.917969-2.425781-23.703125-5.460937-35.3125-9.09375l-70.617188-36.988281c-22.550781-18.699219-35.515625-46.535156-35.3124998-75.828125 1.5546878-35.183594 14.4726558-68.910156 36.8124998-96.132813l210.359375-153.421874 8.828125-6.445313 219.1875 159.867187c22.34375 27.222657 35.257813 60.949219 36.8125 96.132813zm0 0"/></g><path d="m494.441406 335.546875c.203125 29.292969-12.757812 57.128906-35.308594 75.828125l-70.621093 36.988281c-11.605469 3.632813-23.390625 6.667969-35.308594 9.09375-32.003906 6.285157-64.496094 9.742188-97.105469 10.328125-2.914062 0-5.824218.085938-8.828125.085938-3 0-5.914062-.085938-8.828125-.085938-32.605468-.585937-65.101562-4.042968-97.101562-10.328125-11.917969-2.425781-23.703125-5.460937-35.3125-9.09375l-70.617188-36.988281c-22.550781-18.699219-35.515625-46.535156-35.3124998-75.828125 1.5546878-35.183594 14.4726558-68.910156 36.8124998-96.132813l210.359375-153.421874 210.363281 153.421874c22.339844 27.222657 35.253907 60.949219 36.808594 96.132813zm0 0" fill="#65ddb9"/><path d="m106.027344 407.121094v69.667968c0 19.5-15.808594 35.308594-35.308594 35.308594s-35.308594-15.808594-35.308594-35.308594v-91.738281c-.015625-6.421875 3.464844-12.347656 9.078125-15.46875 5.617188-3.121093 12.484375-2.941406 17.933594.460938l35.308594 22.070312c5.171875 3.234375 8.3125 8.90625 8.296875 15.007813zm0 0" fill="#46b29d"/><path d="m406.167969 407.121094v69.667968c0 19.5 15.808593 35.308594 35.308593 35.308594 19.503907 0 35.3125-15.808594 35.3125-35.308594v-91.738281c.011719-6.421875-3.464843-12.347656-9.082031-15.46875-5.617187-3.121093-12.484375-2.941406-17.933593.460938l-35.308594 22.070312c-5.171875 3.234375-8.308594 8.90625-8.296875 15.007813zm0 0" fill="#46b29d"/><path d="m361.234375 459.308594c-28.898437 5.074218-58.144531 7.90625-87.480469 8.476562-5.828125.085938-11.742187.175782-17.65625.175782-5.914062 0-11.828125-.089844-17.65625-.175782-29.332031-.570312-58.582031-3.402344-87.480468-8.476562 6.355468-39.898438 51.023437-70.796875 105.136718-70.796875 54.113282 0 98.78125 30.898437 105.136719 70.796875zm0 0" fill="#bbd1b5"/><path d="m353.203125 97.203125c0 53.628906-43.476563 97.101563-97.105469 97.101563s-97.101562-43.472657-97.101562-97.101563 43.472656-97.1054688 97.101562-97.1054688 97.105469 43.4765628 97.105469 97.1054688zm0 0" fill="#65ddb9"/><path d="m337.398438 150.253906c-1.242188 5.773438-1.867188 11.664063-1.851563 17.566406-.023437 23.421876 9.273437 45.886719 25.832031 62.445313s39.023438 25.851563 62.441406 25.832031c18.496094.0625 36.527344-5.785156 51.464844-16.683594 1.785156-1.1875 3.496094-2.484374 5.121094-3.882812 26.492188-22.0625 37.71875-57.53125 28.742188-90.816406-8.976563-33.289063-36.507813-58.304688-70.5-64.058594-33.992188-5.753906-68.222657 8.808594-87.652344 37.289062zm0 0" fill="#65ddb9"/><path d="m344.375 97.203125c0 48.75-39.523438 88.273437-88.277344 88.273437-2.914062 0-5.824218-.175781-8.652344-.441406h-.351562c-45.113281-4.527344-79.460938-42.496094-79.460938-87.832031 0-45.339844 34.347657-83.308594 79.460938-87.835937h.351562c2.828126-.265626 5.738282-.441407 8.652344-.441407 48.753906 0 88.277344 39.523438 88.277344 88.277344zm0 0" fill="#e6e7e8"/><path d="m326.71875 97.203125c.007812 45.273437-34.234375 83.214844-79.273438 87.832031h-.351562c-45.113281-4.527344-79.460938-42.496094-79.460938-87.832031 0-45.339844 34.347657-83.308594 79.460938-87.835937h.351562c45.039063 4.617187 79.28125 42.558593 79.273438 87.835937zm0 0" fill="#fff"/><path d="m161.203125 117.945312c-19.429687-28.480468-53.664063-43.042968-87.65625-37.289062s-61.523437 30.769531-70.5 64.058594c-8.976563 33.285156 2.25 68.753906 28.742187 90.816406 1.625 1.398438 3.335938 2.695312 5.121094 3.882812 14.941406 10.898438 32.96875 16.746094 51.464844 16.683594 23.417969.019532 45.882812-9.273437 62.441406-25.832031 16.5625-16.558594 25.855469-39.023437 25.832032-62.445313.015624-5.902343-.605469-11.792968-1.851563-17.566406zm0 0" fill="#65ddb9"/><path d="m167.820312 167.820312c0 21.074219-8.367187 41.28125-23.269531 56.179688-14.898437 14.898438-35.105469 23.269531-56.175781 23.269531-2.953125.003907-5.898438-.171875-8.828125-.527343-40.066406-4.652344-70.289063-38.585938-70.289063-78.921876 0-40.332031 30.222657-74.265624 70.289063-78.917968 2.929687-.355469 5.875-.53125 8.828125-.527344 21.070312 0 41.277344 8.371094 56.175781 23.269531 14.902344 14.898438 23.269531 35.105469 23.269531 56.175781zm0 0" fill="#e6e7e8"/><path d="m150.167969 167.820312c0-43.582031-31.617188-78.917968-70.621094-78.917968s-70.621094 35.335937-70.621094 78.917968c0 43.585938 31.617188 78.921876 70.621094 78.921876s70.621094-35.335938 70.621094-78.921876zm0 0" fill="#fff"/><path d="m503.269531 167.820312c0 43.878907-35.570312 79.449219-79.449219 79.449219-2.949218.003907-5.898437-.171875-8.824218-.527343-40.066406-4.652344-70.292969-38.585938-70.292969-78.921876 0-40.332031 30.226563-74.265624 70.292969-78.917968 2.925781-.355469 5.875-.53125 8.824218-.527344 43.878907 0 79.449219 35.570312 79.449219 79.445312zm0 0" fill="#e6e7e8"/><path d="m485.617188 167.820312c0-43.582031-31.621094-78.917968-70.621094-78.917968-39.003906 0-70.621094 35.335937-70.621094 78.917968 0 43.585938 31.617188 78.921876 70.621094 78.921876 39 0 70.621094-35.335938 70.621094-78.921876zm0 0" fill="#fff"/><path d="m309.0625 97.203125c0 29.25-23.710938 52.964844-52.964844 52.964844-29.25 0-52.964844-23.714844-52.964844-52.964844 0-29.253906 23.714844-52.96875 52.964844-52.96875 29.253906 0 52.964844 23.714844 52.964844 52.96875zm0 0" fill="#2fa8cc"/><path d="m476.789062 167.820312c0 29.253907-23.714843 52.96875-52.96875 52.96875-29.25 0-52.964843-23.714843-52.964843-52.96875 0-29.25 23.714843-52.964843 52.964843-52.964843 29.253907 0 52.96875 23.714843 52.96875 52.964843zm0 0" fill="#2fa8cc"/><path d="m291.410156 97.203125c0 19.5-15.8125 35.308594-35.3125 35.308594s-35.308594-15.808594-35.308594-35.308594c0-19.503906 15.808594-35.3125 35.308594-35.3125s35.3125 15.808594 35.3125 35.3125zm0 0" fill="#2c2f38"/><path d="m459.132812 167.820312c0 19.503907-15.808593 35.3125-35.3125 35.3125-19.5 0-35.308593-15.808593-35.308593-35.3125 0-19.5 15.808593-35.308593 35.308593-35.308593 19.503907 0 35.3125 15.808593 35.3125 35.308593zm0 0" fill="#2c2f38"/><path d="m141.339844 167.820312c0 29.253907-23.714844 52.96875-52.964844 52.96875-29.253906 0-52.964844-23.714843-52.964844-52.96875 0-29.25 23.710938-52.964843 52.964844-52.964843 29.25 0 52.964844 23.714843 52.964844 52.964843zm0 0" fill="#2fa8cc"/><path d="m123.683594 167.820312c0 19.503907-15.808594 35.3125-35.308594 35.3125-19.503906 0-35.3125-15.808593-35.3125-35.3125 0-19.5 15.808594-35.308593 35.3125-35.308593 19.5 0 35.308594 15.808593 35.308594 35.308593zm0 0" fill="#2c2f38"/><path d="m317.890625 291.410156c0 34.125-27.664063 61.792969-61.792969 61.792969s-61.792968-27.667969-61.792968-61.792969c0-34.128906 27.664062-61.792968 61.792968-61.792968 16.414063-.085938 32.179688 6.398437 43.785156 18.003906 11.605469 11.609375 18.089844 27.375 18.007813 43.789062zm0 0" fill="#802d40"/><path d="m313.652344 313.917969c-9.261719 23.703125-32.105469 39.304687-57.554688 39.304687-25.449218 0-48.292968-15.601562-57.554687-39.304687 17.699219-9.40625 37.515625-14.117188 57.554687-13.683594 20.039063-.433594 39.855469 4.277344 57.554688 13.683594zm0 0" fill="#ff5364"/><path d="m256.097656 441.476562c-4.875 0-8.828125-3.953124-8.828125-8.828124v-8.828126c0-4.875 3.953125-8.824218 8.828125-8.824218s8.828125 3.949218 8.828125 8.824218v8.828126c0 4.875-3.953125 8.828124-8.828125 8.828124zm0 0" fill="#7ed09e"/><path d="m79.546875 141.339844c0 14.625-11.855469 26.480468-26.484375 26.480468-14.625 0-26.480469-11.855468-26.480469-26.480468s11.855469-26.484375 26.480469-26.484375c14.628906 0 26.484375 11.859375 26.484375 26.484375zm0 0" fill="#fff"/><path d="m247.269531 70.71875c0 14.625-11.855469 26.484375-26.480469 26.484375-14.628906 0-26.484374-11.859375-26.484374-26.484375s11.855468-26.484375 26.484374-26.484375c14.625 0 26.480469 11.859375 26.480469 26.484375zm0 0" fill="#fff"/><path d="m414.996094 141.339844c0 14.625-11.859375 26.480468-26.484375 26.480468s-26.484375-11.855468-26.484375-26.480468 11.859375-26.484375 26.484375-26.484375 26.484375 11.859375 26.484375 26.484375zm0 0" fill="#fff"/></svg>