<svg height="512pt" viewBox="0 0 512 512" width="512pt" xmlns="http://www.w3.org/2000/svg"><path d="m439.96875 97.539062c-.914062 18.597657-6.5 36.664063-16.246094 52.527344l-6.441406.261719-37.695312 1.414063-39.28125-75.828126c24.824218-16.972656 43.839843-41.164062 54.464843-69.296874.8125-3.144532 3.289063-5.585938 6.441407-6.363282 3.152343-.773437 6.476562.246094 8.652343 2.65625 16.285157 20.738282 26.410157 45.636719 29.222657 71.855469 1.003906 7.546875 1.300781 15.171875.882812 22.773437zm0 0" fill="#fdd7ad"/><path d="m171.695312 75.914062-32.132812 68.675782-44.402344 4.769531-6.882812.707031c-9.746094-15.863281-15.332032-33.929687-16.246094-52.527344-.417969-7.601562-.121094-15.226562.882812-22.773437 2.8125-26.21875 12.9375-51.117187 29.222657-71.855469 2.175781-2.410156 5.5-3.429687 8.652343-2.65625 3.152344.777344 5.628907 3.21875 6.441407 6.363282 10.625 28.132812 29.640625 52.324218 54.464843 69.296874zm0 0" fill="#fdd7ad"/><path d="m430.257812 389.292969c15.886719 14.742187 43.871094 29.570312 81.742188 7.945312 0 0-7.945312 79.359375-99.046875 57.464844l-24.539063-48.636719zm0 0" fill="#4c8056"/><path d="m459.035156 286.449219c1.089844 47.6875-16.5625 93.898437-49.171875 128.707031l-94.71875 54.289062c-19.335937 4.867188-39.207031 7.296876-59.144531 7.238282-3 0-5.914062-.085938-8.828125-.175782-17.0625-.554687-34.019531-2.921874-50.582031-7.0625l-94.632813-54.464843c-32.464843-34.816407-50.046875-80.9375-48.992187-128.53125.125-26.210938 4.476562-52.234375 12.890625-77.0625l29.660156-60.734375c19.285156-29.929688 45.394531-54.855469 76.179687-72.738282 23.042969-13.355468 48.890626-21.125 75.476563-22.6875 2.914063-.175781 5.914063-.265624 8.828125-.265624 29.621094.179687 58.679688 8.09375 84.304688 22.953124 30.785156 17.882813 56.894531 42.808594 76.179687 72.738282l29.660156 60.734375c8.414063 24.828125 12.765625 50.851562 12.890625 77.0625zm0 0" fill="#24ae5f"/><path d="m441.378906 286.449219c1.09375 47.6875-16.5625 93.898437-49.167968 128.707031l-94.722657 54.289062c-16.472656 4.132813-33.339843 6.5-50.316406 7.0625-17.0625-.554687-34.019531-2.921874-50.582031-7.0625l-94.632813-54.464843c-32.464843-34.816407-50.046875-80.9375-48.992187-128.53125.125-26.210938 4.476562-52.234375 12.890625-77.0625l29.660156-60.734375c19.285156-29.929688 45.394531-54.855469 76.179687-72.738282 23.042969-13.355468 48.890626-21.125 75.476563-22.6875 26.585937 1.5625 52.433594 9.332032 75.476563 22.6875 30.789062 17.882813 56.894531 42.808594 76.183593 72.738282l29.660157 60.734375c8.410156 24.828125 12.761718 50.851562 12.886718 77.0625zm0 0" fill="#4fba6f"/><g fill="#4c8056"><path d="m93.042969 146.613281c-12.078125-9.269531-49.585938-31.179687-93.042969 12.277344 16.351562 29.527344 46.121094 49.183594 79.695312 52.621094 4.730469.453125 8.992188-2.867188 9.710938-7.5625l7.007812-49.066407c.457032-3.164062-.832031-6.328124-3.371093-8.269531zm0 0"/><path d="m418.957031 146.613281c12.078125-9.269531 49.585938-31.179687 93.042969 12.277344-16.351562 29.527344-46.121094 49.183594-79.695312 52.621094-4.730469.453125-8.992188-2.867188-9.710938-7.5625l-7.007812-49.066407c-.457032-3.164062.832031-6.328124 3.371093-8.269531zm0 0"/><path d="m106.902344 471.476562c-4.085938-6.683593-7.375-13.824218-9.800782-21.273437-4.410156-11.808594-2.585937-25.046875 4.855469-35.222656 11.566407-16.339844 34.640625-26.136719 50.140625-31.152344 8.691406-2.804687 18.082032 1.480469 21.664063 9.878906l20.03125 46.730469c.273437.648438.480469 1.324219.617187 2.015625 8.34375 43.476563-9.03125 69.542969-9.03125 69.542969h-114.757812s-8.828125-44.136719 70.621094-44.136719"/><path d="m404.804688 471.476562c4.085937-6.683593 7.375-13.824218 9.800781-21.273437 4.414062-11.808594 2.585937-25.046875-4.855469-35.222656-18.359375-25.953125-65.765625-35.398438-65.765625-35.398438l-26.484375 61.792969c-8.824219 44.136719 8.828125 70.621094 8.828125 70.621094h114.761719s8.824218-44.136719-70.621094-44.136719"/></g><path d="m251.585938 147.417969c-3.101563 6.304687-4.617188 13.277343-4.414063 20.300781 0-31.867188-24.097656-42.722656-55.082031-44.046875.703125-.074219 1.410156-.105469 2.117187-.089844 26.128907 0 48.375 5.824219 57.378907 23.835938zm0 0" fill="#e6e7e8"/><path d="m379.585938 185.375c.039062 18.859375-8.585938 36.695312-23.394532 48.375-1.003906-1.691406-2.125-3.316406-3.351562-4.855469 17.261718-17.441406 22.570312-43.449219 13.515625-66.261719-9.050781-22.8125-30.746094-38.101562-55.269531-38.960937 2.207031-.089844 4.410156-.089844 6.707031-.089844 34.128906 0 61.792969 27.664063 61.792969 61.792969zm0 0" fill="#e6e7e8"/><path d="m370.757812 185.375c.046876 16.3125-6.398437 31.972656-17.917968 43.519531-6.496094-8.230469-14.800782-14.847656-24.277344-19.332031-5.277344-2.6875-10.847656-4.761719-16.59375-6.179688-5.109375-1.367187-10.347656-2.195312-15.625-2.472656-3.234375-.21875-6.480469-.21875-9.710938 0-5.578124.257813-11.097656 1.238282-16.421874 2.914063h-8.824219l-19.070313-.089844c-5.511718-1.636719-11.203125-2.585937-16.949218-2.824219-2.292969-.085937-4.675782-.085937-7.148438 0h-.355469c-.765625-.011718-1.53125.015625-2.292969.089844-4.972656.382812-9.902343 1.179688-14.742187 2.382812-5.886719 1.425782-11.578125 3.558594-16.949219 6.355469-2.777344 1.351563-5.460937 2.886719-8.035156 4.589844-7.972656 4.96875-14.632812 11.78125-19.417969 19.863281-1.957031-1.496094-3.8125-3.121094-5.5625-4.855468-17.605469-17.300782-23.203125-43.429688-14.230469-66.425782 8.96875-22.996094 30.785157-38.433594 55.457032-39.238281 30.984375 1.324219 55.082031 12.179687 55.082031 44.046875-.203125-7.023438 1.3125-13.996094 4.414063-20.300781 3.105468 6.304687 4.617187 13.277343 4.414062 20.300781 0-31.867188 24.097656-42.722656 55.085938-44.046875 33.292968 1.066406 59.71875 28.390625 59.671874 61.703125zm0 0" fill="#fff"/><path d="m379.585938 366.78125c0 6.796875-5.207032 13.242188-14.476563 18.890625l-.371094-.132813c-11.453125-3.964843-24.019531 1.617188-28.75 12.773438l-18.460937 43.0625c-1.890625 9.230469-2.6875 18.652344-2.382813 28.070312-38.929687 9.65625-79.625 9.65625-118.554687 0 .273437-8.523437-.355469-17.054687-1.878906-25.449218-.320313-1.730469-.835938-3.421875-1.535157-5.039063l-17.59375-41.050781c-4.714843-10.980469-17.167969-16.398438-28.417969-12.355469l-.359374.132813c-9.183594-5.660156-14.390626-12.105469-14.390626-18.902344 0-22.15625 55.347657-40.164062 123.585938-40.164062s123.585938 18.007812 123.585938 40.164062zm0 0" fill="#f09372"/><path d="m229.515625 184.226562c.023437 5.820313-1.402344 11.554688-4.148437 16.683594-2.292969-.085937-4.675782-.085937-7.148438 0h-.355469c-.765625-.011718-1.53125.015625-2.292969.089844-4.972656.382812-9.902343 1.179688-14.742187 2.382812-5.886719 1.425782-11.578125 3.558594-16.949219 6.355469-2.777344 1.351563-5.460937 2.886719-8.035156 4.589844-14.554688-8.859375-20.703125-26.851563-14.621094-42.769531 6.085938-15.914063 22.667969-25.214844 39.421875-22.109375 16.757813 3.109375 28.902344 17.738281 28.871094 34.777343zm0 0" fill="#e57e25"/><path d="m282.484375 184.226562c-.023437 5.820313 1.402344 11.554688 4.148437 16.683594 2.292969-.085937 4.675782-.085937 7.148438 0h.355469c.765625-.011718 1.53125.015625 2.292969.089844 4.972656.382812 9.902343 1.179688 14.742187 2.382812 5.886719 1.425782 11.578125 3.558594 16.949219 6.355469 2.777344 1.351563 5.460937 2.886719 8.035156 4.589844 14.554688-8.859375 20.703125-26.851563 14.621094-42.769531-6.085938-15.914063-22.667969-25.214844-39.421875-22.109375-16.757813 3.109375-28.902344 17.738281-28.871094 34.777343zm0 0" fill="#e57e25"/><path d="m220.691406 185.375c-.007812 5.621094-1.800781 11.089844-5.121094 15.625-4.972656.382812-9.902343 1.179688-14.742187 2.382812-5.886719 1.425782-11.578125 3.558594-16.949219 6.355469-12.214844-5.171875-18.71875-18.585937-15.214844-31.382812 3.503907-12.792969 15.9375-21.019531 29.082032-19.246094 13.148437 1.773437 22.953125 13 22.945312 26.265625zm0 0" fill="#2c2f38"/><path d="m344.277344 185.375c.039062 10.46875-6.132813 19.96875-15.714844 24.1875-5.277344-2.6875-10.847656-4.761719-16.59375-6.179688-5.109375-1.367187-10.347656-2.195312-15.625-2.472656-3.292969-4.507812-5.058594-9.953125-5.035156-15.535156 0-14.625 11.859375-26.484375 26.484375-26.484375s26.484375 11.859375 26.484375 26.484375zm0 0" fill="#2c2f38"/><path d="m291.308594 220.683594c-1.660156 18.769531-16.539063 33.648437-35.308594 35.3125-18.769531-1.664063-33.648438-16.542969-35.308594-35.3125 0-14.625 15.808594-17.652344 35.308594-17.652344s35.308594 3.027344 35.308594 17.652344zm0 0" fill="#802d40"/><path d="m282.484375 300.132812h-52.96875c-29.238281-.027343-52.933594-23.726562-52.964844-52.964843 0-4.875 3.953125-8.828125 8.828125-8.828125s8.828125 3.953125 8.828125 8.828125c0 9.363281 3.71875 18.347656 10.34375 24.96875 6.621094 6.621093 15.601563 10.339843 24.964844 10.339843h52.96875c19.5 0 35.308594-15.808593 35.308594-35.308593 0-4.875 3.953125-8.828125 8.828125-8.828125s8.828125 3.953125 8.828125 8.828125c-.03125 29.238281-23.726563 52.9375-52.964844 52.964843zm0 0" fill="#802d40"/><path d="m256 397.238281c-14.625 0-26.484375-11.859375-26.484375-26.484375s11.859375-26.480468 26.484375-26.480468c4.875 0 8.828125 3.949218 8.828125 8.824218s-3.953125 8.828125-8.828125 8.828125-8.828125 3.953125-8.828125 8.828125 3.953125 8.828125 8.828125 8.828125 8.828125-3.953125 8.828125-8.828125 3.953125-8.828125 8.828125-8.828125 8.828125 3.953125 8.828125 8.828125c0 14.625-11.859375 26.484375-26.484375 26.484375zm0 0" fill="#f0785a"/><path d="m107.695312 79.265625c-12.246093 2.144531-23.597656 7.824219-32.660156 16.332031-.839844.867188-1.867187 1.53125-3.003906 1.941406-.417969-7.601562-.121094-15.226562.882812-22.773437 9.433594-6.359375 20.070313-10.714844 31.25-12.800781 4.777344-.976563 9.441407 2.109375 10.417969 6.886718.976563 4.777344-2.109375 9.441407-6.886719 10.414063zm0 0" fill="#7f6e5d"/><path d="m439.96875 97.539062c-1.136719-.410156-2.164062-1.074218-3.003906-1.941406-9.0625-8.507812-20.414063-14.1875-32.660156-16.332031-3.09375-.628906-5.613282-2.859375-6.609376-5.851563-1-2.992187-.328124-6.289062 1.765626-8.652343 2.089843-2.359375 5.28125-3.425781 8.375-2.796875 11.179687 2.085937 21.816406 6.441406 31.25 12.800781 1.003906 7.546875 1.300781 15.171875.882812 22.773437zm0 0" fill="#7f6e5d"/><path d="m194.207031 158.890625c0 9.753906-7.90625 17.65625-17.65625 17.65625s-17.652343-7.902344-17.652343-17.65625c0-9.75 7.902343-17.652344 17.652343-17.652344s17.65625 7.902344 17.65625 17.652344zm0 0" fill="#fff"/><path d="m317.792969 158.890625c0 9.753906-7.90625 17.65625-17.65625 17.65625s-17.652344-7.902344-17.652344-17.65625c0-9.75 7.902344-17.652344 17.652344-17.652344s17.65625 7.902344 17.65625 17.652344zm0 0" fill="#fff"/></svg>