<svg height="512pt" viewBox="-19 0 512 512.00002" width="512pt" xmlns="http://www.w3.org/2000/svg"><g fill="#e57e25"><path d="m212.292969 436.171875c.351562 4.238281.527343 8.5625.527343 12.976563 0 34.691406-11.828124 62.851562-26.480468 62.851562-14.65625 0-26.484375-28.160156-26.484375-62.851562-.074219-11.523438 1.351562-23.007813 4.238281-34.164063zm0 0"/><path d="m117.925781 147.597656c-5.589843-4.238281-11.492187-8.046875-17.65625-11.386718-30.457031-16.773438-60.910156-19.863282-67.882812-7.0625-6.976563 12.800781 11.914062 36.722656 42.371093 53.496093 9.609376 5.390625 19.875 9.511719 30.542969 12.269531zm0 0"/><path d="m410.558594 205.066406c8.058594-3.230468 15.777344-7.253906 23.039062-12.007812 29.21875-18.890625 46.433594-44.136719 38.488282-56.40625-7.945313-12.273438-37.957032-6.976563-67.175782 11.914062-2.382812 1.589844-4.769531 3.179688-6.976562 4.855469zm0 0"/><path d="m349.824219 414.984375c2.886719 11.15625 4.3125 22.640625 4.238281 34.164063 0 34.691406-11.828125 62.851562-26.484375 62.851562-14.652344 0-26.480469-28.160156-26.480469-62.851562 0-4.414063.175782-8.738282.527344-12.976563zm0 0"/><path d="m158.882812 411.1875c-9.796874 27.632812-22.597656 51.554688-39.105468 62.058594-9.613282 6.28125-20.824219 9.679687-32.308594 9.800781-14.289062-.136719-28.027344-5.546875-38.574219-15.183594-23.484375-20.746093-43.875-54.203125-20.21875-104.253906 8.566407-18.1875 8.652344-28.691406 6.179688-32.132813-3.375-4.09375-8.785157-5.910156-13.945313-4.679687-6.425781 1.207031-12.992187-1.238281-17.066406-6.355469-4.074219-5.113281-4.984375-12.0625-2.371094-18.054687 2.613282-5.992188 8.328125-10.050781 14.847656-10.546875 17.949219-2.898438 36.039063 4.328125 47.050782 18.804687 11.828125 16.242188 10.855468 39.105469-2.824219 68.058594-15.804687 33.457031-1.855469 50.671875 11.738281 62.675781 7.777344 7.53125 19.839844 8.386719 28.601563 2.03125 11.125-7.0625 21.363281-31.601562 29.835937-61.085937zm0 0"/></g><path d="m415.855469 264.828125c0 121.910156-71.148438 176.550781-158.898438 176.550781-2.910156 0-5.914062-.085937-8.824219-.175781-83.597656-3.621094-150.070312-58.527344-150.070312-176.375.617188-55.804687 13.453125-110.792969 37.605469-161.105469l57.46875-77.859375c15.382812-13.753906 34.542969-22.578125 54.996093-25.332031 5.863282-.707031 11.789063-.707031 17.652344 0 20.453125 2.753906 39.613282 11.578125 54.996094 25.332031l57.46875 77.859375c24.152344 50.3125 36.988281 105.300782 37.605469 161.105469zm0 0" fill="#f29c1f"/><path d="m398.199219 264.828125c0 117.847656-66.46875 172.753906-150.066407 176.375-83.597656-3.621094-150.070312-58.527344-150.070312-176.375.617188-55.804687 13.453125-110.792969 37.605469-161.105469l57.46875-77.859375c15.382812-13.753906 34.542969-22.578125 54.996093-25.332031 20.453126 2.753906 39.609376 11.578125 54.996094 25.332031l57.464844 77.859375c24.152344 50.3125 36.988281 105.300782 37.605469 161.105469zm0 0" fill="#f0c419"/><path d="m221.648438 52.964844-37.164063 32.484375c-22.863281-35.574219-57.996094-69.207031-78.832031-77.59375.621094-4.941407 1.238281-7.855469 1.238281-7.855469 79.449219 0 114.757813 52.964844 114.757813 52.964844zm0 0" fill="#f0c419"/><path d="m178.648438 90.5625-22.695313 19.878906c-2.898437 2.625-7.195313 2.984375-10.496094.882813-44.242187-29.546875-42.371093-83.421875-39.804687-103.449219 19.574218 7.875 51.757812 38.027344 74.542968 71.148438 2.453126 3.691406 1.792969 8.625-1.546874 11.539062zm0 0" fill="#ff5364"/><path d="m408.265625 7.855469c-20.835937 8.386719-55.96875 42.019531-78.832031 77.59375l-37.164063-32.484375s35.308594-52.964844 114.757813-52.964844c0 0 .617187 2.914062 1.238281 7.855469zm0 0" fill="#f0c419"/><path d="m357.964844 110.441406-22.695313-19.878906c-3.335937-2.925781-3.984375-7.871094-1.511719-11.554688 22.75-33.105468 54.933594-63.277343 74.507813-71.152343 2.539063 20.03125 4.410156 73.90625-39.804687 103.453125-3.296876 2.105468-7.589844 1.75-10.496094-.867188zm0 0" fill="#ff5364"/><path d="m327.578125 158.898438c.035156 19.992187-8.441406 39.058593-23.304687 52.433593-4.371094-1.714843-8.851563-3.128906-13.417969-4.238281 18.117187-19.375 23.84375-47.269531 14.832031-72.214844-9.007812-24.949218-31.242188-42.746094-57.554688-46.074218 2.925782-.355469 5.875-.53125 8.824219-.527344 39.003907 0 70.621094 31.617187 70.621094 70.621094zm0 0" fill="#e6e7e8"/><path d="m309.925781 158.898438c.050781 17.914062-6.773437 35.164062-19.070312 48.195312-11.085938-2.746094-22.472657-4.109375-33.898438-4.058594-3 0-5.914062.085938-8.824219.351563-13.171874.582031-26.164062 3.261719-38.488281 7.945312-1.5-1.324219-2.914062-2.738281-4.238281-4.238281-18.113281-19.375-23.84375-47.269531-14.832031-72.214844 9.011719-24.949218 31.242187-42.746094 57.558593-46.074218 35.316407 4.449218 61.804688 34.492187 61.792969 70.09375zm0 0" fill="#fff"/><path d="m265.785156.53125v34.777344c0 4.878906-3.949218 8.828125-8.828125 8.828125-4.875 0-8.824219-3.949219-8.824219-8.828125v-34.777344c5.863282-.707031 11.789063-.707031 17.652344 0zm0 0" fill="#f29c1f"/><path d="m301.097656 158.898438c0 24.375-19.761718 44.136718-44.140625 44.136718-24.375 0-44.136719-19.761718-44.136719-44.136718 0-24.378907 19.761719-44.140626 44.136719-44.140626 24.378907 0 44.140625 19.761719 44.140625 44.140626zm0 0" fill="#ff5364"/><path d="m283.441406 158.898438c0 14.625-11.855468 26.480468-26.484375 26.480468-14.625 0-26.480469-11.855468-26.480469-26.480468 0-14.628907 11.855469-26.484376 26.480469-26.484376 14.628907 0 26.484375 11.855469 26.484375 26.484376zm0 0" fill="#2c2f38"/><path d="m227.007812 326.621094c-2.390624-.003906-4.773437-.25-7.117187-.734375-12.84375-3.425781-24.054687-11.296875-31.636719-22.21875-3-3.816407-2.355468-9.34375 1.449219-12.367188 3.804687-3.019531 9.332031-2.402343 12.375 1.386719 5.09375 7.554688 12.597656 13.160156 21.292969 15.890625 11.925781 2.390625 21.449218-8.652344 24.761718-13.136719v-23.726562c0-4.878906 3.949219-8.828125 8.824219-8.828125 4.878907 0 8.828125 3.949219 8.828125 8.828125v26.480468c.003906 1.601563-.433594 3.167969-1.261718 4.539063-.636719 1.066406-14.625 23.886719-37.515626 23.886719zm0 0" fill="#802d40"/><path d="m286.894531 326.621094c-22.875 0-36.863281-22.835938-37.5-23.90625-.824219-1.363282-1.261719-2.925782-1.261719-4.519532v-26.480468c0-4.878906 3.949219-8.828125 8.824219-8.828125 4.878907 0 8.828125 3.949219 8.828125 8.828125v23.761718c3.304688 4.492188 12.785156 15.597657 24.71875 13.128907 8.707032-2.722657 16.230469-8.324219 21.328125-15.890625 1.914063-2.59375 5.09375-3.933594 8.289063-3.5 3.191406.433594 5.894531 2.574218 7.050781 5.585937 1.15625 3.007813.578125 6.410157-1.507813 8.867188-7.578124 10.925781-18.785156 18.8125-31.628906 22.246093-2.351562.480469-4.742187.714844-7.140625.707032zm0 0" fill="#802d40"/><path d="m292.269531 248.171875c0 9.707031-15.808593 23.542969-35.3125 23.542969-19.5 0-35.308593-13.800782-35.308593-23.542969 0-9.746094 15.808593-11.769531 35.308593-11.769531 19.503907 0 35.3125 2.011718 35.3125 11.769531zm0 0" fill="#d75e72"/><path d="m256.957031 132.414062c0 9.75-7.902343 17.65625-17.652343 17.65625s-17.65625-7.90625-17.65625-17.65625 7.90625-17.65625 17.65625-17.65625 17.652343 7.90625 17.652343 17.65625zm0 0" fill="#fff"/></svg>