<svg height="512pt" viewBox="0 0 512 512.04285" width="512pt" xmlns="http://www.w3.org/2000/svg"><path d="m512.023438 363.433594v20.566406c0 41.199219-33.21875 74.695312-74.417969 75.035156-3.066407 0-6.132813-.175781-9.179688-.53125-38.203125-5.714844-66.46875-38.527344-66.472656-77.152344v-27.808593c.027344-3.160157-1.65625-6.09375-4.398437-7.664063-2.746094-1.574218-6.125-1.546875-8.84375.074219-1.851563 1.058594-3.707032 2.117187-5.648438 3.089844-3.617188 2.03125-7.328125 3.796875-11.121094 5.472656-3.171875 1.425781-5.234375 4.554687-5.296875 8.035156v121.554688c.246094 14.433593-10.695312 26.605469-25.070312 27.894531-3.460938.207031-6.921875-.335938-10.152344-1.589844-10.652344-3.617187-17.796875-13.640625-17.742187-24.894531v-106.105469c.027343-2.382812-.917969-4.667968-2.621094-6.335937-1.699219-1.667969-4.003906-2.566407-6.382813-2.492188-2.914062.089844-5.738281.175781-8.652343.175781-2.914063 0-5.648438-.085937-8.5625-.175781h-.53125c-4.792969.097657-8.609376 4.035157-8.5625 8.828125v104.695313c.25 14.433593-10.691407 26.605469-25.070313 27.894531-3.457031.207031-6.921875-.335938-10.152344-1.589844-10.652343-3.617187-17.796875-13.640625-17.742187-24.894531v-122.964844c-.0625-3.480469-2.125-6.609375-5.296875-8.035156-5.746094-2.535156-11.347657-5.394531-16.773438-8.5625-2-1.191406-4.390625-1.535156-6.644531-.957031-2.253906.582031-4.183594 2.039062-5.359375 4.046875-.820313 1.359375-1.246094 2.914062-1.234375 4.5v27.808593c.167969 42.183594-33.480469 76.734376-75.652344 77.683594-2.804687 0-5.605468-.175781-8.386718-.53125-37.691407-4.554687-66.039063-36.542968-66.0312505-74.503906v-20.566406c-.1249995-11.601563 6.8867185-22.082032 17.6562505-26.394532 2.210937-.820312 4.53125-1.328124 6.882812-1.503906 7.339844-.539062 14.570312 2 19.964844 7.007813 5.390625 5.003906 8.457031 12.03125 8.460937 19.386719v20.65625c.019531 9.195312 5.304688 17.566406 13.59375 21.539062 3.058594 1.445312 6.421875 2.113281 9.800781 1.945312 11.667969-.703124 20.765626-10.382812 20.742188-22.070312v-83.066406c-.160156-12.5-3.117188-24.808594-8.648438-36.019532-33.628906-70.824218-18.871093-155.164062 36.808594-210.359374l30.898438-24.980469c26.40625-17.273438 56.867187-27.347657 88.363281-29.222657.972656-.085937 1.941406-.085937 2.824219-.085937 38.382812-1.925781 76.398437 8.265625 108.667968 29.128906l31.160157 24.984375c54.941406 55.101563 69.707031 138.613282 36.988281 209.210938-5.957031 12.1875-9.125 25.546875-9.269531 39.109375v81.300781c-.007813 5.855469 2.308593 11.476562 6.445312 15.625 1.878907 1.851562 4.058594 3.375 6.445313 4.5 2.488281 1.089844 5.144531 1.75 7.855468 1.945312 6.242188.074219 12.25-2.378906 16.65625-6.800781s6.835938-10.441406 6.738282-16.683593v-20.65625c0-7.019532 2.792968-13.753907 7.765625-18.714844 2.765625-2.808594 6.152343-4.925782 9.886719-6.175782 3.441406-1.265624 7.117187-1.777343 10.769531-1.503906 14.183593 1.515625 24.847656 13.636719 24.542969 27.898438zm0 0" fill="#894b9d"/><path d="m494.367188 363.433594v20.566406c-.015626 37.921875-28.300782 69.882812-65.941407 74.503906-38.203125-5.714844-66.46875-38.527344-66.472656-77.152344v-27.808593c.027344-3.160157-1.65625-6.09375-4.398437-7.664063-2.746094-1.574218-6.125-1.546875-8.84375.074219-1.851563 1.058594-3.707032 2.117187-5.648438 3.089844-1.175781-2.007813-3.105469-3.464844-5.359375-4.046875-2.253906-.578125-4.644531-.234375-6.644531.957031-5.425782 3.167969-11.027344 6.027344-16.773438 8.5625-3.171875 1.425781-5.234375 4.554687-5.296875 8.035156v121.554688c.0625 11.53125-6.890625 21.945312-17.566406 26.304687-10.652344-3.617187-17.796875-13.640625-17.742187-24.894531v-106.105469c.027343-2.382812-.917969-4.667968-2.621094-6.335937-1.699219-1.667969-4.003906-2.566407-6.382813-2.492188-2.914062.089844-5.738281.175781-8.652343.175781-2.914063 0-5.648438-.085937-8.5625-.175781h-.53125c-2.914063.089844-5.648438.175781-8.5625.175781-2.914063 0-5.738282-.085937-8.648438-.175781-2.382812-.074219-4.6875.824219-6.386719 2.492188-1.703125 1.667969-2.648437 3.953125-2.621093 6.335937v104.695313c.066406 11.53125-6.886719 21.945312-17.566407 26.304687-10.652343-3.617187-17.796875-13.640625-17.742187-24.894531v-122.964844c-.0625-3.480469-2.125-6.609375-5.296875-8.035156-5.746094-2.535156-11.347657-5.394531-16.773438-8.5625-2-1.191406-4.390625-1.535156-6.644531-.957031-2.253906.582031-4.183594 2.039062-5.359375 4.046875-1.941406-.972657-3.796875-2.03125-5.648437-3.089844-2.71875-1.621094-6.097657-1.648437-8.839844-.074219-2.746094 1.570313-4.429688 4.503906-4.402344 7.664063v27.808593c.035156 38.609376-28.199219 71.429688-66.382812 77.152344-37.691407-4.554687-66.039063-36.542968-66.0312505-74.503906v-20.566406c-.1249995-11.601563 6.8867185-22.082032 17.6562505-26.394532 3.734374 1.25 7.121093 3.367188 9.886718 6.175782 4.972656 4.960937 7.769532 11.695312 7.765625 18.714844v20.65625c-.097656 6.242187 2.332031 12.261718 6.738281 16.683593s10.414063 6.875 16.65625 6.800781c2.710938-.195312 5.367188-.855468 7.855469-1.945312 3.058594 1.445312 6.421875 2.113281 9.800781 1.945312 11.667969-.703124 20.765626-10.382812 20.742188-22.070312v-83.066406c-.160156-12.5-3.117188-24.808594-8.648438-36.019532-33.628906-70.824218-18.871093-155.164062 36.808594-210.359374l30.898438-24.980469c26.40625-17.273438 56.867187-27.347657 88.363281-29.222657.972656-.085937 1.941406-.085937 2.824219-.085937 32.386718 1.464844 63.796875 11.519531 91.011718 29.128906l31.164063 24.984375c54.941406 55.101563 69.703125 138.613282 36.988281 209.210938-5.960937 12.1875-9.125 25.546875-9.269531 39.109375v81.300781c-.023437 11.6875 9.074219 21.367188 20.742187 22.070312 3.378907.167969 6.742188-.5 9.800782-1.945312 8.292968-3.972656 13.574218-12.34375 13.59375-21.539062v-20.65625c.003906-7.355469 3.070312-14.382813 8.460937-19.386719 5.394531-5.007813 12.625-7.546875 19.964844-7.007813 2.351563.175782 4.671875.683594 6.882813 1.503906 10.769531 4.3125 17.78125 14.792969 17.65625 26.394532zm0 0" fill="#955ba5"/><path d="m160.886719 63.425781c4.371093-2.875 7.234375-7.550781 7.808593-12.75.574219-5.199219-1.195312-10.386719-4.832031-14.148437-15.414062-15.554688-46.496093-36.527344-102.046875-36.527344-88.277344 0-70.621094 88.277344-17.65625 79.449219 50.910156-8.484375 20.304688-65.90625 96.222656-15.476563 5.933594 3.964844 13.667969 3.984375 19.621094.046875zm0 0" fill="#b49aca"/><path d="m351.15625 63.425781c-4.367188-2.875-7.230469-7.550781-7.804688-12.75-.578124-5.199219 1.195313-10.386719 4.832032-14.148437 15.414062-15.554688 46.496094-36.527344 102.046875-36.527344 88.273437 0 70.621093 88.277344 17.65625 79.449219-50.910157-8.484375-20.304688-65.90625-96.222657-15.476563-5.933593 3.964844-13.667968 3.984375-19.625.046875zm0 0" fill="#b49aca"/><path d="m256.023438 167.722656c0 39.003906-31.617188 70.621094-70.621094 70.621094-2.949219.003906-5.898438-.171875-8.828125-.527344-35.394531-4.359375-61.988281-34.429687-61.988281-70.09375 0-35.664062 26.59375-65.730468 61.988281-70.089844 2.929687-.355468 5.878906-.53125 8.828125-.53125 39.003906 0 70.621094 31.621094 70.621094 70.621094zm0 0" fill="#e6e7e8"/><path d="m238.367188 167.722656c0-38.707031-27.664063-70.089844-61.792969-70.089844-34.125 0-61.792969 31.382813-61.792969 70.089844 0 38.710938 27.667969 70.09375 61.792969 70.09375 34.128906 0 61.792969-31.382812 61.792969-70.09375zm0 0" fill="#fff"/><path d="m397.265625 167.722656c0 39.003906-31.621094 70.621094-70.621094 70.621094-2.953125.003906-5.898437-.171875-8.828125-.527344-35.398437-4.359375-61.988281-34.429687-61.988281-70.09375 0-35.664062 26.589844-65.730468 61.988281-70.089844 2.929688-.355468 5.875-.53125 8.828125-.53125 39 0 70.621094 31.621094 70.621094 70.621094zm0 0" fill="#e6e7e8"/><path d="m379.609375 167.722656c0-38.707031-27.664063-70.089844-61.792969-70.089844s-61.792968 31.382813-61.792968 70.089844c0 38.710938 27.664062 70.09375 61.792968 70.09375s61.792969-31.382812 61.792969-70.09375zm0 0" fill="#fff"/><path d="m220.710938 167.722656c0 19.503906-15.808594 35.3125-35.308594 35.3125s-35.308594-15.808594-35.308594-35.3125c0-19.5 15.808594-35.308594 35.308594-35.308594s35.308594 15.808594 35.308594 35.308594zm0 0" fill="#4fba6f"/><path d="m361.953125 167.722656c0 19.503906-15.808594 35.3125-35.308594 35.3125-19.503906 0-35.3125-15.808594-35.3125-35.3125 0-19.5 15.808594-35.308594 35.3125-35.308594 19.5 0 35.308594 15.808594 35.308594 35.308594zm0 0" fill="#4fba6f"/><path d="m203.058594 167.722656c0 9.753906-7.90625 17.65625-17.65625 17.65625s-17.65625-7.902344-17.65625-17.65625c0-9.75 7.90625-17.652344 17.65625-17.652344s17.65625 7.902344 17.65625 17.652344zm0 0" fill="#2c2f38"/><path d="m344.300781 167.722656c0 9.753906-7.90625 17.65625-17.65625 17.65625s-17.65625-7.902344-17.65625-17.65625c0-9.75 7.90625-17.652344 17.65625-17.652344s17.65625 7.902344 17.65625 17.652344zm0 0" fill="#2c2f38"/><path d="m291.332031 291.308594c0 19.503906-15.808593 35.3125-35.308593 35.3125s-35.3125-15.808594-35.3125-35.3125c0-19.5 15.8125-35.308594 35.3125-35.308594s35.308593 15.808594 35.308593 35.308594zm0 0" fill="#802d40"/><g fill="#fff"><path d="m185.402344 150.070312c0 9.75-7.90625 17.652344-17.65625 17.652344s-17.652344-7.902344-17.652344-17.652344c0-9.753906 7.902344-17.65625 17.652344-17.65625s17.65625 7.902344 17.65625 17.65625zm0 0"/><path d="m326.644531 150.070312c0 9.75-7.90625 17.652344-17.65625 17.652344s-17.65625-7.902344-17.65625-17.652344c0-9.753906 7.90625-17.65625 17.65625-17.65625s17.65625 7.902344 17.65625 17.65625zm0 0"/></g></svg>