<svg height="496pt" viewBox="0 -1 496.27349 496" width="496pt" xmlns="http://www.w3.org/2000/svg"><path d="m180.808594 20.960938-43.09375 53.164062c-15.761719-9.027344-33.550782-13.929688-51.710938-14.25-47.359375 0-29.015625 61.523438-13.3125 99.328125 1.535156 3.679687.316406 7.929687-2.933594 10.242187-3.25 2.308594-7.664062 2.058594-10.632812-.601562-30.378906-27.730469-56.75-72.703125-58.882812-109.226562-.542969-6.136719-.1718755-12.320313 1.109374-18.34375 4.183594-20.140626 18.773438-35.328126 48.386719-39.765626 5.644531-.878906 11.351563-1.335937 17.066407-1.367187h2.132812c15.953125-.0820312 31.894531.972656 47.699219 3.15625 6.402343.855469 12.375 1.878906 18.175781 2.988281 15.832031 3.164063 31.261719 8.085938 45.996094 14.675782zm0 0" fill="#fdd7ad"/><path d="m496.03125 59.617188v.085937c-2.132812 36.523437-28.503906 81.410156-58.882812 109.140625-2.96875 2.660156-7.382813 2.910156-10.632813.601562-3.25-2.3125-4.46875-6.5625-2.933594-10.242187 15.703125-37.804687 34.046875-99.328125-13.3125-99.328125-18.160156.320312-35.949219 5.222656-51.710937 14.25l-43.09375-53.164062c14.734375-6.589844 30.164062-11.511719 45.996094-14.675782 5.800781-1.109375 11.773437-2.132812 18.175781-2.988281 15.804687-2.183594 31.746093-3.2382812 47.699219-3.15625h2.132812c5.714844.03125 11.421875.488281 17.066406 1.367187 29.613282 4.4375 44.203125 19.625 48.386719 39.765626 1.28125 6.023437 1.652344 12.207031 1.109375 18.34375zm0 0" fill="#fdd7ad"/><path d="m367.601562 119.609375v139.859375l-45.054687 218.539062h-148.820313l-45.054687-218.539062v-139.859375c.015625-62.65625 48.4375-114.652344 110.929687-119.125 2.816407-.257813 5.632813-.34375 8.535157-.34375 65.980469 0 119.464843 53.488281 119.464843 119.46875zm0 0" fill="#2c3e50"/><path d="m350.535156 119.609375v139.859375l-17.066406 218.539062h-159.742188l-45.054687-218.539062v-139.859375c.015625-62.65625 48.4375-114.652344 110.929687-119.125 62.515626 4.433594 110.957032 56.453125 110.933594 119.125zm0 0" fill="#35495e"/><path d="m170.910156 286.09375c-3.351562 0-6.394531-1.964844-7.773437-5.023438-1.378907-3.054687-.84375-6.636718 1.375-9.152343 15.921875-18.054688 38.664062-20.265625 62.410156-6.03125 4.042969 2.421875 5.359375 7.664062 2.9375 11.707031s-7.664063 5.359375-11.707031 2.9375c-16.941406-10.164062-30.304688-9.277344-40.84375 2.667969-1.617188 1.839843-3.949219 2.894531-6.398438 2.894531zm0 0" fill="#2c3e50"/><path d="m325.363281 286.09375c-2.453125.007812-4.785156-1.046875-6.398437-2.894531-10.546875-11.945313-23.894532-12.796875-40.84375-2.667969-2.613282 1.566406-5.867188 1.617188-8.53125.136719-2.664063-1.484375-4.335938-4.273438-4.386719-7.320313-.050781-3.050781 1.53125-5.894531 4.148437-7.460937 23.753907-14.242188 46.496094-12.03125 62.410157 6.03125 2.21875 2.515625 2.753906 6.097656 1.375 9.152343-1.378907 3.058594-4.421875 5.023438-7.773438 5.023438zm0 0" fill="#2c3e50"/><path d="m248.136719 102.542969c0 23.5625-19.101563 42.664062-42.667969 42.664062-2.835938.023438-5.667969-.265625-8.445312-.851562h-.171876c-19.886718-4.039063-34.175781-21.523438-34.175781-41.8125 0-20.292969 14.289063-37.777344 34.175781-41.816407h.171876c2.777343-.585937 5.609374-.871093 8.445312-.851562 11.316406 0 22.167969 4.496094 30.171875 12.496094 8 8 12.496094 18.855468 12.496094 30.171875zm0 0" fill="#e6e7e8"/><path d="m231.070312 102.542969c-.019531 20.238281-14.230468 37.691406-34.046874 41.8125h-.171876c-19.886718-4.039063-34.175781-21.523438-34.175781-41.8125 0-20.292969 14.289063-37.777344 34.175781-41.816407h.171876c19.816406 4.121094 34.027343 21.574219 34.046874 41.816407zm0 0" fill="#fff"/><path d="m333.46875 102.542969c0 23.5625-19.101562 42.664062-42.664062 42.664062-2.839844.023438-5.671876-.265625-8.449219-.851562h-.171875c-19.882813-4.039063-34.175782-21.523438-34.175782-41.8125 0-20.292969 14.292969-37.777344 34.175782-41.816407h.171875c2.777343-.585937 5.609375-.871093 8.449219-.851562 11.316406 0 22.167968 4.496094 30.167968 12.496094 8.003906 8 12.496094 18.855468 12.496094 30.171875zm0 0" fill="#e6e7e8"/><path d="m316.402344 102.542969c-.019532 20.238281-14.230469 37.691406-34.046875 41.8125h-.171875c-19.882813-4.039063-34.175782-21.523438-34.175782-41.8125 0-20.292969 14.292969-37.777344 34.175782-41.816407h.171875c19.816406 4.121094 34.027343 21.574219 34.046875 41.816407zm0 0" fill="#fff"/><path d="m231.070312 102.542969c0 14.136719-11.460937 25.597656-25.601562 25.597656-14.136719 0-25.597656-11.460937-25.597656-25.597656 0-14.140625 11.460937-25.601563 25.597656-25.601563 14.140625 0 25.601562 11.460938 25.601562 25.601563zm0 0" fill="#e64c3c"/><path d="m316.402344 102.542969c0 14.136719-11.460938 25.597656-25.597656 25.597656-14.140626 0-25.601563-11.460937-25.601563-25.597656 0-14.140625 11.460937-25.601563 25.601563-25.601563 14.136718 0 25.597656 11.460938 25.597656 25.601563zm0 0" fill="#e64c3c"/><path d="m222.535156 102.542969c0 9.425781-7.640625 17.066406-17.066406 17.066406s-17.066406-7.640625-17.066406-17.066406 7.640625-17.066407 17.066406-17.066407 17.066406 7.640626 17.066406 17.066407zm0 0" fill="#2c2f38"/><path d="m307.871094 102.542969c0 9.425781-7.640625 17.066406-17.066406 17.066406-9.425782 0-17.066407-7.640625-17.066407-17.066406s7.640625-17.066407 17.066407-17.066407c9.425781 0 17.066406 7.640626 17.066406 17.066407zm0 0" fill="#2c2f38"/><path d="m196.9375 196.40625h51.199219v8.535156c0 14.136719-11.460938 25.601563-25.601563 25.601563-14.136718 0-25.597656-11.464844-25.597656-25.601563zm0 0" fill="#f9eab0"/><path d="m205.46875 196.40625h34.132812v17.070312c0 9.421876-7.640624 17.066407-17.066406 17.066407-9.425781 0-17.066406-7.644531-17.066406-17.066407zm0 0" fill="#f5efca"/><path d="m248.136719 196.40625h51.199219v8.535156c0 14.136719-11.460938 25.601563-25.597657 25.601563-14.140625 0-25.601562-11.464844-25.601562-25.601563zm0 0" fill="#f9eab0"/><path d="m256.671875 196.40625h34.132813v17.070312c0 9.421876-7.640626 17.066407-17.066407 17.066407s-17.066406-7.644531-17.066406-17.066407zm0 0" fill="#f5efca"/><g fill="#7f6e5d"><path d="m134.8125 6.285156c-.316406 1.476563-.992188 2.851563-1.960938 4.011719-6.421874 7.285156-10.859374 16.101563-12.886718 25.597656-.773438 4.007813-4.28125 6.90625-8.363282 6.914063-.542968-.015625-1.085937-.070313-1.621093-.171875-2.222657-.414063-4.191407-1.703125-5.457031-3.582031-1.269532-1.875-1.730469-4.179688-1.28125-6.402344 2.078124-10.707032 6.671874-20.765625 13.394531-29.355469 6.402343.855469 12.375 1.878906 18.175781 2.988281zm0 0"/><path d="m74.996094 40.332031c-3.367188 3.300781-8.753906 3.300781-12.117188 0-9.449218-10.632812-14.1875-24.640625-13.140625-38.824219 5.644531-.878906 11.351563-1.335937 17.066407-1.367187v.511719c-.96875 9.90625 1.972656 19.796875 8.191406 27.5625 3.328125 3.355468 3.328125 8.765625 0 12.117187zm0 0"/><path d="m43.335938 59.875c0 4.710938-3.820313 8.53125-8.53125 8.53125-12.082032.078125-23.984376-2.945312-34.5625-8.789062-.542969-6.136719-.1718755-12.320313 1.109374-18.34375 1.242188.179687 2.433594.617187 3.5 1.277343 8.921876 5.769531 19.328126 8.824219 29.953126 8.789063 4.710937 0 8.53125 3.820312 8.53125 8.535156zm0 0"/><path d="m386.292969 42.636719c-.535157.101562-1.078125.15625-1.621094.171875-4.082031-.007813-7.589844-2.90625-8.363281-6.914063-2.023438-9.496093-6.464844-18.3125-12.886719-25.597656-.96875-1.160156-1.644531-2.535156-1.960937-4.011719 5.800781-1.109375 11.773437-2.132812 18.175781-2.988281 6.722656 8.589844 11.316406 18.648437 13.394531 29.355469.449219 2.222656-.011719 4.527344-1.28125 6.402344-1.265625 1.878906-3.234375 3.167968-5.457031 3.582031zm0 0"/><path d="m446.535156 1.507812c1.046875 14.183594-3.691406 28.191407-13.140625 38.824219-3.363281 3.300781-8.75 3.300781-12.117187 0-3.328125-3.351562-3.328125-8.761719 0-12.117187 6.222656-7.765625 9.160156-17.65625 8.191406-27.5625v-.511719c5.714844.03125 11.421875.488281 17.066406 1.367187zm0 0"/><path d="m496.03125 59.617188v.085937c-10.601562 5.777344-22.492188 8.769531-34.5625 8.703125-4.710938 0-8.53125-3.820312-8.53125-8.53125 0-4.714844 3.820312-8.535156 8.53125-8.535156 10.625.035156 21.03125-3.019532 29.953125-8.789063 1.03125-.734375 2.238281-1.175781 3.5-1.277343 1.28125 6.023437 1.652344 12.207031 1.109375 18.34375zm0 0"/></g><path d="m299.335938 204.941406h-102.398438c-23.554688-.027344-42.640625-19.113281-42.667969-42.667968 0-4.710938 3.820313-8.53125 8.535157-8.53125 4.710937 0 8.53125 3.820312 8.53125 8.53125 0 14.140624 11.460937 25.601562 25.601562 25.601562h102.398438c14.140624 0 25.601562-11.460938 25.601562-25.601562 0-4.710938 3.820312-8.53125 8.53125-8.53125 4.714844 0 8.535156 3.820312 8.535156 8.53125-.027344 23.554687-19.113281 42.640624-42.667968 42.667968zm0 0" fill="#802d40"/><path d="m417.371094 261.527344c-58.816406-17.144532-121.46875 20.308594-139.929688 83.652344-18.464844 63.34375 14.25 128.589843 73.070313 145.734374 58.820312 17.144532 121.46875-20.308593 139.933593-83.652343 18.460938-63.34375-14.253906-128.589844-73.074218-145.734375zm0 0" fill="#2c3e50"/><path d="m430.828125 428.847656c-4.457031 15.300782-39.082031 38.535156-70.757813 29.304688-31.675781-9.234375-48.394531-47.4375-43.929687-62.738282 4.460937-15.300781 33.746094-20.234374 65.421875-11 31.675781 9.234376 53.726562 29.125 49.265625 44.433594zm0 0" fill="#fb7b76"/><path d="m407.824219 294.304688c-13.574219-3.957032-28.320313 5.671874-32.933594 21.507812-4.617187 15.835938 2.644531 31.882812 16.21875 35.839844 13.574219 3.953125 28.320313-5.675782 32.933594-21.511719 4.617187-15.835937-2.644531-31.878906-16.21875-35.835937zm0 0" fill="#fb7b76"/><path d="m464.175781 352.710938c-6.519531-6.808594-18.242187-6.164063-26.183593 1.4375-7.941407 7.601562-9.097657 19.285156-2.578126 26.09375 6.515626 6.808593 18.238282 6.167968 26.179688-1.4375 7.945312-7.601563 9.097656-19.285157 2.582031-26.09375zm0 0" fill="#fb7b76"/><path d="m350.226562 328.570312c-2.613281-10.679687-12.152343-17.519531-21.308593-15.28125-9.15625 2.242188-14.460938 12.714844-11.847657 23.394532 2.613282 10.679687 12.15625 17.523437 21.308594 15.28125 9.15625-2.238282 14.460938-12.714844 11.847656-23.394532zm0 0" fill="#fb7b76"/><path d="m218.828125 345.179688c-18.464844-63.34375-81.113281-100.796876-139.933594-83.652344-58.816406 17.144531-91.53125 82.394531-73.070312 145.738281 18.464843 63.34375 81.113281 100.792969 139.933593 83.652344 58.816407-17.144531 91.535157-82.394531 73.070313-145.738281zm0 0" fill="#2c3e50"/><path d="m65.445312 428.847656c4.457032 15.300782 39.082032 38.535156 70.757813 29.304688 31.675781-9.234375 48.394531-47.4375 43.929687-62.738282-4.460937-15.300781-33.746093-20.234374-65.421874-11-31.675782 9.234376-53.726563 29.125-49.265626 44.433594zm0 0" fill="#fb7b76"/><path d="m121.378906 315.8125c-4.617187-15.835938-19.363281-25.464844-32.9375-21.507812-13.570312 3.953124-20.832031 20-16.21875 35.835937 4.617188 15.835937 19.363282 25.464844 32.933594 21.507813 13.574219-3.953126 20.835938-20 16.222656-35.835938zm0 0" fill="#fb7b76"/><path d="m58.277344 354.164062c-7.941406-7.601562-19.664063-8.246093-26.183594-1.4375-6.519531 6.808594-5.363281 18.492188 2.578125 26.09375 7.945313 7.605469 19.664063 8.25 26.183594 1.441407 6.519531-6.808594 5.363281-18.492188-2.578125-26.097657zm0 0" fill="#fb7b76"/><path d="m167.359375 313.300781c-9.15625-2.242187-18.695313 4.601563-21.308594 15.28125-2.613281 10.679688 2.691407 21.152344 11.84375 23.394531 9.15625 2.238282 18.699219-4.601562 21.3125-15.28125 2.613281-10.679687-2.691406-21.15625-11.847656-23.394531zm0 0" fill="#fb7b76"/><path d="m205.46875 81.207031c0 7.070313-5.730469 12.800781-12.796875 12.800781-7.070313 0-12.800781-5.730468-12.800781-12.800781 0-7.066406 5.730468-12.800781 12.800781-12.800781 7.066406 0 12.796875 5.734375 12.796875 12.800781zm0 0" fill="#fff"/><path d="m290.804688 81.207031c0 7.070313-5.730469 12.800781-12.800782 12.800781-7.070312 0-12.800781-5.730468-12.800781-12.800781 0-7.066406 5.730469-12.800781 12.800781-12.800781 7.070313 0 12.800782 5.734375 12.800782 12.800781zm0 0" fill="#fff"/></svg>