<svg height="511pt" viewBox="-4 0 511 511.51581" width="511pt" xmlns="http://www.w3.org/2000/svg"><path d="m255.289062 314.222656c34.589844-57.195312 51.597657-12.539062 55.929688 2.132813.332031 1.125 1.105469 2.066406 2.144531 2.609375 1.035157.546875 2.25.648437 3.363281.28125 32.640626-11.476563 56.976563-39.078125 64.277344-72.894532.257813-1.167968.984375-2.175781 2.007813-2.789062 1.027343-.617188 2.257812-.78125 3.410156-.457031 8.605469 3.6875 15.382813 10.652343 18.839844 19.351562.636719 1.351563 1.925781 2.277344 3.40625 2.453125 1.484375.175782 2.953125-.421875 3.890625-1.585937 29.957031-35.484375 19.386718-84.730469 14.507812-101.632813-.398437-1.417968-.0625-2.941406.894532-4.058594.957031-1.117187 2.410156-1.683593 3.871093-1.503906 6.875.742188 13.449219 3.234375 19.089844 7.234375 1.4375 1.058594 3.371094 1.128907 4.878906.183594 1.507813-.945313 2.285157-2.71875 1.960938-4.46875-5.417969-35.300781-24.96875-66.878906-54.152344-87.464844-1.347656-.902343-2.082031-2.484375-1.898437-4.097656.183593-1.613281 1.25-2.988281 2.769531-3.566406 6.714843-2.027344 13.667969-3.164063 20.679687-3.382813 1.675782-.113281 3.140625-1.171875 3.773438-2.730468.628906-1.558594.3125-3.339844-.816406-4.585938-44.257813-49.523438-113.332032-29.660156-135.039063-21.695312-1.542969.558593-3.273437.195312-4.464844-.9375-1.191406-1.132813-1.640625-2.84375-1.15625-4.417969 2.125-6.957031 5.496094-13.476563 9.953125-19.230469 1.054688-1.382812 1.183594-3.257812.324219-4.769531-.859375-1.515625-2.535156-2.367188-4.265625-2.1718752-14.1875 1.1484372-27.78125 6.2070312-39.265625 14.6132812-1.527344 1.207031-3.679687 1.207031-5.207031 0-11.480469-8.402344-25.070313-13.457031-39.25-14.6054688-1.726563-.1953122-3.40625.6601558-4.265625 2.1718748-.855469 1.511719-.730469 3.390625.324219 4.773438 4.453124 5.746093 7.828124 12.25 9.953124 19.203125.484376 1.570312.035157 3.28125-1.152343 4.414062-1.191407 1.136719-2.921875 1.5-4.46875.941406-21.695313-7.949218-90.796875-27.769531-135.039063 21.691407-1.136718 1.246093-1.460937 3.03125-.835937 4.59375.628906 1.5625 2.097656 2.628906 3.777343 2.742187 7.007813.21875 13.953126 1.355469 20.664063 3.382813 1.515625.578125 2.585937 1.953125 2.765625 3.566406.183594 1.613281-.550781 3.195313-1.898438 4.097656-29.183593 20.585938-48.734374 52.164063-54.152343 87.464844-.324219 1.75.453125 3.523437 1.960937 4.46875 1.511719.945313 3.445313.875 4.878906-.183594 5.644532-4 12.214844-6.492187 19.089844-7.234375 1.460938-.179687 2.914063.386719 3.875 1.503906.957032 1.117188 1.289063 2.640626.890625 4.058594-4.875 16.902344-15.402343 66.148438 14.511719 101.660156.9375 1.164063 2.40625 1.761719 3.886719 1.585938 1.484375-.179688 2.769531-1.105469 3.410156-2.453125 3.453125-8.703125 10.234375-15.667969 18.839844-19.351563 1.148437-.324218 2.382812-.160156 3.40625.453126 1.027343.617187 1.75 1.625 2.007812 2.792968 7.300781 33.816406 31.640625 61.417969 64.277344 72.894532 1.113281.363281 2.328125.261718 3.367187-.28125 1.039063-.542969 1.8125-1.484376 2.144532-2.609376 4.339844-14.675781 21.339844-59.332031 55.929687-2.132812.792969 1.28125 2.195313 2.058594 3.703125 2.050781 1.507813-.003906 2.90625-.792969 3.691406-2.078125zm0 0" fill="#cc4b4c"/><path d="m182.175781 476.804688c-2.421875.007812-4.734375-1.007813-6.371093-2.796876-12.511719-13.386718-23.050782-28.488281-31.300782-44.855468-7.078125-14.25-12.066406-29.449219-14.8125-45.125-2.425781-14.214844-3.078125-28.675782-1.933594-43.050782 1.070313-13.199218 3.417969-26.261718 7.011719-39.007812 3.191407-11.359375 7.207031-22.46875 12.015625-33.246094 1.949219-4.378906 7.082032-6.351562 11.460938-4.402344 4.378906 1.949219 6.351562 7.078126 4.402344 11.457032-4.464844 10.003906-8.195313 20.316406-11.167969 30.859375-3.292969 11.65625-5.4375 23.605469-6.410157 35.675781-1.039062 12.933594-.457031 25.949219 1.734376 38.738281 2.449218 14.03125 6.910156 27.632813 13.242187 40.386719 7.515625 14.878906 17.113281 28.613281 28.5 40.789062 2.34375 2.53125 2.96875 6.210938 1.585937 9.375-1.378906 3.160157-4.503906 5.207032-7.957031 5.203126zm0 0" fill="#802f34"/><path d="m173.496094 511.515625h-69.421875c-9.585938 0-17.355469-7.769531-17.355469-17.355469 0-19.171875 15.539062-34.710937 34.710938-34.710937h60.746093c4.792969 0 8.679688 3.882812 8.679688 8.675781v26.035156c0 9.585938-7.773438 17.355469-17.359375 17.355469zm0 0" fill="#cc4b4c"/><path d="m321.023438 476.804688c-3.445313-.003907-6.5625-2.046876-7.941407-5.199219-1.378906-3.15625-.765625-6.832031 1.570313-9.363281 11.386718-12.175782 20.984375-25.90625 28.5-40.785157 6.335937-12.746093 10.796875-26.339843 13.25-40.363281 2.191406-12.789062 2.773437-25.804688 1.738281-38.738281-.972656-12.070313-3.121094-24.019531-6.414063-35.675781-2.96875-10.542969-6.703124-20.855469-11.167968-30.859376-1.949219-4.378906.023437-9.507812 4.402344-11.457031 4.378906-1.949219 9.511718.023438 11.460937 4.402344 4.808594 10.777344 8.824219 21.886719 12.019531 33.246094 3.589844 12.746093 5.9375 25.808593 7.011719 39.007812 1.140625 14.375.488281 28.835938-1.9375 43.050781-2.746094 15.675782-7.734375 30.875-14.8125 45.125-8.25 16.367188-18.789063 31.46875-31.300781 44.859376-1.644532 1.769531-3.960938 2.769531-6.378906 2.75zm0 0" fill="#802f34"/><path d="m399.125 511.515625h-69.425781c-9.582031 0-17.355469-7.769531-17.355469-17.355469v-26.035156c0-4.792969 3.886719-8.675781 8.679688-8.675781h60.746093c19.171875 0 34.710938 15.539062 34.710938 34.710937 0 9.585938-7.769531 17.355469-17.355469 17.355469zm0 0" fill="#cc4b4c"/><g fill="#802f34"><path d="m25.972656 337.957031c-3.515625 0-6.6875-2.121093-8.027344-5.371093-21.085937-51.246094-23.335937-96.230469-6.65625-133.71875 14.605469-31.246094 40.519532-55.789063 72.511719-68.679688 4.515625-1.617188 9.484375.730469 11.101563 5.242188 1.617187 4.511718-.730469 9.480468-5.242188 11.097656-27.519531 11.453125-49.824218 32.6875-62.613281 59.609375-14.570313 32.976562-12.226563 73.261719 6.945313 119.835937 1.101562 2.675782.796874 5.726563-.8125 8.132813-1.609376 2.40625-4.3125 3.847656-7.207032 3.851562zm0 0"/><path d="m25.972656 398.703125c-1.878906.003906-3.707031-.605469-5.207031-1.738281-10.492187-8.28125-17.257813-20.394532-18.804687-33.667969-.324219-15.378906 6.230468-30.101563 17.875-40.152344.832031-.832031 1.824218-1.488281 2.917968-1.929687 13.105469-4.9375 27.667969-4.253906 40.257813 1.886718 13.570312 8.765626 22.289062 23.351563 23.585937 39.457032.664063 4.664062-2.511718 9.007812-7.160156 9.785156-4.644531.777344-9.066406-2.292969-9.953125-6.921875-.613281-10.867187-6.125-20.871094-14.988281-27.195313-7.453125-3.476562-15.957032-3.976562-23.769532-1.398437-7.21875 6.414063-11.378906 15.589844-11.445312 25.246094 1.160156 8.257812 5.414062 15.765625 11.898438 21.007812 2.988281 2.242188 4.207031 6.144531 3.023437 9.6875-1.179687 3.542969-4.496094 5.933594-8.230469 5.933594zm0 0"/><path d="m477.226562 337.957031c-2.894531 0-5.601562-1.441406-7.214843-3.847656-1.609375-2.40625-1.914063-5.460937-.8125-8.136719 19.222656-46.679687 21.53125-87.066406 6.855469-120.050781-12.730469-26.867187-35-48.035156-62.480469-59.382813-4.515625-1.613281-6.871094-6.578124-5.257813-11.089843 1.609375-4.515625 6.574219-6.871094 11.089844-5.261719 31.992188 12.890625 57.90625 37.433594 72.511719 68.679688 16.679687 37.488281 14.433593 82.441406-6.65625 133.71875-1.339844 3.253906-4.515625 5.375-8.035157 5.371093zm0 0"/><path d="m477.226562 398.703125c-3.734374 0-7.050781-2.390625-8.234374-5.933594-1.179688-3.542969.039062-7.445312 3.027343-9.6875 6.53125-5.277343 10.800781-12.847656 11.941407-21.164062-.117188-9.609375-4.277344-18.722657-11.457032-25.105469-7.84375-2.609375-16.390625-2.09375-23.863281 1.4375-8.800781 6.34375-14.269531 16.316406-14.890625 27.144531-.890625 4.628907-5.308594 7.699219-9.953125 6.921875-4.648437-.777344-7.824219-5.121094-7.160156-9.785156 1.296875-16.105469 10.015625-30.691406 23.585937-39.457031 12.585938-6.148438 27.152344-6.832031 40.257813-1.882813 1.089843.4375 2.082031 1.09375 2.917969 1.925782 11.640624 10.050781 18.195312 24.773437 17.875 40.152343-1.550782 13.289063-8.332032 25.414063-18.839844 33.695313-1.5 1.132812-3.328125 1.742187-5.207032 1.738281zm0 0"/></g><path d="m225.566406 129.683594c0 28.757812-23.3125 52.070312-52.070312 52.070312-2.910156.003906-5.8125-.257812-8.675782-.78125-25.042968-4.210937-43.382812-25.894531-43.382812-51.289062 0-25.390625 18.339844-47.074219 43.382812-51.285156 2.863282-.527344 5.765626-.789063 8.675782-.78125 13.8125 0 27.054687 5.484374 36.820312 15.25 9.761719 9.765624 15.25 23.007812 15.25 36.816406zm0 0" fill="#e6e7e8"/><path d="m381.769531 129.683594c0 28.757812-23.3125 52.070312-52.070312 52.070312-2.910157.003906-5.8125-.257812-8.675781-.78125-25.042969-4.210937-43.382813-25.894531-43.382813-51.289062 0-25.390625 18.339844-47.074219 43.382813-51.285156 2.863281-.527344 5.765624-.789063 8.675781-.78125 13.8125 0 27.054687 5.484374 36.820312 15.25 9.761719 9.765624 15.25 23.007812 15.25 36.816406zm0 0" fill="#e6e7e8"/><path d="m208.210938 129.683594c0-28.324219-19.425782-51.285156-43.390626-51.285156-23.964843 0-43.390624 22.960937-43.390624 51.285156 0 28.328125 19.425781 51.289062 43.390624 51.289062 23.964844 0 43.390626-22.960937 43.390626-51.289062zm0 0" fill="#fff"/><path d="m364.414062 129.683594c0-28.324219-19.425781-51.285156-43.390624-51.285156-23.964844 0-43.390626 22.960937-43.390626 51.285156 0 28.328125 19.425782 51.289062 43.390626 51.289062 23.964843 0 43.390624-22.960937 43.390624-51.289062zm0 0" fill="#fff"/><path d="m294.988281 173.074219c0 14.378906-19.429687 34.710937-43.390625 34.710937-23.957031 0-43.386718-20.332031-43.386718-34.710937 0-14.378907 19.429687-17.355469 43.386718-17.355469 23.960938 0 43.390625 2.976562 43.390625 17.355469zm0 0" fill="#802d40"/><path d="m303.667969 251.175781h-104.136719c-19.171875 0-34.710938-15.539062-34.710938-34.710937 0-4.792969 3.882813-8.679688 8.675782-8.679688 4.792968 0 8.679687 3.886719 8.679687 8.679688 0 9.585937 7.769531 17.355468 17.355469 17.355468h104.136719c9.585937 0 17.355469-7.769531 17.355469-17.355468 0-4.792969 3.886718-8.679688 8.675781-8.679688 4.792969 0 8.679687 3.886719 8.679687 8.679688 0 19.171875-15.539062 34.710937-34.710937 34.710937zm0 0" fill="#802d40"/><path d="m208.210938 129.683594c0 19.171875-15.542969 34.714844-34.714844 34.714844-19.167969 0-34.710938-15.542969-34.710938-34.714844 0-19.167969 15.542969-34.710938 34.710938-34.710938 19.171875 0 34.714844 15.542969 34.714844 34.710938zm0 0" fill="#f0c419"/><path d="m364.414062 129.683594c0 19.171875-15.542968 34.714844-34.714843 34.714844-19.167969 0-34.710938-15.542969-34.710938-34.714844 0-19.167969 15.542969-34.710938 34.710938-34.710938 19.171875 0 34.714843 15.542969 34.714843 34.710938zm0 0" fill="#f0c419"/><path d="m190.855469 129.683594c0 9.585937-7.773438 17.359375-17.359375 17.359375-9.582032 0-17.355469-7.773438-17.355469-17.359375 0-9.582032 7.773437-17.355469 17.355469-17.355469 9.585937 0 17.359375 7.773437 17.359375 17.355469zm0 0" fill="#2c2f38"/><path d="m347.058594 129.683594c0 9.585937-7.773438 17.359375-17.359375 17.359375-9.582031 0-17.355469-7.773438-17.355469-17.359375 0-9.582032 7.773438-17.355469 17.355469-17.355469 9.585937 0 17.359375 7.773437 17.359375 17.355469zm0 0" fill="#2c2f38"/><path d="m173.496094 103.652344c0 9.585937-7.769532 17.355468-17.355469 17.355468s-17.355469-7.769531-17.355469-17.355468c0-9.585938 7.769532-17.355469 17.355469-17.355469s17.355469 7.769531 17.355469 17.355469zm0 0" fill="#fff"/><path d="m329.699219 103.652344c0 9.585937-7.769531 17.355468-17.355469 17.355468s-17.355469-7.769531-17.355469-17.355468c0-9.585938 7.769531-17.355469 17.355469-17.355469s17.355469 7.769531 17.355469 17.355469zm0 0" fill="#fff"/></svg>