<svg height="512pt" viewBox="0 0 512 512.03319" width="512pt" xmlns="http://www.w3.org/2000/svg"><path d="m352.238281 404.125c12.433594 4.46875 26.308594 1.867188 36.28125-6.796875 15.449219-15.535156 9.886719-46.253906-12.535156-68.675781-12.15625-13.105469-29.09375-20.746094-46.964844-21.1875h-146.007812c-17.871094.441406-34.804688 8.082031-46.960938 21.1875-22.421875 22.421875-27.984375 53.140625-12.535156 68.675781 7.324219 7.328125 23.65625 9.886719 37.074219 8.210937zm0 0" fill="#804169"/><path d="m353.121094 423.722656c0 3.089844-.089844 6.003906-.175782 8.828125h-193.945312c.089844-2.734375.179688-5.738281.441406-8.828125.265625-5.738281.621094-11.914062 1.148438-18.183594 1.03125-15.144531 3.003906-30.210937 5.914062-45.109374 3.769532-16.585938 8.753906-32.875 14.917969-48.726563.972656-2.5625 1.945313-5.121094 3.003906-7.59375h143.183594c1.058594 2.472656 2.027344 5.03125 3 7.59375 6.164063 15.851563 11.152344 32.140625 14.917969 48.726563 4.777344 20.769531 7.324218 41.984374 7.59375 63.292968zm0 0" fill="#cc66a1"/><path d="m432.566406 158.898438c.03125 1.472656-.027344 2.945312-.175781 4.410156-2.46875 85.71875-80.507813 154.484375-176.375 154.484375s-173.902344-68.765625-176.375-154.484375c-.144531-1.464844-.207031-2.9375-.175781-4.410156 0-87.75 79.007812-158.898438 176.550781-158.898438 97.546875 0 176.550781 71.148438 176.550781 158.898438zm0 0" fill="#cc66a1"/><path d="m432.566406 158.898438c.03125 1.472656-.027344 2.945312-.175781 4.410156-2.46875 85.71875-80.507813 154.484375-176.375 154.484375-2.914063 0-5.824219-.089844-8.738281-.175781h-.175782c-91.71875-4.148438-165.078124-71.238282-167.460937-154.308594-.144531-1.464844-.207031-2.9375-.175781-4.410156 0-85.011719 74.152344-154.394532 167.460937-158.722657h.527344c2.824219-.0859372 5.738281-.175781 8.5625-.175781 97.546875 0 176.550781 71.148438 176.550781 158.898438zm0 0" fill="#804169"/><path d="m414.914062 158.898438c.027344 1.472656-.03125 2.945312-.175781 4.410156-2.386719 83.070312-75.742187 150.160156-167.460937 154.308594h-.175782c-91.71875-4.148438-165.078124-71.238282-167.460937-154.308594-.144531-1.464844-.207031-2.9375-.175781-4.410156 0-85.011719 74.152344-154.394532 167.460937-158.722657h.527344c93.308594 4.328125 167.460937 73.710938 167.460937 158.722657zm0 0" fill="#cc66a1"/><path d="m18.121094 132.414062h-.644532c-2.335937-.167968-4.511718-1.261718-6.042968-3.035156-1.53125-1.773437-2.292969-4.082031-2.121094-6.417968 1.949219-26.960938 10.832031-75.425782 48.261719-97.253907 29.914062-17.445312 71.226562-13.957031 122.773437 10.484375 3.113282 1.179688 5.300782 4.003906 5.65625 7.316406.355469 3.308594-1.179687 6.535157-3.972656 8.347657-2.789062 1.8125-6.363281 1.898437-9.242188.226562-45.957031-21.714843-81.726562-25.484375-106.328124-11.121093-30.429688 17.742187-37.84375 59.789062-39.546876 83.269531-.335937 4.609375-4.171874 8.175781-8.792968 8.183593zm0 0" fill="#804169"/><path d="m493.910156 132.414062c-4.632812.011719-8.488281-3.5625-8.828125-8.183593-1.703125-23.480469-9.117187-65.527344-39.546875-83.269531-24.59375-14.363282-60.371094-10.59375-106.328125 11.15625-4.320312 1.679687-9.203125-.265626-11.183593-4.457032-1.976563-4.191406-.378907-9.199218 3.664062-11.46875 51.542969-24.433594 92.855469-27.945312 122.773438-10.484375 37.429687 21.828125 46.308593 70.292969 48.261718 97.234375.175782 2.339844-.585937 4.65625-2.117187 6.433594-1.53125 1.773438-3.710938 2.871094-6.050781 3.039062zm0 0" fill="#804169"/><path d="m247.1875 141.242188c0 34.125-27.664062 61.792968-61.792969 61.792968-2.957031.035156-5.910156-.203125-8.828125-.707031-30.378906-4.363281-52.9375-30.390625-52.9375-61.085937 0-30.695313 22.558594-56.722657 52.9375-61.085938 2.917969-.507812 5.871094-.742188 8.828125-.707031 34.128907 0 61.792969 27.664062 61.792969 61.792969zm0 0" fill="#e6e7e8"/><path d="m388.429688 141.242188c0 34.125-27.664063 61.792968-61.792969 61.792968-2.957031.035156-5.914063-.203125-8.828125-.707031-30.382813-4.363281-52.941406-30.390625-52.941406-61.085937 0-30.695313 22.558593-56.722657 52.941406-61.085938 2.914062-.507812 5.871094-.742188 8.828125-.707031 34.128906 0 61.792969 27.664062 61.792969 61.792969zm0 0" fill="#e6e7e8"/><path d="m229.535156 141.242188c0-33.738282-23.714844-61.085938-52.96875-61.085938-29.25 0-52.964844 27.347656-52.964844 61.085938 0 33.738281 23.714844 61.085937 52.964844 61.085937 29.253906 0 52.96875-27.347656 52.96875-61.085937zm0 0" fill="#fff"/><path d="m370.773438 141.242188c0-33.738282-23.710938-61.085938-52.964844-61.085938-29.25 0-52.964844 27.347656-52.964844 61.085938 0 33.738281 23.714844 61.085937 52.964844 61.085937 29.253906 0 52.964844-27.347656 52.964844-61.085937zm0 0" fill="#fff"/><path d="m220.707031 141.242188c0 19.5-15.808593 35.308593-35.3125 35.308593-19.5 0-35.308593-15.808593-35.308593-35.308593 0-19.503907 15.808593-35.3125 35.308593-35.3125 19.503907 0 35.3125 15.808593 35.3125 35.3125zm0 0" fill="#2fa8cc"/><path d="m361.949219 141.242188c0 19.5-15.8125 35.308593-35.3125 35.308593s-35.308594-15.808593-35.308594-35.308593c0-19.503907 15.808594-35.3125 35.308594-35.3125s35.3125 15.808593 35.3125 35.3125zm0 0" fill="#2fa8cc"/><path d="m203.050781 141.242188c0 9.75-7.902343 17.65625-17.65625 17.65625-9.75 0-17.652343-7.90625-17.652343-17.65625s7.902343-17.65625 17.652343-17.65625c9.753907 0 17.65625 7.90625 17.65625 17.65625zm0 0" fill="#2c2f38"/><path d="m344.292969 141.242188c0 9.75-7.90625 17.65625-17.65625 17.65625s-17.65625-7.90625-17.65625-17.65625 7.90625-17.65625 17.65625-17.65625 17.65625 7.90625 17.65625 17.65625zm0 0" fill="#2c2f38"/><path d="m264.84375 238.34375h52.964844v26.484375c0 14.625-11.855469 26.480469-26.480469 26.480469-14.628906 0-26.484375-11.855469-26.484375-26.480469zm0 0" fill="#ff5364"/><path d="m317.808594 432.550781c0-29.21875-27.699219-79.449219-61.792969-79.449219-34.089844 0-61.792969 50.230469-61.792969 79.449219l8.828125 72.476563c4.917969 1.855468 10.003907 3.246094 15.183594 4.148437 12.480469 2.105469 25.128906 3.050781 37.78125 2.824219 12.65625.226562 25.304687-.71875 37.78125-2.824219 5.183594-.902343 10.265625-2.292969 15.183594-4.148437zm0 0" fill="#f29c1f"/><path d="m203.050781 441.378906v61.792969c0 4.875-3.953125 8.828125-8.828125 8.828125h-70.621094c-14.625 0-26.480468-11.855469-26.480468-26.484375-.003906-1.796875.085937-3.59375.265625-5.382813 2.8125-27.003906 25.546875-47.53125 52.699219-47.582031h44.136718c4.875 0 8.828125 3.953125 8.828125 8.828125zm0 0" fill="#804169"/><path d="m414.914062 485.515625c0 14.628906-11.859374 26.484375-26.484374 26.484375h-70.621094c-4.875 0-8.828125-3.953125-8.828125-8.828125v-61.792969c0-4.875 3.953125-8.828125 8.828125-8.828125h44.140625c27.15625.027344 49.90625 20.566407 52.699219 47.582031.179687 1.789063.265624 3.585938.265624 5.382813zm0 0" fill="#804169"/><path d="m35.328125 141.242188c0 9.75-7.90625 17.65625-17.65625 17.65625s-17.65625-7.90625-17.65625-17.65625 7.90625-17.65625 17.65625-17.65625 17.65625 7.90625 17.65625 17.65625zm0 0" fill="#285680"/><path d="m512.015625 141.242188c0 9.75-7.902344 17.65625-17.652344 17.65625-9.753906 0-17.65625-7.90625-17.65625-17.65625s7.902344-17.65625 17.65625-17.65625c9.75 0 17.652344 7.90625 17.652344 17.65625zm0 0" fill="#285680"/><path d="m326.636719 247.171875h-141.242188c-4.875 0-8.828125-3.953125-8.828125-8.828125s3.953125-8.828125 8.828125-8.828125h141.242188c4.875 0 8.828125 3.953125 8.828125 8.828125s-3.953125 8.828125-8.828125 8.828125zm0 0" fill="#802d40"/><g fill="#fff"><path d="m185.394531 114.757812c0 9.75-7.902343 17.65625-17.652343 17.65625-9.753907 0-17.65625-7.90625-17.65625-17.65625s7.902343-17.65625 17.65625-17.65625c9.75 0 17.652343 7.90625 17.652343 17.65625zm0 0"/><path d="m326.636719 114.757812c0 9.75-7.902344 17.65625-17.65625 17.65625-9.75 0-17.652344-7.90625-17.652344-17.65625s7.902344-17.65625 17.652344-17.65625c9.753906 0 17.65625 7.90625 17.65625 17.65625zm0 0"/></g></svg>