<svg height="512pt" viewBox="0 -26 512.05181 512" width="512pt" xmlns="http://www.w3.org/2000/svg"><path d="m128.710938 183.664062c-1.363282.253907-2.730469.511719-4.09375.851563-30.84375 5.746094-60.105469 17.996094-85.847657 35.925781 16.214844-71.765625.257813-120.917968-17.320312-150.699218 29.867187 4.042968 58.769531 13.40625 85.332031 27.648437-2.886719 8.492187-4.359375 17.398437-4.351562 26.367187-.070313 21.484376 8.402343 42.113282 23.550781 57.34375.855469.855469 1.792969 1.792969 2.730469 2.5625zm0 0" fill="#7ed09e"/><path d="m485.320312 229.742188c-2.21875 3.328124-4.4375 7.082031-6.65625 11.179687v.085937c-12.117187 22.527344-23.46875 56.660157-26.367187 106.835938-8.027344-21.988281-18.351563-43.070312-30.804687-62.890625.167968-.511719.339843-.9375.511718-1.449219 8.058594-20.972656 5.246094-44.570312-7.511718-63.0625-9.679688-14.148437-23.929688-24.542968-40.363282-29.441406 3.261719-2.199219 6.339844-4.65625 9.21875-7.335938 32.15625 5.542969 62.730469 18.003907 89.597656 36.523438v.082031c.128907.023438.25.082031.34375.171875v.085938c4.160157 2.867187 8.175782 5.941406 12.03125 9.214844zm0 0" fill="#7ed09e"/><path d="m149.789062 192.792969c-5.035156 1.792969-26.964843 4.269531-31.828124 7.425781-27.253907 18.191406-38.792969 52.488281-28.074219 83.457031l.511719 1.535157c-12.488282 19.878906-22.789063 41.050781-30.722657 63.144531-3.070312-49.40625-14.25-85.078125-26.28125-107.347657v-.085937c-2.316406-3.566406-4.855469-6.988281-7.59375-10.238281.339844-.257813.683594-.597656 1.023438-.855469 3.785156-3.34375 7.773437-6.453125 11.945312-9.300781v-.085938c25.742188-17.929687 55.003907-30.179687 85.847657-35.925781 2.558593 2.730469 22.695312 5.890625 25.171874 8.277344zm0 0" fill="#7ed09e"/><path d="m472.945312 220.1875c-26.867187-18.519531-57.441406-30.980469-89.597656-36.523438.9375-.769531 1.875-1.707031 2.730469-2.5625 15.148437-15.230468 23.621094-35.859374 23.550781-57.34375.003906-8.96875-1.464844-17.875-4.351562-26.367187 25.332031-13.582031 52.8125-22.707031 81.238281-26.964844-15.703125 31.742188-27.992187 80.8125-13.570313 149.761719zm0 0" fill="#7ed09e"/><g fill="#4fba6f"><path d="m106.773438 105.925781c-1.398438-.003906-2.777344-.347656-4.011719-1-29.371094-15.777343-61.671875-25.34375-94.898438-28.101562-4.714843-.386719-8.21875-4.519531-7.8359372-9.230469.3867182-4.714844 4.5234372-8.222656 9.2343752-7.835938 35.550781 2.960938 70.117187 13.195313 101.546875 30.074219 3.460937 1.839844 5.222656 5.800781 4.273437 9.605469-.953125 3.800781-4.371093 6.46875-8.292969 6.460938zm0 0"/><path d="m8.5625 256.027344c-3.359375-.003906-6.40625-1.980469-7.78125-5.046875-1.371094-3.066407-.8203125-6.652344 1.414062-9.164063 33.160157-35.375 77.101563-58.78125 124.964844-66.558594 4.632813-.859374 9.085938 2.203126 9.945313 6.839844.855469 4.636719-2.207031 9.085938-6.839844 9.945313-44.132813 7.105469-84.679687 28.59375-115.335937 61.125-1.617188 1.816406-3.933594 2.855469-6.367188 2.859375zm0 0"/><path d="m42.695312 409.625c-2.660156.003906-5.171874-1.234375-6.789062-3.347656-1.617188-2.113282-2.152344-4.863282-1.453125-7.429688 10.234375-41.644531 26.679687-81.515625 48.777344-118.269531 1.652343-2.5625 4.550781-4.046875 7.59375-3.894531 3.046875.15625 5.78125 1.921875 7.167969 4.636718 1.390624 2.710938 1.226562 5.960938-.425782 8.523438-21.140625 35.28125-36.859375 73.539062-46.636718 113.492188-1.011719 3.714843-4.386719 6.289062-8.234376 6.289062zm0 0"/><path d="m405.285156 105.925781c-3.917968 0-7.335937-2.664062-8.285156-6.46875-.949219-3.800781.816406-7.761719 4.273438-9.601562 27.464843-14.703125 57.332031-24.378907 88.203124-28.570313 4.265626-.621094 8.824219-1.140625 13.355469-1.5 4.703125-.367187 8.816407 3.148438 9.183594 7.855469.367187 4.703125-3.148437 8.816406-7.855469 9.183594-4.164062.324219-8.328125.855469-12.339844 1.394531-28.882812 3.917969-56.835937 12.96875-82.53125 26.734375-1.234374.648437-2.609374.980469-4.003906.972656zm0 0"/><path d="m503.496094 256.027344c-2.425782 0-4.738282-1.035156-6.359375-2.84375-5.386719-6.035156-11.183594-11.695313-17.347657-16.9375-3.625-3.085938-7.40625-5.988282-11.332031-8.6875-.335937-.230469-.65625-.484375-.953125-.757813-25.699218-17.691406-54.949218-29.558593-85.710937-34.773437-4.632813-.859375-7.695313-5.3125-6.839844-9.945313.859375-4.636719 5.3125-7.699219 9.945313-6.839843 33.558593 5.707031 65.4375 18.761718 93.355468 38.238281.257813.183593.507813.382812.742188.59375 3.992187 2.785156 7.960937 5.847656 11.84375 9.132812 6.75 5.753907 13.101562 11.957031 19.011718 18.566407 2.261719 2.507812 2.835938 6.113281 1.460938 9.195312s-4.441406 5.066406-7.816406 5.058594zm0 0"/><path d="m469.363281 409.625c-3.84375 0-7.210937-2.574219-8.226562-6.28125-5.207031-19.054688-10.863281-36.691406-16.820313-52.496094-7.824218-21.414062-17.871094-41.945312-29.984375-61.261718-1.730469-2.558594-1.941406-5.851563-.550781-8.613282 1.390625-2.757812 4.160156-4.550781 7.246094-4.683594 3.085937-.136718 6.003906 1.40625 7.632812 4.03125 12.769532 20.332032 23.371094 41.949219 31.632813 64.496094 6.132812 16.289063 11.945312 34.457032 17.3125 54.023438.597656 2.183594.304687 4.515625-.8125 6.480468-1.121094 1.96875-2.976563 3.410157-5.160157 4.007813-.742187.195313-1.503906.296875-2.269531.296875zm0 0"/></g><path d="m374.558594 329.328125c-6.988282 45.152344-40.335938 81.726563-84.652344 92.839844h-67.753906c-44.234375-11.085938-77.5625-47.535157-84.652344-92.585938l26.113281-284.585937h.085938c9.386719-24.234375 43.007812-42.582032 84.050781-44.714844.171875-.085938.34375 0 .429688 0 2.558593-.171875 5.203124-.2539062 7.847656-.2539062 44.714844 0 82.347656 19.1132812 92.332031 44.9687502h.085937zm0 0" fill="#24ae5f"/><path d="m358.429688 329.328125c-6.984376 45.152344-40.335938 81.726563-84.652344 92.839844h-51.625c-44.234375-11.085938-77.5625-47.535157-84.652344-92.585938l26.113281-284.585937h.085938c9.386719-24.234375 43.007812-42.582032 84.050781-44.714844.171875-.085938.34375 0 .429688 0 41.042968 2.132812 74.664062 20.480469 84.050781 44.714844h.085937zm0 0" fill="#4fba6f"/><path d="m374.128906 191c3.261719-2.199219 6.339844-4.65625 9.21875-7.335938.9375-.769531 1.875-1.707031 2.730469-2.5625 15.148437-15.230468 23.621094-35.859374 23.550781-57.34375.003906-8.96875-1.464844-17.875-4.351562-26.367187-2.902344-8.613281-7.257813-16.667969-12.886719-23.808594-10.945313-13.964843-26.175781-23.949219-43.347656-28.414062-.171875-.085938-.425781-.085938-.597657-.171875h-.085937c-2.984375-.683594-5.886719-1.195313-9.046875-1.621094-18.945312-2.503906-38.15625 1.921875-54.097656 12.457031h-58.371094c-15.941406-10.535156-35.152344-14.960937-54.101562-12.457031-3.15625.425781-6.058594.9375-9.042969 1.621094h-.085938c-.171875.085937-.425781.085937-.597656.171875-17.171875 4.464843-32.402344 14.449219-43.347656 28.414062-5.628907 7.140625-9.984375 15.195313-12.886719 23.808594-2.886719 8.492187-4.359375 17.398437-4.351562 26.367187-.070313 21.484376 8.402343 42.113282 23.550781 57.34375.855469.855469 1.792969 1.792969 2.730469 2.5625 2.878906 2.679688 5.957031 5.136719 9.21875 7.335938h.082031l118.015625 8.535156zm0 0" fill="#24ae5f"/><path d="m422.003906 283.503906c-.171875.511719-.34375.9375-.511718 1.449219-4.097657 10.210937-10.324219 19.433594-18.261719 27.050781-8.15625 7.828125-17.949219 13.742188-28.671875 17.324219-13.542969 4.269531-28.023438 4.566406-41.730469.851563-5.632813-1.535157-11.347656-2.902344-17.066406-4.011719-1.109375-.339844-2.304688-.511719-3.414063-.765625-30.246094-5.882813-61.222656-7.007813-91.816406-3.328125-7.253906.851562-14.507812 2.304687-21.675781 3.839843l-2.304688.511719c-10.304687 2.515625-20.765625 4.339844-31.316406 5.460938-9.308594.929687-18.707031.148437-27.734375-2.304688-2.847656-.816406-5.640625-1.816406-8.363281-2.984375-18.015625-7.933594-32.011719-22.886718-38.738281-41.386718l-.511719-1.535157c-6.503907-18.652343-5.039063-39.15625 4.050781-56.691406s25-30.550781 43.992188-35.984375h.082031c8.617187-2.3125 17.558593-3.148438 26.453125-2.472656 6.507812.417968 12.960937 1.417968 19.285156 2.988281 4.78125 1.109375 9.558594 2.21875 14.335938 3.15625 5.976562 1.195313 11.863281 2.21875 17.835937 2.984375 19.882813 2.933594 40.023437 3.734375 60.074219 2.390625 6.5625-.496094 13.085937-1.382813 19.542968-2.644531 5.800782-1.109375 11.519532-2.304688 17.320313-3.585938 11.0625-2.699218 22.296875-4.636718 33.625-5.800781 9.320313-.769531 18.703125.242187 27.644531 2.984375 16.433594 4.898438 30.683594 15.292969 40.363282 29.441406 12.757812 18.492188 15.570312 42.089844 7.511718 63.0625zm0 0" fill="#802d40"/><path d="m230.429688 123.757812c.03125 5.417969-.925782 10.796876-2.816407 15.875l-22.527343 25.769532c-6.660157 3.496094-14.070313 5.3125-21.589844 5.289062-25.921875 0-46.933594-21.011718-46.933594-46.933594 0-25.917968 21.011719-46.933593 46.933594-46.933593s46.933594 21.015625 46.933594 46.933593zm0 0" fill="#e6e7e8"/><path d="m213.363281 123.757812c0-25.496093-17.191406-46.164062-38.402343-46.164062-21.207032 0-38.398438 20.667969-38.398438 46.164062 0 25.496094 17.191406 46.167969 38.398438 46.167969 21.210937 0 38.402343-20.671875 38.402343-46.167969zm0 0" fill="#fff"/><path d="m375.496094 123.757812c-.019532 13.9375-6.222656 27.144532-16.933594 36.058594-10.710938 8.914063-24.824219 12.617188-38.535156 10.109375h-.082032c-4.53125-.835937-8.90625-2.363281-12.972656-4.523437l-22.527344-25.769532c-1.894531-5.078124-2.847656-10.457031-2.816406-15.875 0-25.917968 21.011719-46.933593 46.933594-46.933593s46.933594 21.015625 46.933594 46.933593zm0 0" fill="#e6e7e8"/><path d="m358.429688 123.757812c.007812 22.636719-16.144532 42.050782-38.402344 46.167969h-.082032c-4.53125-.835937-8.90625-2.363281-12.972656-4.523437l-22.527344-25.769532c-1.894531-5.078124-2.847656-10.457031-2.816406-15.875-.007812-22.632812 16.144532-42.046874 38.398438-46.164062 22.257812 4.117188 38.410156 23.53125 38.402344 46.164062zm0 0" fill="#fff"/><path d="m213.363281 119.492188c0 14.140624-11.460937 25.601562-25.601562 25.601562-14.136719 0-25.597657-11.460938-25.597657-25.601562 0-14.136719 11.460938-25.601563 25.597657-25.601563 14.140625 0 25.601562 11.464844 25.601562 25.601563zm0 0" fill="#2fa8cc"/><path d="m349.894531 119.492188c0 14.140624-11.460937 25.601562-25.597656 25.601562-14.140625 0-25.601563-11.460938-25.601563-25.601562 0-14.136719 11.460938-25.601563 25.601563-25.601563 14.136719 0 25.597656 11.464844 25.597656 25.601563zm0 0" fill="#2fa8cc"/><path d="m204.828125 119.492188c0 9.425781-7.640625 17.066406-17.066406 17.066406s-17.066407-7.640625-17.066407-17.066406c0-9.425782 7.640626-17.066407 17.066407-17.066407s17.066406 7.640625 17.066406 17.066407zm0 0" fill="#2c2f38"/><path d="m341.363281 119.492188c0 9.425781-7.640625 17.066406-17.066406 17.066406s-17.066406-7.640625-17.066406-17.066406c0-9.425782 7.640625-17.066407 17.066406-17.066407s17.066406 7.640625 17.066406 17.066407zm0 0" fill="#2c2f38"/><path d="m307.230469 162.160156c-.003907 1.085938-.089844 2.167969-.257813 3.242188-2.292968 11.453125-8.929687 21.574218-18.515625 28.246094l-.257812.253906c-2.054688 1.503906-4.289063 2.734375-6.65625 3.671875-3.96875 1.546875-8.199219 2.300781-12.457031 2.21875h-3.753907l-18.605469-.085938h-4.351562c-4.050781-.050781-8.0625-.804687-11.859375-2.21875-2.421875-.964843-4.71875-2.226562-6.828125-3.753906l-.085938-.085937c-9.585937-6.671876-16.222656-16.792969-18.515624-28.246094-.167969-1.074219-.253907-2.15625-.257813-3.242188 0-11.863281 9.046875-18.945312 22.785156-22.527344 9.304688-2.207031 18.851563-3.238281 28.414063-3.074218 9.566406-.164063 19.109375.867187 28.417968 3.074218 13.738282 3.582032 22.785157 10.664063 22.785157 22.527344zm0 0" fill="#d75e72"/><path d="m247.496094 179.226562v17.066407c.007812 1.179687-.253906 2.347656-.769532 3.414062h-4.351562c-4.050781-.050781-8.0625-.804687-11.859375-2.21875-.074219-.394531-.105469-.796875-.085937-1.195312v-17.066407c0-4.714843 3.820312-8.535156 8.53125-8.535156 4.714843 0 8.535156 3.820313 8.535156 8.535156zm0 0" fill="#802d40"/><path d="m281.628906 179.226562v17.066407c.015625.429687-.015625.855469-.085937 1.28125-3.96875 1.546875-8.199219 2.300781-12.457031 2.21875h-3.753907c-.515625-1.097657-.777343-2.292969-.769531-3.5v-17.066407c0-4.714843 3.820312-8.535156 8.535156-8.535156 4.710938 0 8.53125 3.820313 8.53125 8.535156zm0 0" fill="#802d40"/><path d="m315.761719 273.09375v53.074219c-1.109375-.339844-2.304688-.511719-3.414063-.765625-30.246094-5.882813-61.222656-7.007813-91.816406-3.328125-7.253906.851562-14.507812 2.304687-21.675781 3.839843l-2.304688.511719v-49.664062c-.167969-1.214844-.253906-2.441407-.253906-3.667969 0-16.496094 13.371094-29.867188 29.867187-29.867188 16.492188 0 29.863282 13.371094 29.863282 29.867188 0-16.496094 13.375-29.867188 29.867187-29.867188 16.496094 0 29.867188 13.371094 29.867188 29.867188zm0 0" fill="#ff5364"/><path d="m290.164062 409.625v17.066406c0 18.851563-15.285156 34.132813-34.136718 34.132813-2.878906.027343-5.753906-.34375-8.53125-1.109375-5.890625-1.539063-11.277344-4.597656-15.617188-8.871094-6.378906-6.421875-9.96875-15.101562-9.984375-24.152344v-17.066406zm0 0" fill="#24ae5f"/><path d="m273.097656 409.625v17.066406c.011719 15.566406-10.527344 29.15625-25.601562 33.023438-5.890625-1.539063-11.277344-4.597656-15.617188-8.871094-6.378906-6.421875-9.96875-15.101562-9.984375-24.152344v-17.066406zm0 0" fill="#4fba6f"/><path d="m198.085938 194.671875-3.15625 13.824219c-1.355469 5.945312-5.78125 10.714844-11.609376 12.511718-5.824218 1.796876-12.167968.347657-16.636718-3.796874-4.472656-4.148438-6.390625-10.367188-5.03125-16.308594l2.8125-12.375c6.507812.417968 12.960937 1.417968 19.285156 2.988281 4.78125 1.109375 9.558594 2.21875 14.335938 3.15625zm0 0" fill="#f5efca"/><path d="m336.667969 221.378906c-9.207031 2.070313-18.355469-3.6875-20.480469-12.882812l-3.328125-14.679688c11.0625-2.699218 22.296875-4.636718 33.625-5.800781l2.984375 12.886719c1.023438 4.410156.246094 9.050781-2.15625 12.890625-2.398438 3.84375-6.230469 6.570312-10.644531 7.585937zm0 0" fill="#f5efca"/><path d="m125.894531 300.058594-17.75 12.457031c-7.960937-7.597656-14.035156-16.945313-17.746093-27.304687l-.511719-1.535157 16.46875-11.523437c7.6875-4.695313 17.703125-2.601563 22.871093 4.777344 5.167969 7.378906 3.710938 17.507812-3.332031 23.128906zm0 0" fill="#f5efca"/><path d="m422.003906 283.503906c-.171875.511719-.34375.9375-.511718 1.449219-4.097657 10.210937-10.324219 19.433594-18.261719 27.050781l-17.066407-11.945312c-5.425781-3.3125-8.558593-9.359375-8.136718-15.699219s4.328125-11.917969 10.140625-14.484375c5.816406-2.5625 12.570312-1.683594 17.535156 2.277344zm0 0" fill="#f5efca"/><path d="m349.46875 316.441406-3.667969 16.042969c-4.386719-.359375-8.730469-1.132813-12.972656-2.304687-6.742187-1.875-13.652344-3.414063-20.480469-4.777344l3.414063-14.761719.425781-1.878906c2.121094-9.191407 11.292969-14.921875 20.480469-12.800781 9.191406 2.121093 14.921875 11.289062 12.800781 20.480468zm0 0" fill="#f5efca"/><path d="m200.5625 325.574219c-.597656.082031-1.109375.253906-1.707031.339843l-2.304688.511719c-9.75 2.375-19.640625 4.140625-29.609375 5.289063l-3.5-15.273438c-1.019531-4.414062-.246094-9.050781 2.15625-12.894531 2.402344-3.839844 6.230469-6.570313 10.644532-7.585937 8.992187-2.144532 18.039062 3.328124 20.308593 12.289062.09375.15625.152344.332031.171875.511719l.425782 1.878906zm0 0" fill="#f5efca"/></svg>