<svg height="504pt" viewBox="0 0 504 504.19954" width="504pt" xmlns="http://www.w3.org/2000/svg"><path d="m503.617188 477.980469c-.214844 4.835937-1.679688 9.527343-4.25 13.625-4.652344 6.089843-11.863282 9.679687-19.527344 9.71875-3.617188.140625-7.234375-.207031-10.757813-1.039063-19.960937-4.425781-35.753906-22.214844-56.753906-21.085937-2.125.105469-4.222656.484375-6.25 1.125-8.941406 4.039062-17.507813 8.859375-25.601563 14.40625-10.953124 5.53125-22.96875 8.636719-35.230468 9.113281-3.394532.09375-6.789063-.078125-10.152344-.523438-14.984375-2.449218-28.839844-9.484374-39.660156-20.132812-12.171875-10.101562-27.675782-15.296875-43.476563-14.578125-2.949219 0-5.726562.175781-8.503906.433594-11.019531 1.269531-21.5625 5.199219-30.71875 11.457031-9.554687 7.15625-19.714844 13.457031-30.375 18.832031-10.347656 4.363281-21.683594 5.832031-32.800781 4.25-6.417969-.886719-12.6875-2.609375-18.660156-5.121093-12.582032-5.292969-23.777344-19.4375-37.574219-20.566407-3.554688-.164062-7.105469.425781-10.414063 1.738281-.78125.257813-1.5625.519532-2.34375.867188-18.65625 7.722656-34.796875 21.695312-56.058594 21.171875-2.34375-.035156-4.675781-.355469-6.941406-.953125-10.6875-2.574219-17.972656-12.460938-17.269531-23.429688-1.425781-18.894531 4.9375-37.550781 17.617187-51.636718 11.539063-12.320313 26.640626-18.742188 40.523438-27.941406 14.289062-8.988282 26.9375-20.34375 37.402344-33.582032 15.355468-22.253906 24.765625-48.066406 27.335937-74.980468 5.855469-49.496094 8.292969-99.339844 7.289063-149.171876l.523437-34.886718 9.023438-34.625c19.625-39.890625 58.78125-66.523438 103.09375-70.117188h.347656c2.863281-.2617185 5.640625-.347656 8.503906-.347656 47.730469.433594 91.113281 27.820312 112.035157 70.726562l8.9375 33.496094.433593 34.886719c-.175781 26.554687-.347656 53.109375 1.039063 79.75 1.910156 37.835937 4.773437 76.453125 17.355468 112.464844 5.773438 18.210937 15.9375 34.722656 29.59375 48.078125 17.703126 16.398437 41.566407 24.382812 58.402344 41.566406 15.1875 15.621094 26.121094 34.449219 23.863282 57.011719zm0 0" fill="#46b29d"/><path d="m486.261719 477.980469c-.214844 4.835937-1.679688 9.527343-4.25 13.625-3.132813 4.351562-7.722657 7.429687-12.929688 8.679687-19.960937-4.425781-35.753906-22.214844-56.753906-21.085937-2.125.105469-4.222656.484375-6.25 1.125-3.628906-.902344-7.371094-1.28125-11.109375-1.125-12.496094.605469-21.171875 10.238281-31.847656 15.53125-8.792969 4.417969-18.269532 7.320312-28.027344 8.589843-14.984375-2.449218-28.839844-9.484374-39.660156-20.132812-12.171875-10.101562-27.675782-15.296875-43.476563-14.578125-2.949219 0-5.726562.175781-8.503906.433594-2.949219-.257813-5.902344-.433594-8.851563-.433594-13.988281-.191406-27.695312 3.960937-39.222656 11.890625-9.554687 7.15625-19.71875 13.457031-30.375 18.832031-4.925781 2.128907-10.125 3.558594-15.445312 4.25-6.417969-.886719-12.6875-2.609375-18.660156-5.121093-12.582032-5.292969-23.777344-19.4375-37.574219-20.566407-3.554688-.164062-7.105469.425781-10.414063 1.738281-2.199218-.964843-4.546875-1.550781-6.941406-1.738281-4.398438-.144531-8.769531.75-12.757812 2.605469-15.445313 6.421875-29.242188 17.09375-45.644532 20.21875-10.6875-2.574219-17.972656-12.460938-17.269531-23.429688-1.425781-18.894531 4.9375-37.550781 17.617187-51.636718 11.539063-12.320313 26.640626-18.742188 40.523438-27.941406 14.289062-8.988282 26.9375-20.34375 37.402344-33.582032 15.355468-22.253906 24.765625-48.066406 27.335937-74.980468 5.855469-49.496094 8.292969-99.339844 7.289063-149.171876l.523437-34.886718 9.023438-34.625c19.625-39.890625 58.78125-66.523438 103.09375-70.117188h.347656c44.421875 3.554688 83.660156 30.316406 103.179687 70.378906l8.941407 33.496094.433593 34.886719c-.175781 26.554687-.347656 53.109375 1.039063 79.75 1.910156 37.835937 4.773437 76.453125 17.355469 112.464844 5.773437 18.210937 15.933594 34.722656 29.59375 48.078125 17.703125 16.398437 41.566406 24.382812 58.402344 41.566406 15.1875 15.621094 26.121093 34.449219 23.863281 57.011719zm0 0" fill="#65ddb9"/><path d="m158.234375 69.703125c-19.066406 4.117187-38.882813-2.191406-52.066406-16.566406-26.035157-24.847657-86.78125 0-52.066407 49.695312 34.710938 49.699219 76.363282-17.527343 112.8125-.761719 44.09375 20.289063-8.679687-32.367187-8.679687-32.367187zm0 0" fill="#527f72"/><path d="m347.625 69.703125c19.066406 4.117187 38.882812-2.191406 52.066406-16.566406 26.035156-24.847657 86.78125 0 52.066406 49.695312-34.710937 49.699219-76.363281-17.527343-112.8125-.761719-44.066406 20.289063 8.679688-32.367187 8.679688-32.367187zm0 0" fill="#527f72"/><path d="m251.957031 173.558594c0 23.964844-19.425781 43.390625-43.390625 43.390625-2.886718.019531-5.765625-.269531-8.589844-.867188h-.171874c-20.222657-4.105469-34.757813-21.886719-34.757813-42.523437 0-20.632813 14.535156-38.414063 34.757813-42.519532h.171874c2.824219-.597656 5.703126-.890624 8.589844-.871093 23.964844 0 43.390625 19.429687 43.390625 43.390625zm0 0" fill="#e6e7e8"/><path d="m234.601562 173.558594c-.019531 20.585937-14.472656 38.332031-34.625 42.523437h-.171874c-20.222657-4.105469-34.757813-21.886719-34.757813-42.523437 0-20.632813 14.535156-38.414063 34.757813-42.519532h.171874c20.152344 4.1875 34.605469 21.9375 34.625 42.519532zm0 0" fill="#fff"/><path d="m338.738281 173.558594c0 23.964844-19.425781 43.390625-43.390625 43.390625-2.886718.019531-5.765625-.269531-8.589844-.867188h-.175781c-20.222656-4.105469-34.753906-21.886719-34.753906-42.523437 0-20.632813 14.53125-38.414063 34.753906-42.519532h.175781c2.824219-.597656 5.703126-.890624 8.589844-.871093 23.964844 0 43.390625 19.429687 43.390625 43.390625zm0 0" fill="#e6e7e8"/><path d="m321.382812 173.558594c-.023437 20.585937-14.472656 38.332031-34.625 42.523437h-.175781c-20.222656-4.105469-34.753906-21.886719-34.753906-42.523437 0-20.632813 14.53125-38.414063 34.753906-42.519532h.175781c20.152344 4.1875 34.601563 21.9375 34.625 42.519532zm0 0" fill="#fff"/><path d="m234.601562 173.558594c0 14.378906-11.65625 26.035156-26.035156 26.035156-14.375 0-26.03125-11.65625-26.03125-26.035156s11.65625-26.03125 26.03125-26.03125c14.378906 0 26.035156 11.652344 26.035156 26.03125zm0 0" fill="#ff5364"/><path d="m225.925781 173.558594c0 9.585937-7.773437 17.355468-17.359375 17.355468-9.582031 0-17.355468-7.769531-17.355468-17.355468 0-9.585938 7.773437-17.355469 17.355468-17.355469 9.585938 0 17.359375 7.769531 17.359375 17.355469zm0 0" fill="#2c2f38"/><path d="m321.382812 173.558594c0 14.378906-11.65625 26.035156-26.035156 26.035156s-26.035156-11.65625-26.035156-26.035156 11.65625-26.03125 26.035156-26.03125 26.035156 11.652344 26.035156 26.03125zm0 0" fill="#ff5364"/><path d="m312.703125 173.558594c0 9.585937-7.769531 17.355468-17.355469 17.355468-9.585937 0-17.355468-7.769531-17.355468-17.355468 0-9.585938 7.769531-17.355469 17.355468-17.355469 9.585938 0 17.355469 7.769531 17.355469 17.355469zm0 0" fill="#2c2f38"/><path d="m330.058594 287.855469c-2.300782.007812-4.511719-.90625-6.132813-2.542969l-13.765625-13.753906c-3.429687-3.28125-8.839844-3.28125-12.269531 0l-1.5 1.492187c-10.304687 9.832031-26.511719 9.832031-36.8125 0l-1.476563-1.472656c-3.433593-3.289063-8.847656-3.289063-12.277343 0l-1.503907 1.492187c-10.300781 9.832032-26.511718 9.832032-36.8125 0l-1.472656-1.476562c-3.433594-3.285156-8.847656-3.285156-12.28125 0l-13.761718 13.753906c-3.40625 3.289063-8.820313 3.242188-12.164063-.105468-3.347656-3.347657-3.394531-8.757813-.105469-12.164063l13.761719-13.753906c10.300781-9.84375 26.519531-9.84375 36.820313 0l1.476562 1.476562c3.433594 3.285157 8.84375 3.285157 12.277344 0l1.5-1.496093c10.304687-9.832032 26.511718-9.832032 36.8125 0l1.476562 1.476562c3.433594 3.289062 8.847656 3.289062 12.277344 0l1.503906-1.492188c10.300782-9.832031 26.511719-9.832031 36.8125 0l13.753906 13.753907c2.480469 2.480469 3.222657 6.214843 1.878907 9.457031s-4.503907 5.355469-8.015625 5.355469zm0 0" fill="#802d40"/><path d="m346.902344 433.898438c-19.214844-1.148438-37.992188-6.246094-55.148438-14.976563-12.453125-6.148437-25.953125-9.898437-39.796875-11.058594-13.824219 1.167969-27.308593 4.917969-39.753906 11.058594-33.480469 15.195313-58.792969 18.847656-75.238281 10.847656-7.15625-3.144531-12.605469-9.234375-14.933594-16.699219-.730469-3.011718.199219-6.1875 2.445312-8.328124 2.242188-2.140626 5.457032-2.921876 8.433594-2.046876 2.976563.871094 5.257813 3.265626 5.992188 6.28125 1.320312 2.554688 3.554687 4.515626 6.253906 5.5 6.632812 2.90625 23.214844 5.292969 59.820312-11.339843 14.675782-7.257813 30.644532-11.546875 46.980469-12.628907 16.339844 1.074219 32.304688 5.359376 46.984375 12.609376 37.425782 17.019531 53.949219 14.222656 60.449219 11.046874 2.429687-1.015624 4.421875-2.859374 5.625-5.207031 1.128906-4.65625 5.824219-7.515625 10.480469-6.386719 4.660156 1.132813 7.519531 5.824219 6.386718 10.484376-2.316406 7.457031-7.746093 13.546874-14.890624 16.703124-6.292969 2.894532-13.164063 4.3125-20.089844 4.140626zm0 0" fill="#46b29d"/><g fill="#fff"><path d="m208.566406 156.203125c0 9.585937-7.769531 17.355469-17.355468 17.355469-9.585938 0-17.355469-7.769532-17.355469-17.355469s7.769531-17.355469 17.355469-17.355469c9.585937 0 17.355468 7.769532 17.355468 17.355469zm0 0"/><path d="m295.347656 156.203125c0 9.585937-7.769531 17.355469-17.355468 17.355469-9.585938 0-17.355469-7.769532-17.355469-17.355469s7.769531-17.355469 17.355469-17.355469c9.585937 0 17.355468 7.769532 17.355468 17.355469zm0 0"/></g></svg>