<svg height="509pt" viewBox="0 -7 509.79537 509" width="509pt" xmlns="http://www.w3.org/2000/svg"><path d="m164.699219 350.265625v.171875l-40.875 57.257812c-9.1875 12.902344-23.132813 21.617188-38.757813 24.226563-15.621094 2.609375-31.640625-1.101563-44.527344-10.316406l-8.105468-5.71875c-26.792969-19.1875-33.011719-56.433594-13.910156-83.285157l156.503906-219.222656zm0 0" fill="#35495e"/><path d="m345.09375 350.265625v.171875l40.875 57.257812c9.191406 12.902344 23.136719 21.617188 38.757812 24.226563 15.625 2.609375 31.644532-1.101563 44.527344-10.316406l8.109375-5.71875c26.789063-19.1875 33.011719-56.433594 13.90625-83.285157l-156.5-219.222656zm0 0" fill="#35495e"/><path d="m348.765625 435.597656v34.132813c0 14.140625-11.460937 25.601562-25.601563 25.601562h-17.066406c-14.136718 0-25.601562-11.460937-25.601562-25.601562v-8.53125c0-14.140625-11.460938-25.601563-25.597656-25.601563-1.433594-.03125-2.867188.113282-4.265626.425782-5.242187.839843-10.082031 3.320312-13.824218 7.085937-4.808594 4.792969-7.511719 11.300781-7.511719 18.089844v8.53125c0 14.140625-11.460937 25.601562-25.597656 25.601562h-17.066407c-14.140624 0-25.601562-11.460937-25.601562-25.601562v-34.132813l1.109375-25.597656 15.957031-366.933594v-24.664062c-.132812-8.101563 5.242188-15.265625 13.054688-17.40625.804687-.261719 1.636718-.433594 2.476562-.511719 5.039063-.5117188 10.039063 1.3125 13.566406 4.949219 3.242188 3.160156 5.058594 7.503906 5.035157 12.03125 0 14.140625 11.460937 25.601562 25.601562 25.601562h32.683594c14.449219.425782 26.535156-10.894531 27.046875-25.34375-.101562-4.621094 1.722656-9.074218 5.035156-12.289062 2.121094-2.179688 4.8125-3.71875 7.765625-4.4375 1.386719-.414063 2.824219-.613282 4.269531-.597656 4.527344-.023438 8.867188 1.792968 12.03125 5.035156 3.242188 3.160156 5.058594 7.503906 5.035157 12.03125v25.601562l15.957031 366.933594zm0 0" fill="#285680"/><path d="m340.230469 435.597656v34.132813c0 14.140625-11.460938 25.601562-25.597657 25.601562h-8.535156c-14.136718 0-25.601562-11.460937-25.601562-25.601562v-8.53125c0-14.140625-11.460938-25.601563-25.597656-25.601563-1.433594-.03125-2.867188.113282-4.265626.425782-1.402343-.3125-2.835937-.457032-4.269531-.425782-14.136719 0-25.597656 11.460938-25.597656 25.601563v8.53125c0 14.140625-11.460937 25.601562-25.601563 25.601562h-8.53125c-14.140624 0-25.601562-11.460937-25.601562-25.601562v-34.132813l1.109375-25.597656 15.957031-366.933594v-24.664062c-.132812-8.101563 5.242188-15.265625 13.054688-17.40625 2.867187.757812 5.464844 2.292968 7.511718 4.4375 3.242188 3.160156 5.058594 7.503906 5.035157 12.03125 0 14.140625 11.460937 25.601562 25.597656 25.601562h41.21875c14.449219.425782 26.535156-10.894531 27.046875-25.34375-.101562-4.621094 1.722656-9.074218 5.035156-12.289062 2.121094-2.179688 4.8125-3.71875 7.765625-4.4375 2.957031.71875 5.648438 2.257812 7.765625 4.4375 3.242188 3.160156 5.058594 7.503906 5.035156 12.03125v25.601562l15.957032 366.933594zm0 0" fill="#4482c3"/><g fill="#2c3e50"><path d="m34.3125 425.785156c-3.453125 0-6.5625-2.078125-7.882812-5.269531-1.320313-3.1875-.589844-6.855469 1.847656-9.296875l24.320312-24.320312c3.347656-3.234376 8.671875-3.1875 11.960938.105468 3.292968 3.289063 3.339844 8.613282.105468 11.960938l-24.320312 24.320312c-1.597656 1.601563-3.769531 2.5-6.03125 2.5zm0 0"/><path d="m8.539062 386.789062c-4 0-7.464843-2.777343-8.335937-6.679687-.867187-3.90625 1.09375-7.890625 4.71875-9.585937l41.558594-19.457032c4.269531-1.996094 9.351562-.15625 11.347656 4.113282 2 4.269531.15625 9.351562-4.113281 11.351562l-41.554688 19.453125c-1.132812.53125-2.371094.804687-3.621094.804687zm0 0"/><path d="m92.765625 438.585938c-4.714844 0-8.535156-3.820313-8.535156-8.535157v-37.117187c0-4.714844 3.820312-8.535156 8.535156-8.535156 4.710937 0 8.53125 3.820312 8.53125 8.535156v37.117187c0 4.714844-3.820313 8.535157-8.53125 8.535157zm0 0"/><path d="m475.484375 425.785156c-2.261719 0-4.433594-.898437-6.03125-2.5l-24.320313-24.320312c-3.234374-3.347656-3.1875-8.671875.101563-11.960938 3.292969-3.292968 8.613281-3.339844 11.964844-.105468l24.316406 24.320312c2.441406 2.441406 3.171875 6.109375 1.851563 9.296875-1.320313 3.191406-4.433594 5.269531-7.882813 5.269531zm0 0"/><path d="m501.253906 386.789062c-1.25 0-2.484375-.273437-3.617187-.804687l-41.558594-19.453125c-4.269531-2-6.109375-7.082031-4.113281-11.351562 2-4.269532 7.082031-6.109376 11.351562-4.113282l41.558594 19.457032c3.625 1.695312 5.585938 5.679687 4.714844 9.585937-.867188 3.902344-4.332032 6.679687-8.335938 6.679687zm0 0"/><path d="m417.03125 438.585938c-4.714844 0-8.535156-3.820313-8.535156-8.535157v-37.117187c0-4.714844 3.820312-8.535156 8.535156-8.535156 4.710938 0 8.53125 3.820312 8.53125 8.535156v37.117187c0 4.714844-3.820312 8.535157-8.53125 8.535157zm0 0"/></g><path d="m237.832031 111.332031c-1.683593 0-3.328125-.5-4.726562-1.433593l-25.601563-17.066407c-3.921875-2.617187-4.980468-7.914062-2.363281-11.835937 2.613281-3.921875 7.914063-4.980469 11.835937-2.363282l25.597657 17.066407c3.132812 2.085937 4.527343 5.976562 3.433593 9.578125-1.09375 3.597656-4.414062 6.058594-8.175781 6.054687zm0 0" fill="#35495e"/><path d="m271.964844 111.332031c-3.761719.003907-7.082032-2.457031-8.175782-6.054687-1.09375-3.601563.300782-7.492188 3.429688-9.578125l25.601562-17.066407c2.535157-1.691406 5.78125-1.902343 8.515626-.550781 2.734374 1.347657 4.539062 4.054688 4.738281 7.097657.195312 3.042968-1.246094 5.960937-3.78125 7.652343l-25.601563 17.066407c-1.398437.933593-3.042968 1.433593-4.726562 1.433593zm0 0" fill="#35495e"/><path d="m297.5625 179.597656c0 18.851563-19.105469 25.601563-42.664062 25.601563-23.5625 0-42.667969-6.75-42.667969-25.601563 1.640625-22.851562 19.816406-41.027344 42.667969-42.664062 22.851562 1.636718 41.027343 19.8125 42.664062 42.664062zm0 0" fill="#802d40"/><path d="m306.097656 324.664062c0-42.414062-22.921875-76.796874-51.199218-76.796874-28.277344 0-51.199219 34.382812-51.199219 76.796874 0 42.417969 22.921875 76.800782 51.199219 76.800782 28.277343 0 51.199218-34.382813 51.199218-76.800782zm0 0" fill="#9fc9d3"/><path d="m294.832031 190.4375c-5.972656 10.664062-21.671875 14.761719-39.933593 14.761719-18.261719 0-33.964844-4.097657-39.9375-14.761719 8.953124-13.0625 24.136718-20.425781 39.9375-19.371094 15.800781-1.054687 30.980468 6.308594 39.933593 19.371094zm0 0" fill="#ff5364"/></svg>