<svg height="512pt" viewBox="-44 0 512 512.00016" width="512pt" xmlns="http://www.w3.org/2000/svg"><g fill="#4c8056"><path d="m194.207031 476.691406v17.652344c-.027343 9.738281-7.917969 17.628906-17.65625 17.65625h-52.964843c-9.738282-.027344-17.625-7.917969-17.65625-17.65625v-41.488281zm0 0"/><path d="m317.792969 452.855469v41.488281c-.027344 9.738281-7.917969 17.628906-17.65625 17.65625h-52.964844c-9.738281-.027344-17.625-7.917969-17.65625-17.65625v-17.652344zm0 0"/><path d="m369.347656 247.171875h1.410156l49.082032 134.972656c4.925781 13.535157 2.9375 28.621094-5.324219 40.417969s-21.761719 18.820312-36.164063 18.816406c-12.445312.023438-24.28125-5.394531-32.398437-14.828125zm0 0"/><path d="m77.769531 426.550781c-8.117187 9.433594-19.949219 14.851563-32.394531 14.828125-14.402344.003906-27.902344-7.019531-36.164062-18.816406-8.265626-11.796875-10.253907-26.882812-5.328126-40.417969l49.082032-134.972656h1.414062zm0 0"/></g><path d="m358.222656 161.191406c5.488282 13.425782 8.59375 27.703125 9.179688 42.195313l6.179687 138.152343c.269531 5.890626.09375 11.792969-.527343 17.65625-1.742188 19.09375-7.8125 37.539063-17.746094 53.9375-24.292969 39.660157-67.539063 63.761719-114.050782 63.558594h-58.792968c-46.511719.203125-89.753906-23.898437-114.050782-63.558594-9.933593-16.398437-16-34.84375-17.742187-53.9375-.621094-5.863281-.800781-11.765624-.53125-17.65625l6.179687-138.152343c.585938-14.492188 3.691407-28.769531 9.179688-42.195313-26.128906-9.09375-65.5-28.6875-65.5-64.085937 0-23.660157 10.59375-36.8125 23.128906-40.875h.085938c8.210937-2.453125 17.078125-1.332031 24.417968 3.085937 7.34375 4.417969 12.484376 11.726563 14.160157 20.132813 3.269531 13.082031 9.324219 25.304687 17.742187 35.839843 2.613282 3.332032 5.445313 6.488282 8.476563 9.445313 8.421875-9.671875 18.238281-18.035156 29.128906-24.804687-41.578125-45.550782-35.574219-92.867188-8.738281-99.222657 2.085937-.46875 4.21875-.70312475 6.355468-.707031 35.3125 0 44.140626 17.65625 44.140626 44.136719.394531 12.253906 3.277343 24.296875 8.472656 35.398437.175781.53125.441406 1.0625.617187 1.503906 6.804688-1.066406 13.683594-1.597656 20.570313-1.589843h46.609375c1.148437 0 2.382812 0 3.53125.085937 5.707031.097656 11.398437.601563 17.035156 1.503906 5.535156-11.546874 8.632813-24.105468 9.09375-36.902343 0-23.390625 6.886719-39.898438 32.839844-43.429688 3.746093-.476562 7.519531-.7148435 11.296875-.707031 32.042968 0 42.285156 50.933594-2.382813 99.929688 7.128907 4.460937 13.8125 9.605468 19.949219 15.359374 3.265625 3 6.269531 6.179688 9.183594 9.445313 12.761718-12.378906 21.839844-28.054687 26.214844-45.285156 2.414062-10.875 10.355468-19.6875 20.921874-23.21875h.089844c18.097656-5.738281 40.78125 6.179687 40.78125 40.875 0 35.398437-39.371094 54.992187-65.5 64.085937zm0 0" fill="#24ae5f"/><path d="m340.566406 161.191406c5.488282 13.425782 8.597656 27.703125 9.183594 42.195313l6.179688 138.152343c.265624 5.890626.089843 11.792969-.53125 17.65625-1.742188 19.09375-7.808594 37.539063-17.742188 53.9375-24.296875 39.660157-67.539062 63.761719-114.054688 63.558594h-41.136718c-46.511719.203125-89.753906-23.898437-114.050782-63.558594-9.933593-16.398437-16-34.84375-17.742187-53.9375-.621094-5.863281-.800781-11.765624-.53125-17.65625l6.179687-138.152343c.585938-14.492188 3.691407-28.769531 9.179688-42.195313-26.128906-9.09375-65.5-28.6875-65.5-64.085937 0-23.660157 10.59375-36.8125 23.128906-40.875h.085938c10.566406 3.53125 18.507812 12.34375 20.921875 23.21875 4.378906 17.230469 13.457031 32.90625 26.21875 45.285156 2.914062-3.265625 5.914062-6.445313 9.179687-9.445313 2.613282 3.332032 5.445313 6.488282 8.476563 9.445313 8.421875-9.671875 18.238281-18.035156 29.128906-24.804687-41.578125-45.550782-35.574219-92.867188-8.738281-99.222657 25.953125 3.53125 32.839844 20.039063 32.839844 43.429688.460937 12.796875 3.554687 25.355469 9.089843 36.902343 5.636719-.902343 11.332031-1.40625 17.039063-1.503906 1.148437-.085937 2.382812-.085937 3.53125-.085937h46.609375c6.886719-.007813 13.765625.523437 20.570312 1.589843.175781-.441406.4375-.972656.617188-1.503906 5.707031.097656 11.398437.601563 17.035156 1.503906 5.535156-11.546874 8.632813-24.105468 9.09375-36.902343 0-23.390625 6.886719-39.898438 32.839844-43.429688 26.835937 6.355469 32.835937 53.671875-8.742188 99.222657 10.890625 6.769531 20.710938 15.132812 29.132813 24.804687 3.03125-2.957031 5.863281-6.113281 8.472656-9.445313 3.265625 3 6.269531 6.179688 9.183594 9.445313 12.761718-12.378906 21.839844-28.054687 26.214844-45.285156 2.414062-10.875 10.355468-19.6875 20.921874-23.21875h.089844c12.535156 4.0625 23.128906 17.214843 23.128906 40.875 0 35.398437-39.371093 54.992187-65.503906 64.085937zm0 0" fill="#4fba6f"/><path d="m176.550781 203.035156c0 24.375-19.761719 44.136719-44.136719 44.136719-1.445312.003906-2.890624-.085937-4.324218-.265625-.089844 0-.089844.089844-.179688 0-22.371094-2.460938-39.308594-21.363281-39.308594-43.871094 0-22.507812 16.9375-41.410156 39.308594-43.875.089844-.085937.089844 0 .179688 0 1.433594-.175781 2.878906-.265625 4.324218-.261718 11.707032 0 22.933594 4.648437 31.210938 12.925781 8.277344 8.277343 12.925781 19.503906 12.925781 31.210937zm0 0" fill="#e6e7e8"/><path d="m167.722656 203.035156c.011719 22.628906-17.117187 41.59375-39.632812 43.871094-.089844 0-.089844.089844-.179688 0-22.371094-2.460938-39.308594-21.363281-39.308594-43.871094 0-22.507812 16.9375-41.410156 39.308594-43.875.089844-.085937.089844 0 .179688 0 22.515625 2.28125 39.644531 21.242188 39.632812 43.875zm0 0" fill="#fff"/><path d="m335.449219 203.035156c0 24.375-19.761719 44.136719-44.140625 44.136719-1.445313.003906-2.890625-.085937-4.324219-.265625-.085937 0-.085937.089844-.175781 0-22.375-2.460938-39.308594-21.363281-39.308594-43.871094 0-22.507812 16.933594-41.410156 39.308594-43.875.089844-.085937.089844 0 .175781 0 1.433594-.175781 2.878906-.265625 4.324219-.261718 11.707031 0 22.933594 4.648437 31.210937 12.925781 8.277344 8.277343 12.929688 19.503906 12.929688 31.210937zm0 0" fill="#e6e7e8"/><path d="m326.621094 203.035156c.011718 22.628906-17.121094 41.59375-39.636719 43.871094-.085937 0-.085937.089844-.175781 0-22.375-2.460938-39.308594-21.363281-39.308594-43.871094 0-22.507812 16.933594-41.410156 39.308594-43.875.089844-.085937.089844 0 .175781 0 22.515625 2.28125 39.648437 21.242188 39.636719 43.875zm0 0" fill="#fff"/><path d="m158.898438 203.035156c0 14.625-11.859376 26.480469-26.484376 26.480469s-26.484374-11.855469-26.484374-26.480469 11.859374-26.484375 26.484374-26.484375 26.484376 11.859375 26.484376 26.484375zm0 0" fill="#2fa8cc"/><path d="m317.792969 203.035156c0 14.625-11.855469 26.480469-26.484375 26.480469-14.625 0-26.480469-11.855469-26.480469-26.480469s11.855469-26.484375 26.480469-26.484375c14.628906 0 26.484375 11.859375 26.484375 26.484375zm0 0" fill="#2fa8cc"/><path d="m150.070312 203.035156c0 9.75-7.90625 17.65625-17.65625 17.65625s-17.65625-7.90625-17.65625-17.65625 7.90625-17.65625 17.65625-17.65625 17.65625 7.90625 17.65625 17.65625zm0 0" fill="#2c2f38"/><path d="m308.964844 203.035156c0 9.75-7.902344 17.65625-17.65625 17.65625-9.75 0-17.652344-7.90625-17.652344-17.65625s7.902344-17.65625 17.652344-17.65625c9.753906 0 17.65625 7.90625 17.65625 17.65625zm0 0" fill="#2c2f38"/><path d="m238.34375 238.34375c-1.644531-13.886719-12.59375-24.835938-26.480469-26.480469-13.890625 1.644531-24.839843 12.59375-26.484375 26.480469 0 9.753906 11.855469 8.828125 26.484375 8.828125 14.625 0 26.480469.925781 26.480469-8.828125zm0 0" fill="#d75e72"/><path d="m308.964844 282.484375c0 9.621094-18.625 33.101563-46.519532 48.195313-15.476562 8.644531-32.859374 13.316406-50.582031 13.597656-17.726562-.28125-35.105469-4.953125-50.582031-13.597656-27.894531-15.09375-46.523438-38.574219-46.523438-48.195313 0-8.828125 43.433594-8.828125 97.105469-8.828125s97.101563 0 97.101563 8.828125zm0 0" fill="#802d40"/><path d="m262.445312 330.679688c-15.476562 8.644531-32.859374 13.316406-50.582031 13.597656-17.726562-.28125-35.105469-4.953125-50.582031-13.597656 6.707031-12.535157 26.835938-21.714844 50.582031-21.714844 23.746094 0 43.871094 9.179687 50.582031 21.714844zm0 0" fill="#ff5364"/><path d="m273.65625 441.378906c0 26.820313-27.667969 35.3125-61.792969 35.3125-34.128906 0-61.792969-8.492187-61.792969-35.3125 0-26.816406 27.664063-61.792968 61.792969-61.792968 34.125 0 61.792969 34.976562 61.792969 61.792968zm0 0" fill="#f29c1f"/><path d="m114.757812 379.585938c0 19.5-15.808593 35.3125-35.308593 35.3125-3.75.007812-7.476563-.589844-11.035157-1.765626-9.933593-16.398437-16-34.84375-17.742187-53.9375 8.894531-12.511718 24.855469-17.84375 39.484375-13.1875 14.628906 4.652344 24.574219 18.226563 24.601562 33.578126zm0 0" fill="#f29c1f"/><path d="m373.054688 359.195312c-1.742188 19.09375-7.8125 37.539063-17.746094 53.9375-3.558594 1.175782-7.285156 1.773438-11.03125 1.765626-16.734375.023437-31.1875-11.703126-34.613282-28.085938-3.425781-16.378906 5.117188-32.914062 20.457032-39.597656 15.34375-6.683594 33.269531-1.683594 42.933594 11.980468zm0 0" fill="#f29c1f"/><path d="m132.414062 189.792969c0 7.3125-5.929687 13.242187-13.242187 13.242187s-13.242187-5.929687-13.242187-13.242187 5.929687-13.242188 13.242187-13.242188 13.242187 5.929688 13.242187 13.242188zm0 0" fill="#fff"/><path d="m291.308594 189.792969c0 7.3125-5.925782 13.242187-13.238282 13.242187s-13.242187-5.929687-13.242187-13.242187 5.929687-13.242188 13.242187-13.242188 13.238282 5.929688 13.238282 13.242188zm0 0" fill="#fff"/></svg>