<svg height="510pt" viewBox="-3 0 510 510.97879" width="510pt" xmlns="http://www.w3.org/2000/svg"><path d="m503.910156 103.113281c.089844 7.625-.753906 15.230469-2.519531 22.652344v.085937c-1.851563 8.238282-5.597656 15.929688-10.933594 22.476563-8.851562 10.148437-21.101562 16.71875-34.449219 18.484375l-63.4375-38.707031 4.339844-66.730469c10.332032-16.300781 17.074219-34.613281 19.785156-53.71875.234376-2.332031 1.417969-4.460938 3.273438-5.890625s4.21875-2.027344 6.53125-1.660156c19.007812 2.710937 36.648438 11.4375 50.332031 24.90625h.085938c4.542969 4.589843 8.507812 9.722656 11.804687 15.273437 10.816406 19.121094 16.074219 40.878906 15.1875 62.828125zm0 0" fill="#fdd7ad"/><path d="m117.476562 132.964844-68.988281 33.847656c-13.351562-1.765625-25.597656-8.335938-34.453125-18.484375-5.335937-6.578125-9.078125-14.300781-10.933594-22.5625-1.761718-7.421875-2.605468-15.027344-2.515624-22.652344-.890626-21.949219 4.371093-43.707031 15.1875-62.828125 3.296874-5.550781 7.257812-10.683594 11.800781-15.273437h.085937c13.683594-13.46875 31.324219-22.195313 50.332032-24.90625 2.316406-.367188 4.675781.230469 6.535156 1.660156 1.855468 1.429687 3.039062 3.558594 3.273437 5.890625 2.5625 18.484375 8.976563 36.222656 18.832031 52.066406.34375.523438.605469 1.128906.953126 1.652344zm0 0" fill="#fdd7ad"/><path d="m234.890625 466.980469v9.285156c0 14.378906-11.65625 26.035156-26.03125 26.035156h-34.714844c-14.378906 0-26.03125-11.65625-26.03125-26.035156v-31.5zm0 0" fill="#df4d60"/><path d="m356.382812 444.765625v31.5c0 14.378906-11.65625 26.035156-26.035156 26.035156h-34.710937c-14.378907 0-26.035157-11.65625-26.035157-26.035156v-9.285156zm0 0" fill="#df4d60"/><path d="m120.601562 427.929688-3.035156 16.054687c-3.367187 17.792969-16.054687 32.394531-33.199218 38.214844-17.148438 5.820312-36.101563 1.960937-49.605469-10.105469-13.5-12.0625-19.464844-30.464844-15.605469-48.15625l34.191406-156.375zm0 0" fill="#df4d60"/><path d="m451.144531 267.5625 34.191407 156.375c3.863281 17.691406-2.101563 36.09375-15.605469 48.15625-13.503907 12.066406-32.453125 15.925781-49.601563 10.105469-17.148437-5.820313-29.832031-20.421875-33.199218-38.214844l-3.039063-16.054687zm0 0" fill="#df4d60"/><path d="m437.433594 122.292969c-1.621094-1.195313-2.226563-3.339844-1.472656-5.207031 2.640624-8.960938 3.113281-18.417969 1.386718-27.597657-.199218-1.773437-1.464844-3.246093-3.191406-3.707031-1.730469-.460938-3.5625.183594-4.617188 1.625-1.199218 1.777344-2.660156 3.359375-4.339843 4.6875-3.730469 3.191406-8.742188 4.445312-13.539063 3.382812-.8125-.15625-1.546875-.582031-2.082031-1.214843-.714844-.824219-1.140625-1.859375-1.214844-2.949219.0625-14.0625-6.535156-27.320312-17.789062-35.753906-1.347657-.964844-3.117188-1.097656-4.59375-.351563-1.476563.75-2.414063 2.253907-2.4375 3.910157v1.214843c-.539063 11.222657-6.976563 21.324219-16.921875 26.554688-1.613282.921875-3.640625.714843-5.03125-.519531-1.042969-.867188-2.082032-1.738282-3.125-2.519532-15.277344-12.984375-32.570313-23.390625-51.199219-30.804687-2.054687-.785157-3.179687-3-2.601563-5.121094 2.328126-6.765625 6.257813-12.867187 11.453126-17.789063 1.160156-1.097656 1.621093-2.742187 1.207031-4.285156-.417969-1.539062-1.648438-2.726562-3.203125-3.089844-6.027344-1.609374-12.316406-1.960937-18.484375-1.042968-1.582031.195312-3.128907.601562-4.597657 1.214844-1.839843.710937-3.921874.0625-5.035156-1.5625-.253906-.34375-.457031-.726563-.605468-1.128907-1.761719-4.527343-2.210938-9.457031-1.304688-14.230469.289062-1.464843-.207031-2.96875-1.304688-3.980468-1.097656-1.007813-2.640624-1.375-4.074218-.964844-2.535156.625-5.027344 1.40625-7.460938 2.34375-6.023437 1.609375-11.355468 5.144531-15.1875 10.066406-.824218 1.144532-2.148437 1.820313-3.558594 1.820313-1.410156 0-2.734374-.675781-3.558593-1.820313-.777344-1.140625-1.679688-2.1875-2.691407-3.125-5.777343-4.71875-12.636718-7.9375-19.957031-9.371094-2.019531-.496093-4.109375.480469-5.035156 2.339844-.421875.832032-.542969 1.78125-.347656 2.691406.910156 4.773438.460937 9.703126-1.300781 14.230469-.371094 1.121094-1.183594 2.039063-2.246094 2.546875-1.066406.507813-2.289063.558594-3.394532.144532-2.371093-.972657-4.898437-1.5-7.460937-1.5625-3.214844-.300782-6.453125-.183594-9.632813.347656-2.046874.199218-4.078124.546875-6.074218 1.042968-1.539063.386719-2.742188 1.574219-3.15625 3.101563-.414063 1.53125.027344 3.164063 1.160156 4.273437 5.164062 4.878907 9.089844 10.917969 11.453125 17.617188.617187 2.125-.519531 4.363281-2.601563 5.117188-20.054687 7.914062-38.582031 19.246093-54.757812 33.5-1.394531 1.234374-3.417969 1.441406-5.035156.519531-1.476563-.953125-2.949219-1.996094-4.425782-3.125-7.960937-5.664063-12.632812-14.875-12.496093-24.644531-.019531-1.65625-.957031-3.160157-2.4375-3.910157-1.476563-.746093-3.246094-.613281-4.589844.351563-1.992187 1.386718-3.828125 2.988281-5.46875 4.773437-7.824219 8.429688-12.21875 19.480469-12.324219 30.980469-.019531 1.976562-1.375 3.691406-3.296875 4.164062-3.511719.734376-7.164062.308594-10.414062-1.214843-3.011719-1.632813-5.578125-3.988281-7.460938-6.855469-1.058593-1.441406-2.890625-2.085938-4.617187-1.625-1.726563.460938-2.996094 1.933594-3.195313 3.707031-.085937.871094-.257812 1.652344-.34375 2.605469-1.3125 8.355469-.71875 16.898438 1.734375 24.992188.753906 1.867187.144532 4.011718-1.476562 5.207031-16.769532 11.203125-23.777344 32.375-17.007813 51.375.074219.441406.191407.878906.347657 1.300781.414062 1.394531 1.492187 2.5 2.878906 2.949219 1.386718.449219 2.90625.191406 4.0625-.695313 2.335937-1.882812 4.867187-3.511718 7.550781-4.859375 2.519531-1.394531 5.292969-2.28125 8.15625-2.601562 1.535156-.113281 3.015625.59375 3.890625 1.863281.875 1.265625 1.011719 2.902344.363281 4.296875-15.867187 34.320313-24.269531 71.621094-24.648437 109.429687 0 115.15625 86 179.722657 193.347656 182.152344 2.082031.085938 4.164062.085938 6.246094.085938 110.210937 0 199.59375-64.824219 199.59375-182.238282-.378906-37.808593-8.777344-75.109374-24.644532-109.429687-.503906-1.125-.535156-2.40625-.085937-3.558594.738281-1.707031 2.484375-2.753906 4.339844-2.601562 3.746093.503906 7.332031 1.835937 10.5 3.90625 1.820312 1.050781 3.5625 2.242187 5.207031 3.554687 1.15625.886719 2.675781 1.144532 4.0625.695313s2.460938-1.554688 2.878906-2.949219c7.433594-19.296875.515625-41.164062-16.664062-52.675781zm0 0" fill="#df4d60"/><path d="m418.949219 169.761719c2.867187.320312 5.636719 1.207031 8.160156 2.601562.738281-1.707031 2.484375-2.753906 4.339844-2.601562 3.746093.503906 7.332031 1.835937 10.5 3.90625 6.769531-19-.238281-40.171875-17.011719-51.375-1.621094-1.195313-2.226562-3.339844-1.472656-5.207031 2.453125-8.09375 3.046875-16.636719 1.734375-24.992188-3.730469 3.191406-8.742188 4.445312-13.539063 3.382812-.8125-.15625-1.546875-.582031-2.082031-1.214843-3.246094 1.523437-6.902344 1.949219-10.414063 1.214843-1.917968-.472656-3.273437-2.1875-3.296874-4.164062-.105469-11.5-4.5-22.550781-12.324219-30.980469-.539063 11.222657-6.976563 21.324219-16.921875 26.554688-1.613282.921875-3.640625.714843-5.03125-.519531-1.042969-.867188-2.082032-1.738282-3.125-2.519532-1.390625 1.09375-2.839844 2.105469-4.339844 3.039063-1.613281.921875-3.640625.714843-5.03125-.519531-16.074219-14.125-34.449219-25.394532-54.324219-33.324219-2.054687-.785157-3.179687-3-2.605469-5.121094 2.332032-6.765625 6.261719-12.867187 11.457032-17.789063 1.160156-1.097656 1.621094-2.742187 1.207031-4.285156-.417969-1.539062-1.648437-2.726562-3.203125-3.089844-1.96875-.488281-3.96875-.835937-5.988281-1.042968-3.183594-.53125-6.417969-.648438-9.632813-.347656-2.5625.0625-5.089844.589843-7.460937 1.5625-1.105469.414062-2.328125.363281-3.394531-.144532-1.0625-.507812-1.875-1.425781-2.246094-2.546875-1.761719-4.527343-2.210938-9.457031-1.304688-14.230469.199219-.882812.078125-1.804687-.34375-2.601562-6.023437 1.609375-11.355468 5.144531-15.1875 10.066406-.824218 1.144532-2.148437 1.820313-3.558594 1.820313-1.410156 0-2.734374-.675781-3.558593-1.820313-.777344-1.140625-1.679688-2.1875-2.691407-3.125-1.011718.9375-1.914062 1.984375-2.6875 3.125-.824218 1.144532-2.148437 1.820313-3.558593 1.820313-1.410157 0-2.734375-.675781-3.558594-1.820313-3.847656-4.921875-9.167969-8.480468-15.1875-10.15625-.421875.832032-.542969 1.78125-.347656 2.691406.910156 4.773438.460937 9.703126-1.300781 14.230469-.371094 1.121094-1.183594 2.039063-2.246094 2.546875-1.066406.507813-2.289063.558594-3.394532.144532-2.371093-.972657-4.898437-1.5-7.460937-1.5625-1.113281 1.625-3.199219 2.273437-5.035156 1.5625-1.46875-.613282-3.015625-1.019532-4.597657-1.214844-2.046874.199218-4.078124.546875-6.074218 1.042968-1.539063.386719-2.742188 1.574219-3.15625 3.101563-.414063 1.53125.027344 3.164063 1.160156 4.273437 5.164062 4.878907 9.089844 10.917969 11.453125 17.617188.617187 2.125-.519531 4.363281-2.601563 5.117188-20.054687 7.914062-38.582031 19.246093-54.757812 33.5-1.394531 1.234374-3.417969 1.441406-5.035156.519531-1.476563-.953125-2.949219-1.996094-4.425782-3.125-1.039062.867187-1.996093 1.738281-3.035156 2.605469-1.394531 1.234374-3.417968 1.441406-5.035156.519531-9.945312-5.230469-16.382812-15.332031-16.921875-26.554688-7.824219 8.429688-12.21875 19.480469-12.324219 30.980469-.019531 1.976562-1.375 3.691406-3.296875 4.164062-3.511719.734376-7.164062.308594-10.414062-1.214843-.535157.632812-1.269531 1.058593-2.082031 1.214843-4.792969 1.0625-9.808594-.191406-13.535157-3.382812-1.3125 8.355469-.71875 16.898438 1.734375 24.992188.753906 1.867187.144532 4.011718-1.476562 5.207031-16.769532 11.203125-23.777344 32.375-17.007813 51.375 3.164063-2.070313 6.753907-3.402344 10.5-3.90625 1.855469-.152344 3.601563.894531 4.339844 2.601562 2.519531-1.394531 5.292969-2.28125 8.15625-2.601562 1.535156-.113281 3.015625.59375 3.890625 1.863281.875 1.265625 1.011719 2.902344.363281 4.296875-15.867187 34.320313-24.269531 71.621094-24.648437 109.429687 0 115.15625 86 179.722657 193.347656 182.152344 107.34375-2.429687 193.34375-66.996094 193.34375-182.152344-.378906-37.808593-8.777344-75.109374-24.644531-109.429687-.652344-1.394531-.515625-3.03125.359375-4.296875.875-1.269531 2.355468-1.976562 3.890625-1.863281zm0 0" fill="#ff5364"/><path d="m39.203125 102.246094c-14.925781 7.375-19.871094 25.773437-21.433594 39.917968-.222656 2.523438-1.601562 4.800782-3.734375 6.164063-5.335937-6.578125-9.078125-14.300781-10.933594-22.5625 3.167969-16.59375 13.53125-30.925781 28.292969-39.140625 4.3125-2.15625 9.558594-.40625 11.714844 3.90625s.40625 9.558594-3.90625 11.714844zm0 0" fill="#7f6e5d"/><path d="m56.558594 58.769531c-1.195313.652344-2.542969.980469-3.90625.953125-3.277344.03125-6.28125-1.824218-7.722656-4.769531-4.980469-8.832031-14.625-13.972656-24.730469-13.191406-1.582031-.078125-3.113281-.589844-4.425781-1.476563 3.296874-5.550781 7.257812-10.683594 11.800781-15.273437h.085937c13.96875 1.308593 26.304688 9.652343 32.71875 22.128906 2.140625 4.265625.433594 9.464844-3.820312 11.628906zm0 0" fill="#7f6e5d"/><path d="m501.390625 125.765625v.085937c-1.851563 8.238282-5.597656 15.929688-10.933594 22.476563-2.132812-1.363281-3.511719-3.640625-3.730469-6.164063-1.5625-14.144531-6.507812-32.542968-21.433593-39.917968-4.316407-2.15625-6.0625-7.402344-3.90625-11.714844s7.402343-6.0625 11.714843-3.90625c14.761719 8.214844 25.121094 22.546875 28.289063 39.140625zm0 0" fill="#7f6e5d"/><path d="m488.722656 40.285156c-1.3125.886719-2.84375 1.398438-4.425781 1.476563-10.109375-.78125-19.753906 4.359375-24.734375 13.191406-1.4375 2.945313-4.441406 4.800781-7.722656 4.769531-1.363282.027344-2.707032-.300781-3.90625-.953125-4.253906-2.164062-5.960938-7.363281-3.816406-11.628906 6.414062-12.476563 18.75-20.820313 32.714843-22.128906h.085938c4.542969 4.589843 8.507812 9.722656 11.804687 15.273437zm0 0" fill="#7f6e5d"/><g fill="#fdd7ad"><path d="m9.265625 476.265625c-3.511719 0-6.675781-2.113281-8.015625-5.355469-1.34375-3.242187-.601562-6.976562 1.878906-9.457031l12.929688-12.929687c3.390625-3.394532 8.886718-3.402344 12.285156-.011719 3.394531 3.386719 3.402344 8.886719.011719 12.28125l-12.929688 12.929687c-1.632812 1.636719-3.851562 2.550782-6.160156 2.542969zm0 0"/><path d="m35.296875 502.300781c-.9375-.003906-1.867187-.15625-2.757813-.453125-4.542968-1.523437-6.992187-6.441406-5.46875-10.984375l5.640626-16.835937c1.523437-4.550782 6.453124-7.007813 11.003906-5.484375 4.554687 1.523437 7.007812 6.449219 5.484375 11.003906l-5.640625 16.835937c-1.1875 3.546876-4.519532 5.933594-8.261719 5.917969zm0 0"/><path d="m70.011719 510.980469c-4.792969 0-8.679688-3.886719-8.679688-8.679688v-17.441406c0-4.792969 3.886719-8.679687 8.679688-8.679687 4.789062 0 8.675781 3.886718 8.675781 8.679687v17.441406c0 4.792969-3.886719 8.679688-8.675781 8.679688zm0 0"/><path d="m104.722656 502.300781c-3.738281 0-7.058594-2.394531-8.234375-5.945312l-6.25-18.832031c-.976562-2.945313-.308593-6.1875 1.753907-8.503907 2.0625-2.320312 5.207031-3.359375 8.246093-2.734375 3.039063.628906 5.511719 2.828125 6.488281 5.773438l6.246094 18.832031c.882813 2.648437.433594 5.554687-1.203125 7.816406-1.632812 2.261719-4.257812 3.597657-7.046875 3.59375zm0 0"/><path d="m495.230469 476.265625c-2.300781 0-4.507813-.914063-6.136719-2.542969l-12.929688-12.929687c-3.394531-3.386719-3.402343-8.886719-.011718-12.28125 3.386718-3.398438 8.886718-3.402344 12.28125-.015625l12.933594 12.929687c2.5 2.480469 3.253906 6.226563 1.90625 9.480469-1.34375 3.253906-4.523438 5.371094-8.042969 5.359375zm0 0"/><path d="m469.195312 502.300781c-3.726562 0-7.039062-2.382812-8.226562-5.917969l-5.640625-16.835937c-.984375-2.945313-.324219-6.191406 1.734375-8.519531 2.054688-2.324219 5.199219-3.378906 8.242188-2.757813 3.042968.617188 5.527343 2.8125 6.511718 5.757813l5.640625 16.835937c1.523438 4.542969-.921875 9.460938-5.464843 10.984375-.902344.300782-1.847657.453125-2.796876.453125zm0 0"/><path d="m434.484375 510.980469c-4.792969 0-8.679687-3.886719-8.679687-8.679688v-17.441406c0-4.792969 3.886718-8.679687 8.679687-8.679687s8.679687 3.886718 8.679687 8.679687v17.441406c0 4.792969-3.886718 8.679688-8.679687 8.679688zm0 0"/><path d="m399.773438 502.300781c-2.789063 0-5.40625-1.339843-7.035157-3.597656-1.632812-2.261719-2.078125-5.167969-1.199219-7.8125l6.246094-18.832031c1.511719-4.554688 6.425782-7.019532 10.976563-5.511719 4.554687 1.511719 7.023437 6.425781 5.511719 10.976563l-6.246094 18.832031c-1.183594 3.554687-4.507813 5.953125-8.253906 5.945312zm0 0"/></g><path d="m234.890625 163.859375c0 28.757813-23.3125 52.070313-52.066406 52.070313-2.910157.003906-5.816407-.257813-8.679688-.78125-25.042969-4.214844-43.378906-25.894532-43.378906-51.289063s18.335937-47.074219 43.378906-51.285156c2.863281-.527344 5.769531-.789063 8.679688-.78125 28.753906 0 52.066406 23.3125 52.066406 52.066406zm0 0" fill="#e6e7e8"/><path d="m217.535156 163.859375c0-28.324219-19.425781-51.285156-43.390625-51.285156-23.960937 0-43.390625 22.960937-43.390625 51.285156s19.429688 51.289063 43.390625 51.289063c23.964844 0 43.390625-22.964844 43.390625-51.289063zm0 0" fill="#fff"/><path d="m373.738281 163.859375c0 28.757813-23.3125 52.070313-52.066406 52.070313-2.910156.003906-5.816406-.257813-8.679687-.78125-25.042969-4.214844-43.378907-25.894532-43.378907-51.289063s18.335938-47.074219 43.378907-51.285156c2.863281-.527344 5.769531-.789063 8.679687-.78125 28.753906 0 52.066406 23.3125 52.066406 52.066406zm0 0" fill="#e6e7e8"/><path d="m356.382812 163.859375c0-28.324219-19.425781-51.285156-43.390624-51.285156-23.960938 0-43.390626 22.960937-43.390626 51.285156s19.429688 51.289063 43.390626 51.289063c23.964843 0 43.390624-22.964844 43.390624-51.289063zm0 0" fill="#fff"/><path d="m217.535156 163.859375c0 19.171875-15.539062 34.710937-34.710937 34.710937s-34.710938-15.539062-34.710938-34.710937 15.539063-34.710937 34.710938-34.710937 34.710937 15.539062 34.710937 34.710937zm0 0" fill="#2fa8cc"/><path d="m356.382812 163.859375c0 19.171875-15.539062 34.710937-34.710937 34.710937s-34.710937-15.539062-34.710937-34.710937 15.539062-34.710937 34.710937-34.710937 34.710937 15.539062 34.710937 34.710937zm0 0" fill="#2fa8cc"/><path d="m200.179688 163.859375c0 9.585937-7.769532 17.355469-17.355469 17.355469-9.585938 0-17.355469-7.769532-17.355469-17.355469s7.769531-17.355469 17.355469-17.355469c9.585937 0 17.355469 7.769532 17.355469 17.355469zm0 0" fill="#2c2f38"/><path d="m339.027344 163.859375c0 9.585937-7.769532 17.355469-17.355469 17.355469s-17.355469-7.769532-17.355469-17.355469 7.769532-17.355469 17.355469-17.355469 17.355469 7.769532 17.355469 17.355469zm0 0" fill="#2c2f38"/><path d="m295.636719 215.929688c0 14.378906-19.429688 34.710937-43.390625 34.710937-23.957032 0-43.386719-20.332031-43.386719-34.710937 0-14.382813 19.429687-17.359376 43.386719-17.359376 23.960937 0 43.390625 2.976563 43.390625 17.359376zm0 0" fill="#802d40"/><path d="m252.246094 337.417969s70.675781 0 88.34375-25.105469c17.667968-25.105469 0-41.828125-26.503906-33.460938-20.171876 5.246094-41.015626 7.4375-61.839844 6.5-20.820313.9375-41.664063-1.253906-61.839844-6.5-26.5-8.367187-44.167969 8.367188-26.5 33.460938 17.667969 25.097656 88.339844 25.105469 88.339844 25.105469zm0 0" fill="#802d40"/><path d="m321.671875 432.878906c0 26.363282-31.085937 34.710938-69.425781 34.710938s-69.421875-8.347656-69.421875-34.710938c0-26.367187 31.082031-60.746094 69.421875-60.746094s69.425781 34.378907 69.425781 60.746094zm0 0" fill="#f09372"/><path d="m312.992188 324.402344c.003906 1.605468-.171876 3.207031-.519532 4.773437-19.644531 5.28125-39.882812 8.050781-60.226562 8.242188-20.339844-.191407-40.578125-2.960938-60.222656-8.242188-.351563-1.566406-.523438-3.167969-.523438-4.773437 0-20.21875 23.867188-36.882813 54.5-38.878906.578125.015624 1.160156-.011719 1.734375-.085938 2.863281 0 4.511719-.085938 4.511719-.085938 2.082031 0 4.167968.085938 6.25.171876 30.632812 1.996093 54.496094 18.660156 54.496094 38.878906zm0 0" fill="#fb7b76"/><path d="m182.824219 146.503906c0 9.585938-7.769531 17.355469-17.355469 17.355469s-17.355469-7.769531-17.355469-17.355469c0-9.585937 7.769531-17.355468 17.355469-17.355468s17.355469 7.769531 17.355469 17.355468zm0 0" fill="#fff"/><path d="m321.671875 146.503906c0 9.585938-7.769531 17.355469-17.355469 17.355469-9.585937 0-17.355468-7.769531-17.355468-17.355469 0-9.585937 7.769531-17.355468 17.355468-17.355468 9.585938 0 17.355469 7.769531 17.355469 17.355468zm0 0" fill="#fff"/></svg>