<svg height="503pt" viewBox="0 -1 503.91483 503" width="503pt" xmlns="http://www.w3.org/2000/svg"><path d="m80.792969 258.433594c-21.429688 3.640625-41.269531 13.648437-56.929688 28.726562-15.449219 16.707032-23.9531248 38.679688-23.7773435 61.4375-.0859375 1.648438-.0859375 3.386719-.0859375 5.121094 0 15.011719.609375 28.550781 1.5625 40.699219 1.429688 21.109375 5.390625 41.96875 11.800781 62.132812 12.757813 37.75 30.027344 44.691407 30.027344 44.691407h78.101563l-10.585938-38.789063c-15.449219-25.859375-26.121094-59.355469 1.90625-82.699219 9.71875-8.070312 18.832031-15.273437 27.164062-21.523437zm0 0" fill="#d25627"/><path d="m112.8125 501.242188h65.378906c2.996094-.015626 5.773438-1.566407 7.355469-4.109376 1.585937-2.539062 1.757813-5.714843.457031-8.410156-28.066406-60.644531-81.867187-22.191406-81.867187-22.191406s0 34.710938 8.675781 34.710938zm0 0" fill="#f5efca"/><path d="m52.066406 414.464844c0 12.757812-9.457031 30.285156-38.703125 42.085937-6.410156-20.164062-10.371093-41.023437-11.800781-62.132812 24.730469 4.339843 50.503906 11.019531 50.503906 20.046875zm0 0" fill="#fb7b76"/><path d="m442.488281 264.074219c13.917969 4.785156 26.558594 12.679687 36.96875 23.085937 15.453125 16.707032 23.953125 38.679688 23.777344 61.4375.085937 1.648438.085937 3.386719.085937 5.121094 0 15.011719-.605468 28.550781-1.558593 40.699219-1.433594 21.109375-5.394531 41.96875-11.804688 62.132812-12.753906 37.75-30.023437 44.691407-30.023437 44.691407h-78.101563l10.585938-38.789063c15.445312-25.859375 26.121093-59.355469-1.910157-82.699219-7.722656-6.421875-15.097656-12.324218-22.042968-17.703125l-3.992188-103.789062zm0 0" fill="#d25627"/><path d="m390.507812 501.242188h-65.378906c-2.996094-.015626-5.769531-1.566407-7.355468-4.109376-1.582032-2.539062-1.753907-5.714843-.453126-8.410156 28.0625-60.644531 81.867188-22.191406 81.867188-22.191406s0 34.710938-8.679688 34.710938zm0 0" fill="#f5efca"/><path d="m451.253906 414.464844c0 12.757812 9.460938 30.285156 38.703125 42.085937 6.410157-20.164062 10.371094-41.023437 11.804688-62.132812-24.734375 4.339843-50.507813 11.019531-50.507813 20.046875zm0 0" fill="#fb7b76"/><path d="m442.402344 274.140625c-.082032 1.453125-.886719 2.765625-2.144532 3.5-1.257812.734375-2.796874.789063-4.101562.144531l-11.023438-5.554687-3.992187-1.992188c-1.265625-.605469-2.746094-.566406-3.984375.101563-1.234375.671875-2.074219 1.890625-2.261719 3.28125-.066406.671875-.183593 1.339844-.347656 1.996094-6.683594 35.652343-25.03125 68.074218-52.15625 92.160156-1.082031.945312-2.5625 1.292968-3.953125.925781-1.390625-.363281-2.507812-1.394531-2.988281-2.75-.761719-1.90625-1.75-3.710937-2.949219-5.378906-3.242188-4.167969-7.039062-7.875-11.28125-11.019531-.996094-.757813-2.269531-1.042969-3.488281-.773438-1.222657.265625-2.261719 1.058594-2.847657 2.160156-.941406 1.902344-2.078124 3.707032-3.382812 5.378906-18.226562 23.691407-66.5625 23.867188-81.921875 23.257813h-.085937c-1.148438-.0625-2.21875-.585937-2.972657-1.453125-.753906-.867188-1.121093-2-1.019531-3.144531 1.214844-18.660157-24.039062-21.4375-31.5-21.871094-1.351562-.089844-2.667969.457031-3.558594 1.476563-.175781.171874-.347656.433593-.519531.609374-4.175781 5.046876-5.023437 12.066407-2.171875 17.960938.585938 1.410156.390625 3.023438-.515625 4.25s-2.390625 1.886719-3.910156 1.738281c-4.859375-.261719-9.546875-.695312-13.882813-1.300781-63.785156-9.113281-78.625-56.058594-81.835937-72.027344-.269531-1.351562-1.171875-2.496094-2.421875-3.078125s-2.703125-.535156-3.910156.128907c-3.902344 2.140624-7.1875 5.25-9.546876 9.023437-.347656.472656-.667968.964844-.953124 1.476563-.910157 1.542968-2.671876 2.367187-4.4375 2.078124-1.769532-.285156-3.175782-1.628906-3.546876-3.382812-.523437-2.515625-.957031-5.03125-1.304687-7.546875-6.160156-40.527344 5.554687-87.042969 10.328125-103.269531.386719-1.445313.019531-2.992188-.976562-4.109375-.996094-1.117188-2.488282-1.660157-3.96875-1.445313-4.257813.683594-8.402344 1.9375-12.324219 3.734375-2.09375.898438-4.125 1.941407-6.074219 3.121094-1.449219.867187-3.269531.816406-4.667969-.132813-1.394531-.953124-2.113281-2.625-1.839843-4.292968 0-.171875.085937-.347656.085937-.519532 5.644531-39.773437 27.507813-75.429687 60.398437-98.496093 1.191407-.820313 1.894532-2.179688 1.875-3.625-.015624-1.441407-.75-2.785157-1.960937-3.578125-6.113281-3.25-13.125-4.40625-19.960937-3.296875-1.675782.160156-3.289063-.664063-4.144532-2.113281-.855468-1.449219-.796875-3.265626.152344-4.65625 7.101562-10.449219 18.171875-17.535157 30.636719-19.609376h.171875c.867187-.175781 1.648437-.261718 2.429687-.347656 4.910157-.523437 9.871094-.40625 14.753907.347656 1.53125.253907 3.082031-.328124 4.066406-1.527343s1.253906-2.835938.707031-4.289063c-2.710937-6.238281-6.308594-12.054687-10.675781-17.269531-1.148438-1.4375-1.265625-3.445313-.289063-5.007813.976563-1.558593 2.832031-2.335937 4.628907-1.933593 3.394531.765625 6.730468 1.78125 9.980468 3.039062 3.707032 1.367188 7.332032 2.960938 10.847656 4.773438 1.292969.710937 2.859376.71875 4.15625.015625 1.300782-.703125 2.152344-2.015625 2.265626-3.488282.511718-11.136718 5.753906-21.523437 14.402343-28.550781 3.480469-2.882812 7.332031-5.273437 11.457031-7.117187 1.425782-.671875 3.101563-.519532 4.382813.402344 1.277344.917968 1.960937 2.460937 1.777344 4.023437-.707031 5.234375-.472657 10.554687.695312 15.707031.578125 2.476563 1.707031 4.789063 3.296875 6.769532.835938.871093 2 1.347656 3.207032 1.3125 1.203124-.03125 2.339843-.570313 3.128906-1.484376 5.292968-5.816406 19.523437-17.53125 49.289062-19.351562h.347656c8.976563-.546875 17.980469-.253906 26.902344.867188 1.789063.167968 3.289063 1.425781 3.773438 3.15625.480468 1.734374-.15625 3.585937-1.605469 4.652343-4.269531 3.03125-7.972656 6.789063-10.933594 11.109375-1.101562 1.59375-.996093 3.730469.261719 5.207032 1.039062 1.234374 2.671875 1.800781 4.25 1.472656 2.351562-.507813 4.726562-.882813 7.117188-1.125h.261718c20.914063-2.171875 59.355469 2.253906 101.269532 48.160156 1.136718 1.210938 1.480468 2.964844.890624 4.511719-.589843 1.550781-2.015624 2.628906-3.667968 2.777343-6.214844.566407-11.710938 4.265626-14.578125 9.808594-1.152344 2.140625-.429688 4.808594 1.648437 6.074219 27.628906 16.796875 47.117188 44.230469 53.890625 75.84375.371094 1.492187-.085937 3.066406-1.199219 4.128906-1.113281 1.058594-2.710937 1.4375-4.179687.992188-3.9375-1.238281-7.972656-2.140625-12.0625-2.691407-.25-.097656-.515625-.15625-.78125-.171874-2.019531-.359376-3.976563.882812-4.511719 2.863281h-.089844c-.589843 1.535156-.214843 3.273437.957032 4.425781 21.511718 22.417969 32.652344 52.820312 30.71875 83.828125zm0 0" fill="#e57e25"/><path d="m425.132812 272.230469-3.992187-1.992188c-1.265625-.605469-2.746094-.566406-3.984375.101563-1.234375.671875-2.074219 1.890625-2.261719 3.28125-.066406.671875-.183593 1.339844-.347656 1.996094l-10.761719-5.378907c-1.269531-.605469-2.75-.566406-3.984375.101563-1.234375.671875-2.074219 1.890625-2.261719 3.28125-5.5625 32.976562-21.3125 63.386718-45.039062 86.953125-3.242188-4.167969-7.039062-7.875-11.28125-11.019531-.996094-.757813-2.269531-1.042969-3.488281-.773438-1.222657.265625-2.261719 1.058594-2.847657 2.160156-.941406 1.902344-2.078124 3.707032-3.382812 5.378906-2.382812-2.433593-4.933594-4.695312-7.636719-6.765624-.996093-.757813-2.269531-1.042969-3.492187-.773438-1.21875.265625-2.257813 1.058594-2.84375 2.160156-11.109375 22.042969-45.125 27.507813-67.949219 28.636719h-.085937c-1.148438-.0625-2.21875-.585937-2.972657-1.453125-.753906-.867188-1.121093-2-1.019531-3.144531 1.214844-18.660157-24.039062-21.4375-31.5-21.871094-1.351562-.089844-2.667969.457031-3.558594 1.476563-.175781.171874-.347656.433593-.519531.609374-4.347656-1.140624-8.792969-1.839843-13.277344-2.085937-1.351562-.089844-2.667969.457031-3.558593 1.476563-4.628907 5.050781-5.695313 12.417968-2.691407 18.570312.734375 1.605469.347657 3.496094-.953125 4.6875-63.785156-9.113281-78.625-56.058594-81.835937-72.027344-.269531-1.351562-1.171875-2.496094-2.421875-3.078125s-2.703125-.535156-3.910156.128907c-3.902344 2.140624-7.1875 5.25-9.546876 9.023437-.695312-2.34375-1.128906-4.339844-1.476562-6.074219-.269531-1.351562-1.171875-2.496094-2.421875-3.078125s-2.703125-.535156-3.914063.128907c-.859374.46875-1.675781 1.019531-2.429687 1.648437-6.160156-40.527344 5.554687-87.042969 10.328125-103.269531.386719-1.445313.019531-2.992188-.976562-4.109375-.996094-1.117188-2.488282-1.660157-3.96875-1.445313-4.257813.683594-8.402344 1.9375-12.324219 3.734375-.359375-2.421875-2.613281-4.089843-5.03125-3.734375-2.546875.390625-5.046875 1.03125-7.464844 1.910156 5.644531-39.773437 27.507813-75.429687 60.398437-98.496093 1.191407-.820313 1.894532-2.179688 1.875-3.625-.015624-1.441407-.75-2.785157-1.960937-3.578125-6.113281-3.25-13.125-4.40625-19.960937-3.296875-1.675782.160156-3.289063-.664063-4.144532-2.113281-.855468-1.449219-.796875-3.265626.152344-4.65625 7.101562-10.449219 18.171875-17.535157 30.636719-19.609376h.171875c.828125.109376 1.667968-.007812 2.429687-.347656 4.910157-.523437 9.871094-.40625 14.753907.347656 1.53125.253907 3.082031-.328124 4.066406-1.527343s1.253906-2.835938.707031-4.289063c-2.710937-6.238281-6.308594-12.054687-10.675781-17.269531-.710938-.875-1.054688-1.996094-.953125-3.121094 3.382812 1.300781 6.332031 2.777344 8.761719 3.992188 1.292968.710937 2.863281.71875 4.160156.015625 1.300781-.703125 2.152344-2.015625 2.261718-3.488282 0-.433593.089844-.867187.089844-1.300781 3.707032 1.367188 7.332032 2.960938 10.847656 4.773438 1.292969.710937 2.859376.71875 4.15625.015625 1.300782-.703125 2.152344-2.015625 2.265626-3.488282.511718-11.136718 5.753906-21.523437 14.402343-28.550781-1.019531 6.890625.492188 13.921875 4.253907 19.785157.835937.871093 2 1.347656 3.207031 1.3125 1.203125-.03125 2.339843-.570313 3.128906-1.484376 2.308594-2.492187 4.898437-4.707031 7.722656-6.597656.578125 2.476563 1.707031 4.789063 3.296875 6.769532.835938.871093 2 1.347656 3.207032 1.3125 1.203124-.03125 2.339843-.570313 3.128906-1.484376 5.292968-5.816406 19.523437-17.53125 49.289062-19.351562h.347656c3.039063.171875 6.25.519531 9.546876.867188 1.789062.167968 3.289062 1.425781 3.773437 3.15625.480469 1.734374-.15625 3.585937-1.605469 4.652343-4.269531 3.03125-7.972656 6.789063-10.933594 11.109375-1 1.46875-1.003906 3.398438-.011718 4.871094.996094 1.472656 2.789062 2.191406 4.523437 1.808594 4.3125-.894532 8.699219-1.386719 13.105469-1.472656 1.039062 1.234374 2.671875 1.800781 4.25 1.472656 2.351562-.507813 4.726562-.882813 7.117188-1.125h.261718c21.605469 2.167968 51.71875 12.929687 83.914063 48.160156 1.136719 1.210938 1.480469 2.964844.890625 4.511719-.589844 1.550781-2.015625 2.628906-3.667969 2.777343-6.214844.566407-11.710937 4.265626-14.578125 9.808594-1.152344 2.140625-.429688 4.808594 1.648438 6.074219 27.625 16.796875 47.117187 44.230469 53.890624 75.84375.234376.796875.203126 1.652344-.085937 2.429687-.25-.097656-.515625-.15625-.78125-.171874-2.019531-.359376-3.976563.882812-4.511719 2.863281h-.089844c-4.160156-1.316407-8.429687-2.273438-12.753906-2.863281-1.8125-.207032-3.554687.742187-4.371094 2.371093-.816406 1.628907-.523437 3.59375.726563 4.917969 21.046875 21.941406 32.179687 51.546875 30.804687 81.917969zm0 0" fill="#f29c1f"/><path d="m251.660156 145.445312c.046875 12.863282-4.722656 25.277344-13.363281 34.800782l-20.132813 13.796875c-5.917968 2.308593-12.21875 3.484375-18.570312 3.472656-2.882812.003906-5.757812-.253906-8.589844-.78125-25.066406-4.167969-43.449218-25.839844-43.46875-51.25-.023437-25.410156 18.320313-47.113281 43.378906-51.324219 2.863282-.527344 5.769532-.785156 8.679688-.78125 13.808594 0 27.050781 5.484375 36.816406 15.25s15.25 23.007813 15.25 36.816406zm0 0" fill="#e6e7e8"/><path d="m355.796875 145.445312c0 28.757813-23.3125 52.070313-52.066406 52.070313-2.941407 0-5.875-.257813-8.765625-.78125-3.355469-.539063-6.644532-1.441406-9.808594-2.691406l-20.132812-13.796875c-12.703126-14.101563-16.714844-34.007813-10.464844-51.929688 6.253906-17.921875 21.773437-31.015625 40.492187-34.15625 2.863281-.527344 5.765625-.785156 8.679688-.78125 13.808593 0 27.050781 5.484375 36.816406 15.25s15.25 23.007813 15.25 36.816406zm0 0" fill="#e6e7e8"/><path d="m234.304688 145.445312c.046874 12.863282-4.722657 25.277344-13.363282 34.800782l-20.132812 13.796875c-3.160156 1.25-6.449219 2.152343-9.804688 2.691406-25.066406-4.167969-43.449218-25.839844-43.46875-51.25-.023437-25.410156 18.320313-47.113281 43.378906-51.324219 25.050782 4.199219 43.402344 25.886719 43.390626 51.285156zm0 0" fill="#fff"/><path d="m338.441406 145.445312c-.035156 25.417969-18.410156 47.09375-43.476562 51.289063-3.355469-.539063-6.644532-1.441406-9.808594-2.691406l-20.132812-13.796875c-12.703126-14.101563-16.714844-34.007813-10.464844-51.929688 6.253906-17.921875 21.773437-31.015625 40.492187-34.15625 25.050781 4.199219 43.398438 25.886719 43.390625 51.285156zm0 0" fill="#fff"/><path d="m234.304688 145.445312c0 19.171876-15.539063 34.714844-34.710938 34.714844s-34.710938-15.542968-34.710938-34.714844c0-19.167968 15.539063-34.710937 34.710938-34.710937s34.710938 15.542969 34.710938 34.710937zm0 0" fill="#cc66a1"/><path d="m338.441406 145.445312c0 19.171876-15.542968 34.714844-34.710937 34.714844-19.171875 0-34.714844-15.542968-34.714844-34.714844 0-19.167968 15.542969-34.710937 34.714844-34.710937 19.167969 0 34.710937 15.542969 34.710937 34.710937zm0 0" fill="#cc66a1"/><path d="m216.949219 145.445312c0 9.585938-7.769531 17.359376-17.355469 17.359376s-17.355469-7.773438-17.355469-17.359376c0-9.582031 7.769531-17.355468 17.355469-17.355468s17.355469 7.773437 17.355469 17.355468zm0 0" fill="#2c2f38"/><path d="m321.085938 145.445312c0 9.585938-7.773438 17.359376-17.355469 17.359376-9.585938 0-17.359375-7.773438-17.359375-17.359376 0-9.582031 7.773437-17.355468 17.359375-17.355468 9.582031 0 17.355469 7.773437 17.355469 17.355468zm0 0" fill="#2c2f38"/><path d="m60.746094 345.039062c-5.378906 21.4375-37.140625 13.105469-60.6601565 3.558594-.1757813-22.757812 8.3281245-44.730468 23.7773435-61.4375 20.222657 16.3125 41.65625 38.789063 36.882813 57.878906zm0 0" fill="#fb7b76"/><path d="m443.253906 345.039062c5.378906 21.4375 37.140625 13.105469 60.660156 3.558594.175782-22.757812-8.328124-44.730468-23.78125-61.4375-20.199218 16.3125-41.652343 38.789063-36.878906 57.878906zm0 0" fill="#fb7b76"/><path d="m295.050781 258v26.292969c0 23.964843-19.425781 43.390625-43.390625 43.390625-23.960937 0-43.390625-19.425782-43.390625-43.390625v-26.292969c14.996094 2.0625 30.253907-.898438 43.390625-8.417969 13.136719 7.519531 28.394532 10.480469 43.390625 8.417969zm0 0" fill="#df4d60"/><path d="m286.371094 258v26.292969c0 23.953125-15.550782 43.390625-34.710938 43.390625s-34.710937-19.4375-34.710937-43.390625v-26.292969c12.230469 1.941406 24.730469-1.089844 34.710937-8.417969 9.984375 7.328125 22.480469 10.359375 34.710938 8.417969zm0 0" fill="#ff5364"/><path d="m218.226562 267.625c-16.980468.332031-33.035156-7.714844-42.933593-21.511719-1.859375-2.480469-2.253907-5.765625-1.035157-8.617187 1.21875-2.851563 3.863282-4.835938 6.941407-5.207032 3.078125-.371093 6.121093.929688 7.980469 3.410157 17.078124 22.769531 43.546874 13.484375 53.804687 8.675781v-29.503906c0-4.792969 3.882813-8.679688 8.675781-8.679688 4.792969 0 8.679688 3.886719 8.679688 8.679688v34.710937c0 3.046875-1.597656 5.871094-4.210938 7.4375-11.507812 6.746094-24.566406 10.398438-37.902344 10.605469zm0 0" fill="#802d40"/><path d="m285.097656 267.625c-13.339844-.207031-26.394531-3.859375-37.90625-10.605469-2.609375-1.566406-4.207031-4.390625-4.207031-7.4375v-34.710937c0-4.792969 3.882813-8.679688 8.675781-8.679688 4.792969 0 8.679688 3.886719 8.679688 8.679688v29.425781c10.28125 4.800781 36.835937 14.015625 53.800781-8.617187 1.863281-2.480469 4.902344-3.777344 7.980469-3.40625 3.078125.371093 5.726562 2.355468 6.945312 5.207031 1.214844 2.847656.820313 6.132812-1.039062 8.613281-9.894532 13.804688-25.949219 21.859375-42.929688 21.53125zm0 0" fill="#802d40"/><path d="m286.371094 188.835938c0 9.546874-15.539063 26.035156-34.710938 26.035156-19.167968 0-34.710937-16.488282-34.710937-26.035156 0-9.542969 15.542969-8.675782 34.710937-8.675782 19.171875 0 34.710938-.867187 34.710938 8.675782zm0 0" fill="#fb7b76"/><g fill="#fff"><path d="m199.59375 128.089844c0 9.585937-7.769531 17.355468-17.355469 17.355468-9.585937 0-17.355469-7.769531-17.355469-17.355468 0-9.585938 7.769532-17.355469 17.355469-17.355469 9.585938 0 17.355469 7.769531 17.355469 17.355469zm0 0"/><path d="m303.730469 128.089844c0 9.585937-7.773438 17.355468-17.359375 17.355468-9.582032 0-17.355469-7.769531-17.355469-17.355468 0-9.585938 7.773437-17.355469 17.355469-17.355469 9.585937 0 17.359375 7.769531 17.359375 17.355469zm0 0"/></g></svg>