<svg height="512pt" viewBox="0 0 512 512.06194" width="512pt" xmlns="http://www.w3.org/2000/svg"><path d="m512.03125 370.820312c0 116.964844-114.582031 141.242188-256 141.242188-3 0-5.914062 0-8.828125-.089844-137.355469-.96875-247.171875-26.660156-247.171875-141.152344 1.410156-42.371093 12.652344-83.835937 32.839844-121.113281l213.980468-144.15625 8.828126-5.914062 223.511718 150.070312c20.1875 37.277344 31.429688 78.742188 32.839844 121.113281zm0 0" fill="#24ae5f"/><path d="m494.375 370.820312c0 114.492188-109.8125 140.183594-247.171875 141.152344-137.355469-.96875-247.171875-26.660156-247.171875-141.152344 1.410156-42.371093 12.652344-83.835937 32.839844-121.113281l213.980468-144.15625 214.6875 144.15625c20.183594 37.277344 31.425782 78.742188 32.835938 121.113281zm0 0" fill="#4fba6f"/><path d="m353.839844 174.671875c-.457032 3.570313-.691406 7.167969-.707032 10.769531-.042968 27.308594 14.007813 52.707032 37.164063 67.179688 25.007813-18.953125 59.566406-18.953125 84.570313 0 1.496093-.890625 2.9375-1.863282 4.324218-2.914063 24.171875-17.523437 36.472656-47.121093 31.839844-76.613281-4.636719-29.492188-25.425781-53.890625-53.808594-63.152344-28.378906-9.261718-59.558594-1.816406-80.695312 19.269532-3.066406 2.941406-5.816406 6.195312-8.210938 9.707031zm0 0" fill="#4fba6f"/><path d="m158.925781 185.441406c.046875 27.308594-14.003906 52.707032-37.164062 67.179688-5.257813-4.605469-11.378907-8.117188-18.007813-10.332032-15.769531-5.175781-32.78125-5.175781-48.550781 0-6.628906 2.214844-12.75 5.726563-18.007813 10.332032-1.496093-.890625-2.941406-1.863282-4.324218-2.914063-24.175782-17.523437-36.476563-47.121093-31.839844-76.613281s25.425781-53.890625 53.804688-63.152344c28.382812-9.261718 59.5625-1.816406 80.699218 19.269532 3.066406 2.964843 5.847656 6.214843 8.296875 9.707031l14.390625 35.753906c.457032 3.570313.691406 7.167969.703125 10.769531zm0 0" fill="#4fba6f"/><path d="m141.273438 185.441406c.027343 24.757813-14.742188 47.140625-37.519532 56.847656-3.867187-1.332031-7.859375-2.277343-11.917968-2.824218 23.128906-12.898438 35.464843-39.105469 30.671874-65.148438-4.792968-26.046875-25.652343-46.140625-51.855468-49.960937 2.914062-.507813 5.867187-.742188 8.828125-.707031 16.386719 0 32.105469 6.511718 43.691406 18.097656 11.589844 11.589844 18.101563 27.304687 18.101563 43.695312zm0 0" fill="#e6e7e8"/><path d="m123.617188 185.441406c.027343 22.449219-12.144532 43.140625-31.78125 54.023438-4.078126-.714844-8.214844-1.066406-12.355469-1.058594-2.953125-.003906-5.898438.171875-8.828125.53125-5.257813.535156-10.441406 1.660156-15.449219 3.351562-1.972656-.816406-3.886719-1.757812-5.738281-2.824218-23.128906-12.898438-35.464844-39.105469-30.667969-65.148438 4.792969-26.046875 25.648437-46.140625 51.855469-49.960937 30.414062 4.308593 53.007812 30.367187 52.964844 61.085937zm0 0" fill="#fff"/><path d="m494.375 185.441406c.03125 24.757813-14.742188 47.140625-37.515625 56.847656-3.871094-1.332031-7.863281-2.277343-11.917969-2.824218 23.128906-12.898438 35.464844-39.105469 30.671875-65.148438-4.796875-26.046875-25.652343-46.140625-51.859375-49.960937 2.914063-.507813 5.871094-.742188 8.828125-.707031 16.390625 0 32.105469 6.511718 43.695313 18.097656 11.589844 11.589844 18.097656 27.304687 18.097656 43.695312zm0 0" fill="#e6e7e8"/><path d="m476.71875 185.441406c.027344 22.449219-12.144531 43.140625-31.777344 54.023438-4.082031-.714844-8.214844-1.066406-12.359375-1.058594-2.949219-.003906-5.898437.171875-8.828125.53125-5.257812.535156-10.441406 1.660156-15.445312 3.351562-1.972656-.816406-3.890625-1.757812-5.738282-2.824218-23.128906-12.898438-35.464843-39.105469-30.671874-65.148438 4.792968-26.046875 25.652343-46.140625 51.855468-49.960937 30.417969 4.308593 53.011719 30.367187 52.964844 61.085937zm0 0" fill="#fff"/><path d="m114.789062 185.441406c0 19.5-15.808593 35.308594-35.308593 35.308594-19.503907 0-35.3125-15.808594-35.3125-35.308594s15.808593-35.308594 35.3125-35.308594c19.5 0 35.308593 15.808594 35.308593 35.308594zm0 0" fill="#e64c3c"/><path d="m467.894531 185.441406c0 19.5-15.808593 35.308594-35.3125 35.308594-19.5 0-35.308593-15.808594-35.308593-35.308594s15.808593-35.308594 35.308593-35.308594c19.503907 0 35.3125 15.808594 35.3125 35.308594zm0 0" fill="#e64c3c"/><path d="m97.132812 185.441406c0 9.75-7.902343 17.65625-17.652343 17.65625s-17.65625-7.90625-17.65625-17.65625 7.90625-17.65625 17.65625-17.65625 17.652343 7.90625 17.652343 17.65625zm0 0" fill="#2c2f38"/><path d="m450.238281 185.441406c0 9.75-7.90625 17.65625-17.65625 17.65625s-17.65625-7.90625-17.65625-17.65625 7.90625-17.65625 17.65625-17.65625 17.65625 7.90625 17.65625 17.65625zm0 0" fill="#2c2f38"/><path d="m450.238281 344.335938s-13.328125 99.84375-132.414062 126.148437c-20.3125 4.316406-41.03125 6.417969-61.792969 6.265625-20.765625.152344-41.484375-1.949219-61.792969-6.265625-119.085937-26.304687-132.414062-126.148437-132.414062-126.148437s13.417969-3.707032 35.308593-8.207032c14.480469-3.089844 32.574219-6.53125 52.96875-9.535156 16.417969-2.558594 34.335938-4.765625 52.964844-6.355469 17.210938-1.5 35.132813-2.382812 52.964844-2.382812s35.75.882812 52.964844 2.382812c18.625 1.589844 36.546875 3.796875 52.964844 6.355469 20.394531 3.003906 38.488281 6.445312 52.964843 9.535156 21.894531 4.5 35.3125 8.207032 35.3125 8.207032zm0 0" fill="#802d40"/><path d="m317.824219 419.371094v51.113281c-20.3125 4.316406-41.03125 6.417969-61.792969 6.265625-20.765625.152344-41.484375-1.949219-61.792969-6.265625v-51.113281c-.019531-1.476563.101563-2.957032.351563-4.414063 2.300781-15.089843 15.28125-26.238281 30.542968-26.238281 15.265626 0 28.242188 11.148438 30.546876 26.238281.25 1.457031.367187 2.9375.351562 4.414063-.019531-1.476563.101562-2.957032.351562-4.414063 2.300782-15.089843 15.28125-26.238281 30.542969-26.238281 15.265625 0 28.242188 11.148438 30.546875 26.238281.25 1.457031.367188 2.9375.351563 4.414063zm0 0" fill="#ff5364"/><g fill="#f5efca"><path d="m256.03125 317.855469v8.828125c0 14.625-11.855469 26.480468-26.484375 26.480468-14.625 0-26.480469-11.855468-26.480469-26.480468v-6.445313c17.210938-1.5 35.132813-2.382812 52.964844-2.382812zm0 0"/><path d="m203.066406 320.238281v15.273438c0 14.625-11.859375 26.480469-26.484375 26.480469s-26.480469-11.855469-26.480469-26.480469v-8.917969c16.417969-2.558594 34.335938-4.765625 52.964844-6.355469zm0 0"/><path d="m150.101562 326.59375v17.742188c0 14.628906-11.859374 26.484374-26.484374 26.484374s-26.484376-11.855468-26.484376-26.484374v-8.207032c14.480469-3.089844 32.574219-6.53125 52.96875-9.535156zm0 0"/><path d="m361.960938 326.59375v8.917969c0 14.625-11.855469 26.480469-26.480469 26.480469-14.628907 0-26.484375-11.855469-26.484375-26.480469v-15.273438c18.625 1.589844 36.546875 3.796875 52.964844 6.355469zm0 0"/><path d="m414.925781 336.128906v8.207032c0 14.628906-11.855469 26.484374-26.480469 26.484374s-26.484374-11.855468-26.484374-26.484374v-17.742188c20.394531 3.003906 38.488281 6.445312 52.964843 9.535156zm0 0"/><path d="m308.996094 320.238281v6.445313c0 14.625-11.855469 26.480468-26.480469 26.480468-14.628906 0-26.484375-11.855468-26.484375-26.480468v-8.828125c17.832031 0 35.75.882812 52.964844 2.382812zm0 0"/></g><path d="m238.375 247.234375c0 9.75-7.902344 17.65625-17.65625 17.65625-9.75 0-17.652344-7.90625-17.652344-17.65625s7.902344-17.65625 17.652344-17.65625c9.753906 0 17.65625 7.90625 17.65625 17.65625zm0 0" fill="#24ae5f"/><path d="m308.996094 247.234375c0 9.75-7.902344 17.65625-17.65625 17.65625-9.75 0-17.652344-7.90625-17.652344-17.65625s7.902344-17.65625 17.652344-17.65625c9.753906 0 17.65625 7.90625 17.65625 17.65625zm0 0" fill="#24ae5f"/><path d="m79.480469 167.785156c0 9.75-7.90625 17.65625-17.65625 17.65625s-17.65625-7.90625-17.65625-17.65625 7.90625-17.652344 17.65625-17.652344 17.65625 7.902344 17.65625 17.652344zm0 0" fill="#fff"/><path d="m432.582031 167.785156c0 9.75-7.902343 17.65625-17.65625 17.65625-9.75 0-17.652343-7.90625-17.652343-17.65625s7.902343-17.652344 17.652343-17.652344c9.753907 0 17.65625 7.902344 17.65625 17.652344zm0 0" fill="#fff"/><path d="m370.789062 114.820312c.03125 34.582032-15.578124 67.320313-42.460937 89.070313-3.019531-5.078125-6.765625-9.6875-11.121094-13.683594-7.027343-6.527343-15.195312-11.703125-24.101562-15.269531-23.796875-9.535156-50.351563-9.535156-74.148438 0-8.90625 3.566406-17.074219 8.742188-24.101562 15.269531-4.355469 3.996094-8.101563 8.605469-11.121094 13.683594-41.492187-33.660156-54.265625-91.5-30.8125-139.503906 23.457031-48.003907 76.9375-73.46875 128.988281-61.417969 52.054688 12.046875 88.902344 58.425781 88.878906 111.851562zm0 0" fill="#4fba6f"/><path d="m353.132812 114.820312c.03125 29.265626-13.171874 56.980469-35.925781 75.386719-2.222656-2.128906-4.613281-4.078125-7.152343-5.824219 25.957031-28.40625 32.691406-69.460937 17.167968-104.671874-15.519531-35.207032-50.367187-57.929688-88.847656-57.933594-4.371094-.015625-8.734375.277344-13.0625.882812 29.617188-9.824218 62.148438-4.832031 87.460938 13.417969s40.324218 47.539063 40.359374 78.742187zm0 0" fill="#e6e7e8"/><path d="m335.480469 118.882812c.050781 24.25-9.027344 47.632813-25.425781 65.5-5.238282-3.835937-10.929688-7.007812-16.949219-9.445312-11.769531-4.789062-24.367188-7.21875-37.074219-7.152344-10.585938-.027344-21.105469 1.640625-31.160156 4.945313-2.03125.707031-3.972656 1.410156-5.914063 2.207031-8.90625 3.566406-17.074219 8.742188-24.101562 15.269531-1.941407-1.585937-3.882813-3.265625-5.648438-5.03125-24.746093-23.460937-35.363281-58.191406-27.96875-91.480469 7.394531-33.289062 31.71875-60.257812 64.074219-71.035156 4.328125-.605468 8.691406-.898437 13.0625-.882812 25.757812-.011719 50.464844 10.210937 68.679688 28.425781 18.210937 18.214844 28.4375 42.921875 28.425781 68.679687zm0 0" fill="#fff"/><path d="m308.996094 114.820312c0 29.253907-23.714844 52.964844-52.964844 52.964844-29.253906 0-52.964844-23.710937-52.964844-52.964844 0-29.25 23.710938-52.964843 52.964844-52.964843 29.25 0 52.964844 23.714843 52.964844 52.964843zm0 0" fill="#e64c3c"/><path d="m291.339844 114.820312c0 19.5-15.808594 35.3125-35.308594 35.3125s-35.3125-15.8125-35.3125-35.3125 15.8125-35.308593 35.3125-35.308593 35.308594 15.808593 35.308594 35.308593zm0 0" fill="#2c2f38"/><path d="m256.03125 88.335938c0 14.628906-11.855469 26.484374-26.484375 26.484374-14.625 0-26.480469-11.855468-26.480469-26.484374 0-14.625 11.855469-26.480469 26.480469-26.480469 14.628906 0 26.484375 11.855469 26.484375 26.480469zm0 0" fill="#fff"/></svg>