<svg height="503pt" viewBox="0 -1 503.2043 503" width="503pt" xmlns="http://www.w3.org/2000/svg"><path d="m502.777344 364.261719c-.097656 1.464843-.921875 2.785156-2.191406 3.515625-1.273438.734375-2.828126.78125-4.144532.128906l-11.800781-5.902344-11.628906-5.8125c-1.242188-.648437-2.722657-.644531-3.953125.015625-1.234375.660157-2.0625 1.890625-2.210938 3.28125-.085937.867188-.257812 1.648438-.34375 2.515625-9.894531 66.039063-54.238281 110.46875-70.8125 125.050782-1.09375.980468-2.613281 1.328124-4.023437.921874-1.414063-.402343-2.515625-1.507812-2.921875-2.917968-.644532-2.101563-1.546875-4.113282-2.6875-5.988282-4.800782-7.167968-10.890625-13.375-17.964844-18.3125-1.035156-.792968-2.367188-1.085937-3.640625-.800781-1.273437.285157-2.355469 1.117188-2.953125 2.277344-.871094 1.941406-1.917969 3.800781-3.125 5.554687-22.042969 33.496094-86.953125 34.277344-109.082031 33.496094h-.171875c-.785156.019532-1.566406-.011718-2.34375-.085937-1.175782-.050781-2.277344-.578125-3.046875-1.464844-.773438-.886719-1.144531-2.050781-1.03125-3.222656 2.949219-26.46875-33.066407-29.851563-42.089844-30.199219-1.308594-.085938-2.582031.425781-3.472656 1.390625-.085938.171875-.257813.257813-.347657.433594-6.710937 7.175781-7.878906 17.925781-2.863281 26.378906.667969 1.359375.578125 2.96875-.238281 4.246094-.816406 1.277343-2.238281 2.035156-3.753906 2.003906-5.292969-.175781-10.324219-.523437-15.183594-1.128906-91.8125-9.980469-110.730469-77.929688-114.289062-97.539063-.257813-1.34375-1.136719-2.484375-2.363282-3.082031-1.230468-.601563-2.671875-.582031-3.886718.042969-4.085938 2.027344-7.765626 4.792968-10.847657 8.15625-2.59375 2.914062-4.703125 6.226562-6.246093 9.808594-.773438 1.675781-2.519532 2.683593-4.355469 2.507812-1.839844-.175781-3.363281-1.496094-3.800781-3.289062-.871094-3.472657-1.5625-7.03125-2.171876-10.589844-9.632812-55.972656 7.8125-122.097656 13.710938-141.796875.398438-1.417969.058594-2.9375-.898438-4.054688-.960937-1.113281-2.414062-1.679687-3.875-1.5-4.578124.582031-9.082031 1.628907-13.449218 3.125-5.5 1.910157-10.722656 4.535157-15.535156 7.8125-1.441407.957031-3.3125.96875-4.765626.027344-1.453124-.945313-2.207031-2.660156-1.914062-4.367187.085938-.695313.171875-1.300782.257812-1.996094 7.125-53.828125 36.777344-102.09375 81.574219-132.773438 1.089844-.691406 1.804688-1.847656 1.9375-3.128906.136719-1.285156-.320312-2.5625-1.242187-3.464844-7.550782-7.378906-21.957032-7.117187-31.328125-5.988281h-.519531c-.429688-.101563-.863282-.160156-1.304688-.175781-1.308594-.382813-2.363281-1.363282-2.84375-2.644532-.476562-1.28125-.324219-2.710937.414062-3.863281 9.664063-15.882812 26.066407-26.464843 44.519532-28.722656 2.851562-.339844 5.71875-.511719 8.589844-.523437 4.777343-.011719 9.539062.421874 14.234374 1.304687 1.445313.277344 2.929688-.207031 3.933594-1.28125s1.386719-2.589844 1.011719-4.011719c-4.042969-10.53125-10.019531-20.214844-17.617187-28.550781-.898438-1.019531-1.222657-2.421875-.867188-3.734375.554688-2.285156 2.808594-3.738281 5.121094-3.296875 7.507812 1.390625 14.84375 3.601563 21.867187 6.597656 4.601563 1.992188 8.589844 3.988281 11.714844 5.640625 1.320313.722656 2.917969.710938 4.226563-.03125 1.308593-.746094 2.140624-2.113281 2.195312-3.617187.117188-17.609375 9.171875-33.953125 24.039062-43.386719 3.925782-2.625 8.078126-4.890625 12.410157-6.769531 1.429687-.640625 3.097656-.4570315 4.355469.476562 1.261718.9375 1.917968 2.480469 1.71875 4.035157-1.53125 8.652343-.996094 17.542968 1.5625 25.949218.988281 2.6875 2.523437 5.136719 4.511718 7.199219.855469.84375 2.023438 1.296875 3.222656 1.246094 1.203126-.046875 2.328126-.59375 3.113282-1.503907 6.160156-7.203124 25.339844-24.644531 68.121094-26.730468h.519531c12.410156-.5625 24.839843.015625 37.140625 1.738281 1.796875.21875 3.265625 1.527344 3.691406 3.285156.425781 1.757813-.285156 3.59375-1.78125 4.609375-7.949219 4.984375-14.5625 11.839844-19.265625 19.960938-.734375 1.195312-.734375 2.707031 0 3.90625.875 1.816406 2.910156 2.761718 4.859375 2.253906 4.988281-1.207031 10.070312-1.992188 15.1875-2.34375 28.378906-2.429688 78.710938 4.859375 133.378906 65.867188 1.167969 1.257812 1.484375 3.082031.808594 4.660156s-2.214844 2.605468-3.929688 2.628906c-9.742187-.105469-18.601562 5.640625-22.476562 14.578125-1.09375 2.117187-.328125 4.714844 1.734375 5.902344 12.582031 6.683593 56.496094 34.539062 72.984375 103.09375.332031 1.53125-.183594 3.121093-1.351562 4.164062-1.167969 1.042969-2.808594 1.375-4.289063.871094-4.128906-1.371094-8.328125-2.5-12.585937-3.386719-3.210938-.605468-6.679688-1.214844-10.414063-1.648437-1.835937-.191407-3.601563.777343-4.425781 2.429687-.878906 1.667969-.558594 3.710938.78125 5.035156 30.699218 30.265626 46.507812 72.519532 43.21875 115.503907zm0 0" fill="#894b9d"/><path d="m484.640625 362.003906-11.628906-5.8125c-1.242188-.648437-2.722657-.644531-3.953125.015625-1.234375.660157-2.0625 1.890625-2.210938 3.28125-.085937.867188-.257812 1.648438-.34375 2.515625l-11.71875-5.8125c-1.238281-.628906-2.710937-.609375-3.9375.046875-1.226562.65625-2.054687 1.867188-2.222656 3.25-7.296875 45.601563-29.265625 87.585938-62.566406 119.582031-4.800782-7.167968-10.890625-13.375-17.964844-18.3125-1.035156-.792968-2.367188-1.085937-3.640625-.800781-1.273437.285157-2.355469 1.117188-2.953125 2.277344-.871094 1.941406-1.917969 3.800781-3.125 5.554687-2.675781-2.527343-5.519531-4.875-8.503906-7.03125-1.023438-.785156-2.34375-1.074218-3.601563-.789062-1.257812.285156-2.324219 1.117188-2.90625 2.265625-14.667969 31.414063-63.523437 38.097656-94.070312 39.050781h-.171875c-.785156.019532-1.566406-.011718-2.34375-.085937-1.175782-.050781-2.277344-.578125-3.046875-1.464844-.773438-.886719-1.144531-2.050781-1.03125-3.222656 2.949219-26.46875-33.066407-29.851563-42.089844-30.199219-1.308594-.085938-2.582031.425781-3.472656 1.390625-.085938.171875-.257813.257813-.347657.433594-4.738281-1.019531-9.558593-1.628907-14.402343-1.824219-1.308594-.085938-2.585938.425781-3.472657 1.390625-7.039062 7.167969-8.355468 18.183594-3.210937 26.8125.960937 1.714844.558594 3.871094-.953125 5.121094-91.8125-9.980469-110.730469-77.929688-114.289062-97.539063-.257813-1.34375-1.136719-2.484375-2.363282-3.082031-1.230468-.601563-2.671875-.582031-3.886718.042969-4.085938 2.027344-7.765626 4.792968-10.847657 8.15625-.519531-1.90625-.867187-3.644532-1.125-5.117188-.261719-1.34375-1.136719-2.484375-2.367187-3.082031-1.226563-.601563-2.667969-.582031-3.882813.042969-3.402343 1.6875-6.507812 3.914062-9.199219 6.59375-9.632812-55.972656 7.8125-122.097656 13.710938-141.796875.398438-1.417969.058594-2.9375-.898438-4.054688-.960937-1.113281-2.414062-1.679687-3.875-1.5-4.578124.582031-9.082031 1.628907-13.449218 3.125-.621094-2.0625-2.632813-3.378906-4.773438-3.125-5.910156.734375-11.695312 2.28125-17.183594 4.601563 7.125-53.828125 36.777344-102.09375 81.574219-132.773438 1.089844-.691406 1.804688-1.847656 1.9375-3.128906.136719-1.285156-.320312-2.5625-1.242187-3.464844-7.550782-7.378906-21.957032-7.117187-31.328125-5.988281h-.519531c-.429688-.101563-.863282-.160156-1.304688-.175781-1.308594-.382813-2.363281-1.363282-2.84375-2.644532-.476562-1.28125-.324219-2.710937.414062-3.863281 9.664063-15.882812 26.066407-26.464843 44.519532-28.722656 1.734375.257813 3.296875.519531 4.597656.78125 1.46875.273437 2.972656-.21875 3.992188-1.304687 4.777343-.011719 9.539062.421874 14.234374 1.304687 1.445313.277344 2.929688-.207031 3.933594-1.28125s1.386719-2.589844 1.011719-4.011719c-4.042969-10.53125-10.019531-20.214844-17.617187-28.550781-.898438-1.019531-1.222657-2.421875-.867188-3.734375 7.097656 2.386719 13.980469 5.378906 20.566406 8.941406 1.308594.738282 2.90625.734375 4.207032-.015625 1.304687-.75 2.113281-2.128906 2.128906-3.632812-.011719-.664063.015625-1.332031.085937-1.992188 4.601563 1.992188 8.589844 3.988281 11.714844 5.640625 1.320313.722656 2.917969.710938 4.226563-.03125 1.308593-.746094 2.140624-2.113281 2.195312-3.617187.117188-17.609375 9.171875-33.953125 24.039062-43.386719-1.042968 9.542969-1.128906 23.601562 6.335938 30.890625.875.839844 2.054688 1.285156 3.265625 1.238281 1.210937-.050781 2.351563-.589844 3.15625-1.496094 2.203125-2.542968 4.640625-4.867187 7.289063-6.941406.988281 2.6875 2.523437 5.136719 4.511718 7.199219.855469.84375 2.023438 1.296875 3.222656 1.246094 1.203126-.046875 2.328126-.59375 3.113282-1.503907 6.160156-7.203124 25.339844-24.644531 68.121094-26.730468h.519531c5.902343.261718 12.238281.871094 18.917969 1.738281 1.796874.21875 3.265624 1.527344 3.691406 3.285156.425781 1.757813-.285156 3.59375-1.78125 4.609375-7.933594 5.011719-14.539063 11.855469-19.265625 19.960938-.796875 1.5-.632813 3.332031.421875 4.664062 1.050781 1.335938 2.792968 1.921875 4.4375 1.496094 4.398437-1.0625 8.863281-1.816406 13.363281-2.253906.875 1.816406 2.910156 2.761718 4.859375 2.253906 4.988281-1.207031 10.070312-1.992188 15.1875-2.34375 29.246094 2.257812 70.8125 16.402344 115.15625 65.867188 1.167969 1.257812 1.484375 3.082031.808594 4.660156-.675782 1.578125-2.21875 2.605468-3.933594 2.628906-9.726562-.0625-18.5625 5.667969-22.472656 14.578125-1.019532 2.144531-.226563 4.707031 1.820312 5.902344 12.582032 6.683593 56.40625 34.539062 72.894532 103.09375.175781.535156.175781 1.113281 0 1.648437-3.210938-.605468-6.679688-1.214844-10.414063-1.648437-1.835937-.191407-3.601563.777343-4.425781 2.429687-4.546875-1.082031-9.152344-1.894531-13.796875-2.429687-1.851563-.207031-3.636719.773437-4.453125 2.445312-.820313 1.675781-.496094 3.683594.808594 5.019531 30.140624 29.703126 45.9375 71.007813 43.304687 113.246094zm0 0" fill="#955ba5"/><path d="m250.59375 223.242188c0 47.929687-38.851562 86.78125-86.777344 86.78125-2.867187 0-5.730468-.175782-8.507812-.433594h-.34375c-44.347656-4.453125-78.113282-41.777344-78.113282-86.347656 0-44.570313 33.765626-81.894532 78.113282-86.34375h.34375c2.777344-.261719 5.640625-.433594 8.507812-.433594 23.015625 0 45.085938 9.140625 61.359375 25.414062 16.277344 16.277344 25.417969 38.347656 25.417969 61.363282zm0 0" fill="#e6e7e8"/><path d="m233.238281 223.242188c.011719 44.507812-33.652343 81.808593-77.929687 86.347656h-.34375c-44.347656-4.453125-78.113282-41.777344-78.113282-86.347656 0-44.570313 33.765626-81.894532 78.113282-86.34375h.34375c44.277344 4.539062 77.941406 41.839843 77.929687 86.34375zm0 0" fill="#fff"/><path d="m424.152344 223.242188c0 47.929687-38.851563 86.78125-86.777344 86.78125-2.863281 0-5.726562-.175782-8.503906-.433594h-.347656c-44.347657-4.453125-78.113282-41.777344-78.113282-86.347656 0-44.570313 33.765625-81.894532 78.113282-86.34375h.347656c2.777344-.261719 5.640625-.433594 8.503906-.433594 23.015625 0 45.085938 9.140625 61.363281 25.414062 16.273438 16.277344 25.414063 38.347656 25.414063 61.363282zm0 0" fill="#e6e7e8"/><path d="m406.796875 223.242188c.011719 44.507812-33.652344 81.808593-77.925781 86.347656h-.347656c-44.347657-4.453125-78.113282-41.777344-78.113282-86.347656 0-44.570313 33.765625-81.894532 78.113282-86.34375h.347656c44.273437 4.539062 77.9375 41.839843 77.925781 86.34375zm0 0" fill="#fff"/><path d="m215.882812 223.242188c0 28.757812-23.3125 52.070312-52.066406 52.070312-28.757812 0-52.070312-23.3125-52.070312-52.070312 0-28.753907 23.3125-52.066407 52.070312-52.066407 28.753906 0 52.066406 23.3125 52.066406 52.066407zm0 0" fill="#4fba6f"/><path d="m389.441406 223.242188c0 28.757812-23.3125 52.070312-52.066406 52.070312-28.757812 0-52.070312-23.3125-52.070312-52.070312 0-28.753907 23.3125-52.066407 52.070312-52.066407 28.753906 0 52.066406 23.3125 52.066406 52.066407zm0 0" fill="#4fba6f"/><path d="m189.847656 223.242188c0 14.378906-11.65625 26.035156-26.03125 26.035156-14.378906 0-26.035156-11.65625-26.035156-26.035156 0-14.378907 11.65625-26.03125 26.035156-26.03125 14.375 0 26.03125 11.652343 26.03125 26.03125zm0 0" fill="#2c2f38"/><path d="m363.40625 223.242188c0 14.378906-11.652344 26.035156-26.03125 26.035156s-26.035156-11.65625-26.035156-26.035156c0-14.378907 11.65625-26.03125 26.035156-26.03125s26.03125 11.652343 26.03125 26.03125zm0 0" fill="#2c2f38"/><path d="m389.441406 396.800781s-17.355468 43.390625-138.847656 43.390625-138.847656-43.390625-138.847656-43.390625 17.617187-41.132812 86.78125-55.625c17.125-3.546875 34.578125-5.265625 52.066406-5.117187 17.488281-.148438 34.945312 1.570312 52.070312 5.117187 69.160157 14.492188 86.777344 55.625 86.777344 55.625zm0 0" fill="#802d40"/><path d="m250.59375 336.058594v17.355468c0 14.375-11.65625 26.03125-26.035156 26.03125-14.375 0-26.03125-11.65625-26.03125-26.03125v-12.238281c2.777344-.605469 5.640625-1.128906 8.675781-1.648437 11.476563-1.941406 23.078125-3.042969 34.714844-3.296875 2.863281-.171875 5.726562-.171875 8.675781-.171875zm0 0" fill="#f9eab0"/><path d="m241.917969 336.230469v11.976562c0 17.269531-7.726563 31.238281-17.359375 31.238281-9.628906 0-17.355469-13.96875-17.355469-31.238281v-8.679687c11.476563-1.941406 23.078125-3.042969 34.714844-3.296875zm0 0" fill="#f5efca"/><path d="m302.664062 341.175781v12.238281c0 14.375-11.65625 26.03125-26.035156 26.03125s-26.035156-11.65625-26.035156-26.03125v-17.355468c2.949219 0 5.816406 0 8.679688.171875 11.632812.253906 23.234374 1.355469 34.710937 3.296875 3.039063.519531 5.902344 1.042968 8.679687 1.648437zm0 0" fill="#f9eab0"/><path d="m293.984375 339.527344v8.679687c0 17.269531-7.722656 31.238281-17.355469 31.238281-9.632812 0-17.355468-13.96875-17.355468-31.238281v-11.976562c11.632812.253906 23.234374 1.355469 34.710937 3.296875zm0 0" fill="#f5efca"/><path d="m331.820312 431.429688c-26.601562 6.3125-53.890624 9.257812-81.226562 8.761718-27.335938.496094-54.625-2.449218-81.226562-8.761718 23.347656-17.613282 51.992187-26.765626 81.226562-25.949219 29.234375-.816407 57.878906 8.335937 81.226562 25.949219zm0 0" fill="#ff5364"/><g fill="#fff"><path d="m163.816406 188.53125c0 14.378906-11.65625 26.035156-26.035156 26.035156s-26.035156-11.65625-26.035156-26.035156 11.65625-26.035156 26.035156-26.035156 26.035156 11.65625 26.035156 26.035156zm0 0"/><path d="m337.375 188.53125c0 14.378906-11.65625 26.035156-26.035156 26.035156s-26.035156-11.65625-26.035156-26.035156 11.65625-26.035156 26.035156-26.035156 26.035156 11.65625 26.035156 26.035156zm0 0"/></g></svg>