<svg height="512pt" viewBox="0 0 512 512.27619" width="512pt" xmlns="http://www.w3.org/2000/svg"><path d="m79.585938 291.308594c-.175782-3.351563-79.449219 70.710937-79.449219 67.355468v-190.941406c0-92.628906 75.09375-167.722656 167.726562-167.722656h176.550781c92.632813 0 167.722657 75.09375 167.722657 167.722656v190.941406c0 3.355469-79.269531-70.707031-79.445313-67.355468zm0 0" fill="#9fc9d3"/><path d="m353.242188 366.785156c1.28125 15.308594 4.851562 30.332032 10.59375 44.582032-3.894532 2.832031-6.898438 6.722656-8.652344 11.210937-10.570313-20.023437-17.136719-41.910156-19.332032-64.441406 57.46875-20.214844 96.839844-65.148438 96.839844-137.445313-1.328125-58.59375-22.703125-114.957031-60.558594-159.691406 7.304688 3.933594 14.351563 8.324219 21.097657 13.152344 35.617187 44.003906 55.613281 98.589844 56.851562 155.1875 0 72.296875-39.371093 117.230468-96.839843 137.445312zm0 0" fill="#ff5364"/><path d="m511.875 368.816406c-2.371094 46.277344-19.613281 90.550782-49.171875 126.234375-4.207031 5.726563-9.597656 10.480469-15.800781 13.949219-7.503906 3.242188-15.824219 4.105469-23.835938 2.46875-1.007812-.152344-2.011718-.359375-3-.617188-20.390625-4.5-27.808594-20.214843-37.253906-37.871093-2.558594-4.855469-5.296875-9.621094-8.03125-14.386719 1.632812.28125 3.285156.429688 4.941406.441406 14.628906 0 26.484375-11.855468 26.484375-26.484375 0-10.03125-5.667969-19.199219-14.640625-23.6875-8.96875-4.484375-19.707031-3.515625-27.730468 2.503907-5.742188-14.25-9.3125-29.273438-10.59375-44.582032 57.46875-20.214844 96.839843-65.148437 96.839843-137.445312-1.238281-56.597656-21.234375-111.183594-56.851562-155.1875 51.730469 37.429687 115.375 120.761718 118.644531 294.664062zm0 0" fill="#fb7b76"/><path d="m176.425781 358.136719c-2.195312 22.53125-8.761719 44.417969-19.332031 64.441406-1.757812-4.488281-4.757812-8.378906-8.652344-11.210937 5.738282-14.25 9.308594-29.273438 10.59375-44.582032-57.46875-20.214844-96.839844-65.148437-96.839844-137.445312 1.238282-56.597656 21.234376-111.183594 56.851563-155.1875 6.746094-4.828125 13.792969-9.21875 21.097656-13.152344-37.859375 44.734375-59.234375 101.097656-60.558593 159.691406 0 72.296875 39.371093 117.230469 96.839843 137.445313zm0 0" fill="#ff5364"/><path d="m112.867188 414.898438c-4.386719 4.828124-6.8125 11.125-6.796876 17.652343 0 14.628907 11.855469 26.484375 26.480469 26.484375 1.660157-.011718 3.3125-.160156 4.945313-.441406-2.738282 4.765625-5.472656 9.53125-8.035156 14.386719-9.445313 17.65625-16.859376 33.371093-37.25 37.871093-.992188.257813-1.992188.464844-3.003907.617188-8.007812 1.636719-16.328125.773438-23.832031-2.46875-6.203125-3.46875-11.59375-8.222656-15.800781-13.949219-29.558594-35.683593-46.804688-79.957031-49.171875-126.234375 3.265625-173.902344 66.914062-257.234375 118.644531-294.664062-35.617187 44.003906-55.613281 98.589844-56.851563 155.1875 0 72.296875 39.371094 117.230468 96.839844 137.445312-1.285156 15.308594-4.855468 30.332032-10.59375 44.582032-10.972656-8.25-26.4375-6.714844-35.574218 3.53125zm0 0" fill="#fb7b76"/><path d="m432.691406 220.691406c0 72.296875-39.371094 117.230469-96.839844 137.445313-25.667968 8.683593-52.621093 12.949219-79.714843 12.621093-27.09375.328126-54.046875-3.9375-79.710938-12.621093-37.6875-11.714844-68.5625-38.992188-84.832031-74.949219-8.257812-19.785156-12.34375-41.0625-12.007812-62.496094 1.324218-58.59375 22.699218-114.957031 60.558593-159.691406h231.988281c10.054688 11.851562 18.980469 24.617188 26.660157 38.132812.046875.046876.078125.109376.085937.175782 21.40625 36.929687 33.042969 78.703125 33.8125 121.382812zm0 0" fill="#84b5cb"/><path d="m423.863281 203.828125c0 72.296875-39.371093 117.230469-96.839843 137.445313-25.667969 8.683593-52.621094 12.953124-79.714844 12.625-27.089844.328124-54.042969-3.941407-79.710938-12.625-31.289062-9.992188-58.148437-30.519532-76.003906-58.085938-8.257812-19.785156-12.34375-41.0625-12.007812-62.496094 1.324218-58.59375 22.699218-114.957031 60.558593-159.691406h231.988281c10.054688 11.851562 18.980469 24.617188 26.660157 38.132812.046875.046876.078125.109376.085937.175782 15.921875 32.578125 24.453125 68.265625 24.984375 104.519531zm0 0" fill="#9fc9d3"/><path d="m203.171875 282.484375h52.964844v17.652344c0 9.75-7.902344 17.65625-17.652344 17.65625h-17.65625c-9.75 0-17.65625-7.90625-17.65625-17.65625zm0 0" fill="#f9eab0"/><path d="m212 282.484375h35.308594v17.652344c0 9.75-7.902344 17.65625-17.652344 17.65625s-17.65625-7.90625-17.65625-17.65625zm0 0" fill="#f5efca"/><path d="m256.136719 282.484375h52.96875v17.652344c0 9.75-7.90625 17.65625-17.65625 17.65625h-17.65625c-9.75 0-17.65625-7.90625-17.65625-17.65625zm0 0" fill="#f9eab0"/><path d="m264.964844 282.484375h35.3125v17.652344c0 9.75-7.90625 17.65625-17.65625 17.65625s-17.65625-7.90625-17.65625-17.65625zm0 0" fill="#f5efca"/><path d="m256.136719 158.898438c.042969 26.984374-17.492188 50.851562-43.253907 58.878906-1.175781.445312-2.386718.800781-3.621093 1.058594-10.4375-4.820313-21.277344-8.71875-32.394531-11.652344-8.808594-2.382813-17.777344-4.125-26.835938-5.207032v-.089843c-17.253906-17.8125-22.1875-44.21875-12.527344-67.058594 9.660156-22.84375 32.039063-37.695313 56.839844-37.726563 34.128906 0 61.792969 27.667969 61.792969 61.796876zm0 0" fill="#e6e7e8"/><path d="m238.484375 167.722656c.039063 19.839844-9.492187 38.476563-25.601563 50.054688-1.175781.445312-2.386718.800781-3.621093 1.058594-10.4375-4.820313-21.277344-8.71875-32.394531-11.652344-8.808594-2.382813-17.777344-4.125-26.835938-5.207032v-.089843c-12.5625-12.890625-18.859375-30.632813-17.230469-48.5625 1.632813-17.925781 11.023438-34.242188 25.703125-44.65625 18.746094-5.773438 39.113282-2.304688 54.890625 9.347656 15.777344 11.648437 25.089844 30.097656 25.089844 49.707031zm0 0" fill="#fff"/><path d="m379.722656 158.898438c.066406 16.097656-6.214844 31.574218-17.476562 43.078124-3.796875.441407-7.769532 1.058594-11.828125 1.765626-4.855469.96875-9.886719 2.117187-15.007813 3.441406-11.117187 2.933594-21.957031 6.832031-32.398437 11.652344-23.40625-5.789063-41.296875-24.683594-45.792969-48.375-4.5-23.6875 5.21875-47.828126 24.871094-61.792969 10.414062-7.566407 22.96875-11.617188 35.839844-11.566407 16.390624 0 32.105468 6.511719 43.695312 18.101563 11.589844 11.585937 18.097656 27.304687 18.097656 43.695313zm0 0" fill="#e6e7e8"/><path d="m362.070312 167.722656c.0625 12.945313-4.019531 25.566406-11.652343 36.019532-4.855469.96875-9.886719 2.117187-15.007813 3.441406-11.117187 2.933594-21.957031 6.832031-32.398437 11.652344-23.40625-5.789063-41.296875-24.683594-45.792969-48.375-4.5-23.6875 5.21875-47.828126 24.871094-61.792969 18.746094-5.773438 39.117187-2.304688 54.890625 9.347656 15.777343 11.648437 25.089843 30.097656 25.089843 49.707031zm0 0" fill="#fff"/><path d="m229.65625 158.898438c0 19.5-15.808594 35.308593-35.3125 35.308593-19.5 0-35.308594-15.808593-35.308594-35.308593 0-19.503907 15.808594-35.3125 35.308594-35.3125 19.503906 0 35.3125 15.808593 35.3125 35.3125zm0 0" fill="#71c285"/><path d="m353.242188 158.898438c0 19.5-15.808594 35.308593-35.3125 35.308593-19.5 0-35.308594-15.808593-35.308594-35.308593 0-19.503907 15.808594-35.3125 35.308594-35.3125 19.503906 0 35.3125 15.808593 35.3125 35.3125zm0 0" fill="#71c285"/><path d="m212 158.898438c0 9.75-7.90625 17.652343-17.65625 17.652343s-17.652344-7.902343-17.652344-17.652343c0-9.753907 7.902344-17.65625 17.652344-17.65625s17.65625 7.902343 17.65625 17.65625zm0 0" fill="#2c2f38"/><path d="m335.585938 158.898438c0 9.75-7.902344 17.652343-17.65625 17.652343-9.75 0-17.652344-7.902343-17.652344-17.652343 0-9.753907 7.902344-17.65625 17.652344-17.65625 9.753906 0 17.65625 7.902343 17.65625 17.65625zm0 0" fill="#2c2f38"/><path d="m326.757812 291.308594h-141.242187c-19.5 0-35.308594-15.808594-35.308594-35.308594 0-4.875 3.953125-8.828125 8.828125-8.828125s8.828125 3.953125 8.828125 8.828125c0 9.75 7.902344 17.65625 17.652344 17.65625h141.242187c9.75 0 17.65625-7.90625 17.65625-17.65625 0-4.875 3.953126-8.828125 8.828126-8.828125s8.828124 3.953125 8.828124 8.828125c0 19.5-15.808593 35.308594-35.3125 35.308594zm0 0" fill="#802d40"/><g fill="#fff"><path d="m194.34375 141.242188c0 9.75-7.902344 17.65625-17.652344 17.65625-9.753906 0-17.65625-7.90625-17.65625-17.65625s7.902344-17.65625 17.65625-17.65625c9.75 0 17.652344 7.90625 17.652344 17.65625zm0 0"/><path d="m317.929688 141.242188c0 9.75-7.902344 17.65625-17.652344 17.65625-9.753906 0-17.65625-7.90625-17.65625-17.65625s7.902344-17.65625 17.65625-17.65625c9.75 0 17.652344 7.90625 17.652344 17.65625zm0 0"/></g></svg>