<svg height="512pt" viewBox="0 0 512 512.0001" width="512pt" xmlns="http://www.w3.org/2000/svg"><path d="m485.5 188.027344v244.523437c0 43.878907-35.570312 79.449219-79.445312 79.449219h-300.140626c-43.875 0-79.445312-35.570312-79.445312-79.449219v-244.523437l197.472656-108.578125h64.085938zm0 0" fill="#c03a2b"/><path d="m467.847656 188.027344v244.523437c0 43.878907-35.570312 79.449219-79.449218 79.449219h-282.484376c-43.875 0-79.445312-35.570312-79.445312-79.449219v-244.523437l197.472656-108.578125h67.351563zm0 0" fill="#e64c3c"/><path d="m282.996094 125.527344c5.179687 55.585937 49.65625 99.351562 105.3125 103.636718 2.914062.265626 5.914062.351563 8.917968.351563 44.210938-.003906 84.484376-25.40625 103.539063-65.300781 19.050781-39.898438 13.492187-87.1875-14.292969-121.578125-15.519531-3.019531-31.34375-4.175781-47.140625-3.441407-47.316406 2.03125-104.164062 21.890626-156.335937 86.332032zm0 0" fill="#e6e7e8"/><path d="m282.996094 125.882812c5.179687 55.582032 49.65625 99.347657 105.3125 103.632813 42.503906-3.257813 79.703125-29.804687 96.59375-68.945313 16.894531-39.136718 10.699218-84.417968-16.085938-117.578124-9.734375-1.839844-19.585937-2.988282-29.484375-3.445313-47.316406 2.03125-104.164062 21.894531-156.335937 86.335937zm0 0" fill="#fff"/><path d="m467.847656 115.113281c0 39-31.621094 70.621094-70.621094 70.621094-39.003906 0-70.621093-31.621094-70.621093-70.621094 0-39.003906 31.617187-70.621093 70.621093-70.621093 39 0 70.621094 31.617187 70.621094 70.621093zm0 0" fill="#f0c419"/><path d="m432.535156 115.113281c0 19.5-15.808594 35.308594-35.308594 35.308594-19.503906 0-35.3125-15.808594-35.3125-35.308594 0-19.503906 15.808594-35.3125 35.3125-35.3125 19.5 0 35.308594 15.808594 35.308594 35.3125zm0 0" fill="#2c2f38"/><path d="m228.972656 125.527344c-5.179687 55.585937-49.65625 99.351562-105.3125 103.636718-2.914062.265626-5.914062.351563-8.917968.351563-44.210938-.003906-84.484376-25.40625-103.539063-65.300781-19.050781-39.898438-13.492187-87.1875 14.292969-121.578125 15.519531-3.019531 31.34375-4.175781 47.140625-3.441407 47.3125 2.03125 104.164062 21.890626 156.335937 86.332032zm0 0" fill="#e6e7e8"/><path d="m228.972656 125.527344c-5.179687 55.585937-49.65625 99.351562-105.3125 103.636718-42.503906-3.257812-79.703125-29.808593-96.59375-68.945312-16.894531-39.140625-10.699218-84.417969 16.085938-117.582031 9.734375-1.835938 19.585937-2.988281 29.484375-3.441407 47.3125 2.03125 104.164062 21.890626 156.335937 86.332032zm0 0" fill="#fff"/><path d="m185.363281 114.757812c0 39.003907-31.617187 70.621094-70.621093 70.621094-39.003907 0-70.621094-31.617187-70.621094-70.621094 0-39 31.617187-70.621093 70.621094-70.621093 39.003906 0 70.621093 31.621093 70.621093 70.621093zm0 0" fill="#f0c419"/><path d="m123.394531.351562c-30.179687 2.304688-58.199219 16.535157-77.859375 39.550782-6.730468.507812-13.421875 1.421875-20.039062 2.734375 21.75-27 54.574218-42.683594 89.246094-42.636719 2.914062 0 5.828124.0898438 8.652343.351562zm0 0" fill="#802f34"/><path d="m150.054688 114.757812c0 19.503907-15.808594 35.3125-35.3125 35.3125-19.5 0-35.308594-15.808593-35.308594-35.3125 0-19.5 15.808594-35.308593 35.308594-35.308593 19.503906 0 35.3125 15.808593 35.3125 35.308593zm0 0" fill="#2c2f38"/><path d="m141.226562 273.65625h229.515626c19.503906 0 35.3125 15.808594 35.3125 35.308594v123.585937c0 19.503907-15.808594 35.3125-35.3125 35.3125h-229.515626c-19.503906 0-35.3125-15.808593-35.3125-35.3125v-123.585937c0-19.5 15.808594-35.308594 35.3125-35.308594zm0 0" fill="#802d40"/><g fill="#f9eab0"><path d="m203.019531 273.65625h52.964844v26.480469c0 14.628906-11.855469 26.484375-26.484375 26.484375-14.625 0-26.480469-11.855469-26.480469-26.484375zm0 0"/><path d="m150.054688 273.65625h52.964843v26.480469c0 14.628906-11.859375 26.484375-26.484375 26.484375s-26.480468-11.855469-26.480468-26.484375zm0 0"/><path d="m255.984375 273.65625h52.964844v26.480469c0 14.628906-11.855469 26.484375-26.480469 26.484375-14.628906 0-26.484375-11.855469-26.484375-26.484375zm0 0"/><path d="m308.949219 273.65625h52.964843v26.480469c0 14.628906-11.855468 26.484375-26.480468 26.484375-14.628906 0-26.484375-11.855469-26.484375-26.484375zm0 0"/></g><path d="m158.96875 421.605469c-.074219-.761719-.101562-1.527344-.089844-2.296875 0-31.6875 43.433594-57.378906 97.105469-57.378906s97.101563 25.691406 97.101563 57.378906c.015624.769531-.011719 1.535156-.085938 2.296875l-97.015625 35.308593zm0 0" fill="#ff5364"/><path d="m229.5 414.898438c14.628906 0 26.484375 11.855468 26.484375 26.480468v26.484375h-52.964844v-26.484375c0-14.625 11.855469-26.480468 26.480469-26.480468zm0 0" fill="#f9eab0"/><path d="m176.535156 414.898438c14.625 0 26.484375 11.855468 26.484375 26.480468v26.484375h-52.964843v-26.484375c0-14.625 11.855468-26.480468 26.480468-26.480468zm0 0" fill="#f9eab0"/><path d="m176.535156 414.898438c9.75 0 17.65625 7.902343 17.65625 17.652343v35.3125h-35.3125v-35.3125c0-9.75 7.90625-17.652343 17.65625-17.652343zm0 0" fill="#f5efca"/><path d="m229.5 414.898438c9.753906 0 17.65625 7.902343 17.65625 17.652343v35.3125h-35.308594v-35.3125c0-9.75 7.902344-17.652343 17.652344-17.652343zm0 0" fill="#f5efca"/><path d="m282.46875 414.898438c14.625 0 26.480469 11.855468 26.480469 26.480468v26.484375h-52.964844v-26.484375c0-14.625 11.855469-26.480468 26.484375-26.480468zm0 0" fill="#f9eab0"/><path d="m282.46875 414.898438c9.75 0 17.652344 7.902343 17.652344 17.652343v35.3125h-35.308594v-35.3125c0-9.75 7.902344-17.652343 17.65625-17.652343zm0 0" fill="#f5efca"/><path d="m335.433594 414.898438c14.625 0 26.480468 11.855468 26.480468 26.480468v26.484375h-52.964843v-26.484375c0-14.625 11.855469-26.480468 26.484375-26.480468zm0 0" fill="#f9eab0"/><path d="m335.433594 414.898438c9.75 0 17.652344 7.902343 17.652344 17.652343v35.3125h-35.308594v-35.3125c0-9.75 7.90625-17.652343 17.65625-17.652343zm0 0" fill="#f5efca"/><path d="m229.5 114.757812c0 3.621094-.175781 7.238282-.527344 10.769532-52.171875-64.441406-109.023437-84.300782-156.335937-86.332032-9.039063-.484374-18.101563-.246093-27.101563.707032 19.660156-23.015625 47.679688-37.246094 77.859375-39.550782 56.433594 4.1875 101.339844 48.980469 105.664063 105.402344.324218 2.992188.472656 5.996094.441406 9.003906zm0 0" fill="#c03a2b"/><path d="m158.878906 273.65625h35.3125v35.308594c0 9.75-7.90625 17.65625-17.65625 17.65625s-17.65625-7.90625-17.65625-17.65625zm0 0" fill="#f5efca"/><path d="m211.847656 273.65625h35.308594v35.308594c0 9.75-7.902344 17.65625-17.65625 17.65625-9.75 0-17.652344-7.90625-17.652344-17.65625zm0 0" fill="#f5efca"/><path d="m264.8125 273.65625h35.308594v35.308594c0 9.75-7.902344 17.65625-17.652344 17.65625-9.753906 0-17.65625-7.90625-17.65625-17.65625zm0 0" fill="#f5efca"/><path d="m317.777344 273.65625h35.308594v35.308594c0 9.75-7.902344 17.65625-17.652344 17.65625s-17.65625-7.90625-17.65625-17.65625zm0 0" fill="#f5efca"/><path d="m105.914062 79.449219c0 14.625-11.855468 26.480469-26.480468 26.480469-14.628906 0-26.484375-11.855469-26.484375-26.480469s11.855469-26.484375 26.484375-26.484375c14.625 0 26.480468 11.859375 26.480468 26.484375zm0 0" fill="#fff"/><path d="m379.570312 88.277344c0 14.625-11.855468 26.480468-26.484374 26.480468-14.625 0-26.480469-11.855468-26.480469-26.480468 0-14.628906 11.855469-26.484375 26.480469-26.484375 14.628906 0 26.484374 11.855469 26.484374 26.484375zm0 0" fill="#fff"/><path d="m486.472656 42.992188c-52.613281-10.066407-132.324218-4.945313-203.476562 82.890624-.351563-3.53125-.527344-7.152343-.527344-10.769531.007812-48.628906 30.660156-91.96875 76.507812-108.175781 45.84375-16.207031 96.925782-1.761719 127.496094 36.054688zm0 0" fill="#c03a2b"/><path d="m388.574219.351562c30.179687 2.304688 58.199219 16.535157 77.859375 39.550782 6.726562.507812 13.421875 1.421875 20.039062 2.734375-21.75-27-54.574218-42.683594-89.246094-42.636719-2.914062 0-5.828124.0898438-8.652343.351562zm0 0" fill="#802f34"/></svg>