<svg height="512pt" viewBox="0 0 512 512" width="512pt" xmlns="http://www.w3.org/2000/svg"><path d="m512 356.28125c0 119.4375-114.582031 155.71875-256 155.71875-3 0-5.914062 0-8.828125-.089844-137.355469-1.5-247.171875-38.664062-247.171875-155.628906s109.816406-270.300781 247.171875-276.65625c2.914063-.089844 5.914063-.175781 8.828125-.175781 141.417969 0 256 157.394531 256 276.832031zm0 0" fill="#46b29d"/><path d="m494.34375 356.28125c0 116.964844-109.8125 154.128906-247.171875 155.628906-137.355469-1.5-247.171875-38.664062-247.171875-155.628906s109.816406-270.300781 247.171875-276.65625c137.359375 6.355469 247.171875 159.691406 247.171875 276.65625zm0 0" fill="#65ddb9"/><path d="m141.242188 167.722656c-.59375.003906-1.1875-.054687-1.765626-.175781-67.292968-13.523437-78.441406-77.503906-79.097656-114.511719-.039062-2.339844.847656-4.601562 2.472656-6.289062 1.628907-1.683594 3.855469-2.65625 6.199219-2.695313h.15625c4.820313 0 8.746094 3.859375 8.828125 8.675781.679688 38.675782 12.507813 86.980469 64.945313 97.519532 4.441406.902344 7.476562 5.015625 7.027343 9.523437-.449218 4.507813-4.234374 7.945313-8.765624 7.953125zm0 0" fill="#46b29d"/><path d="m370.757812 167.722656c-4.535156.007813-8.335937-3.425781-8.789062-7.9375-.457031-4.515625 2.578125-8.636718 7.023438-9.539062 52.4375-10.539063 64.265624-58.84375 64.945312-97.519532.15625-4.84375 4.136719-8.6875 8.988281-8.675781 2.339844.039063 4.570313 1.011719 6.195313 2.695313 1.625 1.6875 2.515625 3.949218 2.472656 6.289062-.628906 37.007813-11.777344 100.988282-79.070312 114.511719-.578126.121094-1.171876.179687-1.765626.175781zm0 0" fill="#46b29d"/><path d="m157.660156 194.914062c-2.039062 17.792969-11.953125 33.734376-27.011718 43.429688-9.515626 6.972656-20.621094 11.464844-32.308594 13.066406-.816406 4.425782-1.230469 8.917969-1.238282 13.417969 0 39.003906 31.621094 70.621094 70.621094 70.621094 39.003906 0 70.621094-31.617188 70.621094-70.621094s-31.617188-70.621094-70.621094-70.621094c-3.363281.007813-6.726562.246094-10.0625.707031zm0 0" fill="#fff"/><path d="m413.574219 251.320312c-11.472657-1.644531-22.363281-6.101562-31.691407-12.976562-15.03125-9.699219-24.964843-25.582031-27.101562-43.34375-3.476562-.53125-6.988281-.796875-10.503906-.792969-39.003906 0-70.621094 31.617188-70.621094 70.621094s31.617188 70.621094 70.621094 70.621094c39 0 70.621094-31.617188 70.621094-70.621094.007812-4.535156-.4375-9.058594-1.324219-13.507813zm0 0" fill="#fff"/><path d="m203.035156 264.828125c0 19.5-15.808594 35.308594-35.3125 35.308594-19.5 0-35.308594-15.808594-35.308594-35.308594s15.808594-35.3125 35.308594-35.3125c19.503906 0 35.3125 15.8125 35.3125 35.3125zm0 0" fill="#2fa8cc"/><path d="m379.585938 264.828125c0 19.5-15.808594 35.308594-35.308594 35.308594-19.503906 0-35.3125-15.808594-35.3125-35.308594s15.808594-35.3125 35.3125-35.3125c19.5 0 35.308594 15.8125 35.308594 35.3125zm0 0" fill="#2fa8cc"/><path d="m185.378906 264.828125c0 9.75-7.902344 17.65625-17.65625 17.65625-9.75 0-17.652344-7.90625-17.652344-17.65625s7.902344-17.65625 17.652344-17.65625c9.753906 0 17.65625 7.90625 17.65625 17.65625zm0 0" fill="#2c2f38"/><path d="m361.929688 264.828125c0 9.75-7.902344 17.65625-17.652344 17.65625-9.753906 0-17.65625-7.90625-17.65625-17.65625s7.902344-17.65625 17.65625-17.65625c9.75 0 17.652344 7.90625 17.652344 17.65625zm0 0" fill="#2c2f38"/><path d="m370.757812 423.722656h-229.515624c-29.242188-.027344-52.9375-23.722656-52.964844-52.964844 0-4.875 3.949218-8.828124 8.824218-8.828124 4.878907 0 8.828126 3.953124 8.828126 8.828124 0 19.503907 15.808593 35.3125 35.3125 35.3125h229.515624c19.503907 0 35.3125-15.808593 35.3125-35.3125 0-4.875 3.949219-8.828124 8.828126-8.828124 4.875 0 8.824218 3.953124 8.824218 8.828124-.027344 29.242188-23.722656 52.9375-52.964844 52.964844zm0 0" fill="#802d40"/><path d="m256 467.863281c-28.691406 0-39.644531-9.507812-41.550781-11.414062-3.457031-3.402344-3.519531-8.953125-.144531-12.4375 3.375-3.480469 8.925781-3.585938 12.433593-.238281.5.402343 8.304688 6.433593 29.261719 6.433593 21.582031 0 29.21875-6.390625 29.289062-6.453125 3.605469-3.148437 9.050782-2.902344 12.359376.554688 3.273437 3.402344 3.230468 8.792968-.097657 12.140625-1.90625 1.90625-12.859375 11.414062-41.550781 11.414062zm0 0" fill="#46b29d"/><path d="m256 114.757812c-4.875 0-8.828125-3.953124-8.828125-8.828124v-52.964844c0-4.875 3.953125-8.828125 8.828125-8.828125s8.828125 3.953125 8.828125 8.828125v52.964844c0 4.875-3.953125 8.828124-8.828125 8.828124zm0 0" fill="#46b29d"/><g fill="#ff5364"><path d="m97.101562 26.484375c0 14.625-11.855468 26.480469-26.480468 26.480469s-26.484375-11.855469-26.484375-26.480469c0-14.628906 11.859375-26.484375 26.484375-26.484375s26.480468 11.855469 26.480468 26.484375zm0 0"/><path d="m282.484375 26.484375c0 14.625-11.859375 26.480469-26.484375 26.480469s-26.484375-11.855469-26.484375-26.480469c0-14.628906 11.859375-26.484375 26.484375-26.484375s26.484375 11.855469 26.484375 26.484375zm0 0"/><path d="m467.863281 26.484375c0 14.625-11.859375 26.480469-26.484375 26.480469s-26.480468-11.855469-26.480468-26.480469c0-14.628906 11.855468-26.484375 26.480468-26.484375s26.484375 11.855469 26.484375 26.484375zm0 0"/></g><path d="m167.722656 247.171875c0 9.75-7.902344 17.65625-17.652344 17.65625-9.753906 0-17.65625-7.90625-17.65625-17.65625s7.902344-17.65625 17.65625-17.65625c9.75 0 17.652344 7.90625 17.652344 17.65625zm0 0" fill="#fff"/><path d="m344.277344 247.171875c0 9.75-7.90625 17.65625-17.65625 17.65625s-17.65625-7.90625-17.65625-17.65625 7.90625-17.65625 17.65625-17.65625 17.65625 7.90625 17.65625 17.65625zm0 0" fill="#fff"/></svg>