<svg height="512pt" viewBox="0 0 512 512" width="512pt" xmlns="http://www.w3.org/2000/svg"><path d="m493.285156 213.628906c-5.167968-4.070312-10.726562-7.621094-16.59375-10.59375 0 0 1.234375 4.941406 2.910156 13.59375 11.125 59.675782 38.578126 295.371094-223.601562 295.371094-2.914062 0-5.738281 0-8.5625-.089844h-.53125c-289.457031-6.179687-211.597656-308.875-211.597656-308.875-7.308594 3.804688-14.203125 8.359375-20.566406 13.59375-5.140626 4.03125-10.0625 8.332032-14.742188 12.886719.00390625-5.308594.328125-10.617187.972656-15.886719 3.875-27.9375 15.601563-54.203125 33.808594-75.742187l43.253906-79.273438c11.75-4.210937 23.75-7.6875 35.929688-10.414062l61.351562-21.1875 1.589844-.527344c23.929688-.914063 47.785156 3.238281 70 12.179687 3.253906 1.429688 6.308594 3.269532 9.09375 5.472657 0 0 14.390625-14.386719 62.765625-17.210938 5.03125-.265625 10.503906-.441406 16.328125-.441406l62.941406 21.714844c12.261719 2.808593 24.121094 7.140625 35.3125 12.886719l43.871094 76.800781c21.910156 25.5625 34.210938 57.96875 34.78125 91.628906-5.875-5.710937-12.125-11.019531-18.714844-15.886719zm0 0" fill="#f29c1f"/><path d="m479.601562 216.628906c-6.363281-5.234375-13.257812-9.789062-20.566406-13.59375 0 0 77.859375 302.695313-211.597656 308.875h-.53125c-289.457031-6.179687-211.597656-308.875-211.597656-308.875-7.308594 3.804688-14.203125 8.359375-20.566406 13.59375 1.675781-8.652344 2.914062-13.59375 2.914062-13.59375-5.859375 3.039063-11.441406 6.582032-16.683594 10.59375 3.875-27.9375 15.601563-54.203125 33.808594-75.742187l43.253906-79.273438c11.75-4.210937 23.75-7.6875 35.929688-10.414062l61.351562-21.1875c47.402344 3.003906 63.027344 17.125 63.027344 17.125 2.578125-2.222657 5.460938-4.066407 8.5625-5.472657 3.253906 1.429688 6.308594 3.269532 9.09375 5.472657 0 0 14.390625-14.386719 62.765625-17.210938l61.613281 21.273438c12.261719 2.808593 24.125 7.140625 35.3125 12.886719l43.871094 76.800781c18.214844 21.527343 29.914062 47.800781 33.722656 75.742187-5.167968-4.070312-10.726562-7.621094-16.59375-10.59375 0 0 1.234375 4.941406 2.910156 13.59375zm0 0" fill="#f0c419"/><g fill="#e57e25"><path d="m173.277344 108.136719c5.265625-2.105469 9.210937-6.601563 10.605468-12.101563 1.398438-5.496094.078126-11.332031-3.542968-15.695312-6.738282-7.402344-9.003906-17.84375-5.941406-27.375 9.019531-26.480469 0-52.964844-36.078126-52.964844-34.058593 0-35.921874 70.804688 9.460938 108.4375 4.953125 4.050781 11.707031 5.101562 17.65625 2.753906zm0 0"/><path d="m97.828125 147.746094c4.8125-3.277344 7.703125-8.714844 7.722656-14.542969.015625-5.824219-2.839843-11.28125-7.636719-14.585937-12.371093-7.183594-19.566406-20.789063-18.535156-35.054688 3.742188-34.71875-14.054687-64.722656-57.210937-55.3125-41.128907 8.914062-23.84375 97.585938 42.078125 131 5.792968 2.964844 12.734375 2.558594 18.140625-1.058594zm0 0"/><path d="m338.722656 108.136719c-5.265625-2.105469-9.210937-6.601563-10.605468-12.101563-1.398438-5.496094-.078126-11.332031 3.542968-15.695312 6.738282-7.402344 9.003906-17.84375 5.941406-27.375-9.019531-26.480469 0-52.964844 36.078126-52.964844 34.058593 0 35.964843 70.804688-9.460938 108.4375-4.953125 4.050781-11.707031 5.101562-17.65625 2.753906zm0 0"/><path d="m414.171875 147.746094c-4.8125-3.277344-7.703125-8.714844-7.722656-14.542969-.015625-5.824219 2.839843-11.28125 7.636719-14.585937 12.371093-7.183594 19.566406-20.789063 18.535156-35.054688-3.75-34.703125 14.074218-64.707031 57.203125-55.324219 41.128906 8.945313 23.835937 97.617188-42.082031 131.027344-5.789063 2.96875-12.734376 2.5625-18.140626-1.058594zm0 0"/></g><path d="m167.722656 273.65625c0 29.25-23.710937 52.964844-52.964844 52.964844-2.960937.007812-5.914062-.261719-8.828124-.792969-25.472657-4.285156-44.128907-26.339844-44.128907-52.171875s18.65625-47.886719 44.128907-52.171875c2.914062-.535156 5.867187-.800781 8.828124-.792969 18.808594-.050781 36.207032 9.945313 45.640626 26.214844l7.148437 22.601562c.089844 1.324219.175781 2.734376.175781 4.148438zm0 0" fill="#e6e7e8"/><path d="m450.207031 273.65625c0 29.25-23.714843 52.964844-52.964843 52.964844-2.960938.007812-5.917969-.261719-8.828126-.792969-25.484374-4.273437-44.148437-26.335937-44.136718-52.171875 0-1.414062.085937-2.824219.175781-4.148438l7.148437-22.601562c7.84375-13.5625 21.351563-22.890625 36.8125-25.421875 2.914063-.53125 5.867188-.796875 8.828126-.792969 14.046874 0 27.519531 5.578125 37.453124 15.511719 9.929688 9.933594 15.511719 23.40625 15.511719 37.453125zm0 0" fill="#e6e7e8"/><path d="m150.070312 273.65625c.007813 25.835938-18.65625 47.898438-44.140624 52.171875-25.472657-4.285156-44.128907-26.339844-44.128907-52.171875s18.65625-47.886719 44.128907-52.171875c15.460937 2.53125 28.972656 11.859375 36.8125 25.421875l7.148437 22.601562c.089844 1.324219.179687 2.734376.179687 4.148438zm0 0" fill="#fff"/><path d="m432.550781 273.65625c.011719 25.835938-18.652343 47.898438-44.136719 52.171875-25.484374-4.273437-44.148437-26.335937-44.136718-52.171875 0-1.414062.085937-2.824219.175781-4.148438l7.148437-22.601562c7.84375-13.5625 21.351563-22.890625 36.8125-25.421875 25.484376 4.269531 44.148438 26.332031 44.136719 52.171875zm0 0" fill="#fff"/><path d="m353.101562 229.515625c.066407 31.269531-14.996093 60.640625-40.429687 78.832031-4.058594-1.324218-8.386719-2.558594-12.976563-3.621094 30.589844-24.910156 43.050782-65.863281 31.519532-103.59375-11.527344-37.726562-44.753906-64.71875-84.042969-68.277343 2.914063-.265625 5.828125-.441407 8.828125-.441407 25.757812-.015624 50.464844 10.210938 68.679688 28.425782 18.210937 18.210937 28.4375 42.917968 28.421874 68.675781zm0 0" fill="#e6e7e8"/><path d="m335.449219 229.515625c.074219 29.191406-13.070313 56.84375-35.753907 75.210937-14.351562-3.125-29.003906-4.664062-43.695312-4.589843-3 0-5.914062.089843-8.828125.179687-16.242187.453125-32.34375 3.15625-47.84375 8.03125-1.589844-1.148437-3.179687-2.296875-4.679687-3.621094-30.589844-24.910156-43.046876-65.863281-31.519532-103.59375 11.53125-37.726562 44.753906-64.71875 84.042969-68.277343 50.007813 4.515625 88.304687 46.449219 88.277344 96.660156zm0 0" fill="#fff"/><path d="m308.964844 229.515625c0 29.253906-23.710938 52.96875-52.964844 52.96875s-52.964844-23.714844-52.964844-52.96875c0-29.25 23.710938-52.964844 52.964844-52.964844s52.964844 23.714844 52.964844 52.964844zm0 0" fill="#e64c3c"/><path d="m291.308594 229.515625c0 19.503906-15.808594 35.3125-35.308594 35.3125s-35.308594-15.808594-35.308594-35.3125c0-19.5 15.808594-35.308594 35.308594-35.308594s35.308594 15.808594 35.308594 35.308594zm0 0" fill="#2c2f38"/><path d="m256 423.722656c-79.722656 0-112.488281-24.546875-124.929688-39.183594l-10.070312 10.117188c-3.464844 3.34375-8.96875 3.296875-12.375-.109375s-3.453125-8.910156-.109375-12.375l10.101563-10.105469c3.476562-3.492187 8.253906-5.367187 13.179687-5.167968 4.921875.199218 9.535156 2.449218 12.71875 6.207031 8.429687 9.914062 36.160156 32.964843 111.484375 32.964843s103.054688-23.050781 111.484375-32.964843c3.183594-3.757813 7.796875-6.007813 12.714844-6.207031 4.921875-.195313 9.699219 1.675781 13.175781 5.167968l10.109375 10.105469c3.34375 3.464844 3.296875 8.96875-.109375 12.375s-8.910156 3.453125-12.375.109375l-10.105469-10.101562c-12.40625 14.621093-45.171875 39.167968-124.894531 39.167968zm0 0" fill="#802d40"/><path d="m256 467.863281c-22.738281 0-52.964844-1.835937-52.964844-17.65625-.003906-4.03125 2.730469-7.554687 6.636719-8.554687 3.90625-1.003906 7.996094.773437 9.933594 4.308594 2.082031 1.085937 10.378906 4.246093 36.394531 4.246093s34.3125-3.160156 36.394531-4.246093c1.9375-3.535157 6.027344-5.3125 9.933594-4.308594 3.90625 1 6.640625 4.523437 6.636719 8.554687 0 15.820313-30.226563 17.65625-52.964844 17.65625zm0 0" fill="#f29c1f"/><path d="m150.070312 273.65625c0 19.5-15.808593 35.308594-35.3125 35.308594-19.5 0-35.308593-15.808594-35.308593-35.308594 0-19.503906 15.808593-35.3125 35.308593-35.3125 19.503907 0 35.3125 15.808594 35.3125 35.3125zm0 0" fill="#e64c3c"/><path d="m432.550781 273.65625c0 19.5-15.808593 35.308594-35.308593 35.308594-19.503907 0-35.3125-15.808594-35.3125-35.308594 0-19.503906 15.808593-35.3125 35.3125-35.3125 19.5 0 35.308593 15.808594 35.308593 35.3125zm0 0" fill="#e64c3c"/><path d="m132.414062 273.65625c0 9.75-7.90625 17.652344-17.65625 17.652344s-17.65625-7.902344-17.65625-17.652344 7.90625-17.65625 17.65625-17.65625 17.65625 7.90625 17.65625 17.65625zm0 0" fill="#2c2f38"/><path d="m414.898438 273.65625c0 9.75-7.90625 17.652344-17.65625 17.652344s-17.65625-7.902344-17.65625-17.652344 7.90625-17.65625 17.65625-17.65625 17.65625 7.90625 17.65625 17.65625zm0 0" fill="#2c2f38"/><path d="m247.171875 194.207031c0 9.75-7.902344 17.65625-17.65625 17.65625-9.75 0-17.652344-7.90625-17.652344-17.65625s7.902344-17.65625 17.652344-17.65625c9.753906 0 17.65625 7.90625 17.65625 17.65625zm0 0" fill="#fff"/><path d="m114.757812 256c0 9.75-7.902343 17.65625-17.65625 17.65625-9.75 0-17.652343-7.90625-17.652343-17.65625s7.902343-17.65625 17.652343-17.65625c9.753907 0 17.65625 7.90625 17.65625 17.65625zm0 0" fill="#fff"/><path d="m397.242188 256c0 9.75-7.90625 17.65625-17.65625 17.65625s-17.65625-7.90625-17.65625-17.65625 7.90625-17.65625 17.65625-17.65625 17.65625 7.90625 17.65625 17.65625zm0 0" fill="#fff"/></svg>