<svg height="512pt" viewBox="0 0 512.02616 512" width="512pt" xmlns="http://www.w3.org/2000/svg"><path d="m123.597656 512.011719c-2.777344 0-5.394531-1.308594-7.058594-3.53125-15.371093-20.503907-13.402343-44.894531 5.542969-68.703125 3.035157-3.816406 8.589844-4.445313 12.40625-1.410156 3.816407 3.039062 4.445313 8.59375 1.40625 12.410156-13.867187 17.40625-15.625 33.261718-5.234375 47.113281 2.007813 2.671875 2.332032 6.253906.835938 9.242187-1.496094 2.992188-4.554688 4.878907-7.898438 4.878907zm0 0" fill="#f29c1f"/><path d="m388.769531 512.011719c-3.34375 0-6.398437-1.886719-7.894531-4.878907-1.496094-2.988281-1.171875-6.570312.835938-9.242187 10.441406-13.894531 8.632812-29.792969-5.386719-47.253906-3.050781-3.804688-2.441407-9.363281 1.359375-12.414063 3.804687-3.050781 9.359375-2.441406 12.410156 1.359375 19.148438 23.835938 21.1875 48.339844 5.738281 68.917969-1.667969 2.214844-4.285156 3.515625-7.0625 3.511719zm0 0" fill="#f29c1f"/><path d="m100.648438 421.617188c-15.714844 7.59375-30.015626 23.304687-30.015626 55.085937 0 19.5-15.808593 35.308594-35.308593 35.308594-19.503907 0-35.3125002-15.808594-35.3125002-35.308594 0-22.777344 0-84.65625 61.7070312-107.167969zm0 0" fill="#894b9d"/><path d="m450.308594 369.535156c61.703125 22.511719 61.703125 84.390625 61.703125 107.167969 0 19.5-15.808594 35.308594-35.308594 35.308594s-35.3125-15.808594-35.3125-35.308594c0-31.78125-14.300781-47.492187-30.011719-55.085937zm0 0" fill="#894b9d"/><path d="m476.703125 264.839844c0 58.53125-23.25 114.664062-64.640625 156.050781-41.386719 41.386719-97.519531 64.640625-156.050781 64.640625-2.910157 0-5.914063-.089844-8.828125-.175781-77.140625-3.074219-147.0625-46.242188-184.375-113.832031-37.316406-67.585938-36.589844-149.757813 1.910156-216.675782l20.214844-29.394531c7.371094-9.078125 15.460937-17.550781 24.1875-25.335937l35.398437-25.777344c31.242188-18.273438 66.5-28.582032 102.664063-30.011719 2.914062-.089844 5.917968-.175781 8.828125-.175781 39.1875-.035156 77.675781 10.386718 111.492187 30.1875l35.398438 25.777344c8.730468 7.785156 16.816406 16.257812 24.1875 25.335937l20.21875 29.394531c19.308594 33.4375 29.449218 71.378906 29.394531 109.992188zm0 0" fill="#894b9d"/><path d="m459.046875 264.839844c.058594 118.472656-93.480469 215.835937-211.863281 220.515625-77.140625-3.074219-147.0625-46.242188-184.375-113.832031-37.316406-67.585938-36.589844-149.757813 1.910156-216.675782l20.214844-29.394531c7.371094-9.078125 15.460937-17.550781 24.1875-25.335937l35.398437-25.777344c31.242188-18.273438 66.5-28.582032 102.664063-30.011719 36.167968 1.429687 71.425781 11.738281 102.667968 30.011719l35.398438 25.777344c8.726562 7.785156 16.816406 16.257812 24.1875 25.335937l20.214844 29.394531c19.308594 33.4375 29.449218 71.378906 29.394531 109.992188zm0 0" fill="#955ba5"/><path d="m238.359375 247.183594c.015625 17.484375-6.464844 34.347656-18.1875 47.316406-3.101563-3.554688-6.699219-6.648438-10.679687-9.179688 13.101562-20.402343 14.820312-46.097656 4.554687-68.0625-10.265625-21.964843-31.082031-37.128906-55.136719-40.164062 2.929688-.355469 5.875-.53125 8.828125-.527344 39 0 70.621094 31.617188 70.621094 70.617188zm0 0" fill="#e6e7e8"/><path d="m414.910156 247.183594c.019532 17.484375-6.464844 34.347656-18.183594 47.316406-3.101562-3.554688-6.699218-6.648438-10.683593-9.179688 13.101562-20.402343 14.820312-46.097656 4.554687-68.0625-10.265625-21.964843-31.082031-37.128906-55.136718-40.164062 2.929687-.355469 5.878906-.53125 8.828124-.527344 39.003907 0 70.621094 31.617188 70.621094 70.617188zm0 0" fill="#e6e7e8"/><path d="m220.703125 247.183594c.011719 13.527344-3.882813 26.769531-11.210937 38.136718-3.644532-2.382812-7.519532-4.394531-11.566407-6.003906-9.605469-3.804687-19.855469-5.722656-30.1875-5.648437-3.003906 0-5.914062.175781-8.828125.441406-7.359375.71875-14.582031 2.472656-21.453125 5.207031-8.496093 3.210938-16.09375 8.417969-22.15625 15.183594-2.59375-2.84375-4.925781-5.917969-6.972656-9.179688-13.101563-20.402343-14.820313-46.097656-4.554687-68.0625 10.265624-21.964843 31.082031-37.128906 55.136718-40.164062 35.320313 4.449219 61.804688 34.492188 61.792969 70.089844zm0 0" fill="#fff"/><path d="m397.253906 247.183594c.011719 13.527344-3.882812 26.769531-11.210937 38.136718-12.496094-7.84375-27-11.894531-41.753907-11.652343-3 0-5.914062.175781-8.828124.441406-16.578126 1.09375-32.140626 8.371094-43.609376 20.390625-2.59375-2.84375-4.925781-5.917969-6.972656-9.179688-13.101562-20.402343-14.820312-46.097656-4.554687-68.0625 10.265625-21.964843 31.082031-37.128906 55.136719-40.164062 35.320312 4.449219 61.804687 34.492188 61.792968 70.089844zm0 0" fill="#fff"/><g fill="#f29c1f"><path d="m145.15625 103.992188c3.609375-1.792969 6.285156-5.039063 7.355469-8.929688 1.070312-3.886719.433593-8.046875-1.75-11.433594-1.808594-2.800781-3.894531-5.925781-6.242188-9.289062-19.773437-28.6875-57.996093-74.3281252-100.367187-74.3281252-61.792969 0-52.96875 79.4492192-8.828125 70.6210932 28.601562-5.738281 57.203125 14.566407 73.796875 29.484376 2.941406 2.648437 5.507812 5.136718 7.628906 7.285156 4.304688 4.320312 10.898438 5.386718 16.347656 2.648437zm0 0"/><path d="m104.859375 153.09375c2.363281-3.339844 3.160156-7.542969 2.191406-11.515625-.972656-3.976563-3.621093-7.332031-7.257812-9.203125-4.265625-2.191406-9.316407-4.609375-14.859375-6.921875-20.742188-8.738281-48.460938-16.066406-68.324219-5.296875-35.929687 19.507812-5.738281 62.765625 17.125 43.785156 8.898437-6.65625 19.898437-9.882812 30.984375-9.09375 8.386719.273438 16.707031 1.550782 24.789062 3.804688 5.777344 1.59375 11.933594-.636719 15.351563-5.558594zm0 0"/><path d="m366.871094 103.992188c-3.613282-1.792969-6.289063-5.039063-7.359375-8.929688-1.070313-3.886719-.433594-8.046875 1.753906-11.433594 1.765625-2.800781 3.890625-5.925781 6.238281-9.289062 19.773438-28.6875 58-74.3281252 100.371094-74.3281252 61.792969 0 52.964844 79.4492192 8.828125 70.6210932-28.601563-5.738281-57.203125 14.566407-73.800781 29.484376-2.9375 2.648437-5.507813 5.136718-7.625 7.285156-4.304688 4.320312-10.898438 5.386718-16.347656 2.648437zm0 0"/><path d="m407.167969 153.09375c-2.363281-3.339844-3.164063-7.542969-2.191407-11.515625.972657-3.976563 3.621094-7.332031 7.257813-9.203125 4.265625-2.191406 9.3125-4.609375 14.855469-6.921875 20.746094-8.738281 48.464844-16.066406 68.328125-5.296875 35.925781 19.507812 5.738281 62.765625-17.125 43.785156-8.902344-6.65625-19.902344-9.882812-30.984375-9.09375-8.386719.273438-16.710938 1.550782-24.789063 3.804688-5.777343 1.59375-11.933593-.636719-15.351562-5.558594zm0 0"/></g><path d="m211.875 247.183594c.011719 12.183594-5.042969 23.824218-13.949219 32.132812-9.605469-3.804687-19.855469-5.722656-30.1875-5.648437-3.003906 0-5.914062.175781-8.828125.441406-7.359375.71875-14.582031 2.472656-21.453125 5.207031-14.648437-13.8125-18.09375-35.789062-8.371093-53.421875 9.71875-17.636719 30.144531-26.453125 49.644531-21.4375s33.136719 22.59375 33.144531 42.726563zm0 0" fill="#67b9cc"/><path d="m388.425781 247.183594c.011719 12.183594-5.039062 23.824218-13.945312 32.132812-9.609375-3.804687-19.859375-5.722656-30.191407-5.648437-3 0-5.914062.175781-8.828124.441406-7.359376.71875-14.582032 2.472656-21.449219 5.207031-14.652344-13.8125-18.097657-35.789062-8.375-53.421875 9.722656-17.636719 30.144531-26.453125 49.644531-21.4375 19.503906 5.015625 33.136719 22.59375 33.144531 42.726563zm0 0" fill="#67b9cc"/><path d="m194.21875 247.183594c0 14.628906-11.855469 26.484375-26.480469 26.484375-14.628906 0-26.484375-11.855469-26.484375-26.484375 0-14.625 11.855469-26.480469 26.484375-26.480469 14.625 0 26.480469 11.855469 26.480469 26.480469zm0 0" fill="#2c2f38"/><path d="m370.773438 247.183594c0 14.628906-11.859376 26.484375-26.484376 26.484375s-26.484374-11.855469-26.484374-26.484375c0-14.625 11.859374-26.480469 26.484374-26.480469s26.484376 11.855469 26.484376 26.480469zm0 0" fill="#2c2f38"/><path d="m150.082031 379.597656h52.964844v17.65625c0 9.75-7.902344 17.65625-17.65625 17.65625h-17.652344c-9.75 0-17.65625-7.90625-17.65625-17.65625zm0 0" fill="#f9eab0"/><path d="m158.910156 379.597656h35.308594v17.65625c0 9.75-7.902344 17.65625-17.652344 17.65625-9.753906 0-17.65625-7.90625-17.65625-17.65625zm0 0" fill="#f5efca"/><path d="m291.324219 79.460938c0 19.5-15.808594 35.3125-35.3125 35.3125-19.5 0-35.308594-15.8125-35.308594-35.3125s15.808594-35.308594 35.308594-35.308594c19.503906 0 35.3125 15.808594 35.3125 35.308594zm0 0" fill="#f29c1f"/><path d="m308.980469 379.597656h52.964843v17.65625c0 9.75-7.90625 17.65625-17.65625 17.65625h-17.65625c-9.75 0-17.652343-7.90625-17.652343-17.65625zm0 0" fill="#f9eab0"/><path d="m317.804688 379.597656h35.3125v17.65625c0 9.75-7.90625 17.65625-17.65625 17.65625s-17.65625-7.90625-17.65625-17.65625zm0 0" fill="#f5efca"/><path d="m361.945312 388.425781h-211.863281c-29.238281-.027343-52.9375-23.722656-52.964843-52.964843 0-4.875 3.953124-8.828126 8.828124-8.828126s8.828126 3.953126 8.828126 8.828126c0 19.5 15.808593 35.3125 35.308593 35.3125h211.863281c19.5 0 35.308594-15.8125 35.308594-35.3125 0-4.875 3.953125-8.828126 8.828125-8.828126s8.828125 3.953126 8.828125 8.828126c-.03125 29.242187-23.726562 52.9375-52.964844 52.964843zm0 0" fill="#802d40"/><path d="m158.910156 220.703125c0 9.75-7.90625 17.65625-17.65625 17.65625s-17.65625-7.90625-17.65625-17.65625 7.90625-17.65625 17.65625-17.65625 17.65625 7.90625 17.65625 17.65625zm0 0" fill="#fff"/><path d="m335.460938 220.703125c0 9.75-7.902344 17.65625-17.65625 17.65625-9.75 0-17.652344-7.90625-17.652344-17.65625s7.902344-17.65625 17.652344-17.65625c9.753906 0 17.65625 7.90625 17.65625 17.65625zm0 0" fill="#fff"/></svg>