<svg height="511pt" viewBox="0 0 511 511.99444" width="511pt" xmlns="http://www.w3.org/2000/svg"><path d="m257.027344 511.996094c-2.648438 0-5.296875 0-7.941406-.179688-138.429688-3.972656-248.585938-117.335937-248.585938-255.820312-.199219-63.726563 14.269531-126.640625 42.285156-183.878906 3.441406-6.710938 6.617188-12.449219 9.355469-17.039063 1.039063-1.769531 3.160156-2.59375 5.121094-1.980469 1.960937.609375 3.242187 2.492188 3.089843 4.539063-.558593 11.667969-.175781 23.355469 1.144532 34.960937.65625 6.402344 1.808594 12.75 3.445312 18.976563.605469 1.871093 2.371094 3.113281 4.335938 3.050781 1.964844-.058594 3.648437-1.410156 4.136718-3.316406 9.972657-44.429688 38.25-82.582032 77.859376-105.046875 3.53125-2.03125 7.152343-3.972657 10.945312-5.824219 1.320312-.621094 2.855469-.558594 4.117188.160156 1.265624.71875 2.101562 2.007813 2.242187 3.457032.925781 15.140624 3.441406 30.140624 7.5 44.757812 1.203125 3.875 2.890625 7.585938 5.035156 11.03125.882813 1.292969 2.386719 2.019531 3.945313 1.910156 1.5625-.109375 2.949218-1.039062 3.644531-2.4375 4.589844-9.535156 14.566406-35.664062 29.925781-50.582031 3.484375-3.511719 7.582032-6.355469 12.09375-8.386719 1.539063-.648437 3.3125-.3749998 4.582032.707032 1.269531 1.085937 1.820312 2.792968 1.421874 4.414062-2.914062 12.886719-6.09375 39.546875 11.121094 45.992188 2.761719 1.050781 5.699219 1.558593 8.652344 1.5 24.894531 0 23.480469-28.425782 20.480469-44.226563-.265625-1.148437-.441407-2.296875-.707031-3.265625-.398438-1.621094.152343-3.328125 1.421874-4.414062 1.269532-1.0820318 3.042969-1.355469 4.582032-.707032 17.566406 7.589844 30.011718 32.398438 37.25 48.375 1.941406 4.324219 3.53125 8.03125 4.769531 10.59375.695313 1.398438 2.082031 2.328125 3.640625 2.4375 1.5625.109375 3.066406-.617187 3.949219-1.910156 8.472656-12.710938 11.386719-42.105469 12.359375-53.671875.085937-.792969.085937-1.5.175781-2.117187.140625-1.449219.976563-2.738282 2.238281-3.457032 1.265625-.71875 2.800782-.78125 4.117188-.160156 38.886718 18.429688 68.859375 51.546875 83.332031 92.070312 2.195313 6.152344 4.019531 12.433594 5.472656 18.800782.488281 1.90625 2.175781 3.257812 4.140625 3.316406 1.960938.0625 3.730469-1.179688 4.335938-3.050781 3.109375-12.894531 4.710937-26.105469 4.765625-39.371094.175781-5.648437.089843-10.679687-.175781-14.566406-.152344-2.046875 1.125-3.929688 3.085937-4.539063 1.960937-.613281 4.085937.210938 5.125 1.980469 30.558594 54.441406 48.027344 115.25 51.023437 177.613281 8.207032 148.832032-105.757812 278.949219-254.855468 279.304688zm0 0" fill="#f0785a"/><path d="m249.085938 511.816406c-138.429688-3.972656-248.585938-117.335937-248.585938-255.820312-.199219-63.726563 14.269531-126.640625 42.285156-183.878906.03125 13.289062 1.597656 26.53125 4.675782 39.457031.550781 1.953125 2.359374 3.277343 4.386718 3.214843s3.75-1.496093 4.175782-3.480468c1.402343-6.351563 3.230468-12.605469 5.472656-18.710938.65625 6.402344 1.808594 12.75 3.445312 18.976563.605469 1.871093 2.371094 3.113281 4.335938 3.050781 1.964844-.058594 3.648437-1.410156 4.136718-3.316406 9.972657-44.429688 38.25-82.582032 77.859376-105.046875.972656 11.5625 3.972656 40.871093 12.359374 53.582031.898438 1.300781 2.414063 2.03125 3.992188 1.921875 1.574219-.105469 2.976562-1.039063 3.6875-2.449219 1.238281-2.472656 2.738281-6.179687 4.765625-10.503906 1.203125 3.875 2.890625 7.585938 5.035156 11.03125.882813 1.292969 2.386719 2.019531 3.945313 1.910156 1.5625-.109375 2.949218-1.039062 3.644531-2.4375 4.589844-9.535156 14.566406-35.664062 29.925781-50.582031-3 15.800781-4.414062 44.226563 20.480469 44.226563 2.980469.050781 5.945313-.460938 8.738281-1.5 2.761719 1.050781 5.699219 1.558593 8.652344 1.5 24.894531 0 23.480469-28.425782 20.480469-44.226563 15.359375 14.917969 25.246093 41.046875 29.835937 50.582031.710938 1.410156 2.113282 2.34375 3.6875 2.449219 1.578125.109375 3.09375-.621094 3.992188-1.921875 2.15625-3.46875 3.847656-7.210938 5.03125-11.121094 1.941406 4.324219 3.53125 8.03125 4.769531 10.59375.695313 1.398438 2.082031 2.328125 3.640625 2.4375 1.5625.109375 3.066406-.617187 3.949219-1.910156 8.472656-12.710938 11.386719-42.105469 12.359375-53.671875 39.601562 22.519531 67.871094 60.691406 77.859375 105.136719.425781 1.984375 2.152343 3.417968 4.175781 3.480468 2.027344.0625 3.835938-1.261718 4.386719-3.214843 1.59375-6.265625 2.742187-12.636719 3.441406-19.066407 2.195313 6.152344 4.019531 12.433594 5.472656 18.800782.488281 1.90625 2.175781 3.257812 4.140625 3.316406 1.960938.0625 3.730469-1.179688 4.335938-3.050781 3.109375-12.894531 4.710937-26.105469 4.765625-39.371094 24.484375 50.164063 38.625 104.742187 41.578125 160.488281 8.035156 145.652344-100.988282 273.386719-245.316406 279.125zm0 0" fill="#f09372"/><path d="m230.015625 211.855469c.019531 19.558593-7.214844 38.429687-20.300781 52.964843l-21.804688 17.128907c-11.476562 6.175781-24.308594 9.390625-37.34375 9.355469-2.949218.003906-5.898437-.175782-8.824218-.53125-40.066407-4.648438-70.292969-38.582032-70.292969-78.917969 0-40.332031 30.226562-74.269531 70.292969-78.917969 2.925781-.355469 5.875-.53125 8.824218-.527344 43.878906 0 79.449219 35.566406 79.449219 79.445313zm0 0" fill="#e6e7e8"/><path d="m441.878906 211.855469c0 43.878906-35.570312 79.449219-79.449218 79.449219-2.949219.003906-5.898438-.175782-8.828126-.53125-9.992187-1.035157-19.679687-4.035157-28.511718-8.824219l-21.804688-17.128907c-19.871094-22.128906-25.695312-53.511718-15.09375-81.296874 10.601563-27.789063 35.851563-47.316407 65.410156-50.585938 2.929688-.355469 5.878907-.53125 8.828126-.527344 43.878906 0 79.449218 35.566406 79.449218 79.445313zm0 0" fill="#e6e7e8"/><path d="m212.359375 211.855469c.019531 19.558593-7.214844 38.429687-20.300781 52.964843l-21.804688 17.128907c-8.832031 4.789062-18.519531 7.789062-28.511718 8.824219-40.066407-4.648438-70.292969-38.582032-70.292969-78.917969 0-40.332031 30.226562-74.269531 70.292969-78.917969 40.210937 4.46875 70.628906 38.460938 70.617187 78.917969zm0 0" fill="#fff"/><path d="m424.222656 211.855469c.007813 40.460937-30.410156 74.453125-70.621094 78.917969-9.992187-1.035157-19.679687-4.035157-28.511718-8.824219l-21.804688-17.128907c-19.871094-22.128906-25.695312-53.511718-15.09375-81.296874 10.601563-27.789063 35.851563-47.316407 65.410156-50.585938 40.210938 4.46875 70.628907 38.460938 70.621094 78.917969zm0 0" fill="#fff"/><path d="m194.707031 211.855469c0 24.378906-19.761719 44.140625-44.140625 44.140625-24.375 0-44.136718-19.761719-44.136718-44.140625 0-24.375 19.761718-44.136719 44.136718-44.136719 24.378906 0 44.140625 19.761719 44.140625 44.136719zm0 0" fill="#81ccb8"/><path d="m406.566406 211.855469c0 24.378906-19.757812 44.140625-44.136718 44.140625-24.375 0-44.136719-19.761719-44.136719-44.140625 0-24.375 19.761719-44.136719 44.136719-44.136719 24.378906 0 44.136718 19.761719 44.136718 44.136719zm0 0" fill="#81ccb8"/><path d="m177.050781 211.855469c0 14.628906-11.855469 26.484375-26.484375 26.484375-14.625 0-26.480468-11.855469-26.480468-26.484375 0-14.625 11.855468-26.480469 26.480468-26.480469 14.628906 0 26.484375 11.855469 26.484375 26.480469zm0 0" fill="#2c2f38"/><path d="m388.914062 211.855469c0 14.628906-11.859374 26.484375-26.484374 26.484375s-26.480469-11.855469-26.480469-26.484375c0-14.625 11.855469-26.480469 26.480469-26.480469s26.484374 11.855469 26.484374 26.480469zm0 0" fill="#2c2f38"/><path d="m375.9375 435.722656c-23.570312 23.394532-60.734375 40.960938-119.4375 40.960938s-95.867188-17.566406-119.4375-40.960938c39.214844-8.585937 79.292969-12.617187 119.4375-12.003906 40.140625-.613281 80.21875 3.417969 119.4375 12.003906zm0 0" fill="#ff5364"/><path d="m375.9375 435.722656c-39.21875-8.585937-79.296875-12.617187-119.4375-12.003906-40.144531-.613281-80.222656 3.417969-119.4375 12.003906-47.316406-47.050781-39.460938-117.933594-39.460938-117.933594 16.949219 16.949219 54.113282 25.773438 88.277344 30.277344 20.390625 2.824219 39.722656 4.058594 52.964844 4.589844 10.859375.441406 17.65625.441406 17.65625.441406s6.796875 0 17.65625-.441406c13.238281-.53125 32.570312-1.765625 52.964844-4.589844 34.160156-4.503906 71.324218-13.328125 88.273437-30.277344 0 0 7.859375 70.882813-39.457031 117.933594zm0 0" fill="#802d40"/><path d="m327.121094 348.066406v22.6875c-.03125 9.738282-7.917969 17.625-17.65625 17.65625h-17.65625c-9.738282-.03125-17.625-7.917968-17.652344-17.65625v-18.097656c2.734375-.089844 5.648438-.265625 8.824219-.441406 10.066406-.53125 22.335937-1.5 35.3125-3 2.914062-.355469 5.824219-.707032 8.828125-1.148438zm0 0" fill="#f9eab0"/><path d="m238.84375 352.65625v18.097656c-.027344 9.738282-7.917969 17.625-17.65625 17.65625h-17.652344c-9.738281-.03125-17.628906-7.917968-17.65625-17.65625v-22.6875c3 .441406 5.914063.792969 8.828125 1.148438 12.976563 1.5 25.246094 2.46875 35.308594 3 3.179687.175781 6.09375.351562 8.828125.441406zm0 0" fill="#f9eab0"/><path d="m230.015625 352.214844v18.539062c0 9.710938-5.296875 17.65625-11.738281 17.65625h-11.832032c-6.441406 0-11.738281-7.945312-11.738281-17.65625v-21.539062c12.976563 1.5 25.246094 2.46875 35.308594 3zm0 0" fill="#f5efca"/><path d="m318.292969 349.214844v21.539062c0 9.710938-5.296875 17.65625-11.742188 17.65625h-11.828125c-6.445312 0-11.742187-7.945312-11.742187-17.65625v-18.539062c10.066406-.53125 22.335937-1.5 35.3125-3zm0 0" fill="#f5efca"/><path d="m327.121094 274.53125c-.117188 2.59375-.8125 5.125-2.03125 7.417969-7.933594 12.523437-19.5625 22.269531-33.28125 27.894531-5.535156 2.570312-11.335938 4.523438-17.300782 5.824219-11.839843 2.824219-24.175781 2.824219-36.015624 0-5.964844-1.300781-11.765626-3.253907-17.304688-5.824219-21.097656-9.535156-35.308594-25.6875-35.308594-35.3125 0-14.300781 31.601563-8.5625 70.621094-8.5625 17.917969 0 34.339844-1.234375 46.785156-1.148438 14.652344.089844 23.835938 1.945313 23.835938 9.710938zm0 0" fill="#d75e72"/><path d="m238.84375 300.132812v13.242188c.019531.777344-.101562 1.554688-.351562 2.292969-5.964844-1.300781-11.765626-3.253907-17.304688-5.824219v-9.710938c0-4.875 3.953125-8.828124 8.828125-8.828124s8.828125 3.953124 8.828125 8.828124zm0 0" fill="#802d40"/><path d="m291.808594 300.132812v9.710938c-5.535156 2.570312-11.335938 4.523438-17.300782 5.824219-.253906-.738281-.371093-1.515625-.351562-2.292969v-13.242188c0-4.875 3.949219-8.828124 8.824219-8.828124s8.828125 3.953124 8.828125 8.828124zm0 0" fill="#802d40"/><g fill="#fff"><path d="m150.566406 185.375c0 9.75-7.902344 17.652344-17.652344 17.652344s-17.65625-7.902344-17.65625-17.652344 7.90625-17.65625 17.65625-17.65625 17.652344 7.90625 17.652344 17.65625zm0 0"/><path d="m362.429688 185.375c0 9.75-7.902344 17.652344-17.65625 17.652344-9.75 0-17.652344-7.902344-17.652344-17.652344s7.902344-17.65625 17.652344-17.65625c9.753906 0 17.65625 7.90625 17.65625 17.65625zm0 0"/></g></svg>