<svg height="512pt" viewBox="0 0 512.06364 512" width="512pt" xmlns="http://www.w3.org/2000/svg"><path d="m512.03125 229.535156c0 129.234375-114.582031 282.480469-256 282.480469-2.910156 0-5.914062-.085937-8.828125-.175781-137.355469-6.179688-247.171875-155.804688-247.171875-282.304688-.570312-29.140625 6.394531-57.9375 20.214844-83.597656l86.246094-74.417969c44.144531-18.105469 91.410156-27.371093 139.125-27.277343h3.265624c2.382813-.085938 4.765626-.085938 7.148438-.085938 51.527344-1.253906 102.75 8.214844 150.421875 27.804688h.089844l85.363281 74.0625v.089843c13.753906 25.621094 20.683594 54.347657 20.125 83.421875zm0 0" fill="#24ae5f"/><path d="m494.378906 229.535156c0 126.5-109.816406 276.125-247.175781 282.304688-137.355469-6.179688-247.171875-155.804688-247.171875-282.304688-.570312-29.140625 6.394531-57.9375 20.214844-83.597656l86.246094-74.417969c44.144531-18.105469 91.410156-27.371093 139.125-27.277343h3.265624c48.011719-.109376 95.570313 9.3125 139.917969 27.71875h.085938l85.363281 74.0625v.089843c13.753906 25.621094 20.683594 54.347657 20.128906 83.421875zm0 0" fill="#4fba6f"/><path d="m238.378906 282.5c0 43.878906-35.570312 79.449219-79.449218 79.449219-2.953126 0-5.898438-.175781-8.828126-.53125-40.066406-4.648438-70.289062-38.582031-70.289062-78.917969s30.222656-74.269531 70.289062-78.917969c2.929688-.355469 5.875-.53125 8.828126-.53125 43.878906 0 79.449218 35.570313 79.449218 79.449219zm0 0" fill="#f9eab0"/><path d="m432.585938 282.5c0 43.878906-35.570313 79.449219-79.449219 79.449219-2.953125 0-5.898438-.175781-8.828125-.53125-40.066406-4.648438-70.289063-38.582031-70.289063-78.917969s30.222657-74.269531 70.289063-78.917969c2.929687-.355469 5.875-.53125 8.828125-.53125 43.878906 0 79.449219 35.570313 79.449219 79.449219zm0 0" fill="#f9eab0"/><path d="m220.722656 282.5c0-43.585938-31.617187-78.917969-70.621094-78.917969-39.003906 0-70.621093 35.332031-70.621093 78.917969s31.617187 78.917969 70.621093 78.917969c39.003907 0 70.621094-35.332031 70.621094-78.917969zm0 0" fill="#f5efca"/><path d="m414.929688 282.5c0-43.585938-31.617188-78.917969-70.621094-78.917969s-70.621094 35.332031-70.621094 78.917969 31.617188 78.917969 70.621094 78.917969 70.621094-35.332031 70.621094-78.917969zm0 0" fill="#f5efca"/><path d="m203.066406 282.5c0-43.878906-19.761718-79.449219-44.136718-79.449219-24.378907 0-44.136719 35.570313-44.136719 79.449219s19.757812 79.449219 44.136719 79.449219c24.375 0 44.136718-35.570313 44.136718-79.449219zm0 0" fill="#f0c419"/><path d="m397.273438 282.5c0-43.878906-19.761719-79.449219-44.136719-79.449219-24.378907 0-44.140625 35.570313-44.140625 79.449219s19.761718 79.449219 44.140625 79.449219c24.375 0 44.136719-35.570313 44.136719-79.449219zm0 0" fill="#f0c419"/><path d="m155.132812 147.703125c-8.058593 18.632813-25 31.925781-45.019531 35.308594-14.742187 3.164062-29.769531 4.792969-44.84375 4.855469-8.886719.796874-17.769531-1.582032-25.070312-6.707032-8.5625-6.976562-11.125-18.097656-15.714844-27.632812-3.601563-6.972656-6.753906-14.164063-9.445313-21.539063-1.058593-2.910156-1.941406-5.914062-2.734374-9.003906-.796876-3.089844-1.324219-6.089844-1.855469-9.089844-1.949219-12.851562-1.589844-25.945312 1.058593-38.667969 1.121094-5.816406 2.777344-11.519531 4.945313-17.035156 3.457031-9.234375 8.085937-17.984375 13.769531-26.042968 6.207032-10.144532 13.265625-19.742188 21.097656-28.6875 2.179688-2.078126 5.273438-2.890626 8.191407-2.15625 2.921875.734374 5.257812 2.914062 6.199219 5.773437 5.878906 19.253906 15.441406 37.183594 28.160156 52.789063 8.144531 8.433593 17.238281 15.898437 27.097656 22.246093 10.066406 6.53125 20.480469 8.738281 27.71875 16.597657 6.496094 8.140624 9.792969 18.375 9.269531 28.777343.390625 6.855469-.566406 13.726563-2.824219 20.214844zm0 0" fill="#fdd7ad"/><path d="m501.617188 113.804688c-.582032 4.230468-1.4375 8.417968-2.5625 12.535156-.527344 1.855468-1.058594 3.707031-1.675782 5.5625-3.152344 8.988281-7.050781 17.699218-11.652344 26.039062-4.855468 9.003906-7.855468 19.511719-16.859374 25.335938-6.414063 3.554687-13.6875 5.265625-21.011719 4.945312-34.691407.703125-88.453125-10.066406-94.453125-51.554687-2.347656-13.449219 1.773437-27.214844 11.121094-37.164063 2.359374-2.359375 5.03125-4.378906 7.945312-6.003906 25.15625-14.300781 45.902344-26.480469 61.527344-52.082031 1.589844-2.558594 9.621094-24.539063 14.125-35.839844 1.042968-2.636719 3.292968-4.605469 6.042968-5.289063 2.75-.679687 5.660157.003907 7.816407 1.847657 16.523437 15.039062 28.589843 34.34375 34.867187 55.789062 1.75 5.636719 3.105469 11.390625 4.0625 17.214844 2.257813 12.769531 2.496094 25.816406.707032 38.664063zm0 0" fill="#fdd7ad"/><g fill="#7f6e5d"><path d="m82.921875 122.898438c-15.550781 6.871093-32.34375 10.476562-49.34375 10.589843-6.210937-.015625-12.40625-.515625-18.539063-1.5-1.058593-2.910156-1.941406-5.914062-2.734374-9.003906-.796876-3.089844-1.324219-6.089844-1.855469-9.089844 1.148437-.339843 2.367187-.371093 3.53125-.089843 20.921875 4.179687 42.632812 1.675781 62.058593-7.152344 4.433594-1.679688 9.402344.445312 11.253907 4.8125 1.851562 4.363281-.078125 9.414062-4.371094 11.433594zm0 0"/><path d="m55.117188 79.199219c-4.621094 1.148437-9.363282 1.714843-14.125 1.679687-10.078126-.199218-20.046876-2.113281-29.484376-5.652344 1.121094-5.816406 2.777344-11.519531 4.945313-17.035156.085937 0 .175781.085938.261719.085938 10.757812 4.644531 22.652344 5.96875 34.164062 3.796875 4.644532-.960938 9.21875 1.921875 10.355469 6.523437 1.140625 4.605469-1.5625 9.285156-6.117187 10.601563zm0 0"/><path d="m501.617188 113.804688c-.582032 4.230468-1.4375 8.417968-2.5625 12.535156-.527344 1.855468-1.058594 3.707031-1.675782 5.5625-6.242187 1.054687-12.5625 1.585937-18.890625 1.585937-17-.113281-33.796875-3.71875-49.347656-10.589843-4.289063-2.019532-6.21875-7.070313-4.371094-11.433594 1.851563-4.367188 6.824219-6.492188 11.257813-4.8125 19.457031 8.835937 41.191406 11.335937 62.144531 7.152344 1.132813-.265626 2.3125-.265626 3.445313 0zm0 0"/><path d="m500.910156 75.140625c-9.5 3.652344-19.574218 5.59375-29.75 5.738281-4.789062.035156-9.5625-.53125-14.210937-1.679687-4.558594-1.316407-7.257813-5.996094-6.121094-10.601563 1.140625-4.601562 5.714844-7.484375 10.355469-6.523437 11.503906 2.207031 23.402344.914062 34.164062-3.707031.441406-.175782.972656-.265626 1.5-.441407 1.75 5.636719 3.105469 11.390625 4.0625 17.214844zm0 0"/></g><path d="m176.585938 282.5c0-43.878906-7.90625-79.449219-17.65625-79.449219s-17.65625 35.570313-17.65625 79.449219 7.90625 79.449219 17.65625 79.449219 17.65625-35.570313 17.65625-79.449219zm0 0" fill="#2c2f38"/><path d="m370.792969 282.5c0-43.878906-7.90625-79.449219-17.65625-79.449219s-17.65625 35.570313-17.65625 79.449219 7.90625 79.449219 17.65625 79.449219 17.65625-35.570313 17.65625-79.449219zm0 0" fill="#2c2f38"/><path d="m203.066406 476.707031c-2.777344 0-5.394531-1.308593-7.0625-3.53125-11.15625-14.882812-14.273437-26.773437-9.488281-36.324219 6.375-12.738281 23.445313-13.109374 25.378906-13.109374 4.875 0 8.828125 3.949218 8.828125 8.828124 0 4.875-3.953125 8.824219-8.828125 8.824219-3.355469.046875-8.652343 1.335938-9.640625 3.355469-.820312 1.660156-.085937 7.285156 7.832032 17.832031 2 2.667969 2.328124 6.238281.84375 9.226563-1.484376 2.984375-4.527344 4.882812-7.863282 4.898437zm0 0" fill="#4c8056"/><path d="m308.996094 476.707031c-3.34375 0-6.398438-1.890625-7.894532-4.878906-1.496093-2.992187-1.171874-6.570313.835938-9.246094 7.941406-10.59375 8.648438-16.171875 7.828125-17.832031-.988281-2.019531-6.285156-3.320312-9.648437-3.355469-4.875-.011719-8.816407-3.976562-8.800782-8.851562s3.980469-8.816407 8.855469-8.800781c1.933594 0 19.003906.371093 25.378906 13.109374 4.785157 9.550782 1.667969 21.441407-9.492187 36.324219-1.664063 2.222657-4.28125 3.53125-7.0625 3.53125zm0 0" fill="#4c8056"/></svg>