<svg height="512pt" viewBox="0 -3 512.03032 512" width="512pt" xmlns="http://www.w3.org/2000/svg"><path d="m154.761719 96.292969v.085937l-87.214844 83.6875c2.914063-31.25 4.238281-69.207031-5.738281-79.183594-10.59375-10.59375-35.222656 2.207032-49.613282 8.121094-3.144531 1.300782-6.757812.671875-9.285156-1.609375-2.523437-2.28125-3.515625-5.808593-2.542968-9.070312 6.535156-21.363281 21.363281-58.707031 43.078124-80.066407l.089844-.089843c5.46875-5.5625 11.976563-10.003907 19.15625-13.066407 8.128906-3.363281 17.167969-3.832031 25.601563-1.324218 16.21875 5.621094 29.957031 16.738281 38.839843 31.429687 3.398438 4.875 6.46875 9.980469 9.179688 15.269531 7.59375 14.648438 13.773438 29.992188 18.449219 45.816407zm0 0" fill="#fdd7ad"/><path d="m499.832031 109.003906c-14.386719-5.914062-39.015625-18.714844-49.609375-8.121094-9.976562 9.976563-8.652344 47.933594-5.738281 79.183594l-87.21875-83.6875v-.085937c4.679687-15.824219 10.855469-31.167969 18.453125-45.816407 2.710938-5.289062 5.777344-10.394531 9.179688-15.269531 8.878906-14.691406 22.621093-25.808593 38.839843-31.429687 8.433594-2.507813 17.472657-2.039063 25.601563 1.324218 7.175781 3.0625 13.683594 7.503907 19.15625 13.066407l.085937.089843c21.71875 21.359376 36.546875 58.703126 43.078125 80.066407.972656 3.261719-.015625 6.789062-2.542968 9.070312-2.523438 2.28125-6.136719 2.910157-9.285157 1.609375zm0 0" fill="#fdd7ad"/><path d="m512.015625 365.710938c0 106.285156-87.039063 134.621093-203.035156 140.09375-5.824219.265624-11.742188.527343-17.65625.617187-8.648438.265625-17.476563.441406-26.480469.441406-2.914062.089844-5.828125.089844-8.828125.089844s-5.914063 0-8.828125-.089844c-9.003906 0-17.832031-.175781-26.484375-.441406-5.914063-.089844-11.828125-.351563-17.652344-.617187-115.996093-5.472657-203.035156-33.808594-203.035156-140.09375 0-51.554688 20.480469-113.257813 54.996094-167.285157 21.25-34.085937 48.390625-64.125 80.152343-88.714843 14.398438-10.941407 29.972657-20.238282 46.433594-27.71875 3.53125-1.589844 7.0625-3.003907 10.683594-4.324219l89.421875-6.535157 13.59375-.96875c122.792969 28.601563 216.71875 185.113282 216.71875 295.546876zm0 0" fill="#285680"/><path d="m494.359375 365.710938c0 106.285156-87.039063 134.621093-203.035156 140.09375-5.824219.265624-11.738281.527343-17.652344.617187-8.652344.265625-17.480469.441406-26.484375.441406s-17.832031-.175781-26.484375-.441406c-5.914063-.089844-11.828125-.351563-17.652344-.617187-115.996093-5.472657-203.035156-33.808594-203.035156-140.09375 0-51.554688 20.480469-113.257813 54.996094-167.285157 21.25-34.085937 48.390625-64.125 80.152343-88.714843 14.398438-10.941407 29.972657-20.238282 46.433594-27.71875 3.53125-1.589844 7.0625-3.003907 10.683594-4.324219l89.421875-6.535157c120.761719 31.074219 212.65625 185.378907 212.65625 294.578126zm0 0" fill="#4482c3"/><path d="m219.378906 108.828125c-21.707031-14.78125-34.832031-39.230469-35.148437-65.492187-.054688-1.898438 1.109375-3.617188 2.886719-4.269532 1.78125-.65625 3.78125-.097656 4.96875 1.382813 9.101562 12.554687 22.5625 21.261719 37.746093 24.417969 1.59375.25 3.195313-.382813 4.179688-1.65625.988281-1.273438 1.203125-2.984376.5625-4.460938-4.875-10.972656-10.039063-33.742188 14.246093-57.460938 1.242188-1.226562 3.089844-1.605468 4.714844-.96875 1.625.636719 2.722656 2.171876 2.796875 3.917969.308594 9.519531 1.863281 18.957031 4.625 28.070313.601563 1.460937 1.9375 2.488281 3.503907 2.695312 1.5625.207032 3.121093-.433594 4.082031-1.6875 9.296875-14.296875 27.230469-20.285156 43.253906-14.441406 1.382813.460938 2.453125 1.574219 2.851563 2.976562.402343 1.402344.082031 2.910157-.847657 4.03125-9.234375 11.210938-30.109375 41.632813-10.167969 68.820313.960938 1.265625 1.171876 2.953125.542969 4.414063-.625 1.460937-1.992187 2.472656-3.574219 2.648437l-78.351562 7.828125c-1.019531.097656-2.035156-.175781-2.871094-.765625zm0 0" fill="#2c3e50"/><path d="m220.703125 471.640625v34.78125c-5.914063-.089844-11.828125-.351563-17.652344-.617187v-34.164063c0-4.875 3.949219-8.828125 8.828125-8.828125 4.875 0 8.824219 3.953125 8.824219 8.828125zm0 0" fill="#285680"/><path d="m308.980469 471.640625v34.164063c-5.824219.265624-11.742188.527343-17.65625.617187v-34.78125c0-4.875 3.953125-8.828125 8.828125-8.828125s8.828125 3.953125 8.828125 8.828125zm0 0" fill="#285680"/><path d="m264.84375 453.984375v52.878906c-2.914062.089844-5.828125.089844-8.828125.089844s-5.914063 0-8.828125-.089844v-52.878906c0-4.875 3.953125-8.824219 8.828125-8.824219s8.828125 3.949219 8.828125 8.824219zm0 0" fill="#285680"/><g fill="#7f6e5d"><path d="m136.3125 50.476562c-.421875.242188-.867188.449219-1.324219.617188-13.207031 4.75-23.976562 14.566406-29.925781 27.277344-1.519531 2.988281-4.59375 4.863281-7.945312 4.855468-1.371094.003907-2.730469-.296874-3.972657-.882812-4.335937-2.234375-6.097656-7.523438-3.972656-11.917969 7.800781-16.074219 21.34375-28.644531 37.960937-35.21875 3.398438 4.875 6.46875 9.980469 9.179688 15.269531zm0 0"/><path d="m63.21875 11.8125c-4.035156 10.636719-4.679688 22.261719-1.851562 33.28125 1.496093 4.625-.972657 9.601562-5.5625 11.210938-.917969.273437-1.867188.421874-2.824219.441406-3.792969.007812-7.171875-2.410156-8.386719-6.003906-3.210938-10.542969-3.609375-21.742188-1.148438-32.484376l.089844-.089843c5.46875-5.5625 11.976563-10.003907 19.15625-13.066407 1.054688 2.082032 1.246094 4.492188.527344 6.710938zm0 0"/><path d="m418.882812 82.34375c-1.242187.585938-2.597656.886719-3.972656.882812-3.351562.007813-6.421875-1.867187-7.941406-4.855468-5.949219-12.710938-16.71875-22.527344-29.925781-27.277344-.460938-.167969-.902344-.375-1.324219-.617188 2.710938-5.289062 5.777344-10.394531 9.179688-15.269531 16.613281 6.574219 30.160156 19.144531 37.957031 35.21875 2.128906 4.394531.367187 9.683594-3.972657 11.917969zm0 0"/><path d="m467.4375 50.742188c-1.214844 3.59375-4.59375 6.011718-8.386719 6.003906-.957031-.019532-1.910156-.167969-2.824219-.441406-4.589843-1.609376-7.058593-6.585938-5.5625-11.210938 2.828126-11.019531 2.179688-22.644531-1.855468-33.28125-.714844-2.21875-.523438-4.628906.53125-6.710938 7.175781 3.0625 13.683594 7.503907 19.15625 13.066407l.085937.089843c2.460938 10.742188 2.066407 21.941407-1.144531 32.484376zm0 0"/></g><path d="m256.015625 233.296875c0 43.878906-35.570313 79.449219-79.449219 79.449219-2.949218 0-5.898437-.175782-8.828125-.53125 40.210938-4.46875 70.628907-38.460938 70.621094-78.917969.03125-10.175781-1.949219-20.253906-5.824219-29.660156 4.804688-2.410157 9.382813-5.246094 13.679688-8.476563 6.453125 11.675782 9.824218 24.800782 9.800781 38.136719zm0 0" fill="#e6e7e8"/><path d="m238.359375 233.296875c.007813 40.457031-30.410156 74.449219-70.621094 78.917969-40.210937-4.46875-70.628906-38.460938-70.621093-78.917969-.027344-10.175781 1.953124-20.253906 5.828124-29.660156 1.144532-2.90625 2.46875-5.738281 3.972657-8.476563 9.679687 7.171875 20.648437 12.417969 32.308593 15.449219 1.675782.441406 3.355469.882813 5.121094 1.324219 6.816406 1.621094 13.753906 2.683594 20.742188 3.179687.882812.175781 1.765625.175781 2.648437.261719 2.914063.179688 5.828125.265625 8.828125.265625 10.847656.027344 21.664063-1.21875 32.222656-3.707031 8.195313-1.878906 16.160157-4.664063 23.746094-8.296875 3.875 9.40625 5.855469 19.484375 5.824219 29.660156zm0 0" fill="#fff"/><path d="m405.113281 195.160156c-20.4375 14.082032-44.84375 21.257813-69.648437 20.480469-24.808594.777344-49.210938-6.398437-69.652344-20.480469-6.449219 11.675782-9.820312 24.800782-9.796875 38.136719 0 43.878906 35.570313 79.449219 79.449219 79.449219 43.875 0 79.445312-35.570313 79.445312-79.449219.023438-13.335937-3.347656-26.460937-9.796875-38.136719zm0 0" fill="#e6e7e8"/><path d="m397.257812 233.296875c.007813 40.457031-30.410156 74.449219-70.621093 78.917969-40.210938-4.46875-70.628907-38.460938-70.621094-78.917969-.03125-10.175781 1.949219-20.253906 5.824219-29.660156 1.144531-2.90625 2.472656-5.738281 3.972656-8.476563 9.683594 7.171875 20.652344 12.417969 32.308594 15.449219 1.679687.441406 3.355468.882813 5.121094 1.324219 6.816406 1.621094 13.753906 2.683594 20.746093 3.179687.882813.175781 1.765625.175781 2.648438.261719 2.914062.179688 5.824219.265625 8.828125.265625 10.847656.027344 21.660156-1.21875 32.21875-3.707031 8.199218-1.878906 16.164062-4.664063 23.746094-8.296875 3.875 9.40625 5.855468 19.484375 5.828124 29.660156zm0 0" fill="#fff"/><path d="m220.703125 242.125c-.007813 19.792969-13.195313 37.160156-32.261719 42.484375-19.0625 5.328125-39.34375-2.691406-49.609375-19.613281-10.269531-16.921875-8.015625-38.613282 5.515625-53.0625 21.195313 4.945312 43.242188 4.945312 64.441406 0 7.683594 8.171875 11.945313 18.972656 11.914063 30.191406zm0 0" fill="#ff5364"/><path d="m379.601562 242.125c-.011718 19.792969-13.199218 37.160156-32.261718 42.484375-19.066406 5.328125-39.34375-2.691406-49.613282-19.613281-10.265624-16.921875-8.011718-38.613282 5.515626-53.0625 21.195312 4.945312 43.246093 4.945312 64.441406 0 7.683594 8.171875 11.949218 18.972656 11.917968 30.191406zm0 0" fill="#ff5364"/><path d="m203.050781 242.125c0 14.625-11.859375 26.480469-26.484375 26.480469s-26.480468-11.855469-26.480468-26.480469c0-14.628906 11.855468-26.484375 26.480468-26.484375s26.484375 11.855469 26.484375 26.484375zm0 0" fill="#2c2f38"/><path d="m361.945312 242.125c0 14.625-11.855468 26.480469-26.480468 26.480469-14.628906 0-26.484375-11.855469-26.484375-26.480469 0-14.628906 11.855469-26.484375 26.484375-26.484375 14.625 0 26.480468 11.855469 26.480468 26.484375zm0 0" fill="#2c2f38"/><path d="m344.292969 409.847656h-194.207031c-4.878907 0-8.828126-3.953125-8.828126-8.828125s3.949219-8.828125 8.828126-8.828125h194.207031c14.625 0 26.480469-11.855468 26.480469-26.480468 0-4.875 3.953124-8.828126 8.828124-8.828126s8.828126 3.953126 8.828126 8.828126c-.03125 24.363281-19.773438 44.109374-44.136719 44.136718zm0 0" fill="#802d40"/><path d="m167.738281 224.46875c0 9.75-7.902343 17.65625-17.652343 17.65625-9.753907 0-17.65625-7.90625-17.65625-17.65625-.019532-5.425781 2.492187-10.550781 6.796874-13.859375 1.675782.441406 3.355469.882813 5.121094 1.324219 6.816406 1.621094 13.753906 2.683594 20.742188 3.179687 1.734375 2.8125 2.652344 6.050781 2.648437 9.355469zm0 0" fill="#fff"/><path d="m326.636719 224.46875c0 9.75-7.90625 17.65625-17.65625 17.65625s-17.65625-7.90625-17.65625-17.65625c-.019531-5.425781 2.496093-10.550781 6.796875-13.859375 1.679687.441406 3.355468.882813 5.121094 1.324219 6.816406 1.621094 13.753906 2.683594 20.746093 3.179687 1.734375 2.8125 2.652344 6.050781 2.648438 9.355469zm0 0" fill="#fff"/></svg>