<svg height="512pt" viewBox="0 0 512 512" width="512pt" xmlns="http://www.w3.org/2000/svg"><g fill="#f29c1f"><path d="m136.121094 162.425781 19.421875 47.847657-32.574219 13.417968-19.6875-48.464844zm0 0"/><path d="m375.878906 162.425781-19.421875 47.847657 32.574219 13.417968 19.6875-48.464844zm0 0"/><path d="m485.515625 353.101562c0 87.75-102.75 158.898438-229.515625 158.898438-2.914062 0-5.914062 0-8.828125-.089844-122.703125-3.265625-220.6875-73.089844-220.6875-158.808594 0-85.714843 97.984375-155.539062 220.6875-158.804687 2.914063-.089844 5.914063-.089844 8.828125-.089844 126.765625 0 229.515625 71.148438 229.515625 158.894531zm0 0"/></g><path d="m467.863281 353.101562c0-87.707031-98.808593-158.804687-220.691406-158.804687s-220.6875 71.097656-220.6875 158.804687c0 87.710938 98.804687 158.808594 220.6875 158.808594s220.691406-71.097656 220.691406-158.808594zm0 0" fill="#f0c419"/><path d="m256 467.863281c96.097656 0 200.925781-53.285156 183.453125-124.335937-1.386719-5.894532-3.242187-11.664063-5.550781-17.257813-11.351563-26.765625-32.175782-30.289062-56.777344-19.300781-37.988281 17.003906-80.136719 19.035156-121.125 19.652344-40.988281-.617188-83.136719-2.648438-121.125-19.652344-24.601562-10.988281-45.425781-7.464844-56.777344 19.300781-2.308594 5.59375-4.164062 11.363281-5.550781 17.257813-17.472656 71.050781 87.355469 124.335937 183.453125 124.335937zm0 0" fill="#802d40"/><path d="m335.449219 401.65625v54.554688c-51.828125 15.535156-107.070313 15.535156-158.898438 0v-54.554688c0-1.476562.085938-2.949219.265625-4.414062 2.324219-20.035157 19.292969-35.144532 39.460938-35.144532 20.164062 0 37.132812 15.109375 39.457031 35.144532.175781 1.148437.265625-.441407.265625-.441407s.089844 1.589844.265625.441407c2.324219-20.035157 19.292969-35.144532 39.457031-35.144532 20.167969 0 37.136719 15.109375 39.460938 35.144532.179687 1.464843.265625 2.9375.265625 4.414062zm0 0" fill="#ff5364"/><path d="m176.550781 88.277344c0 48.75-39.523437 88.273437-88.273437 88.273437-48.753906 0-88.277344-39.523437-88.277344-88.273437 0-48.753906 39.523438-88.277344 88.277344-88.277344 48.75 0 88.273437 39.523438 88.273437 88.277344zm0 0" fill="#e57e25"/><path d="m158.898438 88.277344c-.054688 38.980468-31.640626 70.566406-70.621094 70.621094-2.953125 0-5.898438-.175782-8.828125-.53125-35.398438-4.359376-61.988281-34.425782-61.988281-70.089844 0-35.664063 26.589843-65.734375 61.988281-70.09375 2.929687-.355469 5.875-.53125 8.828125-.527344 38.980468.050781 70.566406 31.640625 70.621094 70.621094zm0 0" fill="#e6e7e8"/><path d="m512 88.277344c0 48.75-39.523438 88.273437-88.277344 88.273437-48.75 0-88.273437-39.523437-88.273437-88.273437 0-48.753906 39.523437-88.277344 88.273437-88.277344 48.753906 0 88.277344 39.523438 88.277344 88.277344zm0 0" fill="#e57e25"/><path d="m494.34375 88.277344c-.050781 38.980468-31.640625 70.566406-70.621094 70.621094-2.949218 0-5.898437-.175782-8.824218-.53125-35.398438-4.359376-61.988282-34.425782-61.988282-70.089844 0-35.664063 26.589844-65.734375 61.988282-70.09375 2.925781-.355469 5.875-.53125 8.824218-.527344 38.980469.050781 70.570313 31.640625 70.621094 70.621094zm0 0" fill="#e6e7e8"/><path d="m141.242188 88.277344c0-38.710938-27.667969-70.09375-61.792969-70.09375-34.128907 0-61.792969 31.382812-61.792969 70.09375 0 38.707031 27.664062 70.089844 61.792969 70.089844 34.125 0 61.792969-31.382813 61.792969-70.089844zm0 0" fill="#fff"/><path d="m476.691406 88.277344c0-38.710938-27.667968-70.09375-61.792968-70.09375-34.128907 0-61.796876 31.382812-61.796876 70.09375 0 38.707031 27.667969 70.089844 61.796876 70.089844 34.125 0 61.792968-31.382813 61.792968-70.089844zm0 0" fill="#fff"/><path d="m132.414062 88.277344c0 24.375-19.761718 44.136718-44.136718 44.136718-24.378906 0-44.140625-19.761718-44.140625-44.136718 0-24.378906 19.761719-44.140625 44.140625-44.140625 24.375 0 44.136718 19.761719 44.136718 44.140625zm0 0" fill="#e64c3c"/><path d="m467.863281 88.277344c0 24.375-19.761719 44.136718-44.140625 44.136718-24.375 0-44.136718-19.761718-44.136718-44.136718 0-24.378906 19.761718-44.140625 44.136718-44.140625 24.378906 0 44.140625 19.761719 44.140625 44.140625zm0 0" fill="#e64c3c"/><path d="m105.929688 88.277344c0 9.75-7.902344 17.652344-17.652344 17.652344-9.753906 0-17.65625-7.902344-17.65625-17.652344 0-9.753906 7.902344-17.65625 17.65625-17.65625 9.75 0 17.652344 7.902344 17.652344 17.65625zm0 0" fill="#2c2f38"/><path d="m441.378906 88.277344c0 9.75-7.902344 17.652344-17.65625 17.652344-9.75 0-17.652344-7.902344-17.652344-17.652344 0-9.753906 7.902344-17.65625 17.652344-17.65625 9.753906 0 17.65625 7.902344 17.65625 17.65625zm0 0" fill="#2c2f38"/><path d="m256 273.65625c-4.875 0-8.828125-3.953125-8.828125-8.828125 0-14.625-11.855469-26.484375-26.480469-26.484375-14.628906 0-26.484375 11.859375-26.484375 26.484375 0 4.875-3.953125 8.828125-8.828125 8.828125s-8.828125-3.953125-8.828125-8.828125c0-24.378906 19.761719-44.136719 44.140625-44.136719 24.375 0 44.136719 19.757813 44.136719 44.136719 0 2.339844-.929687 4.585937-2.585937 6.242187s-3.902344 2.585938-6.242188 2.585938zm0 0" fill="#f29c1f"/><path d="m326.621094 273.65625c-4.875 0-8.828125-3.953125-8.828125-8.828125 0-14.625-11.855469-26.484375-26.484375-26.484375-14.625 0-26.480469 11.859375-26.480469 26.484375 0 4.875-3.953125 8.828125-8.828125 8.828125s-8.828125-3.953125-8.828125-8.828125c0-24.378906 19.761719-44.136719 44.136719-44.136719 24.378906 0 44.140625 19.757813 44.140625 44.136719 0 2.339844-.929688 4.585937-2.585938 6.242187s-3.902343 2.585938-6.242187 2.585938zm0 0" fill="#f29c1f"/><path d="m229.515625 264.828125c0 4.875-3.949219 8.828125-8.824219 8.828125-4.878906 0-8.828125-3.953125-8.828125-8.828125s3.949219-8.828125 8.828125-8.828125c4.875 0 8.824219 3.953125 8.824219 8.828125zm0 0" fill="#d25627"/><path d="m300.136719 264.828125c0 4.875-3.949219 8.828125-8.828125 8.828125-4.875 0-8.824219-3.953125-8.824219-8.828125s3.949219-8.828125 8.824219-8.828125c4.878906 0 8.828125 3.953125 8.828125 8.828125zm0 0" fill="#d25627"/><path d="m256 441.378906c-36.476562 0-44.136719-9.59375-44.136719-17.65625-.003906-4.152344 2.890625-7.746094 6.953125-8.628906 4.058594-.882812 8.183594 1.1875 9.90625 4.96875 8.707032 3.238281 18.027344 4.492188 27.277344 3.660156 9.25.832032 18.570312-.421875 27.277344-3.660156 1.722656-3.78125 5.847656-5.851562 9.90625-4.96875 4.0625.882812 6.957031 4.476562 6.953125 8.628906 0 8.0625-7.660157 17.65625-44.136719 17.65625zm0 0" fill="#df4d60"/><path d="m79.449219 61.792969c0 9.75-7.90625 17.65625-17.65625 17.65625s-17.65625-7.90625-17.65625-17.65625 7.90625-17.65625 17.65625-17.65625 17.65625 7.90625 17.65625 17.65625zm0 0" fill="#fff"/><path d="m414.898438 61.792969c0 9.75-7.90625 17.65625-17.65625 17.65625s-17.65625-7.90625-17.65625-17.65625 7.90625-17.65625 17.65625-17.65625 17.65625 7.90625 17.65625 17.65625zm0 0" fill="#fff"/></svg>