<svg height="504pt" viewBox="0 0 504.27455 504" width="504pt" xmlns="http://www.w3.org/2000/svg"><path d="m503.324219 80.945312v1.042969c.390625 35.464844-18.882813 68.234375-50.070313 85.128907l-406.738281-1.996094c-29.117187-17.53125-46.808594-49.144532-46.51171875-83.132813v-1.042969c-.00390625-2.871093.16796875-5.742187.51953175-8.589843.34375-3.730469.894531-7.441407 1.648437-11.109375v-.085938c3.859375-22.453125 14.769531-43.09375 31.15625-58.921875 2.289063-1.796875 5.332031-2.3085935 8.085937-1.363281 2.75.945312 4.835938 3.222656 5.539063 6.046875 9.542969 35.40625 38.179687 68.210937 73.585937 73.9375h.089844l285.070313-2.949219c23.222656-18.632812 40.703125-43.453125 50.417969-71.59375.796874-2.738281 2.902343-4.898437 5.617187-5.769531 2.710937-.871094 5.683594-.335937 7.921875 1.429687 16.574219 15.839844 27.617188 36.589844 31.5 59.183594.753906 3.699219 1.304688 7.433594 1.648438 11.195313.351562 2.847656.527343 5.71875.519531 8.589843zm0 0" fill="#fdd7ad"/><path d="m503.847656 366.710938c-.097656 1.464843-.921875 2.785156-2.191406 3.519531-1.273438.730469-2.828125.777343-4.144531.125l-11.800781-5.902344-11.628907-5.8125c-1.242187-.648437-2.722656-.640625-3.953125.019531-1.234375.660156-2.0625 1.886719-2.210937 3.277344-.085938.867188-.257813 1.648438-.34375 2.515625-9.894531 66.039063-54.238281 110.472656-70.8125 125.050781-1.09375.980469-2.613281 1.332032-4.023438.925782-1.414062-.40625-2.515625-1.511719-2.921875-2.921876-.644531-2.101562-1.546875-4.109374-2.6875-5.988281-4.800781-7.164062-10.890625-13.375-17.964844-18.308593-1.035156-.792969-2.367187-1.085938-3.640624-.800782-1.273438.28125-2.355469 1.117188-2.953126 2.273438-.871093 1.945312-1.917968 3.804687-3.125 5.554687-22.042968 33.496094-86.953124 34.277344-109.082031 33.496094h-.175781c-.78125.019531-1.5625-.007813-2.339844-.085937-1.175781-.046876-2.277344-.578126-3.046875-1.464844-.773437-.886719-1.144531-2.050782-1.03125-3.21875 2.949219-26.46875-33.066406-29.855469-42.089843-30.199219-1.308594-.085937-2.582032.421875-3.472657 1.386719-.085937.171875-.257812.261718-.347656.433594-6.710937 7.179687-7.878906 17.929687-2.863281 26.382812.667968 1.359375.578125 2.96875-.238282 4.246094-.816406 1.273437-2.238281 2.035156-3.753906 2-5.292968-.171875-10.324218-.519532-15.183594-1.128906-91.8125-9.976563-110.730468-77.925782-114.289062-97.539063-.257812-1.34375-1.136719-2.484375-2.363281-3.082031-1.230469-.597656-2.671875-.582032-3.886719.042968-4.085938 2.03125-7.765625 4.796876-10.847656 8.160157-2.59375 2.910156-4.703125 6.222656-6.246094 9.804687-.773438 1.675782-2.519531 2.683594-4.355469 2.507813-1.839843-.175781-3.363281-1.496094-3.800781-3.289063-.871094-3.46875-1.5625-7.027344-2.171875-10.585937-9.632813-55.972657 7.8125-122.101563 13.710937-141.796875.398438-1.417969.058594-2.941406-.898437-4.054688-.960937-1.117187-2.414063-1.679687-3.875-1.5-4.578125.582032-9.082031 1.628906-13.449219 3.125-5.5 1.90625-10.722656 4.53125-15.535156 7.808594-1.441406.960938-3.3125.96875-4.765625.027344-1.453125-.945313-2.207031-2.660156-1.914063-4.367188.085938-.695312.171876-1.300781.257813-1.996094 7.125-53.824218 36.777344-102.09375 81.574219-132.773437 1.089844-.691406 1.804687-1.84375 1.9375-3.128906.136718-1.285157-.320313-2.558594-1.242188-3.464844-7.550781-7.375-21.957031-7.117187-31.328125-5.988281h-.519531c-.429688-.101563-.863281-.160156-1.304688-.171875-1.308593-.386719-2.363281-1.367188-2.84375-2.648438-.476562-1.28125-.324218-2.710937.414063-3.863281 9.664063-15.878906 26.066406-26.464844 44.519531-28.722656 2.851563-.339844 5.71875-.511719 8.589844-.519532 4.777344-.015624 9.539062.421876 14.234375 1.300782 1.445313.277344 2.929687-.203125 3.933594-1.28125 1.003906-1.074219 1.386719-2.589844 1.011719-4.011719-4.046876-10.53125-10.019532-20.214844-17.617188-28.550781-.898438-1.019532-1.222656-2.421875-.867188-3.730469.554688-2.289063 2.808594-3.738281 5.121094-3.300781 7.507813 1.390625 14.839844 3.605468 21.867188 6.597656 4.601562 1.996094 8.589844 3.992188 11.714844 5.640625 1.320312.722656 2.917968.710937 4.226562-.03125s2.140625-2.109375 2.195312-3.613281c.117188-17.609375 9.171876-33.953125 24.039063-43.390625 3.925781-2.625 8.078125-4.886719 12.410156-6.769531 1.429688-.640626 3.097657-.457032 4.355469.480468 1.261719.933594 1.917969 2.476563 1.71875 4.03125-1.53125 8.652344-.996094 17.542969 1.5625 25.949219.988281 2.6875 2.523438 5.140625 4.511719 7.203125.855469.84375 2.023437 1.292969 3.222656 1.246094 1.203125-.050782 2.328125-.597656 3.113281-1.507813 6.160156-7.203125 25.339844-24.644531 68.121094-26.726562h.519531c12.40625-.566407 24.839844.015625 37.140625 1.734375 1.796875.21875 3.265625 1.53125 3.691406 3.289062.425782 1.757813-.285156 3.59375-1.78125 4.609375-7.949218 4.984375-14.5625 11.835938-19.265624 19.957031-.734376 1.199219-.734376 2.707032 0 3.90625.875 1.816407 2.910156 2.761719 4.859374 2.257813 4.988282-1.210937 10.070313-1.992187 15.1875-2.34375 28.378907-2.429687 78.710938 4.859375 133.378907 65.863281 1.167969 1.257813 1.484375 3.085938.808593 4.660156-.675781 1.578126-2.214843 2.609376-3.929687 2.628907-9.746094-.105469-18.601563 5.640625-22.476563 14.582031-1.09375 2.113281-.328124 4.714844 1.734376 5.898438 12.582031 6.683593 56.496093 34.539062 72.980468 103.097656.335938 1.527344-.179687 3.121094-1.347656 4.164062-1.167969 1.042969-2.808594 1.375-4.292969.867188-4.125-1.371094-8.324219-2.5-12.582031-3.382813-3.210938-.609375-6.679688-1.214843-10.414062-1.648437-1.835938-.195313-3.601563.773437-4.425782 2.429687-.878906 1.664063-.558594 3.710938.78125 5.03125 30.699219 30.265625 46.507813 72.519531 43.21875 115.503907zm0 0" fill="#802f34"/><path d="m485.710938 364.453125-11.628907-5.8125c-1.242187-.648437-2.722656-.640625-3.953125.019531-1.234375.660156-2.0625 1.886719-2.210937 3.277344-.085938.867188-.257813 1.648438-.34375 2.515625l-11.71875-5.8125c-1.238281-.625-2.710938-.609375-3.9375.046875-1.226563.65625-2.054688 1.871094-2.222657 3.25-7.296874 45.605469-29.265624 87.585938-62.566406 119.582031-4.800781-7.164062-10.890625-13.375-17.964844-18.308593-1.035156-.792969-2.367187-1.085938-3.640624-.800782-1.273438.28125-2.355469 1.117188-2.953126 2.273438-.871093 1.945312-1.917968 3.804687-3.125 5.554687-2.675781-2.527343-5.519531-4.875-8.503906-7.027343-1.023437-.785157-2.34375-1.074219-3.601562-.789063-1.257813.285156-2.324219 1.113281-2.90625 2.261719-14.667969 31.414062-63.523438 38.097656-94.070313 39.050781h-.175781c-.78125.019531-1.5625-.007813-2.339844-.085937-1.175781-.046876-2.277344-.578126-3.046875-1.464844-.773437-.886719-1.144531-2.050782-1.03125-3.21875 2.949219-26.46875-33.066406-29.855469-42.089843-30.199219-1.308594-.085937-2.582032.421875-3.472657 1.386719-.085937.171875-.257812.261718-.347656.433594-4.738281-1.015626-9.558594-1.625-14.402344-1.820313-1.308593-.085937-2.585937.421875-3.472656 1.386719-7.039063 7.171875-8.355469 18.183594-3.210937 26.816406.960937 1.710938.558593 3.867188-.953126 5.117188-91.8125-9.976563-110.730468-77.925782-114.289062-97.539063-.257812-1.34375-1.136719-2.484375-2.363281-3.082031-1.230469-.597656-2.671875-.582032-3.886719.042968-4.085938 2.03125-7.765625 4.796876-10.847656 8.160157-.519532-1.910157-.867188-3.644531-1.125-5.121094-.261719-1.34375-1.136719-2.484375-2.367188-3.082031-1.226562-.597656-2.667968-.582032-3.882812.042968-3.402344 1.6875-6.507813 3.917969-9.199219 6.597657-9.632813-55.972657 7.8125-122.101563 13.710937-141.796875.398438-1.417969.058594-2.941406-.898437-4.054688-.960937-1.117187-2.414063-1.679687-3.875-1.5-4.578125.582032-9.082031 1.628906-13.449219 3.125-.621094-2.0625-2.632812-3.382812-4.773437-3.125-5.910157.730469-11.695313 2.28125-17.183594 4.597656 7.125-53.824218 36.777344-102.09375 81.574219-132.773437 1.089844-.691406 1.804687-1.84375 1.9375-3.128906.136718-1.285157-.320313-2.558594-1.242188-3.464844-7.550781-7.375-21.957031-7.117187-31.328125-5.988281h-.519531c-.429688-.101563-.863281-.160156-1.304688-.171875-1.308593-.386719-2.363281-1.367188-2.84375-2.648438-.476562-1.28125-.324218-2.710937.414063-3.863281 9.664063-15.878906 26.066406-26.464844 44.519531-28.722656 1.734375.261718 3.296875.519531 4.597656.78125 1.46875.273437 2.972657-.21875 3.992188-1.300782 4.777344-.015624 9.539062.421876 14.234375 1.300782 1.445313.277344 2.929687-.203125 3.933594-1.28125 1.003906-1.074219 1.386719-2.589844 1.011719-4.011719-4.046876-10.53125-10.019532-20.214844-17.617188-28.550781-.898438-1.019532-1.222656-2.421875-.867188-3.730469 7.097657 2.382813 13.980469 5.375 20.566407 8.9375 1.308593.738281 2.90625.734375 4.207031-.015625 1.304688-.746094 2.113281-2.128906 2.128906-3.628906-.011718-.667969.015625-1.332032.085938-1.996094 4.601562 1.996094 8.589844 3.992188 11.714844 5.640625 1.320312.722656 2.917968.710937 4.226562-.03125s2.140625-2.109375 2.195312-3.613281c.117188-17.609375 9.171876-33.953125 24.039063-43.390625-1.042969 9.546875-1.128906 23.605469 6.335937 30.894531.875.839844 2.054688 1.285156 3.265626 1.234375 1.210937-.046875 2.351562-.589844 3.15625-1.496094 2.203124-2.539062 4.640624-4.863281 7.289062-6.941406.988281 2.6875 2.523438 5.140625 4.511719 7.203125.855469.84375 2.023437 1.292969 3.222656 1.246094 1.203125-.050782 2.328125-.597656 3.113281-1.507813 6.160156-7.203125 25.339844-24.644531 68.121094-26.726562h.519531c5.902344.257812 12.238281.867187 18.917969 1.734375 1.796875.21875 3.265625 1.53125 3.691406 3.289062.425782 1.757813-.285156 3.59375-1.78125 4.609375-7.933594 5.007813-14.539062 11.855469-19.265625 19.957031-.796875 1.503907-.632812 3.332032.421875 4.667969 1.050782 1.332031 2.792969 1.921875 4.4375 1.496094 4.398438-1.066406 8.863282-1.820313 13.363282-2.257813.875 1.816407 2.910156 2.761719 4.859374 2.257813 4.988282-1.210937 10.070313-1.992187 15.1875-2.34375 29.246094 2.253906 70.8125 16.398437 115.15625 65.863281 1.167969 1.257813 1.484376 3.085938.808594 4.660156-.675781 1.578126-2.21875 2.609376-3.933594 2.628907-9.730468-.058594-18.5625 5.671875-22.472656 14.582031-1.019531 2.140625-.226562 4.703125 1.820313 5.898438 12.582031 6.683593 56.40625 34.539062 72.894531 103.097656.175781.535156.175781 1.109375 0 1.648437-3.210938-.609375-6.679688-1.214843-10.414062-1.648437-1.835938-.195313-3.601563.773437-4.425782 2.429687-4.546875-1.085937-9.152344-1.894531-13.796875-2.429687-1.851562-.210938-3.636719.769531-4.453125 2.445312-.820312 1.675782-.496094 3.683594.808594 5.015625 30.140625 29.703125 45.9375 71.011719 43.304688 113.246094zm0 0" fill="#cc4b4c"/><path d="m37.492188 64.195312c-11.335938 3.746094-22.152344 8.90625-32.195313 15.363282-1.398437.976562-3.066406 1.492187-4.773437 1.472656-.175782.015625-.355469-.015625-.51953175-.085938-.00390625-2.871093.16796875-5.742187.51953175-8.589843.34375-3.730469.894531-7.441407 1.648437-11.109375v-.085938c9.429687-5.503906 19.40625-10.011718 29.765625-13.453125 4.554688-1.53125 9.488281.914063 11.023438 5.46875 1.53125 4.554688-.914063 9.488281-5.46875 11.019531zm0 0" fill="#7f6e5d"/><path d="m503.324219 80.945312c-.164063.070313-.339844.101563-.519531.085938-1.707032.019531-3.375-.496094-4.773438-1.472656-10.039062-6.457032-20.859375-11.617188-32.195312-15.363282-2.945313-.992187-5.136719-3.476562-5.75-6.523437-.613282-3.046875.445312-6.191406 2.777343-8.246094 2.332031-2.054687 5.582031-2.710937 8.527344-1.71875 10.359375 3.441407 20.335937 7.949219 29.765625 13.453125.753906 3.699219 1.304688 7.433594 1.648438 11.195313.351562 2.847656.527343 5.71875.519531 8.589843zm0 0" fill="#7f6e5d"/><path d="m251.664062 217.015625c0 43.132813-34.964843 78.101563-78.101562 78.101563-2.898438.003906-5.796875-.171876-8.675781-.519532 34.148437-3.851562 61.769531-29.578125 68.035156-63.367187 6.269531-33.792969-10.289063-67.707031-40.789063-83.550781 2.078126-1.453126 4.046876-3.046876 5.902344-4.773438 32.03125 10.492188 53.675782 40.402344 53.628906 74.109375zm0 0" fill="#e6e7e8"/><path d="m234.308594 217.015625c.007812 39.773437-29.894532 73.191406-69.421875 77.582031-29.214844-3.21875-54.136719-22.59375-64.460938-50.113281-10.320312-27.519531-4.289062-58.503906 15.601563-80.144531.558594-.707032 1.167968-1.375 1.824218-1.996094 3.449219.832031 6.960938 1.382812 10.5 1.648438h.171876c8.921874.828124 17.917968.421874 26.730468-1.214844 13.269532-2.203125 25.875-7.363282 36.878906-15.097656 25.9375 13.386718 42.21875 40.148437 42.175782 69.335937zm0 0" fill="#fff"/><path d="m407.867188 217.015625c0 43.132813-34.964844 78.101563-78.101563 78.101563-2.898437.003906-5.796875-.171876-8.675781-.519532 29.191406-3.222656 54.09375-22.570312 64.429687-50.058594 10.335938-27.492187 4.351563-58.457031-15.488281-80.113281 5.261719-.078125 10.496094-.71875 15.621094-1.90625 14.257812 14.550781 22.238281 34.121094 22.214844 54.496094zm0 0" fill="#e6e7e8"/><path d="m390.511719 217.015625c.007812 39.773437-29.894531 73.191406-69.421875 77.582031-36.574219-4.125-65.300782-33.222656-68.960938-69.84375s18.742188-70.828125 53.773438-82.109375c12.136718 10.671875 27.070312 17.65625 43.042968 20.132813 3.125.609375 6.246094.957031 9.285157 1.304687h.171875c3.867187.328125 7.75.441407 11.628906.34375 13.210938 14.324219 20.523438 33.105469 20.480469 52.589844zm0 0" fill="#fff"/><path d="m216.953125 217.015625c0 23.964844-19.425781 43.390625-43.390625 43.390625s-43.390625-19.425781-43.390625-43.390625 19.425781-43.390625 43.390625-43.390625 43.390625 19.425781 43.390625 43.390625zm0 0" fill="#cc66a1"/><path d="m373.15625 217.015625c0 23.964844-19.425781 43.390625-43.390625 43.390625-23.960937 0-43.390625-19.425781-43.390625-43.390625s19.429688-43.390625 43.390625-43.390625c23.964844 0 43.390625 19.425781 43.390625 43.390625zm0 0" fill="#cc66a1"/><path d="m199.597656 217.015625c0 14.378906-11.65625 26.035156-26.035156 26.035156s-26.035156-11.65625-26.035156-26.035156 11.65625-26.035156 26.035156-26.035156 26.035156 11.65625 26.035156 26.035156zm0 0" fill="#2c2f38"/><path d="m355.800781 217.015625c0 14.378906-11.65625 26.035156-26.035156 26.035156s-26.03125-11.65625-26.03125-26.035156 11.652344-26.035156 26.03125-26.035156 26.035156 11.65625 26.035156 26.035156zm0 0" fill="#2c2f38"/><path d="m147.527344 364.542969h52.070312v17.355469c0 9.585937-7.769531 17.355468-17.355468 17.355468h-17.355469c-9.585938 0-17.359375-7.769531-17.359375-17.355468zm0 0" fill="#f9eab0"/><path d="m156.207031 364.542969h34.710938v17.355469c0 9.585937-7.769531 17.355468-17.355469 17.355468s-17.355469-7.769531-17.355469-17.355468zm0 0" fill="#f5efca"/><path d="m303.734375 364.542969h52.066406v17.355469c0 9.585937-7.769531 17.355468-17.355469 17.355468h-17.355468c-9.585938 0-17.355469-7.769531-17.355469-17.355468zm0 0" fill="#f9eab0"/><path d="m312.410156 364.542969h34.710938v17.355469c0 9.585937-7.769532 17.355468-17.355469 17.355468s-17.355469-7.769531-17.355469-17.355468zm0 0" fill="#f5efca"/><path d="m164.886719 190.980469c0 9.585937-7.773438 17.359375-17.359375 17.359375-9.582032 0-17.355469-7.773438-17.355469-17.359375 0-9.582031 7.773437-17.355469 17.355469-17.355469 9.585937 0 17.359375 7.773438 17.359375 17.355469zm0 0" fill="#fff"/><path d="m321.089844 190.980469c0 9.585937-7.773438 17.359375-17.355469 17.359375-9.585937 0-17.359375-7.773438-17.359375-17.359375 0-9.582031 7.773438-17.355469 17.359375-17.355469 9.582031 0 17.355469 7.773438 17.355469 17.355469zm0 0" fill="#fff"/><path d="m355.800781 373.21875h-208.273437c-28.742188-.027344-52.039063-23.324219-52.066406-52.066406 0-4.792969 3.886718-8.679688 8.679687-8.679688s8.675781 3.886719 8.675781 8.679688c0 19.171875 15.542969 34.710937 34.710938 34.710937h208.273437c19.171875 0 34.710938-15.539062 34.710938-34.710937 0-4.792969 3.886719-8.679688 8.679687-8.679688 4.792969 0 8.675782 3.886719 8.675782 8.679688-.027344 28.742187-23.324219 52.039062-52.066407 52.066406zm0 0" fill="#802d40"/></svg>