<svg height="512pt" viewBox="0 -3 512.00148 512" width="512pt" xmlns="http://www.w3.org/2000/svg"><path d="m135.152344 109.695312-80.15625 88.71875c-8.289063-3.894531-15.960938-8.980468-22.773438-15.097656-4.617187-4.261718-8.839844-8.929687-12.625-13.945312-12.804687-17.253906-19.6796872-38.1875-19.597656-59.675782v-1.058593c.0703125-6.734375.808594-13.449219 2.207031-20.039063v-.085937c3.957031-21.554688 14.871094-41.214844 31.074219-55.96875 2.316406-2.074219 5.546875-2.789063 8.523438-1.886719 2.976562.902344 5.265624 3.289062 6.042968 6.300781 10.945313 39.902344 45.8125 71.945313 87.304688 72.738281zm0 0" fill="#fdd7ad"/><path d="m512 108.636719v1.058593c.082031 21.488282-6.792969 42.421876-19.597656 59.675782-3.78125 5.015625-8.007813 9.683594-12.621094 13.945312-6.816406 6.117188-14.488281 11.203125-22.777344 15.097656l-80.152344-88.71875c41.488282-.792968 76.359376-32.835937 87.304688-72.738281.773438-3.011719 3.066406-5.398437 6.042969-6.300781 2.972656-.902344 6.203125-.1875 8.523437 1.886719 16.199219 14.753906 27.117188 34.414062 31.070313 55.96875v.085937c1.398437 6.589844 2.136719 13.304688 2.207031 20.039063zm0 0" fill="#fdd7ad"/><path d="m512 365.695312c0 106.285157-87.039062 134.621094-203.035156 140.09375-5.824219.265626-11.738282.53125-17.652344.617188-8.652344.265625-17.480469.441406-26.484375.441406-2.914063.089844-5.824219.089844-8.828125.089844-3 0-5.914062 0-8.828125-.089844-8.914063-.085937-17.742187-.175781-26.480469-.441406-5.914062-.175781-11.828125-.351562-17.65625-.703125-115.996094-5.472656-203.035156-33.722656-203.035156-140.007813 0-51.550781 20.480469-113.257812 54.996094-167.28125 21.25-34.089843 48.390625-64.128906 80.15625-88.71875 14.394531-10.9375 29.96875-20.238281 46.433594-27.71875 3.527343-1.589843 7.058593-3 10.679687-4.324218l89.421875-6.53125 13.597656-.972656c122.789063 28.601562 216.714844 185.113281 216.714844 295.546874zm0 0" fill="#df4d60"/><path d="m494.34375 365.695312c0 100.8125-78.300781 131.445313-185.378906 138.945313-5.824219.441406-11.652344.796875-17.652344 1.0625-8.652344.441406-17.480469.703125-26.484375.882813-5.824219.175781-11.742187.261718-17.65625.261718-8.914063-.085937-17.742187-.175781-26.480469-.441406-5.914062-.175781-11.828125-.351562-17.65625-.703125-115.996094-5.472656-203.035156-33.722656-203.035156-140.007813 0-51.550781 20.480469-113.257812 54.996094-167.28125 21.25-34.089843 48.390625-64.128906 80.15625-88.71875 14.394531-10.9375 29.96875-20.238281 46.433594-27.71875 3.527343-1.589843 7.058593-3 10.679687-4.324218l89.421875-6.53125c120.761719 31.070312 212.65625 185.378906 212.65625 294.574218zm0 0" fill="#ff5364"/><path d="m68.0625 124.792969c-15.050781 15.839843-26.546875 34.710937-33.722656 55.347656-.429688 1.21875-1.160156 2.3125-2.117188 3.175781-4.617187-4.261718-8.839844-8.929687-12.625-13.945312 7.90625-21.3125 20.140625-40.761719 35.929688-57.113282 3.460937-3.464843 9.074218-3.464843 12.535156 0 3.460938 3.460938 3.460938 9.070313 0 12.535157zm0 0" fill="#7f6e5d"/><path d="m38.136719 91.601562c-11.53125 3.804688-22.535157 9.054688-32.75 15.621094-1.421875 1-3.121094 1.523438-4.855469 1.503906-.183594.011719-.363281-.019531-.53125-.089843.0703125-6.734375.808594-13.449219 2.207031-20.039063v-.085937c9.59375-5.597657 19.738281-10.183594 30.277344-13.683594 2.996094-1.011719 6.304687-.34375 8.675781 1.746094 2.375 2.089843 3.449219 5.285156 2.824219 8.386719-.621094 3.097656-2.851563 5.628906-5.847656 6.640624zm0 0" fill="#7f6e5d"/><path d="m492.402344 169.371094c-3.78125 5.015625-8.007813 9.683594-12.621094 13.945312-.960938-.863281-1.6875-1.957031-2.121094-3.175781-7.175781-20.636719-18.671875-39.507813-33.71875-55.347656-3.460937-3.464844-3.460937-9.074219 0-12.535157 3.460938-3.464843 9.074219-3.464843 12.535156 0 15.789063 16.351563 28.019532 35.800782 35.925782 57.113282zm0 0" fill="#7f6e5d"/><path d="m512 108.636719c-.167969.070312-.347656.101562-.527344.089843-1.738281.019532-3.433594-.503906-4.855468-1.503906-10.214844-6.566406-21.21875-11.816406-32.75-15.621094-2.996094-1.011718-5.226563-3.542968-5.851563-6.640624-.625-3.101563.453125-6.296876 2.824219-8.386719 2.371094-2.089844 5.679687-2.757813 8.675781-1.746094 10.539063 3.5 20.6875 8.085937 30.277344 13.683594v.085937c1.398437 6.589844 2.136719 13.304688 2.207031 20.039063zm0 0" fill="#7f6e5d"/><path d="m238.34375 224.453125c.023438 3.101563-.183594 6.199219-.617188 9.269531l-32.925781 36.195313-21.273437 23.390625c-25.335938 5.621094-51.714844-3.109375-68.695313-22.734375s-21.828125-46.984375-12.628906-71.25c9.203125-24.265625 30.972656-41.527344 56.695313-44.960938 2.929687-.355469 5.875-.53125 8.828124-.527343 39 0 70.617188 31.617187 70.617188 70.617187zm0 0" fill="#e6e7e8"/><path d="m220.691406 224.453125c.019532 3.101563-.1875 6.199219-.617187 9.269531l-15.273438 36.195313-21.273437 23.390625c-25.335938 5.621094-51.714844-3.109375-68.695313-22.734375s-21.828125-46.984375-12.628906-71.25c9.203125-24.265625 30.972656-41.527344 56.695313-44.960938 35.320312 4.449219 61.804687 34.492188 61.792968 70.089844zm0 0" fill="#fff"/><path d="m211.863281 224.453125c0 24.378906-19.761719 44.140625-44.136719 44.140625-24.378906 0-44.140624-19.761719-44.140624-44.140625 0-24.375 19.761718-44.136719 44.140624-44.136719 24.375 0 44.136719 19.761719 44.136719 44.136719zm0 0" fill="#7ed09e"/><path d="m414.898438 224.453125c0 39.003906-31.617188 70.621094-70.621094 70.621094-2.953125.007812-5.898438-.171875-8.828125-.527344-2.382813-.355469-4.679688-.707031-6.972657-1.238281l-54.203124-59.585938c-.429688-3.070312-.636719-6.167968-.617188-9.269531-.011719-35.597656 26.472656-65.640625 61.792969-70.089844 2.929687-.355469 5.875-.53125 8.828125-.527343 39.003906 0 70.621094 31.617187 70.621094 70.617187zm0 0" fill="#e6e7e8"/><path d="m397.242188 224.453125c.011718 35.601563-26.472657 65.644531-61.792969 70.09375-2.382813-.355469-4.679688-.707031-6.972657-1.238281l-54.203124-59.585938c-.429688-3.070312-.636719-6.167968-.617188-9.269531-.011719-35.597656 26.472656-65.640625 61.792969-70.089844 35.320312 4.449219 61.804687 34.492188 61.792969 70.089844zm0 0" fill="#fff"/><path d="m388.414062 224.453125c0 24.378906-19.761718 44.140625-44.136718 44.140625-24.378906 0-44.140625-19.761719-44.140625-44.140625 0-24.375 19.761719-44.136719 44.140625-44.136719 24.375 0 44.136718 19.761719 44.136718 44.136719zm0 0" fill="#7ed09e"/><path d="m185.378906 224.453125c0 9.753906-7.902344 17.65625-17.652344 17.65625-9.753906 0-17.65625-7.902344-17.65625-17.65625 0-9.75 7.902344-17.652344 17.65625-17.652344 9.75 0 17.652344 7.902344 17.652344 17.652344zm0 0" fill="#2c2f38"/><path d="m361.933594 224.453125c0 9.753906-7.90625 17.65625-17.65625 17.65625s-17.65625-7.902344-17.65625-17.65625c0-9.75 7.90625-17.652344 17.65625-17.652344s17.65625 7.902344 17.65625 17.652344zm0 0" fill="#2c2f38"/><path d="m158.898438 392.179688h61.792968v26.480468c0 9.753906-7.90625 17.65625-17.65625 17.65625h-26.484375c-9.75 0-17.652343-7.902344-17.652343-17.65625zm0 0" fill="#f9eab0"/><path d="m167.726562 392.179688h44.136719v26.480468c0 9.753906-7.90625 17.65625-17.65625 17.65625h-8.828125c-9.75 0-17.652344-7.902344-17.652344-17.65625zm0 0" fill="#f5efca"/><g fill="#df4d60"><path d="m220.691406 471.628906v34.777344c-5.914062-.175781-11.828125-.351562-17.65625-.703125v-34.074219c0-4.878906 3.953125-8.828125 8.828125-8.828125s8.828125 3.949219 8.828125 8.828125zm0 0"/><path d="m308.964844 471.628906v34.160156c-5.824219.265626-11.738282.53125-17.652344.617188v-34.777344c0-4.878906 3.949219-8.828125 8.824219-8.828125 4.878906 0 8.828125 3.949219 8.828125 8.828125zm0 0"/><path d="m264.828125 453.972656v52.875c-2.914063.089844-5.824219.089844-8.828125.089844-3 0-5.914062 0-8.828125-.089844v-52.875c0-4.875 3.953125-8.828125 8.828125-8.828125s8.828125 3.953125 8.828125 8.828125zm0 0"/><path d="m217.945312 107.84375c-20.929687-14.859375-33.46875-38.847656-33.730468-64.511719-.046875-1.890625 1.117187-3.601562 2.894531-4.25 1.773437-.652343 3.765625-.101562 4.953125 1.371094 7.328125 9.828125 17.238281 17.429687 28.628906 21.960937 3.113282 1.089844 6.574219.351563 8.972656-1.914062 2.398438-2.269531 3.332032-5.683594 2.421876-8.855469-3.265626-12.1875-3.117188-30.957031 16.773437-50.378906 1.242187-1.21875 3.085937-1.597656 4.707031-.960937 1.621094.640624 2.71875 2.171874 2.796875 3.910156.320313 6.296875 1.042969 12.570312 2.152344 18.777344.578125 3.210937 2.875 5.84375 5.980469 6.84375 3.105468 1 6.507812.210937 8.851562-2.058594 9.789063-10.636719 25.105469-14.167969 38.566406-8.898438 1.363282.46875 2.414063 1.570313 2.8125 2.957032.394532 1.386718.089844 2.878906-.816406 4-8.652344 10.441406-27.523437 37.734374-13.65625 63.46875 1.492188 2.546874 1.597656 5.675781.28125 8.316406s-3.882812 4.4375-6.8125 4.773437l-69.871094 6.992188c-2.09375.230469-4.195312-.320313-5.90625-1.542969zm0 0"/></g><path d="m335.449219 268.59375c-.613281 11.707031-4.667969 22.976562-11.652344 32.394531-9.859375 14.5-23.722656 25.816407-39.902344 32.574219-17.832031 7.535156-37.953125 7.535156-55.789062 0-16.179688-6.757812-30.042969-18.074219-39.902344-32.574219-.085937-.085937 0-.085937 0-.085937-6.980469-9.386719-11.035156-20.628906-11.652344-32.308594 0-29.21875 35.578125-35.3125 79.449219-35.3125 43.875 0 79.449219 6.09375 79.449219 35.3125zm0 0" fill="#802d40"/><path d="m323.796875 300.988281c-9.859375 14.5-23.722656 25.816407-39.902344 32.574219-6.5-4.945312-10.292969-12.664062-10.238281-20.832031-.03125-12.300781 8.429688-22.996094 20.402344-25.796875 11.976562-2.804688 24.304687 3.023437 29.738281 14.054687zm0 0" fill="#2c2f38"/><path d="m238.34375 312.730469c.054688 8.167969-3.738281 15.886719-10.238281 20.832031-16.179688-6.757812-30.042969-18.074219-39.902344-32.574219-.085937-.085937 0-.085937 0-.085937 5.507813-10.949219 17.8125-16.6875 29.742187-13.875 11.925782 2.816406 20.367188 13.445312 20.398438 25.703125zm0 0" fill="#2c2f38"/><path d="m388.414062 401.007812h-264.828124c-34.109376-.039062-61.753907-27.683593-61.792969-61.792968 0-4.875 3.953125-8.828125 8.828125-8.828125s8.828125 3.953125 8.828125 8.828125c.027343 24.363281 19.773437 44.105468 44.136719 44.136718h264.828124c24.363282-.03125 44.109376-19.773437 44.136719-44.136718 0-4.875 3.953125-8.828125 8.828125-8.828125s8.828125 3.953125 8.828125 8.828125c-.039062 34.109375-27.679687 61.753906-61.792969 61.792968zm0 0" fill="#802d40"/><path d="m158.898438 197.972656c0 9.75-7.90625 17.65625-17.65625 17.65625s-17.65625-7.90625-17.65625-17.65625 7.90625-17.65625 17.65625-17.65625 17.65625 7.90625 17.65625 17.65625zm0 0" fill="#fff"/><path d="m335.449219 197.972656c0 9.75-7.90625 17.65625-17.65625 17.65625s-17.65625-7.90625-17.65625-17.65625 7.90625-17.65625 17.65625-17.65625 17.65625 7.90625 17.65625 17.65625zm0 0" fill="#fff"/></svg>