<svg height="512pt" viewBox="0 0 512 512.00747" width="512pt" xmlns="http://www.w3.org/2000/svg"><path d="m493.289062 120.503906c-8.746093 15.402344-20.339843 29-34.164062 40.078125l-27.894531-26.394531c-.617188-.53125-1.234375-1.058594-1.765625-1.589844-5.433594-5.738281-6.40625-14.382812-2.382813-21.1875 27.1875-45.460937 57.644531-65.410156 82.890625-73.796875h.089844c4.679688 28.75-1.285156 58.222657-16.773438 82.890625zm0 0" fill="#fac176"/><path d="m427.082031 111.410156c-2.972656 6.992188-2.066406 15.03125 2.382813 21.1875l-19.535156-12.171875-34.425782-38.84375c2.867188-7.925781 6.441406-15.578125 10.679688-22.863281 26.835937-46.433594 72.5625-70.265625 102.136718-53.140625 11.445313 7.109375 19.3125 18.769531 21.625 32.042969-25.21875 8.378906-55.675781 28.328125-82.863281 73.789062zm0 0" fill="#cc66a1"/><path d="m112.027344 109.117188-41.402344 33.808593c-9.140625-4.828125-17.75-10.597656-25.6875-17.214843-32.75-27.277344-49.347656-63.820313-43.875-90.835938 40.917969 5.230469 77.851562 27.148438 102.046875 60.558594 3.238281 4.382812 6.214844 8.949218 8.917969 13.683594zm0 0" fill="#fac176"/><path d="m157.929688 71.511719-45.902344 37.605469c-2.703125-4.734376-5.679688-9.300782-8.917969-13.683594-24.195313-33.410156-61.128906-55.328125-102.046875-60.558594 1.308594-6.910156 4.34375-13.378906 8.828125-18.800781 21.804687-26.21875 72.914063-19.6875 114.140625 14.652343 13.8125 11.292969 25.320312 25.140626 33.898438 40.785157zm0 0" fill="#cc66a1"/><path d="m512.003906 293.523438c0 120.675781-114.582031 218.484374-256 218.484374-3 0-5.914062 0-8.828125-.175781-137.355469-3.972656-247.17187475-100.195312-247.17187475-218.308593.80078175-58.015626 26.52734375-112.882813 70.62109375-150.597657 7.199219-6.511719 14.804688-12.554687 22.773438-18.097656l98.871093-42.902344c18.050781-3.953125 36.433594-6.230469 54.90625-6.796875 2.914063-.085937 5.828125-.085937 8.828125-.085937 21.433594-.023438 42.800782 2.285156 63.734375 6.882812l87.058594 31.023438 24.433594 21.238281c9.988281 8.039062 19.320312 16.863281 27.894531 26.394531 33.597656 36.164063 52.457031 83.582031 52.878906 132.941407zm0 0" fill="#804169"/><path d="m494.347656 293.523438c0 118.113281-109.8125 214.335937-247.171875 218.308593-137.355469-3.972656-247.17187475-100.195312-247.17187475-218.308593.80078175-58.015626 26.52734375-112.882813 70.62109375-150.597657 7.199219-6.511719 14.804688-12.554687 22.773438-18.097656l98.871093-42.902344c18.050781-3.953125 36.433594-6.230469 54.90625-6.796875 18.472657.578125 36.851563 2.855469 54.90625 6.796875l111.492188 52.261719c9.992187 8.039062 19.320312 16.863281 27.898437 26.394531 33.59375 36.164063 52.453125 83.582031 52.875 132.941407zm0 0" fill="#cc66a1"/><path d="m256.003906 247.179688c.050782 29.382812-14.589844 56.847656-39.019531 73.179687-4.8125 3.296875-9.960937 6.078125-15.359375 8.300781l-2.292969-.796875h-.089843c-13.25-16.5625-30.859376-29.09375-50.847657-36.191406-19.183593-7.394531-39.976562-9.617187-60.292969-6.445313-5.71875-11.867187-8.675781-24.875-8.648437-38.046874.003906-25.429688 10.972656-49.625 30.101563-66.382813.085937-.089844.085937-.089844.175781-.089844 26.0625-22.78125 63.039062-28.214843 94.554687-13.894531s51.742188 45.75 51.71875 80.367188zm0 0" fill="#e6e7e8"/><path d="m247.175781 253.976562c.0625 25.464844-10.957031 49.695313-30.191406 66.382813-4.8125 3.296875-9.960937 6.078125-15.359375 8.300781l-2.292969-.796875h-.089843c-13.25-16.5625-30.859376-29.09375-50.847657-36.191406-19.183593-7.394531-39.976562-9.617187-60.292969-6.445313-5.71875-11.867187-8.675781-24.875-8.648437-38.046874.003906-25.429688 10.972656-49.625 30.101563-66.382813.085937-.089844.085937-.089844.175781-.089844 14.507812-9.828125 31.644531-15.058593 49.167969-15.003906 23.414062 0 45.867187 9.296875 62.421874 25.855469 16.554688 16.554687 25.855469 39.007812 25.855469 62.417968zm0 0" fill="#fff"/><path d="m432.554688 247.179688c.027343 13.171874-2.929688 26.179687-8.648438 38.046874-1.679688-.265624-3.269531-.53125-4.945312-.707031-18.753907-2.046875-37.730469.402344-55.347657 7.152344-18.054687 6.488281-34.21875 17.34375-47.050781 31.601563-1.324219 1.5-2.5625 3-3.796875 4.589843h-.089844l-1.410156.53125-.882813.265625c-40.894531-17.007812-62.855468-61.679687-51.347656-104.449218 11.507813-42.765626 52.921875-70.382813 96.828125-64.574219 43.902344 5.8125 76.707031 43.253906 76.691407 87.542969zm0 0" fill="#e6e7e8"/><path d="m423.726562 256.007812c.011719 9.703126-1.597656 19.339844-4.765624 28.511719-18.753907-2.046875-37.730469.402344-55.347657 7.152344-18.054687 6.488281-34.21875 17.34375-47.050781 31.601563-1.894531 1.570312-3.664062 3.28125-5.296875 5.121093l-.882813.265625c-26.1875-10.871094-45.546874-33.667968-52.039062-61.265625-6.488281-27.601562.6875-56.636719 19.289062-78.035156 26.097657-22.671875 63.03125-28.015625 94.484376-13.667969 31.453124 14.351563 51.625 45.746094 51.609374 80.316406zm0 0" fill="#fff"/><path d="m203.039062 247.179688c0 19.5-15.808593 35.308593-35.3125 35.308593-19.5 0-35.308593-15.808593-35.308593-35.308593s15.808593-35.308594 35.308593-35.308594c19.503907 0 35.3125 15.808594 35.3125 35.308594zm0 0" fill="#67b9cc"/><path d="m379.589844 247.179688c0 19.5-15.808594 35.308593-35.308594 35.308593-19.503906 0-35.3125-15.808593-35.3125-35.308593s15.808594-35.308594 35.3125-35.308594c19.5 0 35.308594 15.808594 35.308594 35.308594zm0 0" fill="#67b9cc"/><path d="m185.382812 247.179688c0 9.75-7.902343 17.65625-17.65625 17.65625-9.75 0-17.652343-7.90625-17.652343-17.65625s7.902343-17.65625 17.652343-17.65625c9.753907 0 17.65625 7.90625 17.65625 17.65625zm0 0" fill="#2c2f38"/><path d="m361.933594 247.179688c0 9.75-7.902344 17.65625-17.652344 17.65625-9.753906 0-17.65625-7.90625-17.65625-17.65625s7.902344-17.65625 17.65625-17.65625c9.75 0 17.652344 7.90625 17.652344 17.65625zm0 0" fill="#2c2f38"/><path d="m201.273438 94.207031-10.59375-14.40625c-6.726563-9.234375-18.644532-13.066406-29.492188-9.480469-42.503906 12.835938-73.878906 48.914063-80.695312 92.785157-.4375 2.058593.636718 4.136719 2.566406 4.972656 1.929687.832031 4.183594.191406 5.378906-1.539063 15.890625-22.066406 51.199219-60.027343 105.542969-58.332031 3.339843.054688 6.425781-1.785156 7.96875-4.75 1.542969-2.960937 1.28125-6.542969-.675781-9.25zm0 0" fill="#802d40"/><path d="m310.734375 94.207031 10.59375-14.40625c6.726563-9.234375 18.644531-13.066406 29.492187-9.480469 42.503907 12.835938 73.878907 48.914063 80.695313 92.785157.4375 2.058593-.636719 4.136719-2.566406 4.972656-1.929688.832031-4.183594.191406-5.378907-1.539063-15.890624-22.066406-51.203124-60.027343-105.542968-58.332031-3.34375.054688-6.425782-1.785156-7.96875-4.75-1.542969-2.960937-1.28125-6.542969.675781-9.25zm0 0" fill="#802d40"/><path d="m306.761719 467.691406c-16.234375 6.054688-33.433594 9.105469-50.757813 9.003906-16.28125.066407-32.457031-2.621093-47.84375-7.941406 3.679688-3.417968 6.648438-7.527344 8.738282-12.09375 5.558593-12.007812 4.765624-24.1875-1.855469-27.277344-1.277344-.652343-2.734375-.871093-4.148438-.621093 27.460938-18.605469 63.519531-18.464844 90.835938.355469-.277344.046874-.542969.136718-.792969.265624-6.621094 3.089844-7.503906 15.269532-1.855469 27.277344 1.855469 4.121094 4.457031 7.863282 7.679688 11.03125zm0 0" fill="#ff5364"/><path d="m370.761719 390.097656c0 1.5-.085938 3.003906-.175781 4.855469v.441406c-.089844 1.148438-.265626 2.121094-.351563 3.265625.011719.125-.019531.25-.089844.355469-1.039062 7.917969-3.523437 15.574219-7.328125 22.597656-5.808594 10.875-13.835937 20.410157-23.570312 27.984375-3.992188 3.210938-8.210938 6.132813-12.621094 8.738282-6.339844 3.679687-12.988281 6.8125-19.863281 9.355468-3.222657-3.167968-5.824219-6.910156-7.679688-11.03125-5.648437-12.007812-4.765625-24.1875 1.855469-27.277344.25-.128906.515625-.21875.792969-.265624-27.316407-18.820313-63.375-18.960938-90.835938-.355469 1.414063-.25 2.871094-.03125 4.148438.621093 6.621093 3.089844 7.414062 15.269532 1.855469 27.277344-2.089844 4.566406-5.058594 8.675782-8.738282 12.09375-6.542968-2.246094-12.890625-5.023437-18.980468-8.300781-5.878907-3.25-11.488282-6.972656-16.773438-11.121094-9.5625-7.507812-17.46875-16.917969-23.214844-27.628906-3.273437-6.25-5.625-12.941406-6.976562-19.863281-.175782-1.058594-.261719-2.121094-.441406-3.179688-.175782-1.058594-.261719-2.117187-.351563-3.265625v-.617187c-.089844-1.675782-.175781-3.179688-.175781-4.679688s.085937-3 .175781-4.855468v-.351563c.089844-1.148437.265625-2.117187.351563-3.355469 1.046874-20.988281 12.597656-40.035156 30.722656-50.667968 5.347656-2.765626 11.277344-4.21875 17.300781-4.238282 13.261719.394532 25.601563 6.875 33.457031 17.566406 2.714844 3.683594 4.914063 7.722657 6.53125 12.003907 2.511719 7.996093 6.394532 15.496093 11.476563 22.160156 3.832031 4.015625 9.195312 6.199219 14.742187 6 6.4375.214844 12.550782-2.84375 16.242188-8.121094 4.265625-6.523437 7.707031-13.550781 10.242187-20.921875 1.546875-3.984375 3.660157-7.730468 6.265625-11.121094 7.855469-10.691406 20.195313-17.171874 33.457032-17.566406 6.046874.050782 12 1.5 17.390624 4.238282 18.074219 10.671874 29.578126 29.707031 30.632813 50.667968.085937 1.238282.261719 2.207032.351563 3.355469v.617187c.089843 1.589844.175781 3.089844.175781 4.589844zm0 0" fill="#802d40"/><g fill="#f5efca"><path d="m241.261719 378.359375c-2.105469 1.660156-4.347657 3.136719-6.710938 4.414063-11.652343 6.175781-23.921875 5.914062-27.363281-.53125-3.441406-6.445313 3.265625-16.683594 15.007812-22.863282 2.402344-1.339844 4.949219-2.40625 7.589844-3.179687 2.511719 7.996093 6.394532 15.496093 11.476563 22.160156zm0 0"/><path d="m163.933594 419.230469c-4.695313 1.828125-9.710938 2.667969-14.742188 2.472656-3.273437-6.25-5.625-12.941406-6.976562-19.863281 3.601562-3.25 7.800781-5.769532 12.359375-7.414063 12.359375-4.679687 24.542969-2.914062 27.101562 3.96875 2.558594 6.886719-5.386719 16.15625-17.742187 20.835938zm0 0"/><path d="m216.898438 456.660156c-2.089844 4.566406-5.058594 8.675782-8.738282 12.09375-6.542968-2.246094-12.890625-5.023437-18.980468-8.300781.21875-5.199219 1.480468-10.300781 3.707031-15.003906 2.90625-8.175781 9.632812-14.410157 18.007812-16.6875 1.414063-.25 2.871094-.03125 4.148438.621093 6.621093 3.089844 7.414062 15.269532 1.855469 27.277344zm0 0"/><path d="m308.703125 382.242188c-3.441406 6.445312-15.710937 6.707031-27.363281.53125-3.324219-1.742188-6.382813-3.941407-9.09375-6.535157 4.265625-6.523437 7.707031-13.550781 10.242187-20.921875 3.96875.707032 7.789063 2.082032 11.296875 4.0625 11.652344 6.179688 18.363282 16.417969 14.917969 22.863282zm0 0"/><path d="m370.144531 399.015625c-1.039062 7.917969-3.523437 15.574219-7.328125 22.597656-3.691406-.238281-7.324218-1.042969-10.769531-2.382812-12.359375-4.679688-20.390625-14.035157-17.742187-20.835938 2.648437-6.796875 14.652343-8.648437 27.011718-3.96875 3.132813 1.132813 6.101563 2.675781 8.828125 4.589844zm0 0"/><path d="m326.625 458.335938c-6.339844 3.679687-12.988281 6.8125-19.863281 9.355468-3.222657-3.167968-5.824219-6.910156-7.679688-11.03125-5.648437-12.007812-4.765625-24.1875 1.855469-27.277344.25-.128906.515625-.21875.792969-.265624 6.53125-2.382813 15.890625 4.765624 21.363281 16.332031 1.945312 4.046875 3.140625 8.414062 3.53125 12.886719zm0 0"/></g><path d="m167.726562 229.523438c0 9.753906-7.902343 17.65625-17.652343 17.65625-9.753907 0-17.65625-7.902344-17.65625-17.65625 0-9.75 7.902343-17.652344 17.65625-17.652344 9.75 0 17.652343 7.902344 17.652343 17.652344zm0 0" fill="#fff"/><path d="m344.28125 229.523438c0 9.753906-7.90625 17.65625-17.65625 17.65625s-17.65625-7.902344-17.65625-17.65625c0-9.75 7.90625-17.652344 17.65625-17.652344s17.65625 7.902344 17.65625 17.652344zm0 0" fill="#fff"/></svg>