<svg height="512pt" viewBox="0 0 512 512.04527" width="512pt" xmlns="http://www.w3.org/2000/svg"><path d="m512.03125 282.507812c.285156 28.238282-7.757812 55.933594-23.128906 79.625-1.589844 2.472657-3.265625 4.855469-5.03125 7.238282h-455.679688c-1.765625-2.382813-3.445312-4.765625-5.03125-7.238282-15.371094-23.691406-23.417968-51.386718-23.128906-79.625.503906-33.148437 9.433594-65.621093 25.953125-94.367187l84.214844-90.128906c29.703125-20.054688 63.203125-33.8125 98.425781-40.429688l73.003906-.792969 16.597656-.179687c37.121094 6.1875 72.46875 20.3125 103.636719 41.402344l84.214844 90.128906c16.515625 28.746094 25.449219 61.21875 25.953125 94.367187zm0 0" fill="#df4d60"/><path d="m494.375 282.507812c.289062 28.238282-7.757812 55.933594-23.128906 79.625-1.589844 2.472657-3.265625 4.855469-5.03125 7.238282h-438.023438c-1.765625-2.382813-3.445312-4.765625-5.03125-7.238282-15.371094-23.691406-23.417968-51.386718-23.128906-79.625.503906-33.148437 9.433594-65.621093 25.953125-94.367187l84.214844-90.128906c29.703125-20.054688 63.203125-33.8125 98.425781-40.429688l73.003906-.792969c36.738282 6.28125 71.710938 20.335938 102.578125 41.222657l84.214844 90.128906c16.515625 28.746094 25.449219 61.21875 25.953125 94.367187zm0 0" fill="#ff5364"/><path d="m353.398438 459.679688c3.597656.453124 7.167968 1.132812 10.679687 2.027343l-78.121094 23.394531c-12.148437 2.984376-24.695312 4-37.164062 3 6.667969-.382812 13.289062-1.386718 19.773437-3zm0 0" fill="#ff5364"/><path d="m256.03125 229.542969c0 43.878906-35.570312 79.449219-79.449219 79.449219-2.949219 0-5.898437-.175782-8.828125-.53125 40.210938-4.464844 70.628906-38.460938 70.621094-78.917969.027344-7.808594-1.132812-15.578125-3.441406-23.039063zm0 0" fill="#e6e7e8"/><path d="m238.375 229.542969c.007812 40.457031-30.410156 74.453125-70.621094 78.917969-40.066406-4.648438-70.289062-38.582032-70.289062-78.917969 0-40.335938 30.222656-74.269531 70.289062-78.917969 2.929688-.355469 5.878906-.53125 8.828125-.53125 2.328125-.015625 4.65625.101562 6.972657.355469l4.945312 5.382812 46.433594 50.671875c2.308594 7.460938 3.46875 15.230469 3.441406 23.039063zm0 0" fill="#fff"/><path d="m467.890625 485.542969c-3.597656.023437-7.195313-.183594-10.769531-.617188 38.402344-6.796875 45.464844-72.386719 28.691406-87.660156-5.738281-5.910156-10.667969-12.5625-14.652344-19.773437-1.589844-2.558594-3.089844-5.296876-4.679687-8.121094h17.390625c1.589844 2.824218 3.089844 5.5625 4.675781 8.121094 3.988281 7.210937 8.917969 13.863281 14.65625 19.773437 17.65625 16.15625 8.828125 88.277344-35.3125 88.277344zm0 0" fill="#df4d60"/><path d="m457.121094 484.925781c-34.339844-3.355469-58.085938-21.894531-86.332032-25.246093l-6.710937 2.027343c-3.511719-.894531-7.082031-1.574219-10.679687-2.027343l-84.832032 25.421874c-6.484375 1.613282-13.105468 2.617188-19.773437 3-7.589844-.554687-15.117188-1.738281-22.511719-3.53125l-85.011719-24.890624c-3.574219.410156-7.117187 1.089843-10.589843 2.027343-26.574219 6.535157-50.847657 23.835938-86.511719 23.835938-2.222657.023437-4.441407-.183594-6.621094-.617188-38.398437-6.796875-45.460937-72.386719-28.6875-87.660156 5.738281-5.910156 10.664063-12.5625 14.652344-19.773437 1.589843-2.558594 3.089843-5.296876 4.679687-8.121094h438.289063c1.589843 2.824218 3.089843 5.5625 4.679687 8.121094 3.984375 7.210937 8.914063 13.863281 14.652344 19.773437 16.773438 15.273437 9.710938 80.863281-28.691406 87.660156zm0 0" fill="#ff5364"/><path d="m229.546875 429.398438v38.488281c.007813 5.722656-1.101563 11.390625-3.265625 16.683593-5.605469 13.628907-17.613281 23.585938-32.042969 26.574219-5.828125 1.175781-11.832031 1.175781-17.65625 0-20.589843-4.132812-35.382812-22.253906-35.3125-43.257812v-49.078125c.007813-5.285156 2.375-10.289063 6.460938-13.640625 4.085937-3.347657 9.457031-4.695313 14.640625-3.664063l52.964844 10.59375c8.253906 1.640625 14.203124 8.882813 14.210937 17.300782zm0 0" fill="#fb7b76"/><path d="m370.789062 418.808594v46.960937c.054688 21.210938-14.253906 39.769531-34.78125 45.109375-3.578124.875-7.261718 1.261719-10.945312 1.148438-2.253906-.085938-4.5-.351563-6.710938-.796875-8.679687-1.667969-16.667968-5.878907-22.949218-12.09375-3.996094-4.050781-7.199219-8.808594-9.445313-14.035157-2.277343-5.453124-3.445312-11.304687-3.445312-17.214843v-38.488281c.007812-8.417969 5.957031-15.660157 14.214843-17.300782l52.964844-10.59375c5.179688-1.03125 10.550782.316406 14.636719 3.664063 4.085937 3.351562 6.457031 8.355469 6.460937 13.640625zm0 0" fill="#fb7b76"/><path d="m230.519531 71.875c-6.113281-.769531-11.769531-3.652344-15.980469-8.148438-9.894531-10.789062-21.078124-20.324218-33.296874-28.390624-3.265626-2.035157-4.835938-5.949219-3.882813-9.675782.953125-3.726562 4.210937-6.410156 8.050781-6.628906 15.097656-1.039062 30.226563 1.523438 44.136719 7.476562 4.738281-12.871093 15.441406-22.636718 28.691406-26.183593 3.078125-.730469 6.3125.257812 8.457031 2.582031 2.148438 2.328125 2.871094 5.628906 1.894532 8.640625-2.316406 7.722656-3.574219 15.726563-3.730469 23.789063 12.847656-8.699219 27.398437-14.558594 42.6875-17.195313 3.632813-.59375 7.25 1.128906 9.082031 4.316406 1.828125 3.191407 1.488282 7.183594-.855468 10.019531-7.933594 8.804688-14.703126 18.59375-20.132813 29.128907-5.039063 10.496093-16.285156 16.527343-27.816406 14.921875zm0 0" fill="#df4d60"/><path d="m122.203125 171.632812-11.738281 13.859376c-4.035156 3.492187-8.519532 6.433593-13.332032 8.742187-17.082031 4.257813-34.882812 4.738281-52.171874 1.410156-5.847657-1.277343-11.492188-3.359375-16.769532-6.179687-15.800781-8.738282-28.160156-25.597656-28.160156-57.023438-.02734375-8.203125.445312-16.398437 1.410156-24.542968.613282-6.488282 1.558594-12.941407 2.824219-19.332032 5.136719-30.550781 16.855469-59.617187 34.339844-85.1875 2.207031-2.8125 5.894531-4.015625 9.335937-3.050781 3.441406.96875 5.960938 3.914063 6.378906 7.464844 5.777344 42.039062 31.621094 78.644531 69.296876 98.164062 0 0 15.710937 36.722657-1.414063 65.675781zm0 0" fill="#fdd7ad"/><path d="m512.03125 132.441406c0 31.425782-12.359375 48.285156-28.160156 57.023438-5.28125 2.820312-10.925782 4.902344-16.773438 6.179687-17.285156 3.328125-35.089844 2.847657-52.171875-1.410156-44.136719-26.484375-26.480469-88.277344-26.480469-88.277344 37.671876-19.519531 63.515626-56.125 69.296876-98.164062.417968-3.550781 2.9375-6.496094 6.378906-7.464844 3.441406-.964844 7.125.238281 9.332031 3.050781 17.488281 25.570313 29.203125 54.636719 34.339844 85.1875 1.269531 6.390625 2.210937 12.84375 2.824219 19.332032.96875 8.144531 1.4375 16.339843 1.414062 24.542968zm0 0" fill="#fdd7ad"/><path d="m69.679688 401.238281c-1.464844 2.996094-4.519532 4.886719-7.855469 4.855469-1.386719.015625-2.75-.316406-3.972657-.96875-12.921874-7.210938-24.535156-16.550781-34.339843-27.632812 1.589843-2.558594 3.089843-5.296876 4.679687-8.121094-1.765625-2.382813-3.445312-4.765625-5.03125-7.238282 3.757813-2.621093 8.894532-1.929687 11.828125 1.589844 1.621094 1.984375 3.359375 3.871094 5.207031 5.648438 7.425782 7.984375 16.066407 14.746094 25.601563 20.039062 2.089844 1.046875 3.675781 2.882813 4.40625 5.105469s.539063 4.640625-.523437 6.722656zm0 0" fill="#df4d60"/><path d="m483.871094 369.371094c1.589844 2.824218 3.089844 5.5625 4.675781 8.121094-9.804687 11.082031-21.414063 20.421874-34.335937 27.632812-1.222657.652344-2.589844.984375-3.972657.96875-3.335937.03125-6.390625-1.859375-7.859375-4.855469-1.0625-2.082031-1.25-4.5-.519531-6.722656.726563-2.222656 2.3125-4.058594 4.40625-5.105469 9.542969-5.316406 18.207031-12.074218 25.6875-20.039062 1.808594-1.789063 3.515625-3.675782 5.121094-5.648438 2.949219-3.488281 8.0625-4.175781 11.828125-1.589844-1.589844 2.472657-3.265625 4.855469-5.03125 7.238282zm0 0" fill="#df4d60"/><g fill="#7f6e5d"><path d="m83.449219 131.46875c-25.953125 13.066406-35.132813 41.402344-38.222657 62.941406-.085937.441406-.175781.882813-.265624 1.234375-5.847657-1.277343-11.492188-3.359375-16.769532-6.179687 5.648438-35.574219 21.980469-60.996094 47.316406-73.710938 4.265626-1.777344 9.183594.042969 11.269532 4.167969 2.085937 4.125.636718 9.164063-3.328125 11.546875zm0 0"/><path d="m52.996094 88.300781c0 4.875-3.953125 8.828125-8.828125 8.828125-13.074219.15625-25.902344 3.554688-37.339844 9.886719-1.277344.6875-2.699219 1.054687-4.148437 1.058594-.421876.035156-.84375-.023438-1.238282-.175781.613282-6.488282 1.558594-12.941407 2.824219-19.332032 12.484375-5.886718 26.101563-8.988281 39.902344-9.09375 2.339843 0 4.585937.933594 6.242187 2.585938 1.65625 1.65625 2.585938 3.902344 2.585938 6.242187zm0 0"/><path d="m483.871094 189.464844c-5.28125 2.820312-10.925782 4.902344-16.773438 6.179687-.089844-.351562-.175781-.792969-.265625-1.234375-3.089843-21.539062-12.269531-49.875-38.222656-62.941406-3.960937-2.382812-5.414063-7.421875-3.328125-11.546875s7.003906-5.945313 11.273438-4.167969c25.335937 12.714844 41.664062 38.136719 47.316406 73.710938zm0 0"/><path d="m510.617188 107.898438c-.394532.152343-.816407.210937-1.234376.175781-1.449218-.003907-2.875-.371094-4.148437-1.058594-11.441406-6.332031-24.269531-9.730469-37.34375-9.886719-4.875 0-8.824219-3.953125-8.824219-8.828125s3.949219-8.828125 8.824219-8.828125c13.804687.105469 27.417969 3.207032 39.902344 9.09375 1.269531 6.390625 2.210937 12.84375 2.824219 19.332032zm0 0"/></g><path d="m194.238281 485.542969v25.601562c-5.828125 1.175781-11.832031 1.175781-17.65625 0v-25.601562c0-4.875 3.953125-8.828125 8.828125-8.828125s8.828125 3.953125 8.828125 8.828125zm0 0" fill="#ff5364"/><path d="m336.007812 510.878906c-3.578124.875-7.261718 1.261719-10.945312 1.148438-2.253906-.085938-4.5-.351563-6.710938-.796875l-.527343-25.511719c-.046875-2.339844.835937-4.605469 2.460937-6.292969 1.621094-1.6875 3.847656-2.664062 6.1875-2.710937h.179688c4.804687 0 8.730468 3.84375 8.824218 8.652344zm0 0" fill="#ff5364"/><path d="m414.925781 229.542969c0 43.878906-35.570312 79.449219-79.449219 79.449219-2.949218 0-5.898437-.175782-8.824218-.53125-40.210938-4.464844-70.632813-38.460938-70.621094-78.917969l65.144531-78.125c1.855469-.351563 3.710938-.617188 5.652344-.792969 2.871094-.355469 5.757813-.53125 8.648437-.53125 43.878907 0 79.449219 35.570312 79.449219 79.449219zm0 0" fill="#e6e7e8"/><path d="m397.269531 229.542969c.011719 40.457031-30.40625 74.453125-70.617187 78.917969-40.210938-4.464844-70.632813-38.460938-70.621094-78.917969l27.277344-32.660157 15.003906-18.011718 22.863281-27.453125c1.855469-.351563 3.710938-.617188 5.652344-.792969 40.125 4.578125 70.433594 38.53125 70.441406 78.917969zm0 0" fill="#fff"/><path d="m220.71875 229.542969c0 24.378906-19.761719 44.136719-44.136719 44.136719s-44.136719-19.757813-44.136719-44.136719c0-24.375 19.761719-44.136719 44.136719-44.136719s44.136719 19.761719 44.136719 44.136719zm0 0" fill="#2fa8cc"/><path d="m379.617188 229.542969c0 24.378906-19.761719 44.136719-44.140626 44.136719-24.375 0-44.136718-19.757813-44.136718-44.136719 0-24.375 19.761718-44.136719 44.136718-44.136719 24.378907 0 44.140626 19.761719 44.140626 44.136719zm0 0" fill="#2fa8cc"/><path d="m203.066406 229.542969c0 14.625-11.859375 26.484375-26.484375 26.484375s-26.484375-11.859375-26.484375-26.484375 11.859375-26.484375 26.484375-26.484375 26.484375 11.859375 26.484375 26.484375zm0 0" fill="#2c2f38"/><path d="m361.960938 229.542969c0 14.625-11.855469 26.484375-26.484376 26.484375-14.625 0-26.480468-11.859375-26.480468-26.484375s11.855468-26.484375 26.480468-26.484375c14.628907 0 26.484376 11.859375 26.484376 26.484375zm0 0" fill="#2c2f38"/><path d="m194.238281 326.648438h123.585938c9.75 0 17.652343 7.902343 17.652343 17.652343v70.621094c0 9.75-7.902343 17.65625-17.652343 17.65625h-123.585938c-9.753906 0-17.65625-7.90625-17.65625-17.65625v-70.621094c0-9.75 7.902344-17.652343 17.65625-17.652343zm0 0" fill="#802d40"/><path d="m325.328125 328.324219-29.53125 36.890625c-2.597656 3.25-7.117187 4.242187-10.839844 2.382812l-7.324219-3.664062c-2.484374-1.242188-5.410156-1.242188-7.894531 0l-9.761719 4.875c-2.484374 1.238281-5.410156 1.238281-7.890624 0l-9.765626-4.875c-2.484374-1.242188-5.40625-1.242188-7.890624 0l-7.328126 3.664062c-3.722656 1.859375-8.238281.867188-10.839843-2.382812l-29.527344-36.890625c2.351563-1.09375 4.910156-1.667969 7.503906-1.675781h123.585938c2.59375.007812 5.152343.582031 7.503906 1.675781zm0 0" fill="#f5efca"/><path d="m176.582031 203.058594c0 14.628906-11.855469 26.484375-26.484375 26.484375-14.625 0-26.480468-11.855469-26.480468-26.484375 0-14.625 11.855468-26.480469 26.480468-26.480469 14.628906 0 26.484375 11.855469 26.484375 26.480469zm0 0" fill="#fff"/><path d="m335.476562 203.058594c0 14.628906-11.855468 26.484375-26.480468 26.484375s-26.484375-11.855469-26.484375-26.484375c0-2.082032.265625-4.160156.796875-6.175782l15.003906-18.011718c3.355469-1.527344 7-2.308594 10.683594-2.292969 14.625 0 26.480468 11.855469 26.480468 26.480469zm0 0" fill="#fff"/></svg>