<svg height="512pt" viewBox="0 0 512.02334 512" width="512pt" xmlns="http://www.w3.org/2000/svg"><path d="m383.46875 44.78125c34.957031.460938 102.09375-12.09375 119.996094-34.164062 1.054687-1.457032 2.890625-2.125 4.640625-1.691407 1.746093.433594 3.054687 1.886719 3.304687 3.671875 1.957032 14.359375.414063 46.429688-22.539062 58.046875 23.03125 11.210938 24.507812 43.539063 22.511718 58.023438-.246093 1.785156-1.554687 3.242187-3.300781 3.679687-1.75.4375-3.585937-.234375-4.644531-1.691406-17.921875-21.988281-85.011719-34.605469-119.96875-34.144531zm0 0" fill="#e64c3c"/><path d="m123.585938 397.265625c-13.207032-33.664063-46.347657-55.214844-82.476563-53.636719-1.429687.027344-2.78125-.636718-3.632813-1.785156-.847656-1.148438-1.089843-2.636719-.648437-3.996094 7.160156-22.289062 24.96875-39.535156 47.476563-45.980468 2.253906-.648438 3.574218-2.980469 2.972656-5.246094-7.785156-27.949219-31.664063-22.421875-44.191406-17.355469-1.558594.621094-3.335938.300781-4.582032-.820313-1.25-1.125-1.75-2.859374-1.296875-4.476562 7.207031-26.378906 22.910157-49.648438 44.675781-66.207031 1.296876-1.003907 1.933594-2.640625 1.660157-4.257813-.273438-1.621094-1.410157-2.957031-2.964844-3.480468-15.667969-5.289063-32.910156-2.957032-46.609375 6.308593-1.445312.976563-3.324219 1.011719-4.804688.089844-1.476562-.921875-2.277343-2.625-2.035156-4.351563 4.730469-36.457031 34.1875-58.632812 46.703125-66.515624 1.285157-.808594 2.0625-2.21875 2.0625-3.734376 0-1.515624-.777343-2.925781-2.0625-3.734374-12.726562-7.0625-30.257812-2.453126-40.03125 1.128906-1.535156.546875-3.25.210937-4.464843-.875-1.21875-1.089844-1.742188-2.753906-1.371094-4.339844 4.664062-28.421875 27.632812-50.289062 56.25-53.550781 1.175781-.167969 2.238281-.800781 2.949218-1.753907.710938-.957031 1.011719-2.152343.839844-3.328124-2.515625-21.1875-21.46875-31.78125-33.625-36.433594-1.703125-.613282-2.859375-2.203125-2.917968-4.011719-.058594-1.804687.992187-3.46875 2.652343-4.1875 42-18.714844 89.46875-8.828125 114.230469-1.070313zm0 0" fill="#d75e72"/><path d="m512 450.230469c0 16.390625-6.511719 32.109375-18.097656 43.695312-11.589844 11.589844-27.308594 18.101563-43.695313 18.101563h-291.308593c58.476562-.058594 105.871093-47.453125 105.929687-105.933594v-17.65625h185.378906c16.386719 0 32.105469 6.511719 43.695313 18.101562 11.585937 11.585938 18.097656 27.304688 18.097656 43.691407zm0 0" fill="#46b29d"/><path d="m414.898438 326.644531c0 1.765625-.089844 3.53125-.265626 5.296875-2.710937 31.960938-29.453124 56.515625-61.53125 56.496094h-88.273437v-123.585938h88.273437c2.808594-.015624 5.613282.191407 8.386719.621094 27.265625 3.695313 48.777344 25.023438 52.703125 52.257813.5 2.945312.738282 5.929687.707032 8.914062zm0 0" fill="#527f72"/><path d="m414.191406 317.730469c-4.265625 30.453125-30.335937 53.09375-61.089844 53.054687h-88.273437v-105.933594h88.273437c2.808594-.015624 5.613282.191407 8.386719.621094 27.265625 3.695313 48.777344 25.023438 52.703125 52.257813zm0 0" fill="#46b29d"/><path d="m388.265625 75.316406c-3.277344 37.671875-35.0625 66.4375-72.875 65.949219h-24.082031c-14.625 0-26.480469 11.859375-26.480469 26.484375v238.34375c-.058594 58.480469-47.453125 105.875-105.929687 105.933594h-94.554688c-17.019531.164062-33.398438-6.488282-45.484375-18.472656-12.089844-11.984376-18.8789062-28.304688-18.859375-45.328126 1.082031-33.339843 28.433594-59.804687 61.792969-59.789062h17.65625c24.375 0 44.136719-19.757812 44.136719-44.136719v-256c0-48.753906 39.523437-88.2734372 88.277343-88.2734372h105.929688c19.542969-.0039063 38.210937 8.0937502 51.5625 22.3593752 13.355469 14.269531 20.199219 33.429687 18.910156 52.929687zm0 0" fill="#65ddb9"/><path d="m291.222656 81.328125c-.992187 23.613281-20.414062 42.257813-44.050781 42.285156-2.9375.019531-5.867187-.277343-8.738281-.882812h-.175782c-19.78125-4.097657-34.265624-21.082031-35.179687-41.261719-.917969-20.179688 11.96875-38.410156 31.292969-44.277344l23.042968 17.917969h.085938l10.769531 8.386719 3.355469 2.648437zm0 0" fill="#e6e7e8"/><g fill="#d75e72"><path d="m264.828125 190.171875v78.742187c-9.664063 8.773438-22.257813 13.621094-35.3125 13.59375-29.25 0-52.964844-23.714843-52.964844-52.964843 0-29.253907 23.714844-52.964844 52.964844-52.964844 13.054687-.03125 25.648437 4.820313 35.3125 13.59375zm0 0"/><path d="m414.898438 432.578125c0 24.375-19.761719 44.136719-44.140626 44.136719-24.375 0-44.136718-19.761719-44.136718-44.136719 0-24.378906 19.761718-44.140625 44.136718-44.140625 24.378907 0 44.140626 19.761719 44.140626 44.140625zm0 0"/><path d="m414.898438 326.644531c0 1.765625-.089844 3.53125-.265626 5.296875-18.25 7.835938-39.484374 2.515625-51.886718-12.996094-12.402344-15.511718-12.917969-37.398437-1.257813-53.472656 30.613281 4.132813 53.441407 30.28125 53.410157 61.171875zm0 0"/><path d="m219.453125 492.957031c-17.722656 12.476563-38.882813 19.140625-60.554687 19.070313h-25.601563c-.609375-2.90625-.90625-5.863282-.882813-8.828125.066407-22.332031 16.800782-41.097657 38.980469-43.707031 22.179688-2.609376 42.8125 11.757812 48.058594 33.464843zm0 0"/></g><path d="m273.65625 79.472656c-.023438 20.9375-14.722656 38.992188-35.222656 43.257813h-.175782c-19.78125-4.097657-34.265624-21.082031-35.179687-41.261719-.917969-20.179688 11.96875-38.410156 31.292969-44.277344l23.042968 17.917969h.085938l10.769531 8.386719 3.355469 2.648437c1.347656 4.316407 2.03125 8.808594 2.03125 13.328125zm0 0" fill="#fff"/><path d="m273.65625 79.472656c0 14.628906-11.859375 26.484375-26.484375 26.484375s-26.480469-11.855469-26.480469-26.484375c0-14.625 11.855469-26.480468 26.480469-26.480468 3.523437-.023438 7.015625.699218 10.242187 2.117187h.085938l10.769531 8.386719c3.496094 4.59375 5.386719 10.207031 5.386719 15.976562zm0 0" fill="#67b9cc"/><path d="m264.828125 79.472656c0 9.75-7.90625 17.65625-17.65625 17.65625s-17.65625-7.90625-17.65625-17.65625 7.90625-17.652344 17.65625-17.652344 17.65625 7.902344 17.65625 17.652344zm0 0" fill="#2c2f38"/><path d="m238.34375 66.230469c0 7.316406-5.925781 13.242187-13.242188 13.242187-7.3125 0-13.238281-5.925781-13.238281-13.242187 0-7.3125 5.925781-13.238281 13.238281-13.238281 7.316407 0 13.242188 5.925781 13.242188 13.238281zm0 0" fill="#fff"/></svg>