<svg height="511pt" viewBox="-4 0 511 511.9991" width="511pt" xmlns="http://www.w3.org/2000/svg"><path d="m138.304688 109.339844-62.394532 95.71875c-14.132812-2.03125-27.714844-6.902344-39.917968-14.316406-5.371094-3.253907-10.226563-7.289063-14.40625-11.976563-12.84375-14.144531-21.085938-34.972656-21.085938-65.953125-.019531-7.761719.621094-15.515625 1.910156-23.171875 1.035156-6.195313 2.601563-12.292969 4.683594-18.222656 11.3125-31.207031 37.511719-54.667969 69.773438-62.480469 2.492187-.613281 5.128906-.085938 7.191406 1.441406s3.339844 3.894532 3.480468 6.457032c2.777344 52.328124 27.335938 79.835937 50.765626 92.503906zm0 0" fill="#fdd7ad"/><path d="m503.820312 112.8125c0 30.980469-8.242187 51.808594-21.085937 65.953125-4.179687 4.6875-9.035156 8.722656-14.40625 11.976563-12.203125 7.414062-25.78125 12.285156-39.917969 14.316406l-62.394531-95.71875c23.429687-12.667969 47.988281-40.175782 50.765625-92.503906.144531-2.5625 1.417969-4.929688 3.484375-6.457032 2.0625-1.527344 4.699219-2.054687 7.191406-1.441406 32.273438 7.828125 58.492188 31.277344 69.855469 62.480469 2.011719 5.945312 3.550781 12.039062 4.601562 18.222656 1.289063 7.65625 1.925782 15.410156 1.90625 23.171875zm0 0" fill="#fdd7ad"/><path d="m434.398438 251.660156v107.433594h-364.476563v-107.433594c-.027344-97.011718 75.980469-177.027344 172.867187-181.976562.457032-.085938.929688-.085938 1.386719 0 2.605469-.175782 5.296875-.261719 7.984375-.261719 100.648438 0 182.238282 81.589844 182.238282 182.238281zm0 0" fill="#802f34"/><path d="m417.042969 251.660156v107.433594h-347.121094v-107.433594c-.027344-97.011718 75.980469-177.027344 172.867187-181.976562.457032-.085938.929688-.085938 1.386719 0 96.886719 4.949218 172.894531 84.964844 172.867188 181.976562zm0 0" fill="#c03a2b"/><path d="m477.789062 425.21875c.207032 22.550781-7.882812 44.386719-22.738281 61.355469-13.886719 15.960937-33.945312 25.21875-55.105469 25.425781h-295.570312c-43.042969 0-77.839844-38.878906-77.839844-86.78125-.171875-18.054688 6.316406-35.542969 18.222656-49.117188 11.097657-12.734374 27.105469-20.121093 43.996094-20.304687h326.8125c34.367188 0 62.222656 31.066406 62.222656 69.421875zm0 0" fill="#c03a2b"/><path d="m460.433594 425.21875c.207031 22.550781-7.882813 44.386719-22.738282 61.355469-13.886718 15.960937-33.945312 25.21875-55.105468 25.425781h-278.214844c-43.042969 0-77.839844-38.878906-77.839844-86.78125-.171875-18.054688 6.316406-35.542969 18.222656-49.117188 11.097657-12.734374 27.105469-20.121093 43.996094-20.304687h309.457032c34.363281 0 62.222656 31.066406 62.222656 69.421875zm0 0" fill="#e64c3c"/><path d="m373.652344 208.269531c.027344 17.414063-7.472656 33.992188-20.566406 45.472657l-4.253907 3.386718c-10.363281 7.765625-22.976562 11.9375-35.925781 11.886719h-121.492188c-12.949218.050781-25.5625-4.121094-35.925781-11.886719l-4.253906-3.386718c-17.792969-15.660157-24.824219-40.257813-17.992187-62.957032 6.832031-22.699218 26.273437-39.332031 49.753906-42.566406 2.78125-.492188 5.597656-.726562 8.417968-.695312 21.316407-.007813 41.078126 11.15625 52.070313 29.417968v.089844c5.71875 9.414062 8.71875 20.222656 8.675781 31.238281-.042968-30.199219 22.167969-55.816406 52.070313-60.050781 2.863281-.496094 5.769531-.730469 8.675781-.695312 33.550781 0 60.746094 27.199218 60.746094 60.746093zm0 0" fill="#e6e7e8"/><path d="m356.296875 208.269531c.027344 17.414063-7.472656 33.992188-20.566406 45.472657l-4.253907 3.386718c-10.363281 7.765625-22.976562 11.9375-35.925781 11.886719h-104.136719c-12.949218.050781-25.5625-4.121094-35.925781-11.886719l-4.253906-3.386718c-17.792969-15.660157-24.824219-40.257813-17.992187-62.957032 6.832031-22.699218 26.273437-39.332031 49.753906-42.566406 17.972656 2.640625 33.808594 13.21875 43.132812 28.8125 5.714844 9.414062 8.71875 20.222656 8.675782 31.238281-.042969-11.015625 2.960937-21.824219 8.679687-31.238281 5.71875 9.414062 8.71875 20.222656 8.675781 31.238281-.042968-30.199219 22.167969-55.816406 52.070313-60.050781 29.898437 4.234375 52.109375 29.851562 52.066406 60.050781zm0 0" fill="#fff"/><path d="m226.128906 208.269531c0 19.171875-15.542968 34.710938-34.714844 34.710938-19.167968 0-34.710937-15.539063-34.710937-34.710938s15.542969-34.710937 34.710937-34.710937c19.171876 0 34.714844 15.539062 34.714844 34.710937zm0 0" fill="#f0c419"/><path d="m347.617188 208.269531c0 19.171875-15.539063 34.710938-34.710938 34.710938s-34.710938-15.539063-34.710938-34.710938 15.539063-34.710937 34.710938-34.710937 34.710938 15.539062 34.710938 34.710937zm0 0" fill="#f0c419"/><path d="m208.769531 208.269531c0 9.585938-7.769531 17.355469-17.355469 17.355469-9.585937 0-17.355468-7.769531-17.355468-17.355469 0-9.585937 7.769531-17.355469 17.355468-17.355469 9.585938 0 17.355469 7.769532 17.355469 17.355469zm0 0" fill="#2c2f38"/><path d="m330.261719 208.269531c0 9.585938-7.769531 17.355469-17.355469 17.355469s-17.355469-7.769531-17.355469-17.355469c0-9.585937 7.769531-17.355469 17.355469-17.355469s17.355469 7.769532 17.355469 17.355469zm0 0" fill="#2c2f38"/><g fill="#7f6e5d"><path d="m74.695312 128.691406c-19.722656 13.859375-33.121093 35-37.226562 58.75-.257812 1.191406-.761719 2.316406-1.476562 3.300782-5.371094-3.253907-10.226563-7.289063-14.40625-11.976563 5.8125-26.242187 21.386718-49.292969 43.566406-64.476563 3.945312-2.121093 8.859375-.882812 11.335937 2.851563 2.472657 3.734375 1.699219 8.742187-1.792969 11.550781zm0 0"/><path d="m61.070312 79.835938c-.457031 2.257812-1.796874 4.238281-3.714843 5.507812-1.921875 1.269531-4.269531 1.722656-6.523438 1.261719-14.667969-2.78125-29.796875-1.828125-43.996093 2.777343-.84375.269532-1.71875.417969-2.605469.433594-.609375-.015625-1.21875-.074218-1.820313-.175781 1.035156-6.195313 2.601563-12.292969 4.683594-18.222656 15.375-4.316407 31.550781-4.9375 47.210938-1.820313 2.253906.457032 4.234374 1.796875 5.503906 3.714844 1.269531 1.921875 1.722656 4.269531 1.261718 6.523438zm0 0"/><path d="m482.734375 178.765625c-4.179687 4.6875-9.035156 8.722656-14.40625 11.976563-.714844-.984376-1.21875-2.109376-1.472656-3.300782-4.109375-23.75-17.503907-44.890625-37.230469-58.75-3.488281-2.808594-4.265625-7.816406-1.789062-11.550781 2.472656-3.734375 7.386718-4.972656 11.335937-2.851563 22.179687 15.183594 37.753906 38.234376 43.5625 64.476563zm0 0"/><path d="m501.914062 89.640625c-.605468.101563-1.210937.160156-1.824218.175781-.882813-.015625-1.761719-.164062-2.601563-.433594-14.203125-4.605468-29.332031-5.558593-44-2.777343-3.035156.621093-6.175781-.429688-8.230469-2.75-2.058593-2.320313-2.71875-5.5625-1.738281-8.503907.984375-2.941406 3.460938-5.136718 6.5-5.753906 15.691407-3.074218 31.882813-2.453125 47.292969 1.820313 2.011719 5.945312 3.550781 12.039062 4.601562 18.222656zm0 0"/></g><path d="m252.160156 78.101562c-.257812 0-.527344 0-.789062 0-3.824219-.351562-6.960938-3.175781-7.714844-6.941406-2.089844-7.566406-7.007812-14.035156-13.738281-18.070312-10.601563-6.332032-25.683594-6.777344-44.792969-1.316406-4.613281 1.316406-9.417969-1.351563-10.734375-5.964844-1.320313-4.609375 1.347656-9.414063 5.960937-10.734375 24.117188-6.871094 43.917969-5.761719 58.84375 3.34375 3.699219 2.25 7.066407 5 10.007813 8.171875 2.207031-11.367188-1.804687-23.050782-10.535156-30.65625-4-2.660156-5.082031-8.058594-2.421875-12.054688 2.660156-3.996094 8.054687-5.082031 12.054687-2.421875 1.300781.867188 31.664063 21.832031 11.921875 71.160157-1.308594 3.308593-4.503906 5.480468-8.0625 5.484374zm0 0" fill="#e64c3c"/><path d="m252.160156 78.101562c-2.878906 0-5.570312-1.425781-7.1875-3.8125-1.613281-2.382812-1.941406-5.410156-.875-8.085937 15.960938-39.917969 47.730469-43.570313 62.238282-39.917969 4.582031 1.207032 7.347656 5.863282 6.21875 10.460938-1.128907 4.601562-5.738282 7.445312-10.355469 6.390625-2.863281-.660157-28.058594-5.335938-41.976563 29.503906-1.316406 3.300781-4.511718 5.460937-8.0625 5.460937zm0 0" fill="#e64c3c"/><path d="m252.160156 355.796875v69.421875c0 14.378906-11.65625 26.035156-26.03125 26.035156-14.378906 0-26.035156-11.65625-26.035156-26.035156s-11.65625-26.035156-26.035156-26.035156-26.035156 11.65625-26.035156 26.035156v8.679688c0 14.378906-11.652344 26.03125-26.03125 26.03125-14.378907 0-26.035157-11.652344-26.035157-26.03125v-78.101563zm0 0" fill="#90bae1"/><path d="m252.160156 355.796875v52.066406c0 14.378907-11.65625 26.035157-26.03125 26.035157-14.378906 0-26.035156-11.65625-26.035156-26.035157 0-14.378906-11.65625-26.035156-26.035156-26.035156s-26.035156 11.65625-26.035156 26.035156v8.679688c0 14.375-11.652344 26.03125-26.03125 26.03125-14.378907 0-26.035157-11.65625-26.035157-26.03125v-60.746094zm0 0" fill="#b0d3f0"/><path d="m312.90625 269.015625c0 11.800781-10.238281 25.511719-26.035156 34.277344-15.988282 8.984375-34.828125 11.441406-52.585938 6.855469-5.871094-1.585938-11.527344-3.890626-16.835937-6.855469-15.792969-8.765625-26.035157-22.476563-26.035157-34.277344 0-19.179687 27.164063-26.035156 60.746094-26.035156 33.585938 0 60.746094 6.855469 60.746094 26.035156zm0 0" fill="#d75e72"/><path d="m234.804688 286.371094v21c.003906.953125-.171876 1.894531-.519532 2.777344-5.871094-1.585938-11.527344-3.890626-16.835937-6.855469v-16.921875c0-4.792969 3.886719-8.675782 8.679687-8.675782 4.789063 0 8.675782 3.882813 8.675782 8.675782zm0 0" fill="#802d40"/><path d="m286.871094 286.371094v16.921875c-5.308594 2.964843-10.960938 5.269531-16.832032 6.855469-.347656-.882813-.527343-1.824219-.523437-2.777344v-21c0-4.792969 3.886719-8.675782 8.679687-8.675782 4.792969 0 8.675782 3.882813 8.675782 8.675782zm0 0" fill="#802d40"/><path d="m191.414062 182.238281c0 9.582031-7.769531 17.355469-17.355468 17.355469-9.585938 0-17.355469-7.773438-17.355469-17.355469 0-9.585937 7.769531-17.359375 17.355469-17.359375 9.585937 0 17.355468 7.773438 17.355468 17.359375zm0 0" fill="#fff"/><path d="m165.816406 355.796875h-60.746094s-6.855468-68.382813 34.105469-95.894531c.171875-.085938.257813-.171875.433594-.257813 2.984375-1.742187 6.71875-1.554687 9.515625.472657 2.796875 2.03125 4.136719 5.519531 3.414062 8.898437-5.554687 24.558594-11.109374 68.46875 13.277344 86.78125zm0 0" fill="#f9eab0"/><path d="m157.136719 355.796875h-52.066407s-6.855468-68.382813 34.105469-95.894531c.171875-.085938.257813-.171875.433594-.257813 3.355469 1.816407 5.09375 5.648438 4.25 9.371094-5.554687 24.558594-11.105469 68.46875 13.277344 86.78125zm0 0" fill="#f5efca"/><path d="m312.90625 182.238281c0 9.582031-7.769531 17.355469-17.355469 17.355469-9.585937 0-17.355469-7.773438-17.355469-17.355469 0-9.585937 7.769532-17.359375 17.355469-17.359375 9.585938 0 17.355469 7.773438 17.355469 17.359375zm0 0" fill="#fff"/><path d="m399.253906 355.796875h-60.746094c24.382813-18.3125 18.832032-62.222656 13.277344-86.78125-.867187-3.816406 1-7.730469 4.511719-9.457031 2.765625-1.625 6.222656-1.488282 8.851563.34375 40.960937 27.511718 34.105468 95.894531 34.105468 95.894531zm0 0" fill="#f9eab0"/><path d="m391.007812 355.796875h-52.5c24.382813-18.3125 18.832032-62.222656 13.277344-86.78125-.867187-3.816406 1-7.730469 4.511719-9.457031.171875.085937.433594.257812.605469.34375 40.960937 27.511718 34.105468 95.894531 34.105468 95.894531zm0 0" fill="#f5efca"/></svg>