<svg height="511pt" viewBox="0 0 511 511.99444" width="511pt" xmlns="http://www.w3.org/2000/svg"><path d="m257.027344 511.996094c-2.648438 0-5.296875 0-7.941406-.179688-138.429688-3.972656-248.585938-117.335937-248.585938-255.820312-.199219-63.726563 14.269531-126.640625 42.285156-183.878906 3.441406-6.710938 6.617188-12.449219 9.355469-17.039063 1.039063-1.769531 3.160156-2.59375 5.121094-1.980469 1.960937.609375 3.242187 2.492188 3.089843 4.539063-.558593 11.667969-.175781 23.355469 1.144532 34.960937.65625 6.402344 1.808594 12.75 3.445312 18.976563.605469 1.871093 2.371094 3.113281 4.335938 3.050781 1.964844-.058594 3.648437-1.410156 4.136718-3.316406 9.972657-44.429688 38.25-82.582032 77.859376-105.046875 3.53125-2.03125 7.152343-3.972657 10.945312-5.824219 1.320312-.621094 2.855469-.558594 4.117188.160156 1.265624.71875 2.101562 2.007813 2.242187 3.457032.925781 15.140624 3.441406 30.140624 7.5 44.757812 1.203125 3.875 2.890625 7.585938 5.035156 11.03125.882813 1.292969 2.386719 2.019531 3.945313 1.910156 1.5625-.109375 2.949218-1.039062 3.644531-2.4375 4.589844-9.535156 14.566406-35.664062 29.925781-50.582031 3.484375-3.511719 7.582032-6.355469 12.09375-8.386719 1.539063-.648437 3.3125-.3749998 4.582032.707032 1.269531 1.085937 1.820312 2.792968 1.421874 4.414062-2.914062 12.886719-6.09375 39.546875 11.121094 45.992188 2.761719 1.050781 5.699219 1.558593 8.652344 1.5 24.894531 0 23.480469-28.425782 20.480469-44.226563-.265625-1.148437-.441407-2.296875-.707031-3.265625-.398438-1.621094.152343-3.328125 1.421874-4.414062 1.269532-1.0820318 3.042969-1.355469 4.582032-.707032 17.566406 7.589844 30.011718 32.398438 37.25 48.375 1.941406 4.324219 3.53125 8.03125 4.769531 10.59375.695313 1.398438 2.082031 2.328125 3.640625 2.4375 1.5625.109375 3.066406-.617187 3.949219-1.910156 8.472656-12.710938 11.386719-42.105469 12.359375-53.671875.085937-.792969.085937-1.5.175781-2.117187.140625-1.449219.976563-2.738282 2.238281-3.457032 1.265625-.71875 2.800782-.78125 4.117188-.160156 38.886718 18.429688 68.859375 51.546875 83.332031 92.070312 2.195313 6.152344 4.019531 12.433594 5.472656 18.800782.488281 1.90625 2.175781 3.257812 4.140625 3.316406 1.960938.0625 3.730469-1.179688 4.335938-3.050781 3.109375-12.894531 4.710937-26.105469 4.765625-39.371094.175781-5.648437.089843-10.679687-.175781-14.566406-.152344-2.046875 1.125-3.929688 3.085937-4.539063 1.960937-.613281 4.085937.210938 5.125 1.980469 30.558594 54.441406 48.027344 115.25 51.023437 177.613281 8.207032 148.832032-105.757812 278.949219-254.855468 279.304688zm0 0" fill="#24ae5f"/><path d="m249.085938 511.816406c-138.429688-3.972656-248.585938-117.335937-248.585938-255.820312-.199219-63.726563 14.269531-126.640625 42.285156-183.878906.03125 13.289062 1.597656 26.53125 4.675782 39.457031.550781 1.953125 2.359374 3.277343 4.386718 3.214843s3.75-1.496093 4.175782-3.480468c1.402343-6.351563 3.230468-12.605469 5.472656-18.710938.65625 6.402344 1.808594 12.75 3.445312 18.976563.605469 1.871093 2.371094 3.113281 4.335938 3.050781 1.964844-.058594 3.648437-1.410156 4.136718-3.316406 9.972657-44.429688 38.25-82.582032 77.859376-105.046875.972656 11.5625 3.972656 40.871093 12.359374 53.582031.898438 1.300781 2.414063 2.03125 3.992188 1.921875 1.574219-.105469 2.976562-1.039063 3.6875-2.449219 1.238281-2.472656 2.738281-6.179687 4.765625-10.503906 1.203125 3.875 2.890625 7.585938 5.035156 11.03125.882813 1.292969 2.386719 2.019531 3.945313 1.910156 1.5625-.109375 2.949218-1.039062 3.644531-2.4375 4.589844-9.535156 14.566406-35.664062 29.925781-50.582031-3 15.800781-4.414062 44.226563 20.480469 44.226563 2.980469.050781 5.945313-.460938 8.738281-1.5 2.761719 1.050781 5.699219 1.558593 8.652344 1.5 24.894531 0 23.480469-28.425782 20.480469-44.226563 15.359375 14.917969 25.246093 41.046875 29.835937 50.582031.710938 1.410156 2.113282 2.34375 3.6875 2.449219 1.578125.109375 3.09375-.621094 3.992188-1.921875 2.15625-3.46875 3.847656-7.210938 5.03125-11.121094 1.941406 4.324219 3.53125 8.03125 4.769531 10.59375.695313 1.398438 2.082031 2.328125 3.640625 2.4375 1.5625.109375 3.066406-.617187 3.949219-1.910156 8.472656-12.710938 11.386719-42.105469 12.359375-53.671875 39.601562 22.519531 67.871094 60.691406 77.859375 105.136719.425781 1.984375 2.152343 3.417968 4.175781 3.480468 2.027344.0625 3.835938-1.261718 4.386719-3.214843 1.59375-6.265625 2.742187-12.636719 3.441406-19.066407 2.195313 6.152344 4.019531 12.433594 5.472656 18.800782.488281 1.90625 2.175781 3.257812 4.140625 3.316406 1.960938.0625 3.730469-1.179688 4.335938-3.050781 3.109375-12.894531 4.710937-26.105469 4.765625-39.371094 24.484375 50.164063 38.625 104.742187 41.578125 160.488281 8.035156 145.652344-100.988282 273.386719-245.316406 279.125zm0 0" fill="#4fba6f"/><path d="m230.015625 194.203125c.035156 13.859375-3.621094 27.476563-10.59375 39.457031-4.785156-2.144531-9.710937-3.972656-14.742187-5.472656 11.019531-23.183594 10.140624-50.261719-2.359376-72.679688-12.496093-22.417968-35.066406-37.40625-60.578124-40.226562 2.925781-.351562 5.875-.53125 8.824218-.527344 43.878906 0 79.449219 35.570313 79.449219 79.449219zm0 0" fill="#e6e7e8"/><path d="m212.359375 194.203125c.015625 11.757813-2.609375 23.371094-7.679687 33.984375-6.878907-2.109375-13.898438-3.734375-21.007813-4.855469-10.941406-1.8125-22.015625-2.695312-33.105469-2.648437-3 0-5.914062.089844-8.824218.265625-8.132813.316406-16.238282 1.113281-24.277344 2.382812-12.324219 1.839844-24.347656 5.3125-35.75 10.328125-1.0625-1.765625-2.03125-3.617187-2.914063-5.472656-11.015625-23.183594-10.136719-50.261719 2.359375-72.679688 12.496094-22.417968 35.070313-37.40625 60.582032-40.226562 40.210937 4.46875 70.628906 38.460938 70.617187 78.921875zm0 0" fill="#fff"/><path d="m441.878906 194.203125c.035156 13.859375-3.621094 27.476563-10.59375 39.457031-4.789062-2.144531-9.714844-3.972656-14.742187-5.472656 11.015625-23.183594 10.136719-50.261719-2.359375-72.679688-12.5-22.417968-35.070313-37.40625-60.582032-40.226562 2.929688-.351562 5.878907-.53125 8.828126-.527344 43.878906 0 79.449218 35.570313 79.449218 79.449219zm0 0" fill="#e6e7e8"/><path d="m424.222656 194.203125c.015625 11.757813-2.609375 23.371094-7.679687 33.984375-17.570313-5.144531-35.804688-7.675781-54.113281-7.503906-3 0-5.914063.089844-8.828126.265625-20.632812.390625-41.003906 4.703125-60.027343 12.710937-1.058594-1.765625-2.03125-3.617187-2.914063-5.472656-11.015625-23.183594-10.136718-50.261719 2.363282-72.679688 12.496093-22.417968 35.066406-37.40625 60.578124-40.226562 40.210938 4.46875 70.628907 38.460938 70.621094 78.921875zm0 0" fill="#fff"/><path d="m194.707031 194.203125c.011719 10.730469-3.914062 21.097656-11.035156 29.128906-10.941406-1.8125-22.015625-2.695312-33.105469-2.648437-3 0-5.914062.089844-8.824218.265625-8.132813.316406-16.238282 1.113281-24.277344 2.382812-12.992188-14.730469-14.6875-36.277343-4.15625-52.859375 10.53125-16.578125 30.753906-24.207031 49.613281-18.707031 18.855469 5.496094 31.8125 22.792969 31.785156 42.4375zm0 0" fill="#2fa8cc"/><path d="m406.566406 194.203125c.015625 10.730469-3.910156 21.097656-11.03125 29.128906-10.941406-1.8125-22.015625-2.695312-33.105468-2.648437-3 0-5.914063.089844-8.828126.265625-8.128906.316406-16.238281 1.113281-24.273437 2.382812-12.992187-14.730469-14.6875-36.277343-4.15625-52.859375 10.53125-16.578125 30.753906-24.207031 49.609375-18.707031 18.859375 5.496094 31.816406 22.792969 31.785156 42.4375zm0 0" fill="#2fa8cc"/><path d="m177.050781 194.203125c0 14.625-11.855469 26.480469-26.484375 26.480469-14.625 0-26.480468-11.855469-26.480468-26.480469 0-14.628906 11.855468-26.484375 26.480468-26.484375 14.628906 0 26.484375 11.855469 26.484375 26.484375zm0 0" fill="#2c2f38"/><path d="m388.914062 194.203125c0 14.625-11.859374 26.480469-26.484374 26.480469s-26.480469-11.855469-26.480469-26.480469c0-14.628906 11.855469-26.484375 26.480469-26.484375s26.484374 11.855469 26.484374 26.484375zm0 0" fill="#2c2f38"/><path d="m327.121094 256.878906c0 9.621094-14.214844 25.773438-35.3125 35.308594-5.535156 2.570312-11.335938 4.527344-17.300782 5.828125-11.839843 2.824219-24.175781 2.824219-36.015624 0-5.964844-1.300781-11.765626-3.257813-17.304688-5.828125-21.097656-9.535156-35.308594-25.6875-35.308594-35.308594 0-14.300781 31.601563-8.566406 70.621094-8.566406 39.015625 0 70.621094-5.734375 70.621094 8.566406zm0 0" fill="#d75e72"/><path d="m238.84375 282.476562v13.242188c.019531.78125-.101562 1.558594-.351562 2.296875-5.964844-1.300781-11.765626-3.257813-17.304688-5.828125v-9.710938c0-4.875 3.953125-8.828124 8.828125-8.828124s8.828125 3.953124 8.828125 8.828124zm0 0" fill="#802d40"/><path d="m291.808594 282.476562v9.710938c-5.535156 2.570312-11.335938 4.527344-17.300782 5.828125-.253906-.738281-.371093-1.515625-.351562-2.296875v-13.242188c0-4.875 3.949219-8.828124 8.824219-8.828124s8.828125 3.953124 8.828125 8.828124zm0 0" fill="#802d40"/><path d="m256.550781 476.683594h-.105469c-38.644531 0-67.785156-31.230469-60.664062-65.023438l16.066406-76.21875h89.300782l16.066406 76.21875c7.125 33.792969-22.015625 65.023438-60.664063 65.023438zm0 0" fill="#df4d60"/><path d="m256.542969 459.027344h-.042969c-33.820312 0-59.3125-27.363282-53.082031-56.890625l14.011719-66.695313h78.140624l14.054688 66.695313c6.230469 29.527343-19.261719 56.890625-53.082031 56.890625zm0 0" fill="#ff5364"/><path d="m256.5 414.890625c-4.875 0-8.828125-3.953125-8.828125-8.828125v-70.621094c0-4.875 3.953125-8.828125 8.828125-8.828125s8.828125 3.953125 8.828125 8.828125v70.621094c0 4.875-3.953125 8.828125-8.828125 8.828125zm0 0" fill="#df4d60"/><path d="m388.914062 344.269531h-264.828124c-29.242188-.027343-52.9375-23.726562-52.964844-52.964843 0-4.875 3.949218-8.828126 8.828125-8.828126 4.875 0 8.824219 3.953126 8.824219 8.828126 0 19.5 15.8125 35.308593 35.3125 35.308593h264.828124c19.5 0 35.308594-15.808593 35.308594-35.308593 0-4.875 3.953125-8.828126 8.828125-8.828126s8.828125 3.953126 8.828125 8.828126c-.03125 29.238281-23.726562 52.9375-52.964844 52.964843zm0 0" fill="#802d40"/><g fill="#fff"><path d="m150.566406 158.890625c0 14.625-11.855468 26.484375-26.480468 26.484375s-26.484376-11.859375-26.484376-26.484375 11.859376-26.480469 26.484376-26.480469 26.480468 11.855469 26.480468 26.480469zm0 0"/><path d="m362.429688 158.890625c0 14.625-11.855469 26.484375-26.480469 26.484375-14.628907 0-26.484375-11.859375-26.484375-26.484375s11.855468-26.480469 26.484375-26.480469c14.625 0 26.480469 11.855469 26.480469 26.480469zm0 0"/></g></svg>